<!-- Generator: Adobe Illustrator 18.1.1, SVG Export Plug-In  -->
<svg version="1.1"
	 xmlns="http://www.w3.org/2000/svg" xmlns:xlink="http://www.w3.org/1999/xlink" xmlns:a="http://ns.adobe.com/AdobeSVGViewerExtensions/3.0/"
	 x="0px" y="0px" width="576px" height="828px" viewBox="0 0 576 828" enable-background="new 0 0 576 828" xml:space="preserve">
<defs>
</defs>
<rect fill="#FCEFD5" width="576" height="828"/>
<g>
	<path fill="none" stroke="#70C9BE" stroke-miterlimit="10" d="M216.309,500.456"/>
	<g>
		<g>
			<g>
				<g>
					<g>
						<g>
							<path fill="#70C9BE" d="M270.934,604.31c-8.887,0-16.091,7.202-16.091,16.091c0,8.889,7.204,16.091,16.091,16.091
								s16.091-7.202,16.091-16.091C287.024,611.512,279.82,604.31,270.934,604.31z M270.934,634.65
								c-7.87,0-14.25-6.379-14.25-14.25s6.38-14.25,14.25-14.25s14.25,6.379,14.25,14.25S278.804,634.65,270.934,634.65z"/>
							<circle fill="#70C9BE" cx="270.934" cy="620.4" r="4.25"/>
							<path fill="#70C9BE" d="M270.934,612.758c-4.221,0-7.643,3.421-7.643,7.643s3.422,7.643,7.643,7.643s7.643-3.421,7.643-7.643
								S275.154,612.758,270.934,612.758z M270.934,626.4c-3.314,0-6-2.686-6-6c0-3.315,2.686-6,6-6s6,2.685,6,6
								C276.934,623.715,274.247,626.4,270.934,626.4z"/>
						</g>
						<path fill="#70C9BE" d="M263.291,620.4"/>
						<path fill="none" stroke="#70C9BE" stroke-miterlimit="10" d="M268.936,618.337c0,0,1.904-8.717,3.995,0"/>
						<path fill="none" stroke="#70C9BE" stroke-miterlimit="10" d="M271.459,617.898c0,0,7.511-4.817,2.825,2.824"/>
						<path fill="none" stroke="#70C9BE" stroke-miterlimit="10" d="M273.504,619.341c0,0,8.083,3.779-0.881,3.896"/>
						<path fill="none" stroke="#70C9BE" stroke-miterlimit="10" d="M273.956,622.345c0,0,0.157,8.92-3.886,0.921"/>
						<path fill="none" stroke="#70C9BE" stroke-miterlimit="10" d="M271.084,623.509c0,0-6.793,5.784-3.179-2.419"/>
						<path fill="none" stroke="#70C9BE" stroke-miterlimit="10" d="M268.626,622.555c0,0-8.727-1.854-0.022-3.994"/>
						<path fill="none" stroke="#70C9BE" stroke-miterlimit="10" d="M267.809,620.308c0,0-5.131-7.298,2.703-2.94"/>
						<path fill="none" stroke="#70C9BE" stroke-miterlimit="10" d="M266.424,617.816"/>
					</g>
					<path fill="none" stroke="#70C9BE" stroke-miterlimit="10" d="M287.494,621.146c-0.596-0.104-1.179-0.181-1.74-0.226
						c0.002-0.119,0-0.238,0-0.356c0.561-0.045,1.144-0.121,1.74-0.226c3.827-0.675,6.733-2.339,6.49-3.72
						c-0.243-1.378-3.543-1.949-7.37-1.274c-0.597,0.104-1.171,0.235-1.714,0.383c-0.039-0.113-0.08-0.226-0.121-0.337
						c0.511-0.235,1.033-0.502,1.559-0.805c3.364-1.942,5.525-4.502,4.827-5.715c-0.701-1.211-3.997-0.619-7.363,1.323
						c-0.526,0.305-1.018,0.624-1.479,0.948c-0.075-0.093-0.15-0.187-0.229-0.277c0.4-0.398,0.8-0.825,1.189-1.291
						c2.498-2.975,3.652-6.118,2.581-7.021c-1.073-0.899-3.968,0.785-6.467,3.764c-0.389,0.462-0.741,0.929-1.062,1.393
						c-0.102-0.061-0.207-0.121-0.311-0.181c0.24-0.508,0.467-1.049,0.674-1.616c1.328-3.652,1.339-6.999,0.023-7.482
						c-1.316-0.477-3.461,2.096-4.789,5.748c-0.208,0.569-0.379,1.13-0.522,1.676c-0.06-0.011-0.118-0.025-0.179-0.037
						c-0.059-0.009-0.116-0.017-0.175-0.025c0.052-0.562,0.079-1.149,0.079-1.756c0-3.884-1.135-7.034-2.535-7.034
						c-1.4,0-2.536,3.15-2.536,7.034c0,0.604,0.028,1.192,0.08,1.753c-0.119,0.02-0.236,0.04-0.354,0.06
						c-0.143-0.543-0.314-1.103-0.521-1.672c-1.33-3.651-3.474-6.224-4.79-5.744c-1.315,0.479-1.304,3.826,0.025,7.479
						c0.207,0.567,0.433,1.108,0.674,1.618c-0.104,0.058-0.207,0.121-0.309,0.181c-0.321-0.463-0.675-0.93-1.065-1.394
						c-2.498-2.977-5.393-4.661-6.466-3.763c-1.072,0.901,0.083,4.044,2.582,7.019c0.39,0.466,0.789,0.894,1.189,1.291
						c-0.078,0.09-0.155,0.185-0.232,0.277c-0.46-0.326-0.952-0.644-1.477-0.948c-3.365-1.942-6.662-2.533-7.362-1.323
						c-0.7,1.213,1.461,3.772,4.827,5.715c0.525,0.303,1.047,0.569,1.559,0.805c-0.042,0.111-0.084,0.224-0.124,0.337
						c-0.542-0.148-1.116-0.278-1.712-0.383c-3.828-0.675-7.127-0.104-7.371,1.275c-0.243,1.38,2.663,3.044,6.491,3.719
						c0.595,0.104,1.178,0.181,1.739,0.226c-0.001,0.119-0.001,0.238,0.001,0.356c-0.561,0.045-1.145,0.121-1.74,0.226
						c-3.828,0.676-6.733,2.341-6.491,3.72c0.243,1.378,3.543,1.949,7.371,1.274c0.596-0.105,1.17-0.235,1.712-0.383
						c0.04,0.113,0.08,0.226,0.123,0.337c-0.512,0.235-1.034,0.502-1.559,0.805c-3.365,1.943-5.526,4.502-4.826,5.715
						c0.701,1.211,3.997,0.619,7.362-1.324c0.526-0.304,1.018-0.622,1.479-0.949c0.076,0.095,0.151,0.189,0.229,0.279
						c-0.4,0.397-0.799,0.825-1.19,1.29c-2.497,2.976-3.653,6.119-2.581,7.021c1.073,0.899,3.969-0.784,6.466-3.763
						c0.389-0.462,0.741-0.929,1.061-1.393c0.104,0.061,0.208,0.121,0.312,0.18c-0.24,0.509-0.467,1.05-0.673,1.617
						c-1.329,3.653-1.34,7-0.025,7.481c1.317,0.478,3.461-2.095,4.79-5.747c0.207-0.57,0.379-1.131,0.522-1.677
						c0.059,0.011,0.117,0.025,0.177,0.036c0.058,0.01,0.116,0.018,0.176,0.026c-0.053,0.561-0.081,1.15-0.081,1.757
						c0.001,3.884,1.136,7.034,2.536,7.035c1.4-0.001,2.536-3.151,2.536-7.036c0-0.606-0.028-1.192-0.079-1.753
						c0.118-0.019,0.236-0.039,0.353-0.061c0.143,0.544,0.315,1.105,0.522,1.673c1.328,3.652,3.473,6.225,4.789,5.747
						c1.315-0.481,1.306-3.829-0.025-7.481c-0.207-0.568-0.434-1.109-0.674-1.618c0.105-0.06,0.206-0.121,0.308-0.182
						c0.322,0.462,0.676,0.931,1.065,1.396c2.499,2.977,5.393,4.662,6.467,3.763c1.071-0.901-0.083-4.045-2.581-7.021
						c-0.391-0.466-0.789-0.894-1.19-1.29c0.079-0.091,0.155-0.184,0.231-0.277c0.461,0.325,0.953,0.645,1.478,0.947
						c3.366,1.943,6.662,2.534,7.363,1.324c0.699-1.213-1.463-3.772-4.827-5.715c-0.525-0.304-1.048-0.57-1.56-0.808
						c0.042-0.109,0.083-0.221,0.122-0.335c0.543,0.148,1.117,0.278,1.714,0.384c3.826,0.674,7.125,0.104,7.37-1.274
						C294.227,623.484,291.322,621.82,287.494,621.146z"/>
					<circle fill="none" stroke="#70C9BE" stroke-miterlimit="10" cx="270.511" cy="621.288" r="29.528"/>
					<circle fill="none" stroke="#70C9BE" stroke-miterlimit="10" cx="270.511" cy="621.288" r="25.346"/>
					<g>
						<line fill="none" stroke="#70C9BE" stroke-miterlimit="10" x1="270.725" y1="591.76" x2="270.725" y2="595.885"/>
						<line fill="none" stroke="#70C9BE" stroke-miterlimit="10" x1="265.634" y1="592.211" x2="266.341" y2="596.273"/>
						<line fill="none" stroke="#70C9BE" stroke-miterlimit="10" x1="260.698" y1="593.552" x2="262.09" y2="597.428"/>
						<line fill="none" stroke="#70C9BE" stroke-miterlimit="10" x1="256.067" y1="595.74" x2="258.102" y2="599.312"/>
						<line fill="none" stroke="#70C9BE" stroke-miterlimit="10" x1="251.881" y1="598.711" x2="254.497" y2="601.869"/>
						<line fill="none" stroke="#70C9BE" stroke-miterlimit="10" x1="248.268" y1="602.373" x2="251.385" y2="605.023"/>
						<line fill="none" stroke="#70C9BE" stroke-miterlimit="10" x1="245.336" y1="606.615" x2="248.86" y2="608.677"/>
						<line fill="none" stroke="#70C9BE" stroke-miterlimit="10" x1="243.177" y1="611.31" x2="247.001" y2="612.72"/>
						<line fill="none" stroke="#70C9BE" stroke-miterlimit="10" x1="241.854" y1="616.313" x2="245.862" y2="617.028"/>
						<line fill="none" stroke="#70C9BE" stroke-miterlimit="10" x1="241.409" y1="621.472" x2="245.479" y2="621.472"/>
						<line fill="none" stroke="#70C9BE" stroke-miterlimit="10" x1="241.854" y1="626.631" x2="245.863" y2="625.914"/>
						<line fill="none" stroke="#70C9BE" stroke-miterlimit="10" x1="243.177" y1="631.634" x2="247.002" y2="630.223"/>
						<line fill="none" stroke="#70C9BE" stroke-miterlimit="10" x1="245.336" y1="636.328" x2="248.861" y2="634.264"/>
						<line fill="none" stroke="#70C9BE" stroke-miterlimit="10" x1="248.268" y1="640.57" x2="251.385" y2="637.918"/>
						<line fill="none" stroke="#70C9BE" stroke-miterlimit="10" x1="251.88" y1="644.232" x2="254.497" y2="641.072"/>
						<line fill="none" stroke="#70C9BE" stroke-miterlimit="10" x1="256.066" y1="647.203" x2="258.102" y2="643.631"/>
						<line fill="none" stroke="#70C9BE" stroke-miterlimit="10" x1="260.697" y1="649.392" x2="262.089" y2="645.516"/>
						<line fill="none" stroke="#70C9BE" stroke-miterlimit="10" x1="265.633" y1="650.732" x2="266.34" y2="646.67"/>
						<line fill="none" stroke="#70C9BE" stroke-miterlimit="10" x1="270.724" y1="651.184" x2="270.724" y2="647.06"/>
						<line fill="none" stroke="#70C9BE" stroke-miterlimit="10" x1="275.814" y1="650.732" x2="275.107" y2="646.67"/>
						<line fill="none" stroke="#70C9BE" stroke-miterlimit="10" x1="280.749" y1="649.392" x2="279.358" y2="645.515"/>
						<line fill="none" stroke="#70C9BE" stroke-miterlimit="10" x1="285.381" y1="647.203" x2="283.346" y2="643.63"/>
						<line fill="none" stroke="#70C9BE" stroke-miterlimit="10" x1="289.566" y1="644.232" x2="286.951" y2="641.072"/>
						<line fill="none" stroke="#70C9BE" stroke-miterlimit="10" x1="293.181" y1="640.571" x2="290.062" y2="637.919"/>
						<line fill="none" stroke="#70C9BE" stroke-miterlimit="10" x1="296.112" y1="636.33" x2="292.587" y2="634.266"/>
						<line fill="none" stroke="#70C9BE" stroke-miterlimit="10" x1="298.27" y1="631.636" x2="294.446" y2="630.224"/>
						<line fill="none" stroke="#70C9BE" stroke-miterlimit="10" x1="299.593" y1="626.633" x2="295.587" y2="625.915"/>
						<line fill="none" stroke="#70C9BE" stroke-miterlimit="10" x1="300.039" y1="621.474" x2="295.968" y2="621.472"/>
						<line fill="none" stroke="#70C9BE" stroke-miterlimit="10" x1="299.595" y1="616.315" x2="295.585" y2="617.029"/>
						<line fill="none" stroke="#70C9BE" stroke-miterlimit="10" x1="298.272" y1="611.312" x2="294.446" y2="612.721"/>
						<line fill="none" stroke="#70C9BE" stroke-miterlimit="10" x1="296.114" y1="606.617" x2="292.586" y2="608.679"/>
						<line fill="none" stroke="#70C9BE" stroke-miterlimit="10" x1="289.569" y1="598.711" x2="286.95" y2="601.872"/>
						<line fill="none" stroke="#70C9BE" stroke-miterlimit="10" x1="285.383" y1="595.74" x2="283.346" y2="599.315"/>
						<line fill="none" stroke="#70C9BE" stroke-miterlimit="10" x1="280.751" y1="593.552" x2="279.358" y2="597.431"/>
						<line fill="none" stroke="#70C9BE" stroke-miterlimit="10" x1="275.815" y1="592.21" x2="275.108" y2="596.275"/>
					</g>
				</g>
				<g>
					<path fill="none" stroke="#70C9BE" stroke-miterlimit="10" d="M302.828,621.801c0,29.449-14.471,53.321-32.314,53.321
						c-17.849,0-32.317-23.872-32.317-53.321c0-29.448,14.469-53.32,32.317-53.32C288.357,568.481,302.828,592.352,302.828,621.801z
						"/>
					<path fill="none" stroke="#70C9BE" stroke-miterlimit="10" d="M300.876,610.745c10.068,27.671,4.632,55.056-12.136,61.163
						c-16.77,6.108-38.529-11.377-48.593-39.051c-10.068-27.671-4.637-55.056,12.138-61.163
						C269.052,565.59,290.81,583.075,300.876,610.745z"/>
					<path fill="none" stroke="#70C9BE" stroke-miterlimit="10" d="M295.263,601.025c18.919,22.557,23.176,50.148,9.504,61.627
						c-13.669,11.478-40.093,2.492-59.012-20.068c-18.919-22.555-23.175-50.148-9.503-61.626
						C249.92,569.481,276.346,578.465,295.263,601.025z"/>
					<path fill="none" stroke="#70C9BE" stroke-miterlimit="10" d="M286.668,593.81c25.486,14.721,38.921,39.194,29.994,54.661
						c-8.918,15.462-36.82,16.057-62.311,1.332c-25.487-14.725-38.921-39.193-29.998-54.656
						C233.274,579.685,261.178,579.083,286.668,593.81z"/>
					<path fill="none" stroke="#70C9BE" stroke-miterlimit="10" d="M276.122,589.973c28.984,5.111,49.972,23.509,46.874,41.098
						c-3.099,17.582-29.113,27.688-58.101,22.572c-28.983-5.114-49.972-23.51-46.873-41.094
						C221.121,594.97,247.136,584.854,276.122,589.973z"/>
					<path fill="none" stroke="#70C9BE" stroke-miterlimit="10" d="M264.9,589.973c28.987-5.116,54.996,4.993,58.1,22.582
						c3.098,17.578-17.894,35.981-46.884,41.092c-28.983,5.111-54.996-4.994-58.094-22.578
						C214.924,613.488,235.913,595.081,264.9,589.973z"/>
					<path fill="none" stroke="#70C9BE" stroke-miterlimit="10" d="M254.354,593.812c25.489-14.723,53.386-14.126,62.318,1.341
						c8.919,15.462-4.515,39.932-30.009,54.656c-25.49,14.724-53.387,14.129-62.311-1.339
						C215.434,633.014,228.864,608.53,254.354,593.812z"/>
					<path fill="none" stroke="#70C9BE" stroke-miterlimit="10" d="M245.759,601.031c18.918-22.557,45.337-31.544,59.018-20.067
						c13.67,11.477,9.409,39.07-9.514,61.629c-18.917,22.56-45.335,31.546-59.011,20.065
						C222.586,651.188,226.836,623.585,245.759,601.031z"/>
					<path fill="none" stroke="#70C9BE" stroke-miterlimit="10" d="M240.149,610.755c10.065-27.667,31.817-45.155,48.597-39.05
						c16.771,6.107,22.198,33.494,12.13,61.164c-10.066,27.676-31.818,45.159-48.591,39.052
						C235.52,665.815,230.079,638.422,240.149,610.755z"/>
				</g>
				<path fill="none" stroke="#70C9BE" stroke-width="3" stroke-miterlimit="10" d="M337.366,621.346
					c0-5.794-4.585-11.155-12.36-15.551c-1.229-4.364-2.96-8.518-5.132-12.392c2.391-8.608,1.842-15.642-2.255-19.739
					c-4.1-4.096-11.132-4.646-19.738-2.254c-3.875-2.174-8.028-3.905-12.394-5.135c-4.396-7.776-9.757-12.361-15.551-12.361
					c-5.793,0-11.155,4.585-15.55,12.361c-4.366,1.229-8.519,2.96-12.395,5.134c-8.606-2.392-15.64-1.841-19.737,2.255
					c-4.097,4.098-4.646,11.129-2.255,19.735c-2.173,3.876-3.905,8.03-5.135,12.396c-7.774,4.396-12.359,9.758-12.359,15.55
					s4.585,11.153,12.359,15.55c1.23,4.365,2.961,8.519,5.135,12.394c-2.391,8.608-1.841,15.64,2.255,19.737
					c4.097,4.096,11.129,4.646,19.736,2.256c3.876,2.173,8.03,3.903,12.396,5.134c4.396,7.774,9.757,12.358,15.55,12.358
					c5.793,0,11.154-4.584,15.55-12.359c4.365-1.231,8.521-2.961,12.396-5.134c8.605,2.39,15.638,1.839,19.734-2.257
					c4.096-4.097,4.647-11.129,2.257-19.735c2.173-3.875,3.903-8.028,5.133-12.393C332.781,632.501,337.366,627.14,337.366,621.346z
					"/>
			</g>
			<g>
				<path fill="none" stroke="#70C9BE" stroke-width="3" stroke-miterlimit="10" d="M321.977,582.287
					c0,0,13.238-15.641,10.277-33.743c-1.979-12.086-1.159-45.371-1.159-45.371s-28.285,20.379-40.257,25.567
					c-16.963,7.353-17.668,25.132-17.668,25.132"/>
				<path fill="none" stroke="#70C9BE" stroke-width="3" stroke-miterlimit="10" d="M274.113,553.957
					c0,0-1.799-21.152-17.574-30.218c-10.533-6.053-35.595-27.644-35.595-27.644s-2.141,35.056-5.686,47.731
					c-5.025,17.956,6.604,29.585,6.604,29.585"/>
				<path fill="none" stroke="#70C9BE" stroke-width="3" stroke-miterlimit="10" d="M222.521,572.725
					c0,0-15.798-11.784-32.693-5.089c-11.279,4.468-43.644,10.578-43.644,10.578s25.593,23.743,33.102,34.507
					c10.636,15.25,24.968,12.28,24.968,12.28"/>
				<path fill="none" stroke="#70C9BE" stroke-width="3" stroke-miterlimit="10" d="M204.142,624.052
					c0,0-17.075,6.146-22.563,23.638c-3.663,11.677-19.336,40.958-19.336,40.958s34.352-5.171,47.349-4.299
					c18.414,1.239,25.151-11.895,25.151-11.895"/>
				<path fill="none" stroke="#70C9BE" stroke-width="3" stroke-miterlimit="10" d="M233.94,671.944c0,0-6.022,17.288,3.964,32.608
					c6.67,10.228,19.308,40.973,19.308,40.973s17.644-30.252,26.493-39.918c12.541-13.69,6.239-30.641,6.239-30.641"/>
				<path fill="none" stroke="#70C9BE" stroke-width="3" stroke-miterlimit="10" d="M289.048,675.277c0,0,9.945,19,28.002,20.791
					c12.057,1.195,43.637,10.612,43.637,10.612s-12.143-32.905-14.004-45.943c-2.628-18.472-20.206-24.695-20.206-24.695"/>
				<path fill="none" stroke="#70C9BE" stroke-width="3" stroke-miterlimit="10" d="M326.151,636.94c0,0,21.446,4.653,34.186-8.411
					c8.506-8.725,35.616-27.616,35.616-27.616s-32.928-11.166-44.118-17.909c-15.849-9.56-29.859,0.142-29.859,0.142"/>
			</g>
		</g>
		<path fill="none" stroke="#70C9BE" stroke-width="2" stroke-miterlimit="10" d="M277.428,556.562c0,0,3.628-13.44,16.922-18.774
			c13.294-5.334,21.446-10.678,22.779-12.011c0,0-1.448,7.027,4.848,26.677s-4.358,19.881-4.358,21.21"/>
		<path fill="none" stroke="#70C9BE" stroke-width="2" stroke-miterlimit="10" d="M226.139,570.489c0,0-6.692-12.207-0.797-25.263
			c5.895-13.055,2.861-30.222,2.899-32.107c0,0,9.035,13.738,27.186,23.551c18.15,9.812,10.626,17.358,11.547,18.316"/>
		<path fill="none" stroke="#70C9BE" stroke-width="2" stroke-miterlimit="10" d="M321.977,588.644c0,0,14.934-6.162,27.156,1.307
			c12.222,7.47,21.379,10.812,23.244,11.083c0,0-6.499,3.04-18.489,19.832c-11.989,16.793-18.543,8.391-19.608,9.185"/>
		<path fill="none" stroke="#70C9BE" stroke-width="2" stroke-miterlimit="10" d="M226.259,671.698c0,0-12.338,6.634-26.62,5.529
			c-11.954-0.925-17.79,2.689-19.664,2.893c0,0-6.087-19.008,12-28.937c19.333-10.612,19.443-14.851,20.275-15.886"/>
		<path fill="none" stroke="#70C9BE" stroke-width="2" stroke-miterlimit="10" d="M203.576,619.004c0,0-15.994-2.273-22.733-14.913
			c-6.737-12.641-12.929-20.169-14.398-21.35c0,0,7.143,0.681,25.998-7.698c18.855-8.382,24.832,9.89,26.153,9.746"/>
		<path fill="none" stroke="#70C9BE" stroke-width="2" stroke-miterlimit="10" d="M280.751,683.115c0,0,4.169,16.678-7.281,25.284
			c-11.451,8.604-9.238,13.087-10.179,14.721c0,0-9.125-4.365-20.31-21.704c-11.187-17.338-0.645-28.85-0.99-30.133"/>
		<path fill="none" stroke="#70C9BE" stroke-width="2" stroke-miterlimit="10" d="M322.895,644.231c0,0,14.234,7.64,16.21,21.827
			c1.974,14.186,0.899,26.115,1.872,27.729c0,0-2.175-5.826-22.762-4.449c-20.588,1.378-16.228-15.893-17.517-16.213"/>
		<path fill="#70C9BE" d="M245.089,568.481c0,0-16.845-23.443-6.892-26.676c0,0,10.07-3.768,8.804,5.232c0,0-5.822,3.5-8.804-2
			c0,0-6.118-0.38,8.804,22.25L245.089,568.481z"/>
		<path fill="#70C9BE" d="M214.084,603.885c0,0-27.677-8.203-21.792-16.858c0,0,5.649-9.147,10.163-1.26
			c0,0-2.456,6.334-8.183,3.814c0,0-5.067,3.449,20.592,12.189L214.084,603.885z"/>
		<path fill="#70C9BE" d="M220.099,657.734c0,0-24.356,15.494-27.022,5.374c0,0-3.192-10.267,5.721-8.494
			c0,0,3.166,6.011-2.494,8.677c0,0-0.724,6.087,22.712-7.533L220.099,657.734z"/>
		<path fill="#70C9BE" d="M290.443,567.808c0,0,6.805-28.055,15.742-22.611c0,0,9.421,5.184,1.769,10.088
			c0,0-6.449-2.136-4.22-7.982c0,0-3.699-4.888-11.14,21.178L290.443,567.808z"/>
		<path fill="#70C9BE" d="M329.331,608.473c0,0,23.297-17.049,26.615-7.124c0,0,3.855,10.038-5.156,8.85c0,0-3.55-5.792,1.925-8.821
			c0,0,0.326-6.12-22.174,8.997L329.331,608.473z"/>
		<path fill="#70C9BE" d="M270.055,687.537c0,0-4.876,19.24-14.669,15.552c0,0-10.22-3.344-3.612-9.585c0,0,6.733,0.901,5.629,7.06
			c0,0,5.888,6.117,10.414-13.287L270.055,687.537z"/>
		<path fill="#70C9BE" d="M320.242,664.787c0,0,17.871,12.945,8.756,18.085c0,0-9.126,5.688-9.667-3.386
			c0,0,5.015-4.583,9.026,0.218c0,0,0.974-4.994-9.753-13.369L320.242,664.787z"/>
	</g>
	<g>
		<path fill="none" stroke="#70C9BE" stroke-width="2" stroke-miterlimit="10" d="M234.717,507.73c0,0,42.663-38.067,82.211,5.933
			l-7.102,4.066c0,0-27.976-32.129-66.152-4.129L234.717,507.73z"/>
		<line fill="none" stroke="#70C9BE" stroke-miterlimit="10" x1="240.753" y1="503.269" x2="248.262" y2="510.501"/>
		<line fill="none" stroke="#70C9BE" stroke-miterlimit="10" x1="253.197" y1="507.723" x2="247.962" y2="498.846"/>
		<line fill="none" stroke="#70C9BE" stroke-miterlimit="10" x1="257.499" y1="495.213" x2="260.494" y2="504.666"/>
		<path fill="none" stroke="#70C9BE" stroke-miterlimit="10" d="M238.197,504.666"/>
		<line fill="none" stroke="#70C9BE" stroke-miterlimit="10" x1="267.618" y1="492.906" x2="268.314" y2="502.774"/>
		<line fill="none" stroke="#70C9BE" stroke-miterlimit="10" x1="277.133" y1="492.441" x2="275.823" y2="502.287"/>
		<line fill="none" stroke="#70C9BE" stroke-miterlimit="10" x1="285.836" y1="493.776" x2="283.923" y2="502.774"/>
		<line fill="none" stroke="#70C9BE" stroke-miterlimit="10" x1="293.498" y1="496.286" x2="290.392" y2="504.666"/>
		<line fill="none" stroke="#70C9BE" stroke-miterlimit="10" x1="294.545" y1="506.885" x2="301.559" y2="500.477"/>
		<line fill="none" stroke="#70C9BE" stroke-miterlimit="10" x1="306.993" y1="503.681" x2="300.341" y2="510.124"/>
		<line fill="none" stroke="#70C9BE" stroke-miterlimit="10" x1="311.53" y1="508.172" x2="304.731" y2="513.251"/>
	</g>
	<g>
		<path fill="none" stroke="#70C9BE" stroke-width="2" stroke-miterlimit="10" d="M159.048,575.879c0,0,0.942-57.184,60.081-55.531
			l-1.201,8.037c0,0-42.445-1.913-48.455,45.048L159.048,575.879z"/>
		<line fill="none" stroke="#70C9BE" stroke-miterlimit="10" x1="159.973" y1="568.431" x2="170.388" y2="567.972"/>
		<line fill="none" stroke="#70C9BE" stroke-miterlimit="10" x1="162.27" y1="559.294" x2="171.775" y2="562.481"/>
		<line fill="none" stroke="#70C9BE" stroke-miterlimit="10" x1="174.587" y1="555.086" x2="165.672" y2="550.743"/>
		<line fill="none" stroke="#70C9BE" stroke-miterlimit="10" x1="170.972" y1="541.82" x2="178.604" y2="548.114"/>
		<line fill="none" stroke="#70C9BE" stroke-miterlimit="10" x1="177.191" y1="534.604" x2="183.424" y2="542.337"/>
		<line fill="none" stroke="#70C9BE" stroke-miterlimit="10" x1="184.155" y1="529.216" x2="189.358" y2="536.802"/>
		<line fill="none" stroke="#70C9BE" stroke-miterlimit="10" x1="191.253" y1="525.392" x2="195.186" y2="533.417"/>
		<line fill="none" stroke="#70C9BE" stroke-miterlimit="10" x1="199.656" y1="531.935" x2="199.844" y2="522.437"/>
		<line fill="none" stroke="#70C9BE" stroke-miterlimit="10" x1="205.91" y1="520.706" x2="205.997" y2="529.967"/>
		<line fill="none" stroke="#70C9BE" stroke-miterlimit="10" x1="212.291" y1="520.512" x2="211.289" y2="528.938"/>
	</g>
	<g>
		<path fill="none" stroke="#70C9BE" stroke-width="2" stroke-miterlimit="10" d="M174.526,665.36c0,0-48.751-26.795-16.31-75.059
			l5.998,5.104c0,0-24.036,34.465,13.65,60.232L174.526,665.36z"/>
		<line fill="none" stroke="#70C9BE" stroke-miterlimit="10" x1="168.534" y1="661.297" x2="173.595" y2="652.464"/>
		<line fill="none" stroke="#70C9BE" stroke-miterlimit="10" x1="161.793" y1="655.349" x2="169.547" y2="648.885"/>
		<line fill="none" stroke="#70C9BE" stroke-miterlimit="10" x1="156.141" y1="648.743" x2="164.591" y2="643.281"/>
		<line fill="none" stroke="#70C9BE" stroke-miterlimit="10" x1="151.16" y1="640.402" x2="160.635" y2="636.866"/>
		<line fill="none" stroke="#70C9BE" stroke-miterlimit="10" x1="148.144" y1="632.056" x2="158.138" y2="630.315"/>
		<line fill="none" stroke="#70C9BE" stroke-miterlimit="10" x1="147.11" y1="623.901" x2="156.435" y2="622.948"/>
		<line fill="none" stroke="#70C9BE" stroke-miterlimit="10" x1="147.506" y1="616.328" x2="156.546" y2="616.622"/>
		<line fill="none" stroke="#70C9BE" stroke-miterlimit="10" x1="157.602" y1="612.263" x2="149.44" y2="607.902"/>
		<line fill="none" stroke="#70C9BE" stroke-miterlimit="10" x1="151.116" y1="602.111" x2="159.215" y2="606.139"/>
		<line fill="none" stroke="#70C9BE" stroke-miterlimit="10" x1="154.292" y1="596.738" x2="161.094" y2="601.299"/>
	</g>
	<g>
		<path fill="none" stroke="#70C9BE" stroke-width="2" stroke-miterlimit="10" d="M253.339,736.362c0,0-58.297,9.073-59.879-51.408
			l8.017-0.435c0,0,0.429,44.442,47.215,40.868L253.339,736.362z"/>
		<line fill="none" stroke="#70C9BE" stroke-miterlimit="10" x1="244.261" y1="736.081" x2="243.24" y2="725.584"/>
		<line fill="none" stroke="#70C9BE" stroke-miterlimit="10" x1="235.096" y1="735.629" x2="237.732" y2="725.305"/>
		<line fill="none" stroke="#70C9BE" stroke-miterlimit="10" x1="226.451" y1="733.932" x2="230.263" y2="723.971"/>
		<line fill="none" stroke="#70C9BE" stroke-miterlimit="10" x1="217.335" y1="730.382" x2="223.147" y2="721.323"/>
		<line fill="none" stroke="#70C9BE" stroke-miterlimit="10" x1="209.856" y1="725.547" x2="217.17" y2="717.612"/>
		<line fill="none" stroke="#70C9BE" stroke-miterlimit="10" x1="204.148" y1="719.576" x2="211.37" y2="712.719"/>
		<line fill="none" stroke="#70C9BE" stroke-miterlimit="10" x1="199.979" y1="713.146" x2="207.704" y2="707.491"/>
		<line fill="none" stroke="#70C9BE" stroke-miterlimit="10" x1="205.995" y1="703.252" x2="196.588" y2="705.019"/>
		<line fill="none" stroke="#70C9BE" stroke-miterlimit="10" x1="194.546" y1="699.208" x2="203.704" y2="697.209"/>
		<line fill="none" stroke="#70C9BE" stroke-miterlimit="10" x1="194.007" y1="692.758" x2="202.397" y2="692.039"/>
	</g>
	<g>
		<path fill="none" stroke="#70C9BE" stroke-width="2" stroke-miterlimit="10" d="M343.561,702.179c0,0-23.117,55.204-75.254,24.507
			l4.674-6.549c0,0,35.585,23.315,60.88-20.75L343.561,702.179z"/>
		<line fill="none" stroke="#70C9BE" stroke-miterlimit="10" x1="338.583" y1="710.682" x2="329.139" y2="705.987"/>
		<line fill="none" stroke="#70C9BE" stroke-miterlimit="10" x1="333.344" y1="718.216" x2="325.983" y2="710.511"/>
		<line fill="none" stroke="#70C9BE" stroke-miterlimit="10" x1="327.324" y1="724.649" x2="320.895" y2="716.139"/>
		<line fill="none" stroke="#70C9BE" stroke-miterlimit="10" x1="319.485" y1="730.5" x2="314.881" y2="720.771"/>
		<line fill="none" stroke="#70C9BE" stroke-miterlimit="10" x1="311.422" y1="734.282" x2="308.566" y2="723.876"/>
		<line fill="none" stroke="#70C9BE" stroke-miterlimit="10" x1="303.334" y1="735.961" x2="301.496" y2="725.51"/>
		<line fill="none" stroke="#70C9BE" stroke-miterlimit="10" x1="295.672" y1="736.092" x2="294.969" y2="726.543"/>
		<line fill="none" stroke="#70C9BE" stroke-miterlimit="10" x1="290.468" y1="725.746" x2="286.982" y2="734.662"/>
		<line fill="none" stroke="#70C9BE" stroke-miterlimit="10" x1="280.973" y1="733.315" x2="284.129" y2="724.488"/>
		<line fill="none" stroke="#70C9BE" stroke-miterlimit="10" x1="275.216" y1="730.356" x2="279.052" y2="722.857"/>
	</g>
	<g>
		<path fill="none" stroke="#70C9BE" stroke-width="2" stroke-miterlimit="10" d="M330.388,529.019c0,0,58.919,5.566,52.539,66.56
			l-8.21-1.762c0,0,5.434-44.618-42.624-53.87L330.388,529.019z"/>
		<line fill="none" stroke="#70C9BE" stroke-miterlimit="10" x1="338.013" y1="530.455" x2="337.664" y2="541.247"/>
		<line fill="none" stroke="#70C9BE" stroke-miterlimit="10" x1="347.274" y1="533.421" x2="343.229" y2="543.036"/>
		<line fill="none" stroke="#70C9BE" stroke-miterlimit="10" x1="355.841" y1="537.49" x2="350.649" y2="546.42"/>
		<line fill="none" stroke="#70C9BE" stroke-miterlimit="10" x1="364.645" y1="543.545" x2="357.537" y2="551.021"/>
		<line fill="none" stroke="#70C9BE" stroke-miterlimit="10" x1="371.611" y1="550.438" x2="363.127" y2="556.377"/>
		<line fill="none" stroke="#70C9BE" stroke-miterlimit="10" x1="376.63" y1="557.981" x2="368.378" y2="562.866"/>
		<line fill="none" stroke="#70C9BE" stroke-miterlimit="10" x1="380.021" y1="565.562" x2="371.416" y2="569.107"/>
		<line fill="none" stroke="#70C9BE" stroke-miterlimit="10" x1="372.594" y1="573.821" x2="382.395" y2="574.63"/>
		<line fill="none" stroke="#70C9BE" stroke-miterlimit="10" x1="383.706" y1="581.01" x2="374.128" y2="580.499"/>
		<line fill="none" stroke="#70C9BE" stroke-miterlimit="10" x1="383.402" y1="587.615" x2="374.771" y2="586.033"/>
	</g>
	<g>
		<path fill="none" stroke="#70C9BE" stroke-width="2" stroke-miterlimit="10" d="M374.71,616.04c0,0,34.513,48.076-15.663,83.338
			l-4.066-7.347c0,0,37.498-23.081,11.398-68.864L374.71,616.04z"/>
		<line fill="none" stroke="#70C9BE" stroke-miterlimit="10" x1="378.637" y1="622.732" x2="370.271" y2="629.56"/>
		<line fill="none" stroke="#70C9BE" stroke-miterlimit="10" x1="382.485" y1="631.663" x2="372.579" y2="634.931"/>
		<line fill="none" stroke="#70C9BE" stroke-miterlimit="10" x1="385.045" y1="640.795" x2="374.902" y2="642.747"/>
		<line fill="none" stroke="#70C9BE" stroke-miterlimit="10" x1="386.265" y1="651.409" x2="375.959" y2="650.963"/>
		<line fill="none" stroke="#70C9BE" stroke-miterlimit="10" x1="385.645" y1="661.19" x2="375.594" y2="658.696"/>
		<line fill="none" stroke="#70C9BE" stroke-miterlimit="10" x1="383.255" y1="669.93" x2="374.151" y2="666.918"/>
		<line fill="none" stroke="#70C9BE" stroke-miterlimit="10" x1="379.769" y1="677.468" x2="371.441" y2="673.309"/>
		<line fill="none" stroke="#70C9BE" stroke-miterlimit="10" x1="368.662" y1="677.294" x2="374.492" y2="685.215"/>
		<line fill="none" stroke="#70C9BE" stroke-miterlimit="10" x1="370.543" y1="690.394" x2="364.636" y2="682.838"/>
		<line fill="none" stroke="#70C9BE" stroke-miterlimit="10" x1="365.363" y1="694.505" x2="360.886" y2="686.959"/>
	</g>
</g>
<path fill="none" stroke="#70C9BE" stroke-width="3" stroke-miterlimit="10" d="M253.189,522.437c0,0,25.284-20.258,43.488,3.341"/>
<path fill="none" stroke="#70C9BE" stroke-width="3" stroke-miterlimit="10" d="M332.77,553.988c0,0,32.217,3.429,28.518,33.002"/>
<path fill="none" stroke="#70C9BE" stroke-width="3" stroke-miterlimit="10" d="M179.77,649.783c0,0-18.568-21.332-1.165-39.701"/>
<path fill="none" stroke="#70C9BE" stroke-width="3" stroke-miterlimit="10" d="M189.829,567.636c0,0,1.044-26.245,26.333-27.08"/>
<path fill="none" stroke="#70C9BE" stroke-width="3" stroke-miterlimit="10" d="M357.712,631.255c0,0,17.494,27.386-9.496,40.028"/>
<path fill="none" stroke="#70C9BE" stroke-width="3" stroke-miterlimit="10" d="M320.28,697.15c0,0-14.381,29.141-39.166,12.588"/>
<path fill="none" stroke="#70C9BE" stroke-width="3" stroke-miterlimit="10" d="M241.854,710.682c0,0-29.272,3.648-29.854-26.15"/>
<path fill="#70C9BE" d="M271.009,542.892c0,0-3.272-19.248,1.537-20.543c4.809-1.294,5.21,16.018,3.492,19.684l-3.254,7.695
	L271.009,542.892z"/>
<path fill="#70C9BE" d="M339.168,637.188c0,0,16.075,11.081,13.649,15.43c-2.427,4.349-15.111-7.44-16.541-11.227l-3.245-3.69
	L339.168,637.188z"/>
<path fill="#70C9BE" d="M295.356,684.127c0,0,5.522,13.512,2.224,15.239c-3.298,1.728-6.408-10.839-5.754-13.793l-0.52-3.637
	L295.356,684.127z"/>
<path fill="#70C9BE" d="M232.141,681.254c0,0-3.926,16.769-7.647,16.651c-3.721-0.118-0.248-12.589,1.775-14.839l3.995-5.202
	L232.141,681.254z"/>
<path fill="#70C9BE" d="M331.351,573.043c0,0,14.522-9.604,17.268-6.498c2.748,3.103-19.475,13.087-23.065,13.172l0.857-2.806
	L331.351,573.043z"/>
<path fill="#70C9BE" d="M193.375,629.56c0,0-14.177,3.273-15.231-0.648c-1.057-3.92,19.081-4.582,21.829-3.279l-1.576,2.26
	L193.375,629.56z"/>
<path fill="#70C9BE" d="M212.7,566.565c0,0-11.886-11.113-9.351-14.4c2.536-3.284,11.54,7.993,12.251,11.291l1.726,6.745
	L212.7,566.565z"/>
<ellipse fill="#70C9BE" cx="257.499" cy="752.142" rx="5.047" ry="4.5"/>
<ellipse fill="#70C9BE" cx="365.363" cy="709.039" rx="4.689" ry="5.786"/>
<ellipse fill="#70C9BE" cx="157.806" cy="692.146" rx="4.665" ry="5.53"/>
<ellipse fill="#70C9BE" cx="142.081" cy="576.916" rx="4.104" ry="4.094"/>
<ellipse fill="#70C9BE" cx="219.325" cy="490.441" rx="4.46" ry="5.654"/>
<ellipse fill="#70C9BE" cx="333.957" cy="500.741" rx="4.626" ry="4.644"/>
<ellipse fill="#70C9BE" cx="401.215" cy="600.19" rx="5.261" ry="5.948"/>
<path fill="none" stroke="#70C9BE" stroke-width="3" stroke-miterlimit="10" d="M232.141,505.483c0,0,1.686-75.116,50.177-150.839
	c0,0,44.683-68.934,101.092-58.857c26.233,4.686,30.968,16.3,31.146,26.801c0.249,14.645-12.888,27.902-23.08,24.699
	c0,0-22.427-6.645-6.432-26.5c0,0-67.689-23-13.629,138.5c0,0,23.978,61.213,1.686,93.195"/>
<path fill="none" stroke="#70C9BE" stroke-width="2" stroke-miterlimit="10" d="M295.921,497.364c0,0-1.944-102.72,26.056-149.648
	c0,0-41.83,70.961-5.048,165.304"/>
<path fill="none" stroke="#70C9BE" stroke-width="2" stroke-miterlimit="10" d="M279.085,492.441c0,0,3.392-40.654,15.46-71.154
	c6.958-17.584,12.375-35.984,14.39-41.49c0,0-1.848,37.083,1.042,50.57c4,18.67,24.049,58.928,19.024,74.299"/>
<path fill="none" stroke="#70C9BE" stroke-width="2" stroke-miterlimit="10" d="M308.131,409.537c0,0-6.974,9.498-6.572,13.124"/>
<path fill="none" stroke="#70C9BE" stroke-width="2" stroke-miterlimit="10" d="M309.056,423.803c0,0-7.312,8.239-7.255,11.985"/>
<path fill="none" stroke="#70C9BE" stroke-width="2" stroke-miterlimit="10" d="M310.95,435.788c0,0-1.143,6.663-8.022,13.499"/>
<path fill="none" stroke="#70C9BE" stroke-width="2" stroke-miterlimit="10" d="M315.439,447.961c0,0-3.104,8.397-11.226,18.04"/>
<path fill="none" stroke="#70C9BE" stroke-width="2" stroke-miterlimit="10" d="M319.699,459.98c0,0-12.304,21.082-11.76,23.443"/>
<path fill="none" stroke="#70C9BE" stroke-width="2" stroke-miterlimit="10" d="M322.855,468.702c0,0-5.18,19.823-13.029,24.204"/>
<path fill="none" stroke="#70C9BE" stroke-width="2" stroke-miterlimit="10" d="M328.501,488.179c0,0-14.876,15.846-14.395,17.207"
	/>
<path fill="none" stroke="#70C9BE" stroke-width="2" stroke-miterlimit="10" d="M294.545,421.287c0,0,3.566,9.711,4.499,12.98"/>
<path fill="none" stroke="#70C9BE" stroke-width="2" stroke-miterlimit="10" d="M290.06,434.268c0,0,5.024,14.27,7.595,15.02"/>
<path fill="none" stroke="#70C9BE" stroke-width="2" stroke-miterlimit="10" d="M286.385,447.961c0,0,6.978,12.34,10.41,14.208"/>
<path fill="none" stroke="#70C9BE" stroke-width="2" stroke-miterlimit="10" d="M283.674,460.623c0,0,8.633,10.414,12.218,16.414"/>
<path fill="none" stroke="#70C9BE" stroke-width="2" stroke-miterlimit="10" d="M280.927,477.037c0,0,10.13,14.059,14.965,13.404"/>
<ellipse fill="#70C9BE" cx="386.811" cy="331.843" rx="4.167" ry="5.055"/>
<path fill="none" stroke="#70C9BE" stroke-width="2" stroke-miterlimit="10" d="M353.908,393.415c0,0,28.964-13.53,31.818,21.302"/>
<path fill="none" stroke="#70C9BE" stroke-width="2" stroke-miterlimit="10" d="M308.634,387.537c0,0,9.163,2.855,1.192,10
	c0,0,11.472,7.138-1.192,14.586c0,0,13.099,6.624,2.316,14.385c0,0,14.369,1.996,3.909,15.322c0,0,12.534,0.161,3.84,12.22
	c0,0,13.778,0.513,4.978,17.093c0,0,14.021-0.581,4.824,13.89c0,0,10.631,2.573,1.887,12.332"/>
<path fill="none" stroke="#70C9BE" stroke-width="2" stroke-miterlimit="10" d="M307.06,386.875c0,0-6.703,0.584-3.393,8.915
	c0,0-12.278,0.994-6.012,11.326c0,0-11.746,0.998-3.798,13.171c0,0-11.653-2.773-3.797,11.5c0,0-13.365,4.871-4.225,14.936
	c0,0-18.32,4.482-4.909,19.278c0,0-12.684,0.66-1.842,14.804c0,0-9.216,1.494-4.151,11.637"/>
<path fill="none" stroke="#70C9BE" stroke-width="3" stroke-miterlimit="10" d="M383.326,583.101c0,0,44.15-2.962,60.65,31.362
	s-11.5,53.971-17,50.898c0,0,3.145-7.883-2.5-12.896c-3.277-2.911-12.098-1.513-15.25,4.198c-2.859,5.178-2.875,12.347,2.25,16.463
	c5.378,4.319,21,17.182,45.5-11.828c24.5-29.01-1.62-69.537-1.62-69.537s-28.63-47.264-80.585-42.039"/>
<path fill="none" stroke="#70C9BE" stroke-width="3" stroke-miterlimit="10" d="M381.393,531.026c0,0,15.898-5.204,20.491,10.778
	c0,0,11.872-8.752,19.232,4.615c0,0,14.36-10.016,18.36,7.676c0,0,17.097-3.031,13.5,13.239c0,0,12.5-1.189,9.5,12.382
	c0,0,14.5,0.547,11.5,16.559c0,0,16,6.996,6,20.754c0,0,12,14.045-2,17.901c0,0,7.884,10.615-3.5,13.77c0,0,7.5,16.086-9,16.086
	c0,0,2.5,16.514-12,12.507c0,0,0.014,12.054-13.5,7.225c0,0-5.835,18.323-18.86,1.142c0,0-16.79,7.864-12.64-12.352
	c0,0-15.596-15.148,1.952-18.335"/>
<path fill="#70C9BE" d="M383.706,548.787c0,0,10.559-9.08,12.248-7.54c1.689,1.54,2.356,4.268-2.311,8.07
	C388.977,553.12,383.706,548.787,383.706,548.787z"/>
<path fill="#70C9BE" d="M402.477,551.021c0,0,7.334-6.542,8.667-6.055c1.333,0.487,7.5,3.223-1,9.021L402.477,551.021z"/>
<path fill="#70C9BE" d="M417.81,556.488c0,0,4.333,0.189,7.5-4.006c0,0,5.834-2.762,4.334,2.972c0,0-2.667,3.97-5.917,5.651
	C420.477,562.787,417.81,556.488,417.81,556.488z"/>
<path fill="#70C9BE" d="M430.391,565.562c0,0,8.754-0.569,10.254-4.172c0,0,4.666-2.06,3.833,2.086
	c-0.833,4.145-7.897,7.013-7.897,7.013L430.391,565.562z"/>
<path fill="#70C9BE" d="M441.977,574.63c0,0,4.667,0.227,7.667-1.808c3-2.034,4.167-2.534,5.5-1.034
	c1.333,1.5,0.334,4.001-1.833,4.834c-2.167,0.833-8.136,2.17-8.136,2.17L441.977,574.63z"/>
<path fill="#70C9BE" d="M451.312,586.033c0,0,7.668,1.493,9.668,0.957c2-0.536,4.334,1.797,5,2.297
	c0.666,0.5,1.999,3.334-1.334,3.667s-9.29-1.194-9.29-1.194L451.312,586.033z"/>
<path fill="#70C9BE" d="M459.062,598.562c0,0,13.084,7.021,13.084,9.707c0,2.685-2.166,3.673-3.333,3.346
	c-1.167-0.327-5.489-2.757-5.489-2.757L459.062,598.562z"/>
<path fill="#70C9BE" d="M465.792,617.497c0,0,9.854,7.509,11.354,8.649c1.5,1.141,1,2.518,0,3.413c-1,0.895-2.571,2.446-9.952-3.413
	L465.792,617.497z"/>
<path fill="#70C9BE" d="M467.461,630.437c0,0,4.687,7.018,7.52,9.018c2.833,2-0.353,6.667-3.76,4
	c-3.407-2.667-4.408-6.107-4.408-6.107L467.461,630.437z"/>
<path fill="#70C9BE" d="M464.109,649.569c0,0,4.37,4.385,4.537,5.385s0.291,5.484-2.854,3.742s-4.317-3.772-4.317-3.772
	L464.109,649.569z"/>
<path fill="#70C9BE" d="M456.441,661.92c0,0,5.027,5.307,5.033,6.504c0.006,1.197,0.628,4.697-2.517,3.697
	c-3.145-1-6.676-5.636-5.84-6.521C453.954,664.716,456.441,661.92,456.441,661.92z"/>
<path fill="#70C9BE" d="M447.06,671.283c0,0,1.588,4.531,1.588,6.185c0,1.653-2.333,3.671-3.5,2.245s-2.568-5.118-2.568-5.118
	L447.06,671.283z"/>
<path fill="#70C9BE" d="M435.004,678.386c0,0,1.144,6.09-0.856,6.829c-2,0.739-4.167,0.266-4.167-3.414
	c0-3.68,0.831-2.36,0.831-2.36L435.004,678.386z"/>
<path fill="#70C9BE" d="M418.647,678.386c0,0-1.001,3.224-2.167,3.562c-1.166,0.339-3.499,0.19-3.166-2.235
	c0.333-2.426,1.667-3.973,1.667-3.973L418.647,678.386z"/>
<path fill="none" stroke="#70C9BE" stroke-width="2" stroke-miterlimit="10" d="M378.637,562.066c0,0,33.995,1.31,63.942,30.936
	c29.947,29.626,13.168,56.39,13.168,56.39s-18.263,25.318-28.771,15.969"/>
<line fill="none" stroke="#70C9BE" stroke-width="2" stroke-miterlimit="10" x1="380.619" y1="549.465" x2="386.282" y2="563.056"/>
<line fill="none" stroke="#70C9BE" stroke-width="2" stroke-miterlimit="10" x1="390.465" y1="549.727" x2="395.954" y2="565.685"/>
<line fill="none" stroke="#70C9BE" stroke-width="2" stroke-miterlimit="10" x1="398.759" y1="551.021" x2="402.477" y2="567.504"/>
<line fill="none" stroke="#70C9BE" stroke-width="2" stroke-miterlimit="10" x1="408.515" y1="554.751" x2="413.282" y2="572.104"/>
<line fill="none" stroke="#70C9BE" stroke-width="2" stroke-miterlimit="10" x1="418.142" y1="557.981" x2="421.116" y2="575.879"/>
<line fill="none" stroke="#70C9BE" stroke-width="2" stroke-miterlimit="10" x1="427.35" y1="563.428" x2="427.547" y2="580.499"/>
<line fill="none" stroke="#70C9BE" stroke-width="2" stroke-miterlimit="10" x1="436.58" y1="570.489" x2="433.078" y2="584.597"/>
<line fill="none" stroke="#70C9BE" stroke-width="2" stroke-miterlimit="10" x1="438.894" y1="589.518" x2="445.176" y2="578.792"/>
<line fill="none" stroke="#70C9BE" stroke-width="2" stroke-miterlimit="10" x1="445.613" y1="596.275" x2="451.312" y2="587.615"/>
<line fill="none" stroke="#70C9BE" stroke-width="2" stroke-miterlimit="10" x1="451.312" y1="603.31" x2="457.261" y2="595.49"/>
<line fill="none" stroke="#70C9BE" stroke-width="2" stroke-miterlimit="10" x1="461.528" y1="604.086" x2="456.138" y2="611.675"/>
<line fill="none" stroke="#70C9BE" stroke-width="2" stroke-miterlimit="10" x1="459.062" y1="620.308" x2="465.096" y2="615.979"/>
<line fill="none" stroke="#70C9BE" stroke-width="2" stroke-miterlimit="10" x1="460.428" y1="630.84" x2="467.194" y2="626.146"/>
<line fill="none" stroke="#70C9BE" stroke-width="2" stroke-miterlimit="10" x1="458.833" y1="640.795" x2="466.91" y2="639.244"/>
<line fill="none" stroke="#70C9BE" stroke-width="2" stroke-miterlimit="10" x1="454.731" y1="650.732" x2="464.109" y2="649.569"/>
<line fill="none" stroke="#70C9BE" stroke-width="2" stroke-miterlimit="10" x1="448.862" y1="656.35" x2="459.42" y2="658.696"/>
<line fill="none" stroke="#70C9BE" stroke-width="2" stroke-miterlimit="10" x1="445.176" y1="661.19" x2="453.118" y2="665.601"/>
<line fill="none" stroke="#70C9BE" stroke-width="2" stroke-miterlimit="10" x1="438.894" y1="664.787" x2="445.788" y2="672.299"/>
<line fill="none" stroke="#70C9BE" stroke-width="2" stroke-miterlimit="10" x1="433.078" y1="667.653" x2="435.004" y2="678.386"/>
<line fill="none" stroke="#70C9BE" stroke-width="2" stroke-miterlimit="10" x1="429.503" y1="666.918" x2="421.116" y2="678.386"/>
<line fill="none" stroke="#70C9BE" stroke-width="2" stroke-miterlimit="10" x1="426.977" y1="665.36" x2="409.665" y2="671.283"/>
<path fill="#70C9BE" d="M409.665,671.283c0,0,4.403-17.121,8.982-14.934c0,0,5.893-1.047,2.469,5.57
	c-3.425,6.617-5.272-1.446-5.272-1.446l-2.562,9.572L409.665,671.283z"/>
<path fill="#70C9BE" d="M382.461,510.711c0,0,29.732-0.839,26.054,28.421l-6.631,1.424c0,0,6.515-21.066-19.31-22.785
	L382.461,510.711z"/>
<path fill="none" stroke="#70C9BE" stroke-width="2" stroke-miterlimit="10" d="M381.393,499.081c0,0,41.084,0,39.724,45.886"/>
<path fill="none" stroke="#70C9BE" stroke-width="2" stroke-miterlimit="10" d="M380.021,486.115c0,0,55.533,2.361,50.369,57.517"/>
<line fill="none" stroke="#70C9BE" stroke-width="2" stroke-miterlimit="10" x1="388.496" y1="499.935" x2="387.993" y2="511.182"/>
<line fill="none" stroke="#70C9BE" stroke-width="2" stroke-miterlimit="10" x1="397.639" y1="502.774" x2="393.406" y2="512.529"/>
<line fill="none" stroke="#70C9BE" stroke-width="2" stroke-miterlimit="10" x1="406.058" y1="507.652" x2="400.617" y2="516.249"/>
<line fill="none" stroke="#70C9BE" stroke-width="2" stroke-miterlimit="10" x1="404.484" y1="520.062" x2="414.134" y2="516.249"/>
<line fill="none" stroke="#70C9BE" stroke-width="2" stroke-miterlimit="10" x1="418.142" y1="524.207" x2="407.361" y2="525.336"/>
<line fill="none" stroke="#70C9BE" stroke-width="2" stroke-miterlimit="10" x1="420.386" y1="532.87" x2="408.727" y2="531.787"/>
<path fill="none" stroke="#70C9BE" stroke-width="2" stroke-miterlimit="10" d="M376.63,477.037"/>
<path fill="none" stroke="#70C9BE" stroke-width="2" stroke-miterlimit="10" d="M372.623,464.787c0,0,7.893-9.322,15.873,1.214
	c0,0,14.324-15.003,22.402,5.142c0,0,20.906-7.449,19.492,14.973c0,0,19.336,4.367,12.586,20.77c0,0,20.5,3.902,7,20.152
	c0,0,11.021,9.037-1.114,13.519c0,0,6.886,11.409,0,14.195"/>
<path fill="none" stroke="#70C9BE" stroke-width="2" stroke-miterlimit="10" d="M378.637,483.795c0,0,4.379-9.102,9.859,2.32
	c0,0,9.577-15.396,12.774,4.326c0,0,19.157-10.979,14.573,7.834c0,0,15.854-2.721,10.133,12.433c0,0,18.006,0.548,4.753,14.063
	c0,0,18.602,6.672,2.349,12.719c0,0,7.414,5.424,4.406,8.485"/>
<path fill="#70C9BE" d="M387.993,484.737c0,0-0.017-6.21-2.767-11.08c-2.75-4.87,2.033-5.784,2.767-4.827
	C388.727,469.787,391.51,479.938,387.993,484.737z"/>
<path fill="#70C9BE" d="M401.297,489.596c0,0,2.459-5.702,1.878-11.265c-0.581-5.562,4.17-4.495,4.462-3.325
	C407.928,476.177,406.435,486.595,401.297,489.596z"/>
<path fill="#70C9BE" d="M415.844,498.297c0,0,4.456-4.324,6.051-9.685c1.595-5.361,5.574-2.555,5.396-1.362
	C427.11,488.443,421.739,497.494,415.844,498.297z"/>
<path fill="#70C9BE" d="M427.352,510.106c0,0,4.456-4.324,6.051-9.685c1.595-5.361,5.574-2.555,5.396-1.362
	C438.618,500.253,433.247,509.304,427.352,510.106z"/>
<path fill="#70C9BE" d="M430.892,524.202c0,0,6.156-0.813,10.633-4.165c4.478-3.353,5.998,1.273,5.144,2.124
	C445.812,523.012,436.102,527.073,430.892,524.202z"/>
<path fill="#70C9BE" d="M433.811,536.785c0,0,6.204,0.26,11.191-2.272s5.688,2.287,4.7,2.979
	C448.715,538.183,438.45,540.511,433.811,536.785z"/>
<path fill="none" stroke="#70C9BE" stroke-width="3" stroke-miterlimit="10" d="M364.645,437.931c0,0,66.301-76.644,102.816-63.394
	c0,0-19.305,5.986-30.817,58.454c0,0-5.812,29.839-15.073,37.317"/>
<path fill="none" stroke="#70C9BE" stroke-width="2" stroke-miterlimit="10" d="M369.895,454.691c0,0,35.873-52.842,60.835-61.276
	c0,0-7.423,27.025-12.588,46.698c0,0-5.109,20.525-10.471,25.1"/>
<path fill="none" stroke="#70C9BE" stroke-width="2" stroke-miterlimit="10" d="M380.021,460.63c0,0,1.599-11.274,10.443-8.559
	c8.845,2.716,5.181,8.41,5.181,8.41"/>
<ellipse fill="none" stroke="#70C9BE" stroke-width="2" stroke-miterlimit="10" cx="395.522" cy="444.838" rx="8.284" ry="8.644"/>
<ellipse fill="none" stroke="#70C9BE" stroke-width="2" stroke-miterlimit="10" cx="403.805" cy="431.787" rx="6.858" ry="6.888"/>
<ellipse fill="none" stroke="#70C9BE" stroke-width="2" stroke-miterlimit="10" cx="411.434" cy="421.287" rx="6.512" ry="5.745"/>
<ellipse fill="none" stroke="#70C9BE" stroke-width="2" stroke-miterlimit="10" cx="416.387" cy="412.196" rx="4.647" ry="4.213"/>
<ellipse fill="none" stroke="#70C9BE" stroke-width="2" stroke-miterlimit="10" cx="421.57" cy="404.675" rx="4.09" ry="4.141"/>
<line fill="none" stroke="#70C9BE" stroke-width="2" stroke-miterlimit="10" x1="380.021" y1="460.63" x2="375.581" y2="446.723"/>
<line fill="none" stroke="#70C9BE" stroke-width="2" stroke-miterlimit="10" x1="388.244" y1="451.496" x2="382.461" y2="437.656"/>
<line fill="none" stroke="#70C9BE" stroke-width="2" stroke-miterlimit="10" x1="396.947" y1="435.788" x2="392.177" y2="425.787"/>
<line fill="none" stroke="#70C9BE" stroke-width="2" stroke-miterlimit="10" x1="403.806" y1="424.899" x2="401.884" y2="415.542"/>
<line fill="none" stroke="#70C9BE" stroke-width="2" stroke-miterlimit="10" x1="411.434" y1="415.542" x2="409.553" y2="407.58"/>
<line fill="none" stroke="#70C9BE" stroke-width="2" stroke-miterlimit="10" x1="416.387" y1="407.983" x2="414.557" y2="403.239"/>
<line fill="none" stroke="#70C9BE" stroke-width="2" stroke-miterlimit="10" x1="421.033" y1="412.196" x2="425.61" y2="412.196"/>
<line fill="none" stroke="#70C9BE" stroke-width="2" stroke-miterlimit="10" x1="417.946" y1="421.287" x2="423.322" y2="420.984"/>
<line fill="none" stroke="#70C9BE" stroke-width="2" stroke-miterlimit="10" x1="410.663" y1="429.315" x2="421.57" y2="430.227"/>
<line fill="none" stroke="#70C9BE" stroke-width="2" stroke-miterlimit="10" x1="402.805" y1="440.113" x2="418.142" y2="442.157"/>
<line fill="none" stroke="#70C9BE" stroke-width="2" stroke-miterlimit="10" x1="414.557" y1="453.481" x2="398.759" y2="452.796"/>
<line fill="none" stroke="#70C9BE" stroke-width="2" stroke-miterlimit="10" x1="399.979" y1="460.481" x2="411.74" y2="458.994"/>
<path fill="none" stroke="#70C9BE" stroke-width="3" stroke-miterlimit="10" d="M437.484,426.508c0,0,14.825-2.286,41.825,18.33
	c0,0,14.668,10.17,35.334,10.227c0,0-26.372,13.428-33.667,18.593c-6.045,4.279-28.331,21.479-38.999,19.472"/>
<path fill="none" stroke="#70C9BE" stroke-width="3" stroke-miterlimit="10" d="M435.655,437.171c0,0,10.086-1.555,28.453,12.47
	c0,0,9.979,9.844,24.038,9.882c0,0-17.94,6.211-22.903,9.725c-4.112,2.911-27.595,18.234-34.853,16.868"/>
<path fill="none" stroke="#70C9BE" stroke-width="3" stroke-miterlimit="10" d="M473.847,456.14c0,0-34.033-9.334-38.118,4.49
	c-4.085,13.824,35.733,5.371,52.418-1.107l-18.508-5.691c0,0-41.084-15.148-41.339,10.264c0,0,2.785,17.629,39.161,3.828"/>
<line fill="none" stroke="#70C9BE" stroke-width="2" stroke-miterlimit="10" x1="433.811" y1="442.537" x2="438.894" y2="449.351"/>
<line fill="none" stroke="#70C9BE" stroke-width="2" stroke-miterlimit="10" x1="441.977" y1="438.675" x2="446.895" y2="449.866"/>
<line fill="none" stroke="#70C9BE" stroke-width="2" stroke-miterlimit="10" x1="455.747" y1="443.395" x2="455.747" y2="449.351"/>
<line fill="none" stroke="#70C9BE" stroke-width="2" stroke-miterlimit="10" x1="426.717" y1="474.068" x2="433.078" y2="470.309"/>
<line fill="none" stroke="#70C9BE" stroke-width="2" stroke-miterlimit="10" x1="441.293" y1="472.412" x2="432.589" y2="486.115"/>
<line fill="none" stroke="#70C9BE" stroke-width="2" stroke-miterlimit="10" x1="448.862" y1="472.892" x2="446.169" y2="480.805"/>
<ellipse fill="#70C9BE" cx="523.31" cy="454.141" rx="4.667" ry="4.853"/>
<path fill="none" stroke="#70C9BE" stroke-miterlimit="10" d="M438.495,425.201c0,0,12.403-16.532,13.979,4.113
	c0,0,11.332-14.066,11.526,5.37c0,0,13.816-11.869,12.064,6.45c0,0,11.704-9.682,11.643,8.152c0,0,11.318-12.724,13.795,4.389
	c0,0,10.14-12.802,13.142,0.155"/>
<path fill="none" stroke="#70C9BE" stroke-miterlimit="10" d="M444.238,498.297c0,0,12.704,5.122,10.34-7.855
	c0,0,12.675,9.349,10.295-5.704c0,0,12.213,9.728,9.659-6.444c0,0,12.104,10.536,11.775-7.984c0,0,11.833,8.917,9.061-5.095
	c0,0,9.408,8.295,8.843-4.732c0,0,11.098,8.193,10.433-5.417"/>
<path fill="none" stroke="#70C9BE" stroke-width="2" stroke-miterlimit="10" d="M170.116,543.036c0,0-5.297-22.956,18.922-16.613"/>
<path fill="none" stroke="#70C9BE" stroke-width="2" stroke-miterlimit="10" d="M165.672,550.743c0,0-9.936-14.585,0.772-26.019
	c10.746-11.474,22.305-7.362,26.775-0.151"/>
<path fill="none" stroke="#70C9BE" stroke-width="2" stroke-miterlimit="10" d="M198.492,522.794
	c-1.266-3.975-5.272-0.357-5.272-0.357c0.203-12.751-11.243-5.565-11.243-5.565c-10.333-9.982-12.43,3.835-12.43,3.835
	c-13.437-4.663-7.754,9.749-7.754,9.749c-12.85,6.335,0,14.512,0,14.512c-7.85,5.913,1.008,12.739,1.008,12.739"/>
<path fill="none" stroke="#70C9BE" stroke-width="2" stroke-miterlimit="10" d="M161.324,562.481c0,0-17.231-8.567-1.352-17.514
	c0,0-12.58,5.357-13.788-4.411c-1.208-9.769,10.342-11.639,13.375-11.151c0,0-9.809-7.06-6.196-11.839
	c3.613-4.778,13.277-4.994,16.183,3.141c0,0-3.016-15.376,5.04-15.148c8.056,0.229,6.504,3.055,7.723,9.479
	c0,0,6.752-8.129,12.876-3.856c6.124,4.272,6.374,10.356,6.23,10.87"/>
<path fill="none" stroke="#70C9BE" stroke-width="3" stroke-miterlimit="10" d="M159.624,570.489c0,0-19.075-0.115-13.528-17.575
	c0,0-33.69-15.946-1.011-27.523c0,0-5.108-17.22,0.136-20.726c0,0,12.467-9.47,19.37,0.72c0,0,2.993-30.889,22.166-6.748
	c0,0,15.886-10.541,21.886-0.362c6,10.179,1.215,22.431,1.215,22.431"/>
<path fill="none" stroke="#70C9BE" stroke-width="3" stroke-miterlimit="10" d="M134.195,544.496c0,0-10.218,0.09-17.968-22.06
	c0,0-2-8.13-9.75-14.265c0,0,10.5,2.812,16.5-2.786c0,0,11.288-10.782,21.323,0.173"/>
<path fill="none" stroke="#70C9BE" stroke-width="3" stroke-miterlimit="10" d="M143.874,506.423c0,0-6.302-9.979-4.803-20.05
	c0,0,2.018-8.125-1.981-17.164c0,0,9.094,5.076,15.898,5.222c0,0,15.011,0.617,18.787,14.985"/>
<path fill="none" stroke="#70C9BE" stroke-width="3" stroke-miterlimit="10" d="M167.966,481.832c0,0,14.261-9.522,17.261-13.783
	s7.294-12.984,7.294-12.984s4.939,12.659,8.921,16.86c4.468,4.713,10.335,15.269,3.435,22.815"/>
<path fill="none" stroke="#70C9BE" stroke-width="3" stroke-miterlimit="10" d="M133.227,544.967c0,0-10.678,2.457-7.839,23.514
	c0,0,0.589,7.057-5.161,13.807c0,0,14.587-9.643,21.854-5.371"/>
<path fill="none" stroke="#70C9BE" stroke-width="3" stroke-miterlimit="10" d="M205.91,494.74c0,0,7.233-2.811,11.233-2.299
	s6.833-0.897,9-3.025c0,0-0.026,13.386,5.004,15.25"/>
<path fill="none" stroke="#70C9BE" stroke-width="3" stroke-miterlimit="10" d="M145.948,578.276c0,0-0.226,9.594-0.721,18.462
	c-0.435,7.794,2.695,13.2-1.605,15.276c0,0,5.185-8.407,7.27-8.13"/>
<path fill="none" stroke="#70C9BE" stroke-width="2" stroke-miterlimit="10" d="M173.769,488.614c0,0,3.27-6.994,9.655-7.994
	c6.385-1,9.872-5.424,9.795-6.962c0,0,1.09,5.495,4.423,7.478c0,0,9.333,7.129,6.667,12.64"/>
<path fill="none" stroke="#70C9BE" stroke-width="2" stroke-miterlimit="10" d="M145.221,504.666c0,0-2.684-3.624,1.075-8.882
	c3.758-5.258,3.043-10.845,1.892-11.867c0,0,4.686,3.07,8.436,2.08c0,0,11.625-1.668,13.691,4.096"/>
<path fill="none" stroke="#70C9BE" stroke-width="2" stroke-miterlimit="10" d="M130.819,534.604c0,0-5.196-2.643-4.729-9.089
	c0.467-6.446-3.055-10.842-4.571-11.114c0,0,5.6,0.178,8.284-2.622c0,0,9.052-7.482,13.819-3.64"/>
<path fill="none" stroke="#70C9BE" stroke-width="2" stroke-miterlimit="10" d="M154.292,570.489c0,0-6.368,3.007-12.061-0.054
	c-5.693-3.058-11.144-1.64-12.012-0.367c0,0,2.45-5.038,0.99-8.632c0,0-2.469-14.158,2.986-16.94"/>
<path fill="none" stroke="#70C9BE" stroke-width="2" stroke-miterlimit="10" d="M144.299,504.666"/>
<path fill="none" stroke="#70C9BE" stroke-width="3" stroke-miterlimit="10" d="M174.788,474.902c0,0-16.478-27-8.478-74.725
	c0,0,0.477-27.391-7.262-36.057c0,0,16.293,19.725,39.444,25.695s46.688,30.096,48.881,38.755"/>
<path fill="none" stroke="#70C9BE" stroke-width="2" stroke-miterlimit="10" d="M187.705,464.095c0,0-10.966-18.974-10.514-42.808
	c0.452-23.834-5.949-35.589-5.949-35.589s15.515,11.958,34.755,21.418c0,0,18.579,12.019,35.141,42.75"/>
<path fill="none" stroke="#70C9BE" stroke-width="2" stroke-miterlimit="10" d="M233.826,491.871c0,0-45.503-90.086-61.01-103.508"
	/>
<line fill="none" stroke="#70C9BE" stroke-width="2" stroke-miterlimit="10" x1="188.006" y1="397.094" x2="188.943" y2="410.282"/>
<line fill="none" stroke="#70C9BE" stroke-width="2" stroke-miterlimit="10" x1="197.397" y1="402.609" x2="195.508" y2="421.136"/>
<line fill="none" stroke="#70C9BE" stroke-width="2" stroke-miterlimit="10" x1="205.997" y1="407.116" x2="204.265" y2="436.384"/>
<line fill="none" stroke="#70C9BE" stroke-width="2" stroke-miterlimit="10" x1="212.291" y1="412.238" x2="210.762" y2="448.115"/>
<line fill="none" stroke="#70C9BE" stroke-width="2" stroke-miterlimit="10" x1="221.078" y1="420.984" x2="217.327" y2="460.481"/>
<line fill="none" stroke="#70C9BE" stroke-width="2" stroke-miterlimit="10" x1="228.805" y1="430.227" x2="223.435" y2="471.777"/>
<line fill="none" stroke="#70C9BE" stroke-width="2" stroke-miterlimit="10" x1="236.863" y1="441.777" x2="227.915" y2="480.358"/>
<line fill="none" stroke="#70C9BE" stroke-width="2" stroke-miterlimit="10" x1="176.032" y1="402.609" x2="188.943" y2="410.282"/>
<line fill="none" stroke="#70C9BE" stroke-width="2" stroke-miterlimit="10" x1="177.025" y1="412.238" x2="195.508" y2="421.136"/>
<line fill="none" stroke="#70C9BE" stroke-width="2" stroke-miterlimit="10" x1="177.191" y1="421.287" x2="200.532" y2="429.795"/>
<line fill="none" stroke="#70C9BE" stroke-width="2" stroke-miterlimit="10" x1="177.287" y1="429.315" x2="205.131" y2="437.931"/>
<line fill="none" stroke="#70C9BE" stroke-width="2" stroke-miterlimit="10" x1="178.604" y1="437.931" x2="210.762" y2="448.115"/>
<line fill="none" stroke="#70C9BE" stroke-width="2" stroke-miterlimit="10" x1="180.308" y1="446.723" x2="215.57" y2="456.981"/>
<line fill="none" stroke="#70C9BE" stroke-width="2" stroke-miterlimit="10" x1="183.549" y1="455.065" x2="191.209" y2="457.652"/>
<line fill="none" stroke="#70C9BE" stroke-width="2" stroke-miterlimit="10" x1="194.163" y1="458.994" x2="221.078" y2="467.306"/>
<line fill="none" stroke="#70C9BE" stroke-width="2" stroke-miterlimit="10" x1="199.395" y1="469.209" x2="224.422" y2="473.658"/>
<line fill="none" stroke="#70C9BE" stroke-width="2" stroke-miterlimit="10" x1="206.632" y1="479.975" x2="227.915" y2="480.358"/>
<path fill="none" stroke="#70C9BE" stroke-width="3" stroke-miterlimit="10" d="M255.854,405.611c0,0-1.136-97.667-52.533-140.824
	c0,0-24.345-22.667-51.011-21.667c0,0-22-3.333-36.666,23.333c-14.667,26.667,5.333,50.803,23.666,47.693
	c0,0,11.667-6.36,6.667-16.693s-19.333-8.333-20-6.333c0,0,15.001-1.031,13.667,7.318c-1.334,8.349-11.057,3.675-14.334-0.984
	c0,0-6.001-13,4.666-28c0,0,7.334-12.667,25.667-11c18.333,1.667,36.333,19,37.333,20.333s28,21.772,35.333,59.22
	c7.334,37.447,11.249,67.884,8.458,76.333"/>
<path fill="none" stroke="#70C9BE" stroke-width="3" stroke-miterlimit="10" d="M146.317,306.732c0,0,12.16,21.931-19.34,21.931
	s-24.5-21.736-24.25-21.931c0,0-17.5-3.695-20.25-27.945s18.25-26,18.25-26s-5.632-16.967,2-24.75c0,0,13.5-19.75,34-9
	c0,0,11.338-11.911,28-7.5c17,4.5,21.25,12.5,22.5,19.75c0,0,16.189-6.25,26-0.25c9.068,5.546,18.5,14.25,14.25,33
	c0,0,41.5,0.125,29.5,49.438c0,0,33.203,14.563,10.227,43.312c0,0,7.18,5.938,7.044,11.172"/>
<path fill="#70C9BE" d="M190.712,255.35c0,0,4.514-15.563,14.514-16.563s9,11.75,9,11.75s-4.75,6-8.5,0.5c0,0-1.41-3.5,1.17-5.25
	c2.58-1.75,0-4-3.48-2.8c-2.668,0.92-7.799,3.029-8.869,14.915L190.712,255.35z"/>
<path fill="#70C9BE" d="M150.031,242.366c0,0-3.201-15.885,5.201-21.399c8.402-5.515,13.416,6.251,13.416,6.251
	s-1.434,7.517-7.304,4.377c0,0-2.87-2.45-1.392-5.195c1.477-2.746-1.852-3.546-4.381-0.871c-1.939,2.05-5.511,6.294-0.96,17.325
	L150.031,242.366z"/>
<path fill="#70C9BE" d="M125.932,253.373c0,0-13.178-9.43-10.798-19.194c2.38-9.764,14.073-4.583,14.073-4.583
	s4.08,6.474-2.354,8.183c0,0-3.769,0.167-4.562-2.849c-0.793-3.015-3.773-1.329-3.797,2.353c-0.02,2.822,0.265,8.362,11.119,13.321
	L125.932,253.373z"/>
<path fill="#70C9BE" d="M111.108,285.703c0,0-14.17,2.266-18.75-5.366c-4.58-7.631,6.009-11.648,6.009-11.648s6.6,1.538,3.612,6.619
	c0,0-2.27,2.452-4.646,1.046c-2.377-1.405-3.204,1.512-0.927,3.846c1.745,1.789,5.373,5.101,15.296,1.467L111.108,285.703z"/>
<path fill="#70C9BE" d="M364.205,435.204c0,0-3.957-19.396,1.275-22.314c5.232-2.918,8.341,6.496,8.341,6.496
	s-0.901,5.369-4.549,2.229c0,0-1.783-2.215-0.861-4.043c0.922-1.83-1.148-2.885-2.725-1.254c-1.209,1.248-1.453,11.076,1.368,19.883
	L364.205,435.204z"/>
<path fill="#70C9BE" d="M130.483,314.04c0,0-1.277,8.456-6.832,9.859c-5.554,1.404-6.029-5.284-6.029-5.284s2.189-3.526,4.75-1.012
	c0,0,1.08,1.686-0.232,2.821c-1.312,1.135,0.326,2.071,2.19,1.141c1.429-0.712,4.149-2.259,3.784-8.506L130.483,314.04z"/>
<path fill="#70C9BE" d="M183.402,348.125c0,0-5.477,2.969-8.731,0.355c-3.255-2.611,0.425-5.824,0.425-5.824
	s3.011-0.276,2.674,2.317c0,0-0.506,1.368-1.742,1.103c-1.236-0.265-1.06,1.099,0.298,1.773c1.041,0.519,3.135,1.421,6.606-1.534
	L183.402,348.125z"/>
<path fill="#70C9BE" d="M190.795,366.562c0,0-2.487,5.625-5.122,5.424c-2.635-0.2-1.286-4.965-1.286-4.965s1.726-1.994,2.21,0.303
	c0,0,0.059,1.405-0.749,1.918c-0.808,0.514-0.343,1.514,0.647,1.26c0.759-0.193,2.248-0.694,3.541-5.127L190.795,366.562z"/>
<path fill="#70C9BE" d="M223.52,288.637c0,0,9.195-13.343,18.999-11.136c9.805,2.208,4.832,13.99,4.832,13.99
	s-6.401,4.194-8.224-2.208c0,0-0.233-3.766,2.767-4.612c3.001-0.846,1.262-3.795-2.419-3.755
	c-2.822,0.031-8.357,0.413-13.123,11.353L223.52,288.637z"/>
<path fill="#70C9BE" d="M243.997,335.446c0,0,10.287-8.145,17.353-4.107c7.065,4.039,0.417,11.978,0.417,11.978
	s-5.952,1.726-5.841-3.663c0,0,0.714-2.971,3.237-2.914c2.524,0.058,1.879-2.638-0.98-3.481c-2.191-0.647-6.567-1.665-12.856,5.671
	L243.997,335.446z"/>
<path fill="#70C9BE" d="M253.001,370.971c0,0,7.375-6.742,11.522-4.561c4.147,2.184-0.875,8.434-0.875,8.434
	s-3.982,1.788-3.397-2.033c0,0,0.741-2.171,2.354-2.371c1.613-0.199,1.457-2.045-0.297-2.369c-1.344-0.248-4.053-0.552-8.787,5.238
	L253.001,370.971z"/>
<path fill="#70C9BE" d="M187.82,498.026c0,0,6.081-7.929,3.549-11.873c-2.532-3.943-8.326,1.599-8.326,1.599
	s-1.439,4.122,2.318,3.21c0,0,2.098-0.925,2.159-2.55c0.06-1.625,1.912-1.628,2.386,0.092c0.363,1.316,0.899,3.989-4.46,9.205
	L187.82,498.026z"/>
<path fill="#70C9BE" d="M164.589,502.31c0,0-0.221-9.99-4.665-11.48c-4.443-1.49-6,3.961-6,3.961s1.458,4.116,3.817,1.053
	c0,0,1.057-2.035,0.087-3.34c-0.97-1.305,0.98,0.03,2.426,1.075c1.107,0.799,3.199,2.548,2.285,9.97L164.589,502.31z"/>
<path fill="#70C9BE" d="M143.98,523.475c0,0-7.458-6.651-11.578-4.417c-4.12,2.233-1.194,7.089-1.194,7.089s4.005,1.741,3.373-2.074
	c0,0-0.768-2.161-2.383-2.341c-1.616-0.181,0.69-0.696,2.441-1.041c1.339-0.265,4.044-0.602,8.85,5.128L143.98,523.475z"/>
<path fill="#70C9BE" d="M145.759,552.673c0,0-9.973,0.626-11.282,5.127c-1.309,4.499,4.201,5.834,4.201,5.834
	s4.054-1.624,0.897-3.857c0,0-2.076-0.974-3.34,0.049c-1.265,1.021-0.009-0.98,0.976-2.468c0.753-1.138,2.416-3.299,9.869-2.687
	L145.759,552.673z"/>
<path fill="none" stroke="#70C9BE" stroke-width="3" stroke-miterlimit="10" d="M147.2,301.917c0,0,17.777,2.806,8.11,20.671
	c0,0,7,18.72-11.667,13.626c0,0-5.666,17.299-15.333,2.936c0,0-11.23,10.543-16.608-2.936c0,0-17.047,6.523-15.392-12.441
	c0,0-11.755,2.754-8.333-10.633c0,0-13.334,2.301-10.334-11.026c0,0-10.666-2.788-4.333-13.558c0,0-11.684-8.436-2.009-17.77
	c0,0-7.959-15.666,7.675-16c0,0-4.334-9.866,5.666-11.933c0,0-6.564-12.431,6.566-14.631c0,0-3.941-14.77,10.247-15.436
	c0,0-0.479-18.333,17.521-8.667c0,0,5.999-12.63,15.666-2.815c0,0,5.245-14.286,14.789-3.735c0,0,11.887-13.117,19.216-0.117
	c0,0,15.995-8.667,17.329,6c0,0,14.68-7.791,16.507,7.104c0,0,12.827-4.771,13.493,7.229c0,0,15.333-4.794,14.667,10.436
	c0,0,16.482-4.08,11.908,12.575c0,0,13.759,0.495,9.092,12.575c0,0,14.039-0.92,10.686,13.08c0,0,14.963,3.855,8.972,18.594
	c0,0,13.208,5.393,5.442,17.066c0,0,10.829,4.493,6.198,14.916c0,0,11.037,4.714,2.703,14.735c0,0,5.836,5.168,5.409,10.32"/>
<path fill="none" stroke="#70C9BE" stroke-width="3" stroke-miterlimit="10" d="M151.639,258.32c0,0-6.003,6.799,0,14.465
	c0,0-12.997,11,2.337,18c0,0-5.793,6.68-2.563,12.507"/>
<path fill="none" stroke="#70C9BE" stroke-width="3" stroke-miterlimit="10" d="M157.915,315.75c0,0,4.071,4.388,10.732,0.878
	c0,0-3.533,24.711,22.065,14.268c0,0,15.735,19.655,21.579-0.68c0,0,8.536,10.029,14.943,2.966"/>
<path fill="none" stroke="#70C9BE" stroke-width="3" stroke-miterlimit="10" d="M160.998,259.367c0,0-3.022,9.085,1.978,11.418
	c0,0-19.333,10.333,0,20.667c0,0-9.986,18.868,9.84,18.434c0,0,5.358,16.756,19.759,8.995c0,0,12.436,16.095,24.752,0
	c0,0,0.238,4.177,6.61,3.707"/>
<path fill="none" stroke="#70C9BE" stroke-width="3" stroke-miterlimit="10" d="M168.648,261.967c0,0-12.015,29.844,7.384,44.831
	c19.399,14.987,41.24,5.938,43.092,4.963"/>
<path fill="none" stroke="#70C9BE" stroke-width="3" stroke-miterlimit="10" d="M180.725,268.689c0,0-11.314,41.957,33.529,34.049"
	/>
<path fill="#70C9BE" d="M188.475,274.574c0,0-6.898,27.236,20.135,20.724L188.475,274.574z"/>
<line fill="none" stroke="#70C9BE" stroke-width="2" stroke-miterlimit="10" x1="166.178" y1="270.613" x2="179.714" y2="274.574"/>
<line fill="none" stroke="#70C9BE" stroke-width="2" stroke-miterlimit="10" x1="164.97" y1="282.119" x2="179.453" y2="280.806"/>
<line fill="none" stroke="#70C9BE" stroke-width="2" stroke-miterlimit="10" x1="166.499" y1="292.84" x2="180.64" y2="288.556"/>
<line fill="none" stroke="#70C9BE" stroke-width="2" stroke-miterlimit="10" x1="173.467" y1="304.556" x2="183.263" y2="294.451"/>
<line fill="none" stroke="#70C9BE" stroke-width="2" stroke-miterlimit="10" x1="183.263" y1="311.297" x2="190.712" y2="301.063"/>
<line fill="none" stroke="#70C9BE" stroke-width="2" stroke-miterlimit="10" x1="198.148" y1="303.316" x2="195.508" y2="315.356"/>
<line fill="none" stroke="#70C9BE" stroke-width="2" stroke-miterlimit="10" x1="204.265" y1="303.769" x2="205.997" y2="315.109"/>
<line fill="none" stroke="#70C9BE" stroke-width="2" stroke-miterlimit="10" x1="210.762" y1="303.769" x2="214.254" y2="313.139"/>
<path fill="none" stroke="#70C9BE" stroke-width="3" stroke-miterlimit="10" d="M188.006,385.698c0,0-4.564-43.578,41.703-40.411"/>
<path fill="none" stroke="#70C9BE" stroke-width="2" stroke-miterlimit="10" d="M196.453,388.363c0,0,3.519-34.908,35.688-31.576"/>
<path fill="none" stroke="#70C9BE" stroke-width="2" stroke-miterlimit="10" d="M203.321,391.336c0,0,3.925-27.316,29.938-25.926"/>
<path fill="#70C9BE" d="M208.979,393.736c0,0,3.312-24.572,25.387-21.273l1.949,14.412c0,0-17.247-1.926-15.793,13.66
	L208.979,393.736z"/>
<path fill="none" stroke="#70C9BE" stroke-width="3" stroke-miterlimit="10" d="M224.623,403.527c0,0,2.246-11.515,12.633-7.127"/>
<line fill="none" stroke="#70C9BE" stroke-width="2" stroke-miterlimit="10" x1="197.397" y1="383.388" x2="205.131" y2="385.698"/>
<line fill="none" stroke="#70C9BE" stroke-width="2" stroke-miterlimit="10" x1="199.395" y1="375.262" x2="207.62" y2="379.389"/>
<line fill="none" stroke="#70C9BE" stroke-width="2" stroke-miterlimit="10" x1="204.265" y1="368.247" x2="210.762" y2="374.777"/>
<line fill="none" stroke="#70C9BE" stroke-width="2" stroke-miterlimit="10" x1="208.979" y1="362.51" x2="214.864" y2="370.75"/>
<line fill="none" stroke="#70C9BE" stroke-width="2" stroke-miterlimit="10" x1="215.57" y1="359.014" x2="219.325" y2="367.959"/>
<line fill="none" stroke="#70C9BE" stroke-width="2" stroke-miterlimit="10" x1="223.435" y1="356.564" x2="226.12" y2="365.799"/>
<line fill="none" stroke="#70C9BE" stroke-width="2" stroke-miterlimit="10" x1="136.976" y1="300.403" x2="143.561" y2="310.772"/>
<line fill="none" stroke="#70C9BE" stroke-width="2" stroke-miterlimit="10" x1="132.88" y1="302.737" x2="132.818" y2="314.147"/>
<line fill="none" stroke="#70C9BE" stroke-width="2" stroke-miterlimit="10" x1="128.267" y1="300.403" x2="121.225" y2="308.644"/>
<line fill="none" stroke="#70C9BE" stroke-width="2" stroke-miterlimit="10" x1="124.352" y1="294.451" x2="114.009" y2="299.504"/>
<line fill="none" stroke="#70C9BE" stroke-width="2" stroke-miterlimit="10" x1="110.571" y1="288.556" x2="123.697" y2="286.209"/>
<line fill="none" stroke="#70C9BE" stroke-width="2" stroke-miterlimit="10" x1="112.184" y1="274.574" x2="124.579" y2="280.806"/>
<line fill="none" stroke="#70C9BE" stroke-width="2" stroke-miterlimit="10" x1="118.361" y1="261.967" x2="126.911" y2="274.574"/>
<line fill="none" stroke="#70C9BE" stroke-width="2" stroke-miterlimit="10" x1="125.932" y1="253.373" x2="132.818" y2="265.97"/>
<line fill="none" stroke="#70C9BE" stroke-width="2" stroke-miterlimit="10" x1="134.271" y1="247.049" x2="138.055" y2="261.967"/>
<line fill="none" stroke="#70C9BE" stroke-width="2" stroke-miterlimit="10" x1="146.498" y1="243.193" x2="146.498" y2="259.367"/>
<line fill="none" stroke="#70C9BE" stroke-width="2" stroke-miterlimit="10" x1="155.644" y1="258.454" x2="157.915" y2="243.25"/>
<line fill="none" stroke="#70C9BE" stroke-width="2" stroke-miterlimit="10" x1="164.97" y1="260.537" x2="172.211" y2="246.319"/>
<line fill="none" stroke="#70C9BE" stroke-width="2" stroke-miterlimit="10" x1="173.569" y1="264.343" x2="183.672" y2="251.28"/>
<line fill="none" stroke="#70C9BE" stroke-width="2" stroke-miterlimit="10" x1="180.725" y1="268.689" x2="192.575" y2="256.59"/>
<line fill="none" stroke="#70C9BE" stroke-width="2" stroke-miterlimit="10" x1="186.049" y1="272.593" x2="199.993" y2="261.967"/>
<line fill="none" stroke="#70C9BE" stroke-width="2" stroke-miterlimit="10" x1="192.977" y1="278.787" x2="207.67" y2="268.689"/>
<line fill="none" stroke="#70C9BE" stroke-width="2" stroke-miterlimit="10" x1="198.148" y1="283.589" x2="214.254" y2="275.609"/>
<line fill="none" stroke="#70C9BE" stroke-width="2" stroke-miterlimit="10" x1="203.416" y1="289.069" x2="219.459" y2="282.119"/>
<line fill="none" stroke="#70C9BE" stroke-width="2" stroke-miterlimit="10" x1="208.609" y1="295.297" x2="223.52" y2="288.637"/>
<line fill="none" stroke="#70C9BE" stroke-width="2" stroke-miterlimit="10" x1="214.254" y1="302.737" x2="228.022" y2="295.297"/>
<line fill="none" stroke="#70C9BE" stroke-width="2" stroke-miterlimit="10" x1="219.124" y1="311.761" x2="233.826" y2="304.522"/>
<line fill="none" stroke="#70C9BE" stroke-width="2" stroke-miterlimit="10" x1="222.647" y1="319.32" x2="237.256" y2="312.317"/>
<line fill="none" stroke="#70C9BE" stroke-width="2" stroke-miterlimit="10" x1="225.403" y1="326.788" x2="240.416" y2="322.588"/>
<line fill="none" stroke="#70C9BE" stroke-width="2" stroke-miterlimit="10" x1="227.235" y1="333.182" x2="243.606" y2="332.148"/>
<line fill="none" stroke="#70C9BE" stroke-width="2" stroke-miterlimit="10" x1="229.1" y1="342.085" x2="246.443" y2="342.085"/>
<line fill="none" stroke="#70C9BE" stroke-width="2" stroke-miterlimit="10" x1="230.802" y1="351.191" x2="248.898" y2="352.177"/>
<line fill="none" stroke="#70C9BE" stroke-width="2" stroke-miterlimit="10" x1="232.19" y1="359.031" x2="250.735" y2="361.078"/>
<line fill="none" stroke="#70C9BE" stroke-width="2" stroke-miterlimit="10" x1="233.858" y1="369.164" x2="253.001" y2="370.971"/>
<line fill="none" stroke="#70C9BE" stroke-width="2" stroke-miterlimit="10" x1="235.421" y1="380.26" x2="254.002" y2="382.155"/>
<line fill="none" stroke="#70C9BE" stroke-width="2" stroke-miterlimit="10" x1="236.315" y1="389.816" x2="255.029" y2="391.908"/>
<line fill="none" stroke="#70C9BE" stroke-width="2" stroke-miterlimit="10" x1="236.315" y1="397.656" x2="255.956" y2="402.609"/>
<line fill="none" stroke="#70C9BE" stroke-width="2" stroke-miterlimit="10" x1="237.655" y1="407.116" x2="252.669" y2="416.748"/>
<path fill="none" stroke="#70C9BE" stroke-width="2" stroke-miterlimit="10" d="M171.242,329.442c0,0-0.038,10.907-2.652,13.626
	c-2.614,2.719-5.614,2.219-5.614,2.219s8.469,1.642,9.234,5.904c0.766,4.263,6.578,11.797,13.838,8.863
	c0,0-7.943,1.694-6.335,12.104c1.608,10.41-1.349,7.23-1.349,7.23s7.337-2.336,9.641-0.302"/>
<path fill="none" stroke="#70C9BE" stroke-width="2" stroke-miterlimit="10" d="M187.687,331.489c0,0-10.862,21.355,3.025,33.87"/>
<path fill="none" stroke="#70C9BE" stroke-width="2" stroke-miterlimit="10" d="M195.508,335.647c0,0-4.527,12.123,1.346,20.257
	l7.412-6.166c0,0-3.099-3.41-0.944-10.306L195.508,335.647z"/>
<path fill="none" stroke="#70C9BE" stroke-width="2" stroke-miterlimit="10" d="M214.864,331.489c0,0-4.617,9.524,1.623,14.286"/>
<line fill="none" stroke="#70C9BE" stroke-width="2" stroke-miterlimit="10" x1="194.683" y1="341.037" x2="202.57" y2="343.58"/>
<line fill="none" stroke="#70C9BE" stroke-width="2" stroke-miterlimit="10" x1="194.031" y1="348.424" x2="202.57" y2="347.716"/>
<path fill="none" stroke="#70C9BE" stroke-width="3" stroke-miterlimit="10" d="M353.473,391.908c0,0,6.129-6.635,18.254-9.753
	c12.125-3.118,14.344-12.868,14.984-13.743c0,0-0.319,18.959,0.374,22.191c0,0,3.052,15.84,2.158,22.191"/>
<path fill="none" stroke="#70C9BE" stroke-width="2" stroke-miterlimit="10" d="M355.032,401.428c0,0,21.034-4.693,24.989,19.708"/>
<line fill="none" stroke="#70C9BE" stroke-width="2" stroke-miterlimit="10" x1="359.993" y1="391.488" x2="359.852" y2="401.066"/>
<line fill="none" stroke="#70C9BE" stroke-width="2" stroke-miterlimit="10" x1="365.806" y1="402.06" x2="367.527" y2="390.887"/>
<line fill="none" stroke="#70C9BE" stroke-width="2" stroke-miterlimit="10" x1="375.066" y1="393.017" x2="369.895" y2="403.889"/>
<line fill="none" stroke="#70C9BE" stroke-width="2" stroke-miterlimit="10" x1="374.602" y1="407.95" x2="381.711" y2="399.783"/>
<line fill="none" stroke="#70C9BE" stroke-width="2" stroke-miterlimit="10" x1="384.914" y1="408.815" x2="377.801" y2="413.259"/>
<path fill="none" stroke="#70C9BE" stroke-width="2" stroke-miterlimit="10" d="M148.144,308.454c0,0,15.296,10.428-2.936,15.318
	c0,0,4.18,19.695-12.39,4.891c0,0-6.566,17.071-14.436,0.388c0,0-10.272,13.062-12.005-6.268c0,0-19.753,0.37-6.232-14.329
	c0,0-14.703,5.232-8.935-8.051c0,0-19.408-0.572-7.604-15.356c0,0-16.792-11.227-1.377-19.077c0,0-4.454-12.742,8.981-11.462
	c0,0-3.232-9.887,6.768-9.221c0,0-12.822-15.871,3.479-15.702c0,0-5.27-15.626,7.689-10.09c0,0,1.273-16.576,14.553-3.642
	c0,0,6.422-15.907,13.278-0.231c0,0,3.293-16,12.456-4.825c0,0,7.878-13.677,15.294,0.74c0,0,12.872-11.141,13.895,6.055
	c0,0,13.517-7.924,10.387,10.979c0,0,13.356-17.326,18.663,0.362c0,0,14.796-8.677,13.468,8.172c0,0,16.263-4.769,6.884,12.79
	c0,0,14.901-0.943,10.455,14.448c0,0,16.001-10.913,14,11.266c0,0,18.824,1.645,7.34,15.565c0,0,15.486,5.947,2.372,13.602
	c0,0,13.89,2.133,5.495,14.104c0,0,15.947-2.45,7.62,14.896c0,0,14.655,9.493-1.416,13.94c0,0,6.998,6.149-1.97,13.362"/>
<g>
	<rect x="26.805" y="57.126" fill="none" width="522.988" height="70.115"/>
	<path fill="#EE266E" d="M74.556,57.091v61.25h-8.75v-61.25H74.556z"/>
	<path fill="#EE266E" d="M92.671,70.011v48.33h-8.75v-61.25h12.1l8.682,46.895l8.682-46.895h12.1v61.25h-8.75v-48.33l-8.75,48.33
		h-6.562L92.671,70.011z"/>
	<path fill="#EE266E" d="M138.848,118.341h-8.75l13.125-61.25h8.75l13.125,61.25h-8.75l-3.281-15.312h-10.938L138.848,118.341z
		 M147.598,70.216l-4.375,26.25h8.75L147.598,70.216z"/>
	<path fill="#EE266E" d="M194.083,96.466v-2.188h-8.75v-6.494h17.5v30.557h-6.562l-2.188-6.562c-1.299,3.623-3.794,7.178-8.75,7.178
		c-14.287,0-17.5-10.049-17.5-24.473V78.966c0-13.159,4.683-22.49,17.842-22.49c12.236,0,16.646,7.998,16.646,20.303h-8.75
		c0-7.451-0.581-13.125-7.896-13.125s-9.092,5.674-9.092,13.125v19.688c0,8.066,1.196,15.312,8.75,15.312
		C192.852,111.779,194.083,104.464,194.083,96.466z"/>
	<path fill="#EE266E" d="M218.658,89.904v21.875h15.312v6.562h-24.062v-61.25h24.062v6.562h-15.312v19.688h10.938v6.562H218.658z"/>
	<path fill="#EE266E" d="M253.111,63.654c-4.238,0-6.562,2.495-6.562,6.665c0,3.794,1.982,6.733,4.375,8.647l10.938,8.75
		c4.478,3.623,8.75,9.092,8.75,16.919c0,9.092-6.118,14.321-15.312,14.321c-11.45,0-16.851-7.417-17.5-18.115l8.75-2.188
		c0.308,6.323,2.119,13.125,8.75,13.125c4.375,0,6.562-2.188,6.562-6.562c0-5.503-3.384-8.374-6.562-10.938l-10.938-8.75
		c-3.76-2.939-6.597-7.793-6.597-14.287c0-9.092,6.152-14.766,15.347-14.766c10.835,0,16.714,5.981,17.5,15.928l-8.75,2.188
		C261.485,68.781,259.297,63.654,253.111,63.654z"/>
	<path fill="#EE266E" d="M321.641,76.437v22.217c0,12.305-4.443,20.303-16.885,20.303c-12.543,0-16.884-7.827-16.884-20.303V76.437
		c0-12.476,4.341-19.961,16.884-19.961C317.197,56.476,321.641,64.132,321.641,76.437z M296.621,74.25v26.592
		c0,6.562,1.572,10.938,8.135,10.938s8.135-4.375,8.135-10.938V74.25c0-6.562-1.572-10.596-8.135-10.596
		S296.621,67.687,296.621,74.25z"/>
	<path fill="#EE266E" d="M338.048,63.654v19.688h10.938v6.562h-10.938v28.438h-8.75v-61.25h24.062v6.562H338.048z"/>
	<path fill="#EE266E" d="M378.482,57.091v61.25h-8.75v-61.25H378.482z"/>
	<path fill="#EE266E" d="M396.598,77.599v40.742h-8.75v-61.25h6.562l15.312,37.871V57.091h8.75v61.25h-6.221L396.598,77.599z"/>
	<path fill="#EE266E" d="M440.724,118.341h-13.501v-61.25h13.569c12.817,0,17.5,4.648,17.5,17.5v24.062
		C458.292,111.676,453.78,118.341,440.724,118.341z M440.621,63.654h-4.648v48.125h4.819c9.263,0,8.75-6.289,8.75-15.312V76.779
		C449.542,68.405,449.303,63.654,440.621,63.654z"/>
	<path fill="#EE266E" d="M475.108,57.091v61.25h-8.75v-61.25H475.108z"/>
	<path fill="#EE266E" d="M489.088,118.341h-8.75l13.125-61.25h8.75l13.125,61.25h-8.75l-3.281-15.312h-10.938L489.088,118.341z
		 M497.838,70.216l-4.375,26.25h8.75L497.838,70.216z"/>
</g>
<g>
	<rect x="25.544" y="135.287" fill="none" width="522.988" height="35.058"/>
	<path d="M35.236,144.417v6.104h-0.527v-14.219h4.443c1.471,0,2.604,0.37,3.398,1.108s1.191,1.72,1.191,2.944
		c0,1.237-0.396,2.223-1.187,2.959s-1.925,1.104-3.403,1.104H35.236z M35.236,143.89h3.916c1.348,0,2.362-0.335,3.042-1.006
		s1.021-1.507,1.021-2.51c0-1.029-0.338-1.876-1.016-2.544s-1.693-1.001-3.047-1.001h-3.916V143.89z"/>
	<path d="M54.084,143.373h-6.836v6.621h7.832v0.527h-8.359v-14.219h8.359v0.527h-7.832v6.016h6.836V143.373z"/>
	<path d="M58.225,143.851v6.68h-0.527v-14.219h4.629c1.498,0,2.65,0.324,3.457,0.972s1.211,1.593,1.211,2.837
		c0,0.801-0.255,1.528-0.767,2.183s-1.209,1.079-2.095,1.274c1.022,0.176,1.754,0.55,2.197,1.123s0.664,1.305,0.664,2.197v1.338
		c0,0.443,0.054,0.84,0.161,1.191s0.285,0.638,0.532,0.859v0.244H67.17c-0.234-0.267-0.41-0.597-0.527-0.991
		s-0.176-0.835-0.176-1.323v-1.299c0-0.963-0.331-1.715-0.991-2.256s-1.603-0.811-2.827-0.811H58.225z M58.225,143.324h4.004
		c1.452,0,2.521-0.306,3.208-0.918s1.03-1.374,1.03-2.285c0-1.061-0.347-1.874-1.04-2.437s-1.727-0.845-3.101-0.845h-4.102V143.324z
		"/>
	<path d="M78.586,143.529h-6.992v6.992h-0.527v-14.219h8.516v0.527h-7.988v6.152h6.992V143.529z"/>
	<path d="M92.141,144.476c0,1.92-0.475,3.442-1.426,4.565s-2.259,1.685-3.926,1.685c-1.673,0-2.987-0.562-3.94-1.685
		s-1.431-2.645-1.431-4.565v-2.129c0-1.914,0.474-3.434,1.421-4.561s2.257-1.689,3.931-1.689c1.667,0,2.979,0.563,3.936,1.689
		s1.436,2.646,1.436,4.561V144.476z M91.613,142.328c0-1.745-0.42-3.131-1.26-4.16s-2.035-1.543-3.584-1.543
		c-1.543,0-2.731,0.514-3.564,1.543s-1.25,2.416-1.25,4.16v2.148c0,1.758,0.418,3.151,1.255,4.18s2.03,1.543,3.579,1.543
		s2.741-0.513,3.574-1.538s1.25-2.42,1.25-4.185V142.328z"/>
	<path d="M95.871,143.851v6.68h-0.527v-14.219h4.629c1.498,0,2.65,0.324,3.457,0.972s1.211,1.593,1.211,2.837
		c0,0.801-0.255,1.528-0.767,2.183s-1.209,1.079-2.095,1.274c1.022,0.176,1.754,0.55,2.197,1.123s0.664,1.305,0.664,2.197v1.338
		c0,0.443,0.054,0.84,0.161,1.191s0.285,0.638,0.532,0.859v0.244h-0.518c-0.234-0.267-0.41-0.597-0.527-0.991
		s-0.176-0.835-0.176-1.323v-1.299c0-0.963-0.331-1.715-0.991-2.256s-1.603-0.811-2.827-0.811H95.871z M95.871,143.324h4.004
		c1.452,0,2.521-0.306,3.208-0.918s1.03-1.374,1.03-2.285c0-1.061-0.347-1.874-1.04-2.437s-1.727-0.845-3.101-0.845h-4.102V143.324z
		"/>
	<path d="M115.363,149.681h0.059l5.938-13.379h0.596v14.219h-0.527v-12.92l-0.059-0.01l-5.762,12.93h-0.42l-5.889-13.213
		l-0.059,0.01v13.203h-0.527v-14.219h0.732L115.363,149.681z"/>
	<path d="M133.527,146.273h-6.943l-1.592,4.248h-0.576l5.312-14.219h0.645l5.322,14.219h-0.576L133.527,146.273z M126.779,145.746
		h6.553l-2.979-7.959l-0.273-0.83h-0.059l-0.264,0.83L126.779,145.746z"/>
	<path d="M148.225,150.521h-0.527l-9.121-13.242l-0.059,0.02v13.223h-0.537v-14.219h0.537l9.121,13.213l0.059-0.02v-13.193h0.527
		V150.521z"/>
	<path d="M161.623,146.166l0.02,0.059c0.026,1.458-0.415,2.573-1.323,3.345s-2.104,1.157-3.589,1.157
		c-1.556,0-2.803-0.575-3.74-1.724s-1.406-2.658-1.406-4.526v-2.129c0-1.862,0.469-3.369,1.406-4.521s2.184-1.729,3.74-1.729
		c1.484,0,2.681,0.387,3.589,1.162s1.349,1.881,1.323,3.32l-0.02,0.059h-0.449c0-1.283-0.399-2.272-1.196-2.969
		s-1.88-1.045-3.247-1.045c-1.387,0-2.503,0.524-3.35,1.572s-1.27,2.425-1.27,4.131v2.148c0,1.725,0.423,3.11,1.27,4.155
		s1.963,1.567,3.35,1.567c1.367,0,2.45-0.335,3.247-1.006s1.196-1.68,1.196-3.027H161.623z"/>
	<path d="M172.453,143.373h-6.836v6.621h7.832v0.527h-8.359v-14.219h8.359v0.527h-7.832v6.016h6.836V143.373z"/>
	<path d="M189.299,147.171c0-0.814-0.333-1.47-1.001-1.968s-1.805-1.011-3.413-1.538c-1.602-0.488-2.782-1.006-3.54-1.553
		s-1.138-1.357-1.138-2.432c0-1.068,0.444-1.932,1.333-2.593s2.017-0.991,3.384-0.991c1.419,0,2.56,0.365,3.423,1.094
		s1.281,1.748,1.255,3.057l-0.02,0.059h-0.449c0-1.061-0.391-1.94-1.172-2.637s-1.793-1.045-3.037-1.045
		c-1.283,0-2.301,0.301-3.057,0.903s-1.133,1.313-1.133,2.134s0.304,1.486,0.913,1.997s1.743,1.011,3.403,1.499
		c1.615,0.508,2.816,1.035,3.604,1.582s1.182,1.351,1.182,2.412c0,1.081-0.465,1.947-1.396,2.598s-2.08,0.977-3.447,0.977
		c-1.426,0-2.653-0.333-3.682-1.001s-1.527-1.717-1.494-3.149l0.02-0.059h0.439c0,1.289,0.475,2.225,1.426,2.808
		s2.047,0.874,3.291,0.874s2.272-0.288,3.086-0.864S189.299,148.037,189.299,147.171z"/>
	<path d="M202.98,150.521h-0.527v-6.787h-9.082v6.787h-0.527v-14.219h0.527v6.904h9.082v-6.904h0.527V150.521z"/>
	<path d="M216.955,144.476c0,1.92-0.475,3.442-1.426,4.565s-2.259,1.685-3.926,1.685c-1.673,0-2.987-0.562-3.94-1.685
		s-1.431-2.645-1.431-4.565v-2.129c0-1.914,0.474-3.434,1.421-4.561s2.257-1.689,3.931-1.689c1.667,0,2.979,0.563,3.936,1.689
		s1.436,2.646,1.436,4.561V144.476z M216.428,142.328c0-1.745-0.42-3.131-1.26-4.16s-2.035-1.543-3.584-1.543
		c-1.543,0-2.731,0.514-3.564,1.543s-1.25,2.416-1.25,4.16v2.148c0,1.758,0.418,3.151,1.255,4.18s2.03,1.543,3.579,1.543
		s2.741-0.513,3.574-1.538s1.25-2.42,1.25-4.185V142.328z"/>
	<path d="M222.385,147.201l0.615,2.305h0.059l0.615-2.305l3.359-10.898h0.586l3.34,10.898l0.605,2.305h0.059l0.635-2.305
		l2.93-10.898h0.576l-3.828,14.219h-0.596l-3.525-11.855l-0.469-1.416h-0.059l-0.449,1.416l-3.555,11.855h-0.596l-3.838-14.219
		h0.586L222.385,147.201z"/>
	<path d="M247.814,146.166l0.02,0.059c0.026,1.458-0.415,2.573-1.323,3.345s-2.104,1.157-3.589,1.157
		c-1.556,0-2.803-0.575-3.74-1.724s-1.406-2.658-1.406-4.526v-2.129c0-1.862,0.469-3.369,1.406-4.521s2.184-1.729,3.74-1.729
		c1.484,0,2.681,0.387,3.589,1.162s1.349,1.881,1.323,3.32l-0.02,0.059h-0.449c0-1.283-0.399-2.272-1.196-2.969
		s-1.88-1.045-3.247-1.045c-1.387,0-2.503,0.524-3.35,1.572s-1.27,2.425-1.27,4.131v2.148c0,1.725,0.423,3.11,1.27,4.155
		s1.963,1.567,3.35,1.567c1.367,0,2.45-0.335,3.247-1.006s1.196-1.68,1.196-3.027H247.814z"/>
	<path d="M258.771,146.273h-6.943l-1.592,4.248h-0.576l5.312-14.219h0.645l5.322,14.219h-0.576L258.771,146.273z M252.023,145.746
		h6.553l-2.979-7.959l-0.273-0.83h-0.059l-0.264,0.83L252.023,145.746z"/>
	<path d="M271.623,147.171c0-0.814-0.333-1.47-1.001-1.968s-1.805-1.011-3.413-1.538c-1.602-0.488-2.782-1.006-3.54-1.553
		s-1.138-1.357-1.138-2.432c0-1.068,0.444-1.932,1.333-2.593s2.017-0.991,3.384-0.991c1.419,0,2.56,0.365,3.423,1.094
		s1.281,1.748,1.255,3.057l-0.02,0.059h-0.449c0-1.061-0.391-1.94-1.172-2.637s-1.793-1.045-3.037-1.045
		c-1.283,0-2.301,0.301-3.057,0.903s-1.133,1.313-1.133,2.134s0.304,1.486,0.913,1.997s1.743,1.011,3.403,1.499
		c1.615,0.508,2.816,1.035,3.604,1.582s1.182,1.351,1.182,2.412c0,1.081-0.465,1.947-1.396,2.598s-2.08,0.977-3.447,0.977
		c-1.426,0-2.653-0.333-3.682-1.001s-1.527-1.717-1.494-3.149l0.02-0.059h0.439c0,1.289,0.475,2.225,1.426,2.808
		s2.047,0.874,3.291,0.874s2.272-0.288,3.086-0.864S271.623,148.037,271.623,147.171z"/>
	<path d="M282.531,143.373h-6.836v6.621h7.832v0.527h-8.359v-14.219h8.359v0.527h-7.832v6.016h6.836V143.373z"/>
	<path d="M301.047,144.476c0,1.92-0.476,3.442-1.426,4.565s-2.259,1.685-3.926,1.685c-1.673,0-2.986-0.562-3.94-1.685
		s-1.431-2.645-1.431-4.565v-2.129c0-1.914,0.474-3.434,1.421-4.561s2.258-1.689,3.931-1.689c1.667,0,2.979,0.563,3.936,1.689
		s1.436,2.646,1.436,4.561V144.476z M300.52,142.328c0-1.745-0.42-3.131-1.26-4.16s-2.034-1.543-3.584-1.543
		c-1.543,0-2.731,0.514-3.564,1.543s-1.25,2.416-1.25,4.16v2.148c0,1.758,0.418,3.151,1.255,4.18s2.029,1.543,3.579,1.543
		s2.741-0.513,3.574-1.538s1.25-2.42,1.25-4.185V142.328z"/>
	<path d="M311.818,143.529h-6.992v6.992h-0.527v-14.219h8.516v0.527h-7.988v6.152h6.992V143.529z"/>
	<path d="M329.582,146.166l0.02,0.059c0.026,1.458-0.415,2.573-1.323,3.345s-2.104,1.157-3.589,1.157
		c-1.556,0-2.803-0.575-3.74-1.724s-1.406-2.658-1.406-4.526v-2.129c0-1.862,0.469-3.369,1.406-4.521s2.185-1.729,3.74-1.729
		c1.484,0,2.681,0.387,3.589,1.162s1.35,1.881,1.323,3.32l-0.02,0.059h-0.449c0-1.283-0.398-2.272-1.196-2.969
		s-1.88-1.045-3.247-1.045c-1.387,0-2.503,0.524-3.35,1.572s-1.27,2.425-1.27,4.131v2.148c0,1.725,0.423,3.11,1.27,4.155
		s1.963,1.567,3.35,1.567c1.367,0,2.449-0.335,3.247-1.006s1.196-1.68,1.196-3.027H329.582z"/>
	<path d="M333.586,149.994h7.686v0.527h-8.223v-14.219h0.537V149.994z"/>
	<path d="M351.76,146.273h-6.943l-1.592,4.248h-0.576l5.312-14.219h0.645l5.322,14.219h-0.576L351.76,146.273z M345.012,145.746
		h6.553l-2.979-7.959l-0.273-0.83h-0.059l-0.264,0.83L345.012,145.746z"/>
	<path d="M364.611,147.171c0-0.814-0.334-1.47-1.001-1.968s-1.805-1.011-3.413-1.538c-1.602-0.488-2.781-1.006-3.54-1.553
		s-1.138-1.357-1.138-2.432c0-1.068,0.444-1.932,1.333-2.593s2.017-0.991,3.384-0.991c1.419,0,2.561,0.365,3.423,1.094
		s1.281,1.748,1.255,3.057l-0.02,0.059h-0.449c0-1.061-0.391-1.94-1.172-2.637s-1.794-1.045-3.037-1.045
		c-1.282,0-2.302,0.301-3.057,0.903s-1.133,1.313-1.133,2.134s0.305,1.486,0.913,1.997s1.743,1.011,3.403,1.499
		c1.614,0.508,2.815,1.035,3.604,1.582s1.182,1.351,1.182,2.412c0,1.081-0.466,1.947-1.396,2.598s-2.08,0.977-3.447,0.977
		c-1.426,0-2.653-0.333-3.682-1.001s-1.526-1.717-1.494-3.149l0.02-0.059h0.439c0,1.289,0.476,2.225,1.426,2.808
		s2.048,0.874,3.291,0.874s2.272-0.288,3.086-0.864S364.611,148.037,364.611,147.171z"/>
	<path d="M376.555,147.171c0-0.814-0.334-1.47-1.001-1.968s-1.805-1.011-3.413-1.538c-1.602-0.488-2.781-1.006-3.54-1.553
		s-1.138-1.357-1.138-2.432c0-1.068,0.444-1.932,1.333-2.593s2.017-0.991,3.384-0.991c1.419,0,2.561,0.365,3.423,1.094
		s1.281,1.748,1.255,3.057l-0.02,0.059h-0.449c0-1.061-0.391-1.94-1.172-2.637s-1.794-1.045-3.037-1.045
		c-1.282,0-2.302,0.301-3.057,0.903s-1.133,1.313-1.133,2.134s0.305,1.486,0.913,1.997s1.743,1.011,3.403,1.499
		c1.614,0.508,2.815,1.035,3.604,1.582s1.182,1.351,1.182,2.412c0,1.081-0.466,1.947-1.396,2.598s-2.08,0.977-3.447,0.977
		c-1.426,0-2.653-0.333-3.682-1.001s-1.526-1.717-1.494-3.149l0.02-0.059h0.439c0,1.289,0.476,2.225,1.426,2.808
		s2.048,0.874,3.291,0.874s2.272-0.288,3.086-0.864S376.555,148.037,376.555,147.171z"/>
	<path d="M381.018,150.521h-0.527v-14.219h0.527V150.521z"/>
	<path d="M394.807,146.166l0.02,0.059c0.026,1.458-0.415,2.573-1.323,3.345s-2.104,1.157-3.589,1.157
		c-1.556,0-2.803-0.575-3.74-1.724s-1.406-2.658-1.406-4.526v-2.129c0-1.862,0.469-3.369,1.406-4.521s2.185-1.729,3.74-1.729
		c1.484,0,2.681,0.387,3.589,1.162s1.35,1.881,1.323,3.32l-0.02,0.059h-0.449c0-1.283-0.398-2.272-1.196-2.969
		s-1.88-1.045-3.247-1.045c-1.387,0-2.503,0.524-3.35,1.572s-1.27,2.425-1.27,4.131v2.148c0,1.725,0.423,3.11,1.27,4.155
		s1.963,1.567,3.35,1.567c1.367,0,2.449-0.335,3.247-1.006s1.196-1.68,1.196-3.027H394.807z"/>
	<path d="M405.764,146.273h-6.943l-1.592,4.248h-0.576l5.312-14.219h0.645l5.322,14.219h-0.576L405.764,146.273z M399.016,145.746
		h6.553l-2.979-7.959l-0.273-0.83h-0.059l-0.264,0.83L399.016,145.746z"/>
	<path d="M410.754,149.994h7.686v0.527h-8.223v-14.219h0.537V149.994z"/>
	<path d="M426.955,150.521h-0.527v-14.219h0.527V150.521z"/>
	<path d="M441.496,150.521h-0.527l-9.121-13.242l-0.059,0.02v13.223h-0.537v-14.219h0.537l9.121,13.213l0.059-0.02v-13.193h0.527
		V150.521z"/>
	<path d="M445.402,150.521v-14.219h4.229c1.634,0,3.021,0.586,4.16,1.758s1.709,2.666,1.709,4.482v1.738
		c0,1.823-0.569,3.319-1.709,4.487s-2.526,1.753-4.16,1.753H445.402z M445.93,136.83v13.164h3.701c1.478,0,2.737-0.541,3.779-1.621
		s1.562-2.445,1.562-4.092v-1.768c0-1.627-0.521-2.982-1.562-4.062s-2.302-1.621-3.779-1.621H445.93z"/>
	<path d="M459.699,150.521h-0.527v-14.219h0.527V150.521z"/>
	<path d="M471.662,146.273h-6.943l-1.592,4.248h-0.576l5.312-14.219h0.645l5.322,14.219h-0.576L471.662,146.273z M464.914,145.746
		h6.553l-2.979-7.959l-0.273-0.83h-0.059l-0.264,0.83L464.914,145.746z"/>
	<path d="M486.359,150.521h-0.527l-9.121-13.242l-0.059,0.02v13.223h-0.537v-14.219h0.537l9.121,13.213l0.059-0.02v-13.193h0.527
		V150.521z"/>
	<path d="M502.541,146.273h-6.943l-1.592,4.248h-0.576l5.312-14.219h0.645l5.322,14.219h-0.576L502.541,146.273z M495.793,145.746
		h6.553l-2.979-7.959l-0.273-0.83h-0.059l-0.264,0.83L495.793,145.746z"/>
	<path d="M507.473,143.851v6.68h-0.527v-14.219h4.629c1.497,0,2.649,0.324,3.457,0.972s1.211,1.593,1.211,2.837
		c0,0.801-0.256,1.528-0.767,2.183s-1.209,1.079-2.095,1.274c1.022,0.176,1.755,0.55,2.197,1.123s0.664,1.305,0.664,2.197v1.338
		c0,0.443,0.054,0.84,0.161,1.191s0.285,0.638,0.532,0.859v0.244h-0.518c-0.234-0.267-0.41-0.597-0.527-0.991
		s-0.176-0.835-0.176-1.323v-1.299c0-0.963-0.33-1.715-0.991-2.256s-1.604-0.811-2.827-0.811H507.473z M507.473,143.324h4.004
		c1.452,0,2.521-0.306,3.208-0.918s1.03-1.374,1.03-2.285c0-1.061-0.347-1.874-1.04-2.437s-1.727-0.845-3.101-0.845h-4.102V143.324z
		"/>
	<path d="M528.977,136.83h-4.98v13.691h-0.527V136.83h-5.332v-0.527h10.84V136.83z"/>
	<path d="M539.729,147.171c0-0.814-0.334-1.47-1.001-1.968s-1.805-1.011-3.413-1.538c-1.602-0.488-2.781-1.006-3.54-1.553
		s-1.138-1.357-1.138-2.432c0-1.068,0.444-1.932,1.333-2.593s2.017-0.991,3.384-0.991c1.419,0,2.561,0.365,3.423,1.094
		s1.281,1.748,1.255,3.057l-0.02,0.059h-0.449c0-1.061-0.391-1.94-1.172-2.637s-1.794-1.045-3.037-1.045
		c-1.282,0-2.302,0.301-3.057,0.903s-1.133,1.313-1.133,2.134s0.305,1.486,0.913,1.997s1.743,1.011,3.403,1.499
		c1.614,0.508,2.815,1.035,3.604,1.582s1.182,1.351,1.182,2.412c0,1.081-0.466,1.947-1.396,2.598s-2.08,0.977-3.447,0.977
		c-1.426,0-2.653-0.333-3.682-1.001s-1.526-1.717-1.494-3.149l0.02-0.059h0.439c0,1.289,0.476,2.225,1.426,2.808
		s2.048,0.874,3.291,0.874s2.272-0.288,3.086-0.864S539.729,148.037,539.729,147.171z"/>
</g>
<circle fill="#FEE921" cx="364.645" cy="283.005" r="6.808"/>
<circle fill="#FEE921" cx="384.227" cy="283.589" r="5.637"/>
<circle fill="#FEE921" cx="400.849" cy="289.533" r="4.917"/>
<circle fill="#FEE921" cx="414.773" cy="299.474" r="4.13"/>
<circle fill="#FEE921" cx="421.128" cy="313.397" r="3.078"/>
<path fill="#70C9BE" d="M429.88,396.104c5.896,4.268,7.103,2.91,7.103,2.91c-1.244-5.267,5.712-2.607,3.344,0.456
	c-3.278,4.243-10.801-2.367-10.801-2.367L429.88,396.104z"/>
<path fill="#70C9BE" d="M429.942,392.689c6.278-3.681,5.521-5.333,5.521-5.333c-5.322-0.979-0.09-6.278,1.762-2.878
	c2.566,4.708-6.51,8.938-6.51,8.938L429.942,392.689z"/>
<path fill="#70C9BE" d="M425.003,396.619c-0.521-5.306-2.21-3.564-2.21-3.564c-2.286,3.238-4.202-1.868-1.373-2.055
	c3.919-0.261,4.303,5.328,4.303,5.328L425.003,396.619z"/>
<path fill="#70C9BE" d="M415.74,402.019c-0.521-5.306-2.21-3.563-2.21-3.563c-2.286,3.238-4.202-1.868-1.373-2.055
	c3.919-0.261,4.303,5.328,4.303,5.328L415.74,402.019z"/>
<path fill="#70C9BE" d="M407.06,409.308c-0.52-5.306-2.21-3.563-2.21-3.563c-2.286,3.238-4.202-1.868-1.373-2.055
	c3.919-0.261,4.303,5.328,4.303,5.328L407.06,409.308z"/>
<path fill="#70C9BE" d="M399.456,416.707c-0.57-5.811-2.42-3.903-2.42-3.903c-2.504,3.547-4.603-2.046-1.504-2.251
	c4.292-0.286,4.712,5.836,4.712,5.836L399.456,416.707z"/>
<path fill="#70C9BE" d="M391.943,424.788c-0.633-6.448-2.685-4.331-2.685-4.331c-2.778,3.936-5.107-2.27-1.669-2.497
	c4.763-0.317,5.229,6.475,5.229,6.475L391.943,424.788z"/>
<path fill="#70C9BE" d="M384.987,433.22c-0.668-6.806-2.834-4.57-2.834-4.57c-2.932,4.153-5.39-2.396-1.761-2.636
	c5.026-0.335,5.518,6.833,5.518,6.833L384.987,433.22z"/>
<path fill="#70C9BE" d="M377.2,443.065c-0.736-7.506-3.126-5.041-3.126-5.041c-3.233,4.58-5.944-2.643-1.941-2.907
	c5.543-0.37,6.085,7.536,6.085,7.536L377.2,443.065z"/>
<path fill="#70C9BE" d="M411.216,459.472c6.815,4.934,8.209,3.363,8.209,3.363c-1.437-6.087,6.602-3.014,3.865,0.527
	c-3.789,4.904-12.483-2.734-12.483-2.734L411.216,459.472z"/>
<path fill="#70C9BE" d="M414.974,449.338c6.53,4.728,7.866,3.223,7.866,3.223c-1.378-5.833,6.326-2.889,3.704,0.505
	c-3.631,4.7-11.963-2.62-11.963-2.62L414.974,449.338z"/>
<path fill="#70C9BE" d="M418.47,438.533c6.53,4.728,7.866,3.224,7.866,3.224c-1.378-5.833,6.326-2.888,3.704,0.505
	c-3.631,4.7-11.963-2.62-11.963-2.62L418.47,438.533z"/>
<path fill="#70C9BE" d="M421.229,427.625c6.53,4.728,7.866,3.223,7.866,3.223c-1.378-5.833,6.326-2.889,3.704,0.505
	c-3.631,4.7-11.963-2.62-11.963-2.62L421.229,427.625z"/>
<path fill="#70C9BE" d="M424.449,416.555c5.948,4.307,7.165,2.936,7.165,2.936c-1.255-5.312,5.763-2.631,3.374,0.461
	c-3.308,4.281-10.896-2.387-10.896-2.387L424.449,416.555z"/>
<path fill="#70C9BE" d="M426.88,406.579c5.596,4.051,6.74,2.762,6.74,2.762c-1.181-4.999,5.421-2.475,3.174,0.433
	c-3.111,4.027-10.251-2.246-10.251-2.246L426.88,406.579z"/>
<path fill="none" stroke="#70C9BE" stroke-width="2" stroke-miterlimit="10" d="M353.473,536.004c0,0,9.527-31.286-12.947-86.653
	s-18.549-101.635-18.549-101.635s-49.639,30.816-62.615,147.497"/>
<path fill="none" stroke="#70C9BE" stroke-miterlimit="10" d="M344.312,532.328c0,0,6.444-39.693-11.627-84.213
	c-18.072-44.521-19.328-81.956-19.328-81.956s-40.188,33.046-45.739,126.747"/>
<path fill="none" stroke="#70C9BE" stroke-width="0.75" stroke-miterlimit="10" d="M365.997,544.967
	c12.306-33.575-6.004-77.661-6.004-77.661c-36.107-83.194-21.41-142.618-21.41-142.618s-79.579,26.641-93.494,175.252"/>
<path fill="#70C9BE" d="M336.46,337.75c0,0-1.003,5.829-7.634,5.272C328.826,343.022,330.021,335.717,336.46,337.75z"/>
<path fill="#70C9BE" d="M336.333,347.21c0,0,6.583-2.088,8.052,4.61C344.385,351.821,336.836,353.052,336.333,347.21z"/>
<path fill="#70C9BE" d="M306.685,346.267c0,0,4.953,2.455,2.077,7.13C308.762,353.397,303.729,349.912,306.685,346.267z"/>
<path fill="#70C9BE" d="M337.378,330.46c0,0,6.583-2.088,8.052,4.61C345.43,335.07,337.881,336.301,337.378,330.46z"/>
<path fill="#70C9BE" d="M320.189,335.238c0,0,5.164,2.6,2.127,7.472C322.315,342.71,317.073,339.032,320.189,335.238z"/>
<path fill="#70C9BE" d="M335.771,365.671c0,0,3.119-4.593,8.052,4.61C343.823,370.282,335.804,370.619,335.771,365.671z"/>
<path fill="#70C9BE" d="M295.564,358.582c0,0,4.315-1.756,3.477,6.966C299.041,365.548,293.284,362.051,295.564,358.582z"/>
<path fill="#70C9BE" d="M336.74,381.41c0,0,4.183-2.359,8.365,4.014C345.105,385.423,337.495,388.271,336.74,381.41z"/>
<path fill="#70C9BE" d="M249.82,465.221c0,0,4.183-2.359,8.365,4.014C258.185,469.234,250.575,472.081,249.82,465.221z"/>
<path fill="#70C9BE" d="M267.454,405.272c0,0,3.991-0.034,4.47,6.282C271.924,411.554,265.244,410.565,267.454,405.272z"/>
<path fill="#70C9BE" d="M338.891,396.165c0,0,2.012-5.104,8.052,3.618C346.942,399.783,340.359,402.773,338.891,396.165z"/>
<path fill="#70C9BE" d="M287.326,369.441c0,0,3.535-2.945,4.468,5.904C291.794,375.345,285.746,374.895,287.326,369.441z"/>
<path fill="#70C9BE" d="M272.188,394.554c0,0,3.535-2.945,4.468,5.904C276.656,400.458,270.608,400.007,272.188,394.554z"/>
<path fill="#70C9BE" d="M342.468,415.954c0,0,0.852-5.582,9.074,1.935C351.542,417.89,346.134,421.491,342.468,415.954z"/>
<path fill="#70C9BE" d="M257.161,433.254c0,0,1.468-5.121,8.258,2.9C265.419,436.154,259.926,438.875,257.161,433.254z"/>
<path fill="#70C9BE" d="M279.245,381.4c0,0,4.034-2.966,4.476,6.903C283.721,388.304,278.071,387.171,279.245,381.4z"/>
<path fill="#70C9BE" d="M346.492,430.685c0,0,3.852-4.898,8.986,2.311C355.478,432.996,349.668,435.788,346.492,430.685z"/>
<path fill="#70C9BE" d="M261.859,418.646c0,0,4.412-3.081,6.845,4.163C268.704,422.809,263.203,423.658,261.859,418.646z"/>
<path fill="#70C9BE" d="M351.276,445.232c0,0,2.009-5.33,9.181,1.348C360.457,446.58,354.634,450.211,351.276,445.232z"/>
<path fill="#70C9BE" d="M356.561,460.135c0,0,2.939-4.83,8.986,2.31C365.548,462.444,357.573,465.005,356.561,460.135z"/>
<path fill="#70C9BE" d="M253.528,446.188c0,0,4.5-3.422,7.521,5.434C261.049,451.621,252.69,451.091,253.528,446.188z"/>
<path fill="#70C9BE" d="M363.221,475.515c0,0,2.776-4.37,8.986,2.31C372.207,477.824,365.997,481.832,363.221,475.515z"/>
<path fill="#70C9BE" d="M247.373,481.379c0,0,2.776-4.37,8.986,2.31C256.359,483.689,250.149,487.696,247.373,481.379z"/>
<path fill="#70C9BE" d="M367.49,492.489c0,0,3.51-3.688,8.986,2.31C376.477,494.799,370.251,499.081,367.49,492.489z"/>
<path fill="#70C9BE" d="M369.634,509.006c0,0,3.491-5.325,8.986,2.31C378.62,511.315,372.207,514.873,369.634,509.006z"/>
<path fill="#70C9BE" d="M370.09,524.531c0,0,3.535-5.231,8.986,2.31C379.076,526.841,371.983,530.455,370.09,524.531z"/>
<path fill="#70C9BE" d="M367.979,538.919c0,0,3.632-4.165,8.008,4.688C375.987,543.606,368.378,545.976,367.979,538.919z"/>
<path fill="#70C9BE" d="M335.457,355.074c0,0-1.618,5.272-7.634,5.272C327.823,360.346,329.804,352.177,335.457,355.074z"/>
<path fill="#70C9BE" d="M335.791,372.397c0,0,0.669,4.465-7.634,5.272C328.157,377.669,331,369.164,335.791,372.397z"/>
<path fill="#70C9BE" d="M337.655,389.72c0,0,0,5.272-7.634,5.272C330.021,394.992,333.838,386.875,337.655,389.72z"/>
<path fill="#70C9BE" d="M340.652,406.207c0,0,1.102,5.272-7.634,5.272C333.019,411.478,336.74,402.609,340.652,406.207z"/>
<path fill="#70C9BE" d="M344.514,423.178c0,0,0.916,4.6-7.634,5.272C336.88,428.45,340.697,418.925,344.514,423.178z"/>
<path fill="#70C9BE" d="M348.536,437.504c0,0,0.965,4.947-7.634,5.272C340.902,442.776,344.542,434.827,348.536,437.504z"/>
<path fill="#70C9BE" d="M326.712,330.283c0,0-5.23,2.76-8.833-2.835C317.879,327.448,324.397,323.94,326.712,330.283z"/>
<path fill="#70C9BE" d="M313.051,340.663c0,0-5.164,1.932-8.833-2.836C304.218,337.827,311.9,334.415,313.051,340.663z"/>
<path fill="#70C9BE" d="M301.184,351.933c0,0-3.131,3.253-8.833-2.835C292.351,349.098,300.824,346.165,301.184,351.933z"/>
<path fill="#70C9BE" d="M291.476,363.693c0,0-4.178,3.215-8.833-2.835C282.643,360.858,291.402,358.933,291.476,363.693z"/>
<path fill="#70C9BE" d="M283.396,375.652c0,0-3.006,3.504-7.573-2.431C275.823,373.221,283.795,371.113,283.396,375.652z"/>
<path fill="#70C9BE" d="M275.823,387.58c0,0-1.298,3.732-7.797,0.571C268.026,388.15,274.866,382.86,275.823,387.58z"/>
<path fill="#70C9BE" d="M270.196,399.147c0,0-1.753,4.078-8.592,1.336C261.603,400.483,268.005,395.662,270.196,399.147z"/>
<path fill="#70C9BE" d="M354.16,453.154c0,0,1.318,5.272-7.634,5.272C346.526,458.427,350.649,449.238,354.16,453.154z"/>
<path fill="#70C9BE" d="M360.324,468.804c0,0,1.679,5.265-7.634,5.273C352.69,474.077,355.867,466.001,360.324,468.804z"/>
<path fill="#70C9BE" d="M256.14,437.518c0,0,0.293,4.965-7.829,2.901C248.311,440.419,252.877,434.083,256.14,437.518z"/>
<path fill="#70C9BE" d="M246.656,487.038c0,0,0.293,4.965-7.829,2.901C238.827,489.94,243.394,483.603,246.656,487.038z"/>
<path fill="#70C9BE" d="M252.225,453.076c0,0-1.193,5.199-7.829,2.9C244.396,455.977,249.396,449.148,252.225,453.076z"/>
<path fill="#70C9BE" d="M248.784,471.73c0,0-0.754,5.106-7.391,2.808C241.394,474.538,247.394,467.038,248.784,471.73z"/>
<path fill="#70C9BE" d="M365.207,484.451c0,0,1.561,5.145-7.634,5.273C357.573,489.725,360.442,481.832,365.207,484.451z"/>
<path fill="#70C9BE" d="M368.293,500.1c0,0,1.27,6.069-7.634,5.273C360.659,505.373,364.508,497.364,368.293,500.1z"/>
<path fill="#70C9BE" d="M369.991,516.026c0,0-0.097,5.997-7.988,4.72C362.003,520.746,366.625,511.951,369.991,516.026z"/>
<path fill="#70C9BE" d="M369.158,532.177c0,0,0.476,5.313-8.499,3.72C360.659,535.896,365.308,527.933,369.158,532.177z"/>
<path fill="#70C9BE" d="M264.853,411.087c0,0-0.22,4.407-7.594,2.876C257.259,413.964,262.021,407.974,264.853,411.087z"/>
<path fill="#70C9BE" d="M260.276,424.221c0,0-0.006,3.805-7.606,2.842C252.669,427.062,257.458,421.095,260.276,424.221z"/>
</svg>