<!-- Generator: Adobe Illustrator 18.1.1, SVG Export Plug-In  -->
<svg version="1.1"
	 xmlns="http://www.w3.org/2000/svg" xmlns:xlink="http://www.w3.org/1999/xlink" xmlns:a="http://ns.adobe.com/AdobeSVGViewerExtensions/3.0/"
	 x="0px" y="0px" width="324.524px" height="324.524px" viewBox="0 0 324.524 324.524" enable-background="new 0 0 324.524 324.524"
	 xml:space="preserve">
<defs>
</defs>
<path fill="#427E7E" d="M306.436,324.524H18.088C8.098,324.524,0,316.426,0,306.436V18.088C0,8.098,8.098,0,18.088,0h288.348
	c9.99,0,18.088,8.098,18.088,18.088v288.348C324.524,316.426,316.426,324.524,306.436,324.524z"/>
<g id="Wy4xrS.tif_1_">
	<g>
		<g>
			<path fill="#FFFFFF" d="M56.772,210.137c0-25.97,0-51.94,0-77.91c2.048-0.219,4.096-0.617,6.145-0.627
				c14.834-0.079,29.668-0.103,44.502-0.086c3.482,0.004,6.963,0.231,10.536,0.359c-0.12,0.501-0.128,0.714-0.219,0.882
				c-0.487,0.908-0.989,1.809-1.497,2.706c-4.579,8.083-7.593,16.51-7.16,26.028c0.29,6.38,0.24,12.651,2.539,18.833
				c9.063,24.364,32.526,39.815,60.931,34.893c21.046-3.647,37.806-19.135,42.604-41.018c3.011-13.732,0.926-27.038-6.623-39.231
				c-0.592-0.956-1.114-1.955-1.804-3.174c20.74,0,41.067,0,61.417,0c0.037,0.78,0.079,1.258,0.079,1.737
				c-0.04,31.048-0.072,62.095-0.148,93.143c-0.006,2.395-0.031,4.854-0.547,7.174c-2.604,11.7-9.039,20.855-19.378,27.085
				c-6.026,3.631-12.505,5.762-19.807,5.74c-44.854-0.136-89.708-0.067-134.562-0.074c-0.896,0-1.826,0.05-2.684-0.155
				c-11.718-2.805-21.329-8.685-27.68-19.088c-3.057-5.009-5.557-10.312-5.924-16.274c-0.282-4.587-0.226-9.194-0.363-13.791
				C57.057,214.902,56.894,212.52,56.772,210.137z"/>
			<path fill="#FFFFFF" d="M56.772,125.219c0-7.42,0-14.84,0-22.26c0.103-0.737,0.249-1.471,0.303-2.212
				c0.272-3.691,0.128-7.461,0.85-11.061c1.993-9.943,7.438-17.91,15.219-24.375c0.386-0.321,0.818-0.586,1.634-1.164
				c0,14.984,0,29.517,0,44.13c2.885,0,5.477,0,8.302,0c0-1.012,0-1.886,0-2.76c-0.001-14.632-0.01-29.265,0.024-43.897
				c0.002-0.748,0.166-1.943,0.625-2.159c1.507-0.709,3.184-1.062,5.325-1.713c0,17.126,0,33.773,0,50.5c3.224,0,6.01,0,8.905,0
				c0-17.403,0-34.636,0-51.869c1.941,0,3.883,0,5.825,0c-0.038,0.34-0.109,0.68-0.109,1.02c-0.007,16.48-0.009,32.96-0.003,49.44
				c0,0.458,0.096,0.915,0.15,1.399c2.925,0,5.711,0,8.648,0c0-1.06-0.001-1.944,0-2.827c0.017-16.344,0.034-32.688,0.051-49.032
				c33.283,0,66.566,0,99.849,0c0.739,0.102,1.478,0.289,2.217,0.293c5.472,0.025,10.944,0.004,16.416,0.024
				c0.894,0.003,1.827,0.001,2.676,0.235c6.153,1.693,12.115,3.824,17.322,7.642c9.16,6.718,14.69,15.686,16.718,26.744
				c0.527,2.873,0.557,5.836,0.816,8.758c0,8.382,0,16.764,0,25.146c-22.238,0.018-44.476,0.047-66.713,0.004
				c-0.759-0.001-1.653-0.585-2.255-1.141c-9.525-8.784-20.689-13.746-33.739-14.481c-14.92-0.84-27.937,3.751-39.177,13.392
				c-1.86,1.595-3.696,2.566-6.287,2.34c-2.956-0.257-5.953-0.056-8.932-0.059C93.211,125.257,74.991,125.238,56.772,125.219z
				 M213.301,92.25c0.096,0.002,0.192,0.005,0.287,0.007c0,3.844-0.061,7.689,0.018,11.531c0.07,3.382,1.867,5.651,5.263,5.749
				c8.087,0.233,16.19,0.267,24.276,0.034c3.606-0.104,5.296-1.821,5.402-5.33c0.245-8.153,0.259-16.319,0.101-24.475
				c-0.064-3.294-1.839-5.043-5.088-5.087c-8.44-0.114-16.886-0.036-25.325,0.162c-2.874,0.067-4.048,1.23-4.292,4.057
				C213.561,83.334,213.499,87.797,213.301,92.25z"/>
			<path fill="#FFFFFF" d="M204.072,163.043c0.193,21.871-18.457,40.752-40.41,40.911c-24.047,0.174-42.539-17.701-42.78-41.352
				c-0.219-21.503,18.768-40.916,40.197-41.098C185.408,121.296,203.861,139.125,204.072,163.043z M161.704,132.626
				c-15.587-0.147-29.477,13.741-29.64,29.633c-0.171,16.71,13.672,31.058,30.514,30.83c16.588-0.224,30.012-12.294,30.644-29.805
				C193.763,148.307,181.089,132.007,161.704,132.626z"/>
		</g>
	</g>
</g>
</svg>