<!-- Generator: Adobe Illustrator 18.1.1, SVG Export Plug-In  -->
<svg version="1.1"
	 xmlns="http://www.w3.org/2000/svg" xmlns:xlink="http://www.w3.org/1999/xlink" xmlns:a="http://ns.adobe.com/AdobeSVGViewerExtensions/3.0/"
	 x="0px" y="0px" width="324.524px" height="324.524px" viewBox="0 0 324.524 324.524" enable-background="new 0 0 324.524 324.524"
	 xml:space="preserve">
<defs>
</defs>
<path fill="#427E7E" d="M306.436,324.524H18.088C8.098,324.524,0,316.426,0,306.436V18.088C0,8.098,8.098,0,18.088,0h288.348
	c9.99,0,18.088,8.098,18.088,18.088v288.348C324.524,316.426,316.426,324.524,306.436,324.524z"/>
<g id="UO9F3b.tif_1_">
	<g>
		<g>
			<path fill="#FFFFFF" d="M162.501,58.175c56.029-1.245,108.174,45.144,108.104,108.184
				c-0.069,62.522-50.901,109.286-110.173,108.571c-55.751-0.672-109.636-47.336-106.372-114.975
				C56.663,106.036,103.143,56.826,162.501,58.175z M148.497,138.379c8.59,0.033,17.155,0.489,25.67,1.676
				c17.549,2.446,34.595,6.524,50.142,15.473c1.476,0.85,2.993,1.628,4.799,1.707c4.406,0.194,8.217-2.318,9.837-6.607
				c1.512-4.001,0.298-8.347-3.434-10.951c-5.754-4.016-12.165-6.818-18.704-9.261c-24.582-9.183-50.137-12.284-76.194-11.426
				c-13.492,0.444-26.891,2.138-39.927,5.978c-4.838,1.425-7.369,4.32-7.841,8.395c-0.788,6.804,5.38,12.908,13.61,10.469
				C120.164,139.768,134.249,138.399,148.497,138.379z M147.356,154.83c-6.43,0.049-12.843,0.257-19.21,1.084
				c-7.603,0.987-15.156,2.307-22.475,4.643c-4.362,1.393-6.451,5.147-5.523,9.349c0.914,4.14,4.074,6.338,8.702,5.931
				c1.355-0.119,2.703-0.456,4.023-0.811c24.409-6.573,48.697-5.468,72.909,1.098c9.671,2.622,18.625,6.871,27.402,11.631
				c5.713,3.098,11.843-0.905,11.586-7.303c-0.133-3.308-2.006-5.397-4.797-6.998C197.471,160.553,173.117,154.956,147.356,154.83z
				 M157.213,188.519c-19.541-0.525-33.584,1.116-47.443,4.415c-4.36,1.038-6.277,4.002-5.289,7.99
				c0.808,3.261,4.164,4.968,8.23,4.135c10.656-2.185,21.374-3.944,32.274-4.137c20.286-0.359,39.553,3.529,57.155,14.098
				c3.446,2.069,6.449,1.57,8.675-1.492c1.913-2.632,1.259-6.716-1.56-8.84c-1.452-1.094-3.057-2.012-4.668-2.867
				C188.127,193.075,170.543,188.706,157.213,188.519z"/>
		</g>
	</g>
</g>
</svg>