<!-- Generator: Adobe Illustrator 18.1.1, SVG Export Plug-In  -->
<svg version="1.1"
	 xmlns="http://www.w3.org/2000/svg" xmlns:xlink="http://www.w3.org/1999/xlink" xmlns:a="http://ns.adobe.com/AdobeSVGViewerExtensions/3.0/"
	 x="0px" y="0px" width="272.95px" height="272.95px" viewBox="0 0 272.95 272.95" enable-background="new 0 0 272.95 272.95"
	 xml:space="preserve">
<defs>
</defs>
<rect x="0" y="0" fill="#13ACC4" width="272.95" height="272.95"/>
<g>
	<rect x="32.612" y="60.412" fill="none" width="207.726" height="192.127"/>
	<path fill="#FFFFFF" d="M61.072,61.425c0.7,0,1.393,0.069,2.076,0.208c0.684,0.139,1.249,0.313,1.696,0.525L64.332,64
		c-0.464-0.203-0.952-0.368-1.465-0.494c-0.513-0.126-1.111-0.189-1.795-0.189c-1.114,0-2.02,0.476-2.716,1.428
		c-0.695,0.952-1.044,2.157-1.044,3.613v1.379c0.497-0.496,1.085-0.887,1.765-1.172c0.679-0.285,1.409-0.427,2.19-0.427
		c1.53,0,2.741,0.513,3.632,1.538c0.892,1.025,1.337,2.373,1.337,4.041c0,1.823-0.499,3.277-1.495,4.364
		c-0.997,1.086-2.342,1.629-4.034,1.629c-1.645,0-3.02-0.625-4.127-1.874c-1.106-1.25-1.66-2.956-1.66-5.121v-4.089
		c0-2.083,0.593-3.804,1.776-5.164C57.88,62.104,59.339,61.425,61.072,61.425z M60.499,69.933c-0.757,0-1.406,0.161-1.947,0.482
		c-0.541,0.321-0.954,0.755-1.239,1.3v1.233c0,1.506,0.328,2.696,0.983,3.571c0.654,0.875,1.458,1.312,2.411,1.312
		c1,0,1.771-0.38,2.312-1.141c0.541-0.761,0.812-1.752,0.812-2.973c0-1.155-0.292-2.075-0.873-2.759
		C62.376,70.275,61.556,69.933,60.499,69.933z"/>
	<path fill="#FFFFFF" d="M77.795,79.455h-2.393V65.233h2.393V79.455z"/>
	<path fill="#FFFFFF" d="M93.763,79.455h-2.393l-7.202-10.486l-0.073,0.024v10.461H81.69V65.233h2.405l7.202,10.486l0.073-0.024
		V65.233h2.393V79.455z"/>
	<path fill="#FFFFFF" d="M110.669,79.455h-2.417V63.903l-3.869,0.037v-1.855l6.286-0.659V79.455z"/>
	<path fill="#FFFFFF" d="M128.772,73.18c0,2.01-0.511,3.601-1.532,4.773c-1.021,1.172-2.395,1.758-4.12,1.758
		c-1.717,0-3.09-0.586-4.119-1.758c-1.03-1.172-1.545-2.763-1.545-4.773v-5.225c0-1.994,0.511-3.581,1.532-4.761
		c1.021-1.18,2.391-1.77,4.108-1.77c1.725,0,3.102,0.59,4.132,1.77c1.029,1.18,1.544,2.767,1.544,4.761V73.18z M126.368,67.455
		c0-1.277-0.285-2.287-0.855-3.027c-0.569-0.74-1.375-1.111-2.416-1.111c-1.034,0-1.832,0.371-2.393,1.111
		c-0.562,0.741-0.843,1.75-0.843,3.027v6.213c0,1.278,0.287,2.291,0.86,3.04c0.574,0.749,1.373,1.123,2.398,1.123
		c1.042,0,1.844-0.373,2.405-1.117c0.562-0.745,0.843-1.76,0.843-3.046V67.455z"/>
	<path fill="#FFFFFF" d="M146.667,75.744c0-0.578-0.252-1.045-0.757-1.404c-0.505-0.358-1.416-0.7-2.734-1.025
		c-1.814-0.472-3.136-1.011-3.961-1.618c-0.826-0.606-1.239-1.52-1.239-2.74c0-1.196,0.494-2.148,1.483-2.856
		c0.988-0.708,2.321-1.062,3.997-1.062c1.709,0,3.042,0.378,3.998,1.135s1.414,1.819,1.373,3.186l-0.023,0.073h-2.283
		c0-0.749-0.269-1.357-0.806-1.825c-0.537-0.468-1.29-0.702-2.259-0.702c-1.017,0-1.784,0.189-2.301,0.567
		c-0.517,0.379-0.775,0.869-0.775,1.471c0,0.594,0.234,1.056,0.702,1.385c0.468,0.33,1.427,0.67,2.875,1.02
		c1.75,0.472,3.04,1.025,3.87,1.66s1.244,1.542,1.244,2.722c0,1.253-0.517,2.222-1.55,2.905s-2.438,1.025-4.212,1.025
		c-1.644,0-3.022-0.346-4.138-1.038c-1.115-0.691-1.647-1.786-1.599-3.284l0.012-0.073h2.295c0,0.879,0.331,1.522,0.995,1.929
		c0.663,0.407,1.475,0.61,2.435,0.61c1.066,0,1.893-0.191,2.479-0.574C146.374,76.851,146.667,76.354,146.667,75.744z"/>
	<path fill="#FFFFFF" d="M160.997,72.985h-6.481v4.614h7.544v1.855h-9.949V65.233h9.949v1.868h-7.544v4.004h6.481V72.985z"/>
	<path fill="#FFFFFF" d="M170.568,70.519l3.394-5.286h2.844l-4.785,7.043l4.896,7.178h-2.808l-3.504-5.396l-3.479,5.396h-2.844
		l4.906-7.178l-4.797-7.043h2.832L170.568,70.519z"/>
	<path fill="#FFFFFF" d="M191.698,65.233v9.363c0,1.587-0.567,2.828-1.703,3.723c-1.135,0.896-2.61,1.343-4.425,1.343
		c-1.799,0-3.268-0.447-4.407-1.343c-1.139-0.895-1.709-2.136-1.709-3.723v-9.363h2.393v9.363c0,1.001,0.344,1.787,1.032,2.356
		c0.688,0.57,1.585,0.854,2.691,0.854c1.115,0,2.016-0.283,2.704-0.848c0.688-0.566,1.031-1.353,1.031-2.362v-9.363H191.698z"/>
	<path fill="#FFFFFF" d="M203.686,76.183h-6.214l-1.257,3.271h-2.49l5.725-14.221h2.271l5.713,14.221h-2.478L203.686,76.183z
		 M198.192,74.303h4.773l-2.355-6.079h-0.074L198.192,74.303z"/>
	<path fill="#FFFFFF" d="M212.291,77.599h6.409v1.855h-8.814V65.233h2.405V77.599z"/>
	<path fill="#FFFFFF" d="M49.317,106.183h-6.214l-1.257,3.271h-2.49l5.725-14.221h2.271l5.713,14.221h-2.478L49.317,106.183z
		 M43.823,104.303h4.773l-2.355-6.079h-0.074L43.823,104.303z"/>
	<path fill="#FFFFFF" d="M63.953,105.744c0-0.578-0.252-1.045-0.757-1.404c-0.505-0.358-1.416-0.7-2.734-1.025
		c-1.814-0.472-3.136-1.011-3.961-1.618c-0.826-0.606-1.239-1.52-1.239-2.74c0-1.196,0.494-2.148,1.483-2.856
		c0.988-0.708,2.321-1.062,3.997-1.062c1.709,0,3.042,0.378,3.998,1.135c0.956,0.757,1.414,1.819,1.373,3.186l-0.023,0.073h-2.283
		c0-0.749-0.269-1.357-0.806-1.825c-0.537-0.468-1.29-0.702-2.259-0.702c-1.017,0-1.784,0.189-2.301,0.567
		c-0.517,0.379-0.775,0.869-0.775,1.471c0,0.594,0.234,1.056,0.702,1.385c0.468,0.33,1.427,0.67,2.875,1.02
		c1.75,0.472,3.04,1.025,3.87,1.66s1.244,1.542,1.244,2.722c0,1.253-0.517,2.222-1.55,2.905c-1.033,0.684-2.437,1.025-4.212,1.025
		c-1.644,0-3.022-0.346-4.138-1.038c-1.115-0.691-1.647-1.786-1.599-3.284l0.012-0.073h2.295c0,0.879,0.331,1.522,0.995,1.929
		c0.663,0.407,1.475,0.61,2.435,0.61c1.066,0,1.893-0.191,2.479-0.574C63.66,106.851,63.953,106.354,63.953,105.744z"/>
	<path fill="#FFFFFF" d="M77.833,105.744c0-0.578-0.252-1.045-0.757-1.404c-0.505-0.358-1.416-0.7-2.734-1.025
		c-1.814-0.472-3.136-1.011-3.961-1.618c-0.826-0.606-1.239-1.52-1.239-2.74c0-1.196,0.494-2.148,1.483-2.856
		c0.988-0.708,2.321-1.062,3.997-1.062c1.709,0,3.042,0.378,3.998,1.135s1.414,1.819,1.373,3.186l-0.023,0.073h-2.283
		c0-0.749-0.269-1.357-0.806-1.825c-0.537-0.468-1.29-0.702-2.259-0.702c-1.017,0-1.784,0.189-2.301,0.567
		c-0.517,0.379-0.775,0.869-0.775,1.471c0,0.594,0.234,1.056,0.702,1.385c0.468,0.33,1.427,0.67,2.875,1.02
		c1.75,0.472,3.04,1.025,3.87,1.66s1.244,1.542,1.244,2.722c0,1.253-0.517,2.222-1.55,2.905s-2.438,1.025-4.212,1.025
		c-1.644,0-3.022-0.346-4.138-1.038c-1.115-0.691-1.647-1.786-1.599-3.284l0.012-0.073h2.295c0,0.879,0.331,1.522,0.995,1.929
		c0.663,0.407,1.475,0.61,2.435,0.61c1.066,0,1.893-0.191,2.479-0.574C77.54,106.851,77.833,106.354,77.833,105.744z"/>
	<path fill="#FFFFFF" d="M91.846,106.183h-6.214l-1.257,3.271h-2.49l5.725-14.221h2.271l5.713,14.221h-2.478L91.846,106.183z
		 M86.352,104.303h4.773l-2.355-6.079h-0.074L86.352,104.303z"/>
	<path fill="#FFFFFF" d="M109.851,95.233v9.363c0,1.587-0.567,2.828-1.703,3.723c-1.135,0.896-2.61,1.343-4.425,1.343
		c-1.799,0-3.268-0.447-4.407-1.343c-1.139-0.895-1.709-2.136-1.709-3.723v-9.363H100v9.363c0,1.001,0.344,1.787,1.032,2.356
		c0.688,0.57,1.585,0.854,2.691,0.854c1.115,0,2.016-0.283,2.704-0.848c0.688-0.566,1.031-1.353,1.031-2.362v-9.363H109.851z"/>
	<path fill="#FFFFFF" d="M115.881,107.599h6.409v1.855h-8.814V95.233h2.405V107.599z"/>
	<path fill="#FFFFFF" d="M134.375,97.101h-4.357v12.354h-2.404V97.101h-4.297v-1.868h11.059V97.101z"/>
	<path fill="#FFFFFF" d="M145.704,105.744c0-0.578-0.252-1.045-0.757-1.404c-0.505-0.358-1.416-0.7-2.734-1.025
		c-1.814-0.472-3.136-1.011-3.961-1.618c-0.826-0.606-1.239-1.52-1.239-2.74c0-1.196,0.494-2.148,1.483-2.856
		c0.988-0.708,2.321-1.062,3.997-1.062c1.709,0,3.042,0.378,3.998,1.135s1.414,1.819,1.373,3.186l-0.023,0.073h-2.283
		c0-0.749-0.269-1.357-0.806-1.825c-0.537-0.468-1.29-0.702-2.259-0.702c-1.017,0-1.784,0.189-2.301,0.567
		c-0.517,0.379-0.775,0.869-0.775,1.471c0,0.594,0.234,1.056,0.702,1.385c0.468,0.33,1.427,0.67,2.875,1.02
		c1.75,0.472,3.04,1.025,3.87,1.66s1.244,1.542,1.244,2.722c0,1.253-0.517,2.222-1.55,2.905s-2.438,1.025-4.212,1.025
		c-1.644,0-3.022-0.346-4.138-1.038c-1.115-0.691-1.647-1.786-1.599-3.284l0.012-0.073h2.295c0,0.879,0.331,1.522,0.995,1.929
		c0.663,0.407,1.475,0.61,2.435,0.61c1.066,0,1.893-0.191,2.479-0.574C145.411,106.851,145.704,106.354,145.704,105.744z"/>
	<path fill="#FFFFFF" d="M168.359,104.804l0.024,0.073c0.041,1.538-0.466,2.72-1.52,3.546c-1.055,0.826-2.419,1.239-4.096,1.239
		c-1.685,0-3.091-0.545-4.218-1.636c-1.127-1.09-1.69-2.49-1.69-4.199v-2.966c0-1.701,0.563-3.096,1.69-4.187
		c1.127-1.09,2.533-1.636,4.218-1.636c1.726,0,3.104,0.413,4.139,1.239c1.033,0.826,1.529,2,1.488,3.522l-0.023,0.073h-2.308
		c0-0.984-0.289-1.725-0.866-2.222c-0.578-0.496-1.388-0.745-2.43-0.745c-1.001,0-1.835,0.378-2.502,1.135
		c-0.668,0.757-1.002,1.693-1.002,2.808v2.979c0,1.131,0.334,2.077,1.002,2.838c0.667,0.761,1.501,1.141,2.502,1.141
		c1.033,0,1.839-0.248,2.417-0.745c0.578-0.496,0.866-1.249,0.866-2.258H168.359z"/>
	<path fill="#FFFFFF" d="M180.212,106.183h-6.214l-1.257,3.271h-2.49l5.725-14.221h2.271l5.713,14.221h-2.478L180.212,106.183z
		 M174.718,104.303h4.773l-2.355-6.079h-0.074L174.718,104.303z"/>
	<path fill="#FFFFFF" d="M198.486,109.455h-2.393l-7.202-10.486l-0.073,0.024v10.461h-2.405V95.233h2.405l7.202,10.486l0.073-0.024
		V95.233h2.393V109.455z"/>
	<path fill="#FFFFFF" d="M208.592,109.455V95.233h4.847c1.733,0,3.082,0.324,4.047,0.97c0.964,0.647,1.446,1.618,1.446,2.912
		c0,0.684-0.191,1.29-0.574,1.819c-0.382,0.529-0.928,0.928-1.635,1.196c0.83,0.204,1.48,0.61,1.953,1.221
		c0.472,0.61,0.707,1.306,0.707,2.087c0,1.318-0.449,2.317-1.349,2.997c-0.899,0.68-2.15,1.02-3.753,1.02H208.592z M210.998,101.373
		h2.441c1.009,0,1.776-0.181,2.301-0.543c0.525-0.362,0.788-0.889,0.788-1.581c0-0.7-0.251-1.192-0.751-1.477
		c-0.501-0.285-1.28-0.427-2.338-0.427h-2.441V101.373z M210.998,103.095v4.504h3.284c0.887,0,1.556-0.191,2.008-0.574
		c0.451-0.382,0.678-0.932,0.678-1.648c0-0.684-0.216-1.229-0.647-1.636c-0.432-0.407-1.066-0.623-1.904-0.647h-0.134H210.998z"/>
	<path fill="#FFFFFF" d="M231.456,102.985h-6.481v4.614h7.544v1.855h-9.949V95.233h9.949v1.868h-7.544v4.004h6.481V102.985z"/>
	<path fill="#FFFFFF" d="M60.26,134.328v5.127h-2.405v-14.221h5.689c1.651,0,2.951,0.423,3.899,1.27
		c0.948,0.847,1.423,1.941,1.423,3.284c0,1.351-0.475,2.446-1.423,3.284c-0.948,0.838-2.248,1.257-3.899,1.257H60.26z
		 M60.26,132.448h3.284c0.951,0,1.674-0.256,2.166-0.769s0.738-1.135,0.738-1.868c0-0.749-0.246-1.387-0.738-1.917
		c-0.492-0.529-1.215-0.793-2.166-0.793H60.26V132.448z"/>
	<path fill="#FFFFFF" d="M74.238,133.607v5.847h-2.405v-14.221h5.628c1.668,0,2.96,0.366,3.876,1.099
		c0.915,0.732,1.373,1.758,1.373,3.076c0,0.725-0.201,1.343-0.604,1.855c-0.402,0.513-0.995,0.928-1.776,1.245
		c0.847,0.244,1.455,0.659,1.825,1.245s0.556,1.306,0.556,2.161v1.44c0,0.366,0.022,0.725,0.067,1.074
		c0.044,0.35,0.12,0.615,0.226,0.793v0.232h-2.479c-0.098-0.187-0.158-0.48-0.183-0.879c-0.024-0.398-0.036-0.81-0.036-1.233v-1.416
		c0-0.732-0.212-1.302-0.635-1.709c-0.424-0.407-1.034-0.61-1.832-0.61H74.238z M74.238,131.727h3.223
		c0.977,0,1.692-0.191,2.148-0.574c0.456-0.382,0.684-0.932,0.684-1.648c0-0.749-0.23-1.336-0.689-1.764
		c-0.46-0.427-1.174-0.641-2.143-0.641h-3.223V131.727z"/>
	<path fill="#FFFFFF" d="M95.331,132.985h-6.481v4.614h7.544v1.855h-9.949v-14.221h9.949v1.868h-7.544v4.004h6.481V132.985z"/>
	<path fill="#FFFFFF" d="M104.915,135.829l0.28,1.001h0.073l0.281-0.977l3.918-10.62h2.576l-5.689,14.221h-2.258l-5.676-14.221
		h2.575L104.915,135.829z"/>
	<path fill="#FFFFFF" d="M123.481,132.985H117v4.614h7.544v1.855h-9.949v-14.221h9.949v1.868H117v4.004h6.481V132.985z"/>
	<path fill="#FFFFFF" d="M140.035,139.455h-2.393l-7.202-10.486l-0.073,0.024v10.461h-2.405v-14.221h2.405l7.202,10.486l0.073-0.024
		v-10.461h2.393V139.455z"/>
	<path fill="#FFFFFF" d="M153.987,127.101h-4.357v12.354h-2.404v-12.354h-4.297v-1.868h11.059V127.101z"/>
	<path fill="#FFFFFF" d="M165.901,132.985h-6.481v4.614h7.544v1.855h-9.949v-14.221h9.949v1.868h-7.544v4.004h6.481V132.985z"/>
	<path fill="#FFFFFF" d="M170.381,139.455v-14.221h5.14c1.717,0,3.161,0.547,4.333,1.642c1.172,1.094,1.758,2.492,1.758,4.193v2.563
		c0,1.709-0.586,3.107-1.758,4.193c-1.172,1.087-2.616,1.63-4.333,1.63H170.381z M172.787,127.101v10.498h2.734
		c1.025,0,1.896-0.378,2.612-1.135s1.074-1.701,1.074-2.832v-2.576c0-1.115-0.358-2.053-1.074-2.813
		c-0.716-0.761-1.587-1.142-2.612-1.142H172.787z"/>
	<path fill="#FFFFFF" d="M191.17,139.455v-14.221h4.847c1.733,0,3.082,0.324,4.047,0.97c0.964,0.647,1.446,1.618,1.446,2.912
		c0,0.684-0.191,1.29-0.574,1.819c-0.382,0.529-0.928,0.928-1.635,1.196c0.83,0.204,1.48,0.61,1.953,1.221
		c0.472,0.61,0.707,1.306,0.707,2.087c0,1.318-0.449,2.317-1.349,2.997c-0.899,0.68-2.15,1.02-3.753,1.02H191.17z M193.576,131.373
		h2.441c1.009,0,1.776-0.181,2.301-0.543c0.525-0.362,0.788-0.889,0.788-1.581c0-0.7-0.251-1.192-0.751-1.477
		c-0.501-0.285-1.28-0.427-2.338-0.427h-2.441V131.373z M193.576,133.095v4.504h3.284c0.887,0,1.556-0.191,2.008-0.574
		c0.451-0.382,0.678-0.932,0.678-1.648c0-0.684-0.216-1.229-0.647-1.636c-0.432-0.407-1.066-0.623-1.904-0.647h-0.134H193.576z"/>
	<path fill="#FFFFFF" d="M210.03,132.265l3.699-7.031h2.697l-5.225,9.216v5.005h-2.404v-5.115l-5.151-9.106h2.698L210.03,132.265z"
		/>
	<path fill="#FFFFFF" d="M88.135,157.101h-4.357v12.354h-2.404v-12.354h-4.297v-1.868h11.059V157.101z"/>
	<path fill="#FFFFFF" d="M98.94,166.183h-6.214l-1.257,3.271h-2.49l5.725-14.221h2.271l5.713,14.221h-2.478L98.94,166.183z
		 M93.446,164.303h4.773l-2.355-6.079H95.79L93.446,164.303z"/>
	<path fill="#FFFFFF" d="M107.544,163.607v5.847h-2.405v-14.221h5.628c1.668,0,2.96,0.366,3.876,1.099
		c0.915,0.732,1.373,1.758,1.373,3.076c0,0.725-0.201,1.343-0.604,1.855c-0.402,0.513-0.995,0.928-1.776,1.245
		c0.847,0.244,1.455,0.659,1.825,1.245s0.556,1.306,0.556,2.161v1.44c0,0.366,0.022,0.725,0.067,1.074
		c0.044,0.35,0.12,0.615,0.226,0.793v0.232h-2.479c-0.098-0.187-0.158-0.48-0.183-0.879c-0.024-0.398-0.036-0.81-0.036-1.233v-1.416
		c0-0.732-0.212-1.302-0.635-1.709c-0.424-0.407-1.034-0.61-1.832-0.61H107.544z M107.544,161.727h3.223
		c0.977,0,1.692-0.191,2.148-0.574c0.456-0.382,0.684-0.932,0.684-1.648c0-0.749-0.23-1.336-0.689-1.764
		c-0.46-0.427-1.174-0.641-2.143-0.641h-3.223V161.727z"/>
	<path fill="#FFFFFF" d="M131.301,167.538c-0.367,0.529-1.042,1.015-2.027,1.458c-0.984,0.444-2.213,0.666-3.686,0.666
		c-1.881,0-3.406-0.539-4.578-1.618c-1.172-1.078-1.758-2.484-1.758-4.217v-2.966c0-1.717,0.59-3.117,1.77-4.199
		c1.181-1.082,2.686-1.624,4.518-1.624c1.807,0,3.204,0.409,4.192,1.227c0.989,0.817,1.467,1.866,1.435,3.143l-0.024,0.073h-2.295
		c0-0.822-0.295-1.457-0.885-1.904c-0.591-0.447-1.397-0.671-2.423-0.671c-1.14,0-2.071,0.375-2.796,1.123
		c-0.725,0.749-1.087,1.689-1.087,2.82v2.979c0,1.156,0.358,2.108,1.074,2.856c0.717,0.749,1.669,1.123,2.857,1.123
		c0.854,0,1.56-0.085,2.117-0.256c0.558-0.171,0.963-0.366,1.215-0.586v-3.052h-3.149v-1.88h5.53V167.538z"/>
	<path fill="#FFFFFF" d="M143.715,162.985h-6.481v4.614h7.544v1.855h-9.949v-14.221h9.949v1.868h-7.544v4.004h6.481V162.985z"/>
	<path fill="#FFFFFF" d="M158.254,157.101h-4.357v12.354h-2.404v-12.354h-4.297v-1.868h11.059V157.101z"/>
	<path fill="#FFFFFF" d="M163.674,169.455h-2.393v-14.221h2.393V169.455z"/>
	<path fill="#FFFFFF" d="M179.642,169.455h-2.393l-7.202-10.486l-0.073,0.024v10.461h-2.405v-14.221h2.405l7.202,10.486l0.073-0.024
		v-10.461h2.393V169.455z"/>
	<path fill="#FFFFFF" d="M195.084,167.538c-0.367,0.529-1.042,1.015-2.027,1.458c-0.984,0.444-2.213,0.666-3.686,0.666
		c-1.881,0-3.406-0.539-4.578-1.618c-1.172-1.078-1.758-2.484-1.758-4.217v-2.966c0-1.717,0.59-3.117,1.77-4.199
		c1.181-1.082,2.686-1.624,4.518-1.624c1.807,0,3.204,0.409,4.192,1.227c0.989,0.817,1.467,1.866,1.435,3.143l-0.024,0.073h-2.295
		c0-0.822-0.295-1.457-0.885-1.904c-0.591-0.447-1.397-0.671-2.423-0.671c-1.14,0-2.071,0.375-2.796,1.123
		c-0.725,0.749-1.087,1.689-1.087,2.82v2.979c0,1.156,0.358,2.108,1.074,2.856c0.717,0.749,1.669,1.123,2.857,1.123
		c0.854,0,1.56-0.085,2.117-0.256s0.963-0.366,1.215-0.586v-3.052h-3.149v-1.88h5.53V167.538z"/>
	<path fill="#FFFFFF" d="M99.548,193.607v5.847h-2.405v-14.221h5.628c1.668,0,2.96,0.366,3.876,1.099
		c0.915,0.732,1.373,1.758,1.373,3.076c0,0.725-0.201,1.343-0.604,1.855c-0.402,0.513-0.995,0.928-1.776,1.245
		c0.847,0.244,1.455,0.659,1.825,1.245s0.556,1.306,0.556,2.161v1.44c0,0.366,0.022,0.725,0.067,1.074
		c0.044,0.35,0.12,0.615,0.226,0.793v0.232h-2.479c-0.098-0.187-0.158-0.48-0.183-0.879c-0.024-0.398-0.036-0.81-0.036-1.233v-1.416
		c0-0.732-0.212-1.302-0.635-1.709c-0.424-0.407-1.034-0.61-1.832-0.61H99.548z M99.548,191.727h3.223
		c0.977,0,1.692-0.191,2.148-0.574c0.456-0.382,0.684-0.932,0.684-1.648c0-0.749-0.23-1.336-0.689-1.764
		c-0.46-0.427-1.174-0.641-2.143-0.641h-3.223V191.727z"/>
	<path fill="#FFFFFF" d="M120.641,192.985h-6.481v4.614h7.544v1.855h-9.949v-14.221h9.949v1.868h-7.544v4.004h6.481V192.985z"/>
	<path fill="#FFFFFF" d="M127.527,194.328v5.127h-2.405v-14.221h5.689c1.651,0,2.951,0.423,3.899,1.27
		c0.948,0.847,1.423,1.941,1.423,3.284c0,1.351-0.475,2.446-1.423,3.284c-0.948,0.838-2.248,1.257-3.899,1.257H127.527z
		 M127.527,192.448h3.284c0.951,0,1.674-0.256,2.166-0.769s0.738-1.135,0.738-1.868c0-0.749-0.246-1.387-0.738-1.917
		c-0.492-0.529-1.215-0.793-2.166-0.793h-3.284V192.448z"/>
	<path fill="#FFFFFF" d="M147.985,192.985h-6.481v4.614h7.544v1.855h-9.949v-14.221h9.949v1.868h-7.544v4.004h6.481V192.985z"/>
	<path fill="#FFFFFF" d="M161.036,196.183h-6.214l-1.257,3.271h-2.49l5.725-14.221h2.271l5.713,14.221h-2.478L161.036,196.183z
		 M155.542,194.303h4.773l-2.355-6.079h-0.074L155.542,194.303z"/>
	<path fill="#FFFFFF" d="M176.513,187.101h-4.357v12.354h-2.404v-12.354h-4.297v-1.868h11.059V187.101z"/>
	<path fill="#FFFFFF" d="M83.491,223.827c0,1.742-0.564,3.149-1.691,4.224s-2.602,1.611-4.425,1.611
		c-1.814,0-3.29-0.539-4.425-1.618c-1.136-1.078-1.703-2.484-1.703-4.217v-2.966c0-1.725,0.563-3.127,1.69-4.205
		c1.127-1.079,2.599-1.618,4.413-1.618c1.823,0,3.302,0.539,4.438,1.618c1.135,1.078,1.703,2.48,1.703,4.205V223.827z
		 M81.085,220.849c0-1.229-0.334-2.193-1.001-2.893c-0.667-0.7-1.579-1.05-2.734-1.05c-1.147,0-2.051,0.35-2.71,1.05
		c-0.659,0.7-0.989,1.665-0.989,2.893v2.979c0,1.253,0.332,2.23,0.995,2.93c0.663,0.7,1.573,1.05,2.729,1.05s2.063-0.35,2.722-1.05
		c0.66-0.7,0.989-1.676,0.989-2.93V220.849z"/>
	<path fill="#FFFFFF" d="M95.637,223.339H89.13v6.116h-2.405v-14.221h9.974v1.868H89.13v4.358h6.507V223.339z"/>
	<path fill="#FFFFFF" d="M108.516,223.339h-6.507v6.116h-2.405v-14.221h9.974v1.868h-7.568v4.358h6.507V223.339z"/>
	<path fill="#FFFFFF" d="M121.37,222.985h-6.481v4.614h7.544v1.855h-9.949v-14.221h9.949v1.868h-7.544v4.004h6.481V222.985z"/>
	<path fill="#FFFFFF" d="M137.923,229.455h-2.393l-7.202-10.486l-0.073,0.024v10.461h-2.405v-14.221h2.405l7.202,10.486l0.073-0.024
		v-10.461h2.393V229.455z"/>
	<path fill="#FFFFFF" d="M141.817,229.455v-14.221h5.14c1.717,0,3.161,0.547,4.333,1.642c1.172,1.094,1.758,2.492,1.758,4.193v2.563
		c0,1.709-0.586,3.107-1.758,4.193c-1.172,1.087-2.616,1.63-4.333,1.63H141.817z M144.222,217.101v10.498h2.734
		c1.025,0,1.896-0.378,2.612-1.135s1.074-1.701,1.074-2.832v-2.576c0-1.115-0.358-2.053-1.074-2.813
		c-0.716-0.761-1.587-1.142-2.612-1.142H144.222z"/>
	<path fill="#FFFFFF" d="M165.279,222.985h-6.481v4.614h7.544v1.855h-9.949v-14.221h9.949v1.868h-7.544v4.004h6.481V222.985z"/>
	<path fill="#FFFFFF" d="M172.164,223.607v5.847h-2.405v-14.221h5.628c1.668,0,2.96,0.366,3.876,1.099
		c0.915,0.732,1.373,1.758,1.373,3.076c0,0.725-0.201,1.343-0.604,1.855c-0.402,0.513-0.995,0.928-1.776,1.245
		c0.847,0.244,1.455,0.659,1.825,1.245s0.556,1.306,0.556,2.161v1.44c0,0.366,0.022,0.725,0.067,1.074
		c0.044,0.35,0.12,0.615,0.226,0.793v0.232h-2.479c-0.098-0.187-0.158-0.48-0.183-0.879c-0.024-0.398-0.036-0.81-0.036-1.233v-1.416
		c0-0.732-0.212-1.302-0.635-1.709c-0.424-0.407-1.034-0.61-1.832-0.61H172.164z M172.164,221.727h3.223
		c0.977,0,1.692-0.191,2.148-0.574c0.456-0.382,0.684-0.932,0.684-1.648c0-0.749-0.23-1.336-0.689-1.764
		c-0.46-0.427-1.174-0.641-2.143-0.641h-3.223V221.727z"/>
	<path fill="#FFFFFF" d="M192.805,225.744c0-0.578-0.252-1.045-0.757-1.404c-0.505-0.358-1.416-0.7-2.734-1.025
		c-1.814-0.472-3.136-1.011-3.961-1.618c-0.826-0.606-1.239-1.52-1.239-2.74c0-1.196,0.494-2.148,1.483-2.856
		c0.988-0.708,2.321-1.062,3.997-1.062c1.709,0,3.042,0.378,3.998,1.135s1.414,1.819,1.373,3.186l-0.023,0.073h-2.283
		c0-0.749-0.269-1.357-0.806-1.825c-0.537-0.468-1.29-0.702-2.259-0.702c-1.017,0-1.784,0.189-2.301,0.567
		c-0.517,0.379-0.775,0.869-0.775,1.471c0,0.594,0.234,1.056,0.702,1.385c0.468,0.33,1.427,0.67,2.875,1.02
		c1.75,0.472,3.04,1.025,3.87,1.66s1.244,1.542,1.244,2.722c0,1.253-0.517,2.222-1.55,2.905s-2.438,1.025-4.212,1.025
		c-1.644,0-3.022-0.346-4.138-1.038c-1.115-0.691-1.647-1.786-1.599-3.284l0.012-0.073h2.295c0,0.879,0.331,1.522,0.995,1.929
		c0.663,0.407,1.475,0.61,2.435,0.61c1.066,0,1.893-0.191,2.479-0.574C192.512,226.851,192.805,226.354,192.805,225.744z"/>
	<path fill="#FFFFFF" d="M200.751,229.455h-2.405v-2.466h2.405V229.455z"/>
</g>
</svg>