<!-- Generator: Adobe Illustrator 18.1.1, SVG Export Plug-In  -->
<svg version="1.1"
	 xmlns="http://www.w3.org/2000/svg" xmlns:xlink="http://www.w3.org/1999/xlink" xmlns:a="http://ns.adobe.com/AdobeSVGViewerExtensions/3.0/"
	 x="0px" y="0px" width="324.524px" height="324.524px" viewBox="0 0 324.524 324.524" enable-background="new 0 0 324.524 324.524"
	 xml:space="preserve">
<defs>
</defs>
<path fill="#427E7E" d="M306.436,324.524H18.088C8.098,324.524,0,316.426,0,306.436V18.088C0,8.098,8.098,0,18.088,0h288.348
	c9.99,0,18.088,8.098,18.088,18.088v288.348C324.524,316.426,316.426,324.524,306.436,324.524z"/>
<g id="_x33_LPz4a.tif_1_">
	<g>
		<g>
			<path fill="#FEFEFF" d="M139.955,261.178c0-29.259-0.05-58.518,0.075-87.776c0.013-3.03-0.738-3.83-3.758-3.745
				c-8.094,0.227-16.2-0.011-24.299,0.132c-2.405,0.042-3.339-0.405-3.293-3.091c0.171-9.911,0.135-19.828,0.017-29.741
				c-0.026-2.21,0.529-2.879,2.803-2.84c8.34,0.141,16.688-0.093,25.024,0.135c2.984,0.082,3.547-0.917,3.492-3.637
				c-0.167-8.218-0.082-16.442-0.049-24.663c0.023-5.84,0.993-11.535,2.86-17.071c5.678-16.83,20.22-27.34,38.827-27.958
				c9.554-0.317,19.094,0.167,28.63,0.75c2.233,0.136,3.078,0.836,3.034,3.252c-0.158,8.823-0.165,17.653,0.002,26.476
				c0.048,2.539-0.899,2.875-3.106,2.912c-7.481,0.127-14.997-0.72-22.439,0.576c-6.662,1.16-9.993,4.398-10.972,11.148
				c-1.272,8.771-0.274,17.623-0.569,26.433c-0.078,2.314,1.579,1.678,2.754,1.682c9.914,0.034,19.828,0.063,29.742-0.014
				c2.191-0.017,3.096,0.172,2.678,2.91c-1.512,9.905-2.76,19.855-3.862,29.815c-0.265,2.401-1.072,2.952-3.322,2.919
				c-8.22-0.122-16.445,0.073-24.662-0.117c-2.709-0.063-3.397,0.646-3.387,3.373c0.107,29.379,0.066,58.759,0.066,88.139
				C164.147,261.178,152.051,261.178,139.955,261.178z"/>
		</g>
	</g>
</g>
</svg>