<!-- Generator: Adobe Illustrator 18.1.1, SVG Export Plug-In  -->
<svg version="1.1"
	 xmlns="http://www.w3.org/2000/svg" xmlns:xlink="http://www.w3.org/1999/xlink" xmlns:a="http://ns.adobe.com/AdobeSVGViewerExtensions/3.0/"
	 x="0px" y="0px" width="324.524px" height="324.524px" viewBox="0 0 324.524 324.524" enable-background="new 0 0 324.524 324.524"
	 xml:space="preserve">
<defs>
</defs>
<path fill="#427E7E" d="M306.436,324.524H18.088C8.098,324.524,0,316.426,0,306.436V18.088C0,8.098,8.098,0,18.088,0h288.348
	c9.99,0,18.088,8.098,18.088,18.088v288.348C324.524,316.426,316.426,324.524,306.436,324.524z"/>
<g id="_x32_2pzZq.tif_1_">
	<g>
		<g>
			<path d="M131.449,184.296c0.008,0,0.017,0,0.025,0c0,10.508-0.059,21.016,0.041,31.522c0.026,2.67,0.32,5.39,0.908,7.992
				c1.3,5.751,4.328,10.522,8.93,14.253c6.129,4.968,13.392,7.135,21.026,7.982c5.1,0.566,10.281,0.648,15.419,0.556
				c4.37-0.078,8.748-0.577,13.089-1.144c4.176-0.546,8.327-1.328,12.454-2.175c3.461-0.71,6.873-1.665,10.307-2.507
				c0.824-0.202,1.171-0.685,1.167-1.559c-0.039-8.132-0.052-16.264-0.066-24.396c-0.002-0.922-0.333-1.074-1.207-0.767
				c-4.927,1.734-9.822,3.593-14.831,5.055c-5.516,1.61-11.18,2.351-16.936,1.28c-4.605-0.857-8.491-2.907-11.253-6.82
				c-2.786-3.946-3.701-8.442-3.713-13.139c-0.045-16.828-0.007-33.657-0.045-50.485c-0.003-1.155,0.286-1.492,1.465-1.489
				c13.406,0.04,26.812,0.025,40.219,0.024c2.03,0,2.042,0.001,2.041-1.963c-0.006-7.689-0.018-15.379-0.035-23.068
				c-0.004-1.775-0.029-1.796-1.855-1.796c-9.823,0-19.646,0.007-29.47,0.005c-3.704-0.001-7.408-0.046-11.111-0.015
				c-0.95,0.008-1.351-0.309-1.239-1.257c0.033-0.278,0.006-0.563,0.006-0.845c-0.014-13.366-0.031-26.732-0.036-40.098
				c0-0.884-0.028-1.56-1.241-1.553c-6.602,0.038-13.205,0.031-19.807,0.007c-0.921-0.003-1.174,0.394-1.186,1.238
				c-0.017,1.244-0.111,2.488-0.215,3.729c-0.599,7.146-2.857,13.754-6.606,19.841c-6.46,10.49-15.73,17.725-26.773,22.853
				c-0.856,0.397-1.217,0.841-1.212,1.798c0.035,6.482,0.016,12.963,0.021,19.445c0.001,1.622,0.021,1.636,1.597,1.64
				c6.24,0.014,12.48,0.052,18.72,0.011c1.119-0.007,1.429,0.306,1.426,1.422C131.434,161.348,131.449,172.822,131.449,184.296z"/>
			<path fill="#FFFFFF" d="M131.449,184.296c0-11.474-0.015-22.948,0.024-34.421c0.004-1.116-0.307-1.43-1.426-1.422
				c-6.24,0.041-12.48,0.003-18.72-0.011c-1.576-0.004-1.596-0.018-1.597-1.64c-0.005-6.482,0.014-12.964-0.021-19.445
				c-0.005-0.957,0.356-1.401,1.212-1.798c11.043-5.127,20.313-12.363,26.773-22.853c3.749-6.087,6.007-12.695,6.606-19.841
				c0.104-1.241,0.198-2.485,0.215-3.729c0.012-0.844,0.265-1.241,1.186-1.238c6.602,0.024,13.205,0.032,19.807-0.007
				c1.213-0.007,1.241,0.669,1.241,1.553c0.004,13.366,0.022,26.732,0.036,40.098c0,0.282,0.027,0.567-0.006,0.845
				c-0.111,0.948,0.289,1.265,1.239,1.257c3.703-0.031,7.407,0.014,11.111,0.015c9.823,0.002,19.646-0.005,29.47-0.005
				c1.826,0,1.851,0.021,1.855,1.796c0.017,7.689,0.029,15.379,0.035,23.068c0.002,1.964-0.011,1.963-2.041,1.963
				c-13.406,0-26.813,0.016-40.219-0.024c-1.179-0.004-1.468,0.334-1.465,1.489c0.038,16.828,0,33.657,0.045,50.485
				c0.012,4.697,0.928,9.193,3.713,13.139c2.763,3.913,6.648,5.963,11.253,6.82c5.755,1.072,11.42,0.331,16.936-1.28
				c5.009-1.462,9.903-3.322,14.831-5.055c0.874-0.308,1.206-0.155,1.207,0.767c0.014,8.132,0.027,16.264,0.066,24.396
				c0.004,0.874-0.343,1.357-1.167,1.559c-3.435,0.842-6.846,1.797-10.307,2.507c-4.127,0.847-8.279,1.629-12.454,2.175
				c-4.341,0.567-8.719,1.066-13.089,1.144c-5.138,0.092-10.319,0.01-15.419-0.556c-7.634-0.847-14.897-3.014-21.026-7.982
				c-4.602-3.73-7.63-8.502-8.93-14.253c-0.588-2.602-0.882-5.322-0.908-7.992c-0.1-10.507-0.041-21.015-0.041-31.522
				C131.466,184.296,131.458,184.296,131.449,184.296z"/>
		</g>
	</g>
</g>
</svg>