<!-- Generator: Adobe Illustrator 18.1.1, SVG Export Plug-In  -->
<svg version="1.1"
	 xmlns="http://www.w3.org/2000/svg" xmlns:xlink="http://www.w3.org/1999/xlink" xmlns:a="http://ns.adobe.com/AdobeSVGViewerExtensions/3.0/"
	 x="0px" y="0px" width="272.95px" height="287.011px" viewBox="0 0 272.95 287.011" enable-background="new 0 0 272.95 287.011"
	 xml:space="preserve">
<defs>
</defs>
<rect x="0" y="0" fill="#DFEBE9" width="272.95" height="272.95"/>
<g>
	<g>
		<path fill="#13ACC4" d="M38.184,75.48h6.409v1.855h-8.814V63.114h2.405V75.48z"/>
		<path fill="#13ACC4" d="M56.348,70.865h-6.481v4.614h7.544v1.855h-9.949V63.114h9.949v1.868h-7.544v4.004h6.481V70.865z"/>
		<path fill="#13ACC4" d="M69.264,73.624c0-0.578-0.252-1.045-0.757-1.404c-0.505-0.358-1.416-0.7-2.734-1.025
			c-1.814-0.472-3.136-1.011-3.961-1.618c-0.826-0.606-1.239-1.52-1.239-2.74c0-1.196,0.494-2.148,1.483-2.856
			c0.988-0.708,2.321-1.062,3.997-1.062c1.709,0,3.042,0.378,3.998,1.135c0.956,0.757,1.414,1.819,1.373,3.186l-0.023,0.073h-2.283
			c0-0.749-0.269-1.357-0.806-1.825c-0.537-0.468-1.29-0.702-2.259-0.702c-1.017,0-1.784,0.189-2.301,0.567
			c-0.517,0.379-0.775,0.869-0.775,1.471c0,0.594,0.234,1.056,0.702,1.385c0.468,0.33,1.427,0.67,2.875,1.02
			c1.75,0.472,3.04,1.025,3.87,1.66s1.244,1.542,1.244,2.722c0,1.253-0.517,2.222-1.55,2.905s-2.438,1.025-4.212,1.025
			c-1.644,0-3.022-0.346-4.138-1.038c-1.115-0.691-1.647-1.786-1.599-3.284l0.012-0.073h2.295c0,0.879,0.331,1.522,0.995,1.929
			c0.663,0.407,1.475,0.61,2.435,0.61c1.066,0,1.893-0.191,2.479-0.574C68.971,74.731,69.264,74.234,69.264,73.624z"/>
		<path fill="#13ACC4" d="M83.143,73.624c0-0.578-0.252-1.045-0.757-1.404c-0.505-0.358-1.416-0.7-2.734-1.025
			c-1.814-0.472-3.136-1.011-3.961-1.618c-0.826-0.606-1.239-1.52-1.239-2.74c0-1.196,0.494-2.148,1.483-2.856
			c0.988-0.708,2.321-1.062,3.997-1.062c1.709,0,3.042,0.378,3.998,1.135c0.956,0.757,1.414,1.819,1.373,3.186l-0.023,0.073h-2.283
			c0-0.749-0.269-1.357-0.806-1.825c-0.537-0.468-1.29-0.702-2.259-0.702c-1.017,0-1.784,0.189-2.301,0.567
			c-0.517,0.379-0.775,0.869-0.775,1.471c0,0.594,0.234,1.056,0.702,1.385c0.468,0.33,1.427,0.67,2.875,1.02
			c1.75,0.472,3.04,1.025,3.87,1.66s1.244,1.542,1.244,2.722c0,1.253-0.517,2.222-1.55,2.905s-2.438,1.025-4.212,1.025
			c-1.644,0-3.022-0.346-4.138-1.038c-1.115-0.691-1.647-1.786-1.599-3.284l0.012-0.073h2.295c0,0.879,0.331,1.522,0.995,1.929
			c0.663,0.407,1.475,0.61,2.435,0.61c1.066,0,1.893-0.191,2.479-0.574C82.85,74.731,83.143,74.234,83.143,73.624z"/>
		<path fill="#13ACC4" d="M104.858,64.981H100.5v12.354h-2.404V64.981h-4.297v-1.868h11.059V64.981z"/>
		<path fill="#13ACC4" d="M119.617,77.335H117.2v-5.994h-6.909v5.994h-2.405V63.114h2.405v6.36h6.909v-6.36h2.417V77.335z"/>
		<path fill="#13ACC4" d="M132.02,74.063h-6.214l-1.257,3.271h-2.49l5.725-14.221h2.271l5.713,14.221h-2.478L132.02,74.063z
			 M126.526,72.184h4.773l-2.355-6.079h-0.074L126.526,72.184z"/>
		<path fill="#13ACC4" d="M150.293,77.335h-2.393l-7.202-10.486l-0.073,0.024v10.461h-2.405V63.114h2.405l7.202,10.486l0.073-0.024
			V63.114h2.393V77.335z"/>
		<path fill="#13ACC4" d="M167.201,77.335h-2.417V61.783l-3.869,0.037v-1.855l6.286-0.659V77.335z"/>
		<path fill="#13ACC4" d="M185.303,71.061c0,2.01-0.511,3.601-1.532,4.773s-2.395,1.758-4.12,1.758c-1.717,0-3.09-0.586-4.119-1.758
			c-1.03-1.172-1.545-2.763-1.545-4.773v-5.225c0-1.994,0.511-3.581,1.532-4.761c1.021-1.18,2.391-1.77,4.108-1.77
			c1.725,0,3.102,0.59,4.132,1.77c1.029,1.18,1.544,2.767,1.544,4.761V71.061z M182.899,65.335c0-1.277-0.285-2.287-0.855-3.027
			c-0.569-0.74-1.375-1.111-2.416-1.111c-1.034,0-1.832,0.371-2.393,1.111c-0.562,0.741-0.843,1.75-0.843,3.027v6.213
			c0,1.278,0.287,2.291,0.86,3.04c0.574,0.749,1.373,1.123,2.398,1.123c1.042,0,1.844-0.373,2.405-1.117
			c0.562-0.745,0.843-1.76,0.843-3.046V65.335z"/>
		<path fill="#13ACC4" d="M187.952,62.98c0-1.033,0.334-1.904,1.001-2.612s1.559-1.062,2.673-1.062c1.115,0,2.007,0.352,2.674,1.056
			c0.667,0.704,1.001,1.577,1.001,2.618v0.94c0,1.034-0.332,1.9-0.995,2.6c-0.663,0.7-1.548,1.05-2.654,1.05
			c-1.123,0-2.021-0.35-2.692-1.05c-0.671-0.7-1.007-1.566-1.007-2.6V62.98z M189.734,63.919c0,0.603,0.165,1.113,0.494,1.532
			c0.33,0.419,0.804,0.629,1.423,0.629c0.594,0,1.054-0.208,1.379-0.623s0.488-0.928,0.488-1.538v-0.94
			c0-0.602-0.165-1.117-0.494-1.544c-0.33-0.428-0.796-0.641-1.398-0.641c-0.609,0-1.078,0.213-1.403,0.641
			c-0.325,0.427-0.488,0.942-0.488,1.544V63.919z M192.273,75.992l-1.331-0.818l8.68-13.892l1.33,0.818L192.273,75.992z
			 M196.557,72.977c0-1.033,0.334-1.902,1.002-2.606c0.667-0.704,1.558-1.056,2.673-1.056c1.106,0,1.996,0.352,2.667,1.056
			c0.672,0.704,1.008,1.573,1.008,2.606v0.952c0,1.042-0.334,1.913-1.002,2.612c-0.667,0.7-1.55,1.05-2.648,1.05
			c-1.123,0-2.021-0.35-2.691-1.05c-0.672-0.7-1.008-1.57-1.008-2.612V72.977z M198.34,73.929c0,0.61,0.164,1.125,0.494,1.544
			c0.329,0.419,0.804,0.628,1.422,0.628c0.594,0,1.054-0.209,1.379-0.628c0.326-0.419,0.488-0.934,0.488-1.544v-0.952
			c0-0.602-0.166-1.115-0.5-1.538c-0.334-0.423-0.798-0.635-1.392-0.635c-0.603,0-1.068,0.212-1.397,0.635
			c-0.33,0.423-0.494,0.936-0.494,1.538V73.929z"/>
		<path fill="#13ACC4" d="M224.793,71.708c0,1.742-0.564,3.149-1.691,4.224s-2.602,1.611-4.425,1.611
			c-1.814,0-3.29-0.539-4.425-1.618c-1.136-1.078-1.703-2.484-1.703-4.217v-2.966c0-1.725,0.563-3.127,1.69-4.205
			c1.127-1.079,2.599-1.618,4.413-1.618c1.823,0,3.302,0.539,4.438,1.618c1.135,1.078,1.703,2.48,1.703,4.205V71.708z
			 M222.388,68.729c0-1.229-0.334-2.193-1.001-2.893c-0.667-0.7-1.579-1.05-2.734-1.05c-1.147,0-2.051,0.35-2.71,1.05
			c-0.659,0.7-0.989,1.665-0.989,2.893v2.979c0,1.253,0.332,2.23,0.995,2.93c0.663,0.7,1.573,1.05,2.729,1.05s2.063-0.35,2.722-1.05
			c0.66-0.7,0.989-1.676,0.989-2.93V68.729z"/>
		<path fill="#13ACC4" d="M236.94,71.219h-6.507v6.116h-2.405V63.114h9.974v1.868h-7.568v4.358h6.507V71.219z"/>
		<path fill="#13ACC4" d="M62.324,103.624c0-0.578-0.252-1.045-0.757-1.404c-0.505-0.358-1.416-0.7-2.734-1.025
			c-1.814-0.472-3.136-1.011-3.961-1.618c-0.826-0.606-1.239-1.52-1.239-2.74c0-1.196,0.494-2.148,1.483-2.856
			c0.988-0.708,2.321-1.062,3.997-1.062c1.709,0,3.042,0.378,3.998,1.135c0.956,0.757,1.414,1.819,1.373,3.186l-0.023,0.073h-2.283
			c0-0.749-0.269-1.357-0.806-1.825c-0.537-0.468-1.29-0.702-2.259-0.702c-1.017,0-1.784,0.189-2.301,0.567
			c-0.517,0.379-0.775,0.869-0.775,1.471c0,0.594,0.234,1.056,0.702,1.385c0.468,0.33,1.427,0.67,2.875,1.02
			c1.75,0.472,3.04,1.025,3.87,1.66c0.83,0.635,1.244,1.542,1.244,2.722c0,1.253-0.517,2.222-1.55,2.905
			c-1.033,0.684-2.438,1.025-4.212,1.025c-1.644,0-3.022-0.346-4.138-1.038c-1.115-0.691-1.647-1.786-1.599-3.284l0.012-0.073h2.295
			c0,0.879,0.331,1.522,0.995,1.929c0.663,0.407,1.475,0.61,2.435,0.61c1.066,0,1.893-0.191,2.479-0.574
			C62.031,104.731,62.324,104.234,62.324,103.624z"/>
		<path fill="#13ACC4" d="M77.827,94.981h-4.357v12.354h-2.404V94.981h-4.297v-1.868h11.059V94.981z"/>
		<path fill="#13ACC4" d="M92.903,93.114v9.363c0,1.587-0.567,2.828-1.703,3.723c-1.135,0.896-2.61,1.343-4.425,1.343
			c-1.799,0-3.268-0.447-4.407-1.343c-1.139-0.895-1.709-2.136-1.709-3.723v-9.363h2.393v9.363c0,1.001,0.344,1.787,1.032,2.356
			c0.688,0.57,1.585,0.854,2.691,0.854c1.115,0,2.016-0.283,2.704-0.848c0.688-0.566,1.031-1.353,1.031-2.362v-9.363H92.903z"/>
		<path fill="#13ACC4" d="M96.528,107.335V93.114h5.14c1.717,0,3.161,0.547,4.333,1.642c1.172,1.094,1.758,2.492,1.758,4.193v2.563
			c0,1.709-0.586,3.107-1.758,4.193c-1.172,1.087-2.616,1.63-4.333,1.63H96.528z M98.933,94.981v10.498h2.734
			c1.025,0,1.896-0.378,2.612-1.135s1.074-1.701,1.074-2.832v-2.576c0-1.115-0.358-2.053-1.074-2.813
			c-0.716-0.761-1.587-1.142-2.612-1.142H98.933z"/>
		<path fill="#13ACC4" d="M119.99,100.865h-6.481v4.614h7.544v1.855h-9.949V93.114h9.949v1.868h-7.544v4.004h6.481V100.865z"/>
		<path fill="#13ACC4" d="M136.542,107.335h-2.393l-7.202-10.486l-0.073,0.024v10.461h-2.405V93.114h2.405l7.202,10.486l0.073-0.024
			V93.114h2.393V107.335z"/>
		<path fill="#13ACC4" d="M150.495,94.981h-4.357v12.354h-2.404V94.981h-4.297v-1.868h11.059V94.981z"/>
		<path fill="#13ACC4" d="M161.823,103.624c0-0.578-0.252-1.045-0.757-1.404c-0.505-0.358-1.416-0.7-2.734-1.025
			c-1.814-0.472-3.136-1.011-3.961-1.618c-0.826-0.606-1.239-1.52-1.239-2.74c0-1.196,0.494-2.148,1.483-2.856
			c0.988-0.708,2.321-1.062,3.997-1.062c1.709,0,3.042,0.378,3.998,1.135s1.414,1.819,1.373,3.186l-0.023,0.073h-2.283
			c0-0.749-0.269-1.357-0.806-1.825c-0.537-0.468-1.29-0.702-2.259-0.702c-1.017,0-1.784,0.189-2.301,0.567
			c-0.517,0.379-0.775,0.869-0.775,1.471c0,0.594,0.234,1.056,0.702,1.385c0.468,0.33,1.427,0.67,2.875,1.02
			c1.75,0.472,3.04,1.025,3.87,1.66s1.244,1.542,1.244,2.722c0,1.253-0.517,2.222-1.55,2.905s-2.438,1.025-4.212,1.025
			c-1.644,0-3.022-0.346-4.138-1.038c-1.115-0.691-1.647-1.786-1.599-3.284l0.012-0.073h2.295c0,0.879,0.331,1.522,0.995,1.929
			c0.663,0.407,1.475,0.61,2.435,0.61c1.066,0,1.893-0.191,2.479-0.574C161.53,104.731,161.823,104.234,161.823,103.624z"/>
		<path fill="#13ACC4" d="M177.167,104.112v0.037l0.012-0.061l2.697-10.974h2.234l2.697,10.999v0.037l0.013-0.061l2.185-10.974
			h2.576l-3.589,14.221h-2.222l-2.746-10.437h-0.074l-2.771,10.437h-2.21l-3.588-14.221h2.575L177.167,104.112z"/>
		<path fill="#13ACC4" d="M203.986,107.335h-2.417v-5.994h-6.909v5.994h-2.405V93.114h2.405v6.36h6.909v-6.36h2.417V107.335z"/>
		<path fill="#13ACC4" d="M219.561,101.708c0,1.742-0.564,3.149-1.691,4.224s-2.602,1.611-4.425,1.611
			c-1.814,0-3.29-0.539-4.425-1.618c-1.136-1.078-1.703-2.484-1.703-4.217v-2.966c0-1.725,0.563-3.127,1.69-4.205
			c1.127-1.079,2.599-1.618,4.413-1.618c1.823,0,3.302,0.539,4.438,1.618c1.135,1.078,1.703,2.48,1.703,4.205V101.708z
			 M217.156,98.729c0-1.229-0.334-2.193-1.001-2.893c-0.667-0.7-1.579-1.05-2.734-1.05c-1.147,0-2.051,0.35-2.71,1.05
			c-0.659,0.7-0.989,1.665-0.989,2.893v2.979c0,1.253,0.332,2.23,0.995,2.93c0.663,0.7,1.573,1.05,2.729,1.05s2.063-0.35,2.722-1.05
			c0.66-0.7,0.989-1.676,0.989-2.93V98.729z"/>
		<path fill="#13ACC4" d="M68.543,134.064H62.33l-1.257,3.271h-2.49l5.725-14.221h2.271l5.713,14.221h-2.478L68.543,134.064z
			 M63.049,132.184h4.773l-2.355-6.079h-0.074L63.049,132.184z"/>
		<path fill="#13ACC4" d="M77.149,131.488v5.847h-2.405v-14.221h5.628c1.668,0,2.96,0.366,3.876,1.099
			c0.915,0.732,1.373,1.758,1.373,3.076c0,0.725-0.201,1.343-0.604,1.855c-0.402,0.513-0.995,0.928-1.776,1.245
			c0.847,0.244,1.455,0.659,1.825,1.245s0.556,1.306,0.556,2.161v1.44c0,0.366,0.022,0.725,0.067,1.074
			c0.044,0.35,0.12,0.615,0.226,0.793v0.232h-2.479c-0.098-0.187-0.158-0.48-0.183-0.879c-0.024-0.398-0.036-0.81-0.036-1.233
			v-1.416c0-0.732-0.212-1.302-0.635-1.709c-0.424-0.407-1.034-0.61-1.832-0.61H77.149z M77.149,129.608h3.223
			c0.977,0,1.692-0.191,2.148-0.574c0.456-0.382,0.684-0.932,0.684-1.648c0-0.749-0.23-1.336-0.689-1.764
			c-0.46-0.427-1.174-0.641-2.143-0.641h-3.223V129.608z"/>
		<path fill="#13ACC4" d="M98.243,130.865h-6.481v4.614h7.544v1.855h-9.949v-14.221h9.949v1.868h-7.544v4.004h6.481V130.865z"/>
		<path fill="#13ACC4" d="M117.372,133.624c0-0.578-0.252-1.045-0.757-1.404c-0.505-0.358-1.416-0.7-2.734-1.025
			c-1.814-0.472-3.136-1.011-3.961-1.618c-0.826-0.606-1.239-1.52-1.239-2.74c0-1.196,0.494-2.148,1.483-2.856
			c0.988-0.708,2.321-1.062,3.997-1.062c1.709,0,3.042,0.378,3.998,1.135s1.414,1.819,1.373,3.186l-0.023,0.073h-2.283
			c0-0.749-0.269-1.357-0.806-1.825c-0.537-0.468-1.29-0.702-2.259-0.702c-1.017,0-1.784,0.189-2.301,0.567
			c-0.517,0.379-0.775,0.869-0.775,1.471c0,0.594,0.234,1.056,0.702,1.385c0.468,0.33,1.427,0.67,2.875,1.02
			c1.75,0.472,3.04,1.025,3.87,1.66s1.244,1.542,1.244,2.722c0,1.253-0.517,2.222-1.55,2.905s-2.438,1.025-4.212,1.025
			c-1.644,0-3.022-0.346-4.138-1.038c-1.115-0.691-1.647-1.786-1.599-3.284l0.012-0.073h2.295c0,0.879,0.331,1.522,0.995,1.929
			c0.663,0.407,1.475,0.61,2.435,0.61c1.066,0,1.893-0.191,2.479-0.574C117.079,134.731,117.372,134.234,117.372,133.624z"/>
		<path fill="#13ACC4" d="M131.702,130.865h-6.481v4.614h7.544v1.855h-9.949v-14.221h9.949v1.868h-7.544v4.004h6.481V130.865z"/>
		<path fill="#13ACC4" d="M141.273,128.399l3.394-5.286h2.844l-4.785,7.043l4.896,7.178h-2.808l-3.504-5.396l-3.479,5.396h-2.844
			l4.906-7.178l-4.797-7.043h2.832L141.273,128.399z"/>
		<path fill="#13ACC4" d="M162.403,123.114v9.363c0,1.587-0.567,2.828-1.703,3.723c-1.135,0.896-2.61,1.343-4.425,1.343
			c-1.799,0-3.268-0.447-4.407-1.343c-1.139-0.895-1.709-2.136-1.709-3.723v-9.363h2.393v9.363c0,1.001,0.344,1.787,1.032,2.356
			c0.688,0.57,1.585,0.854,2.691,0.854c1.115,0,2.016-0.283,2.704-0.848c0.688-0.566,1.031-1.353,1.031-2.362v-9.363H162.403z"/>
		<path fill="#13ACC4" d="M174.391,134.064h-6.214l-1.257,3.271h-2.49l5.725-14.221h2.271l5.713,14.221h-2.478L174.391,134.064z
			 M168.897,132.184h4.773l-2.355-6.079h-0.074L168.897,132.184z"/>
		<path fill="#13ACC4" d="M182.996,135.48h6.409v1.855h-8.814v-14.221h2.405V135.48z"/>
		<path fill="#13ACC4" d="M194.679,135.48h6.409v1.855h-8.814v-14.221h2.405V135.48z"/>
		<path fill="#13ACC4" d="M207.911,130.145l3.699-7.031h2.697l-5.225,9.216v5.005h-2.404v-5.115l-5.151-9.106h2.698L207.911,130.145
			z"/>
		<path fill="#13ACC4" d="M84.614,164.064H78.4l-1.257,3.271h-2.49l5.725-14.221h2.271l5.713,14.221h-2.478L84.614,164.064z
			 M79.12,162.184h4.773l-2.355-6.079h-0.074L79.12,162.184z"/>
		<path fill="#13ACC4" d="M99.25,163.624c0-0.578-0.252-1.045-0.757-1.404c-0.505-0.358-1.416-0.7-2.734-1.025
			c-1.814-0.472-3.136-1.011-3.961-1.618c-0.826-0.606-1.239-1.52-1.239-2.74c0-1.196,0.494-2.148,1.483-2.856
			c0.988-0.708,2.321-1.062,3.997-1.062c1.709,0,3.042,0.378,3.998,1.135s1.414,1.819,1.373,3.186l-0.023,0.073h-2.283
			c0-0.749-0.269-1.357-0.806-1.825c-0.537-0.468-1.29-0.702-2.259-0.702c-1.017,0-1.784,0.189-2.301,0.567
			c-0.517,0.379-0.775,0.869-0.775,1.471c0,0.594,0.234,1.056,0.702,1.385c0.468,0.33,1.427,0.67,2.875,1.02
			c1.75,0.472,3.04,1.025,3.87,1.66s1.244,1.542,1.244,2.722c0,1.253-0.517,2.222-1.55,2.905s-2.438,1.025-4.212,1.025
			c-1.644,0-3.022-0.346-4.138-1.038c-1.115-0.691-1.647-1.786-1.599-3.284l0.012-0.073h2.295c0,0.879,0.331,1.522,0.995,1.929
			c0.663,0.407,1.475,0.61,2.435,0.61c1.066,0,1.893-0.191,2.479-0.574C98.957,164.731,99.25,164.234,99.25,163.624z"/>
		<path fill="#13ACC4" d="M113.129,163.624c0-0.578-0.252-1.045-0.757-1.404c-0.505-0.358-1.416-0.7-2.734-1.025
			c-1.814-0.472-3.136-1.011-3.961-1.618c-0.826-0.606-1.239-1.52-1.239-2.74c0-1.196,0.494-2.148,1.483-2.856
			c0.988-0.708,2.321-1.062,3.997-1.062c1.709,0,3.042,0.378,3.998,1.135s1.414,1.819,1.373,3.186l-0.023,0.073h-2.283
			c0-0.749-0.269-1.357-0.806-1.825c-0.537-0.468-1.29-0.702-2.259-0.702c-1.017,0-1.784,0.189-2.301,0.567
			c-0.517,0.379-0.775,0.869-0.775,1.471c0,0.594,0.234,1.056,0.702,1.385c0.468,0.33,1.427,0.67,2.875,1.02
			c1.75,0.472,3.04,1.025,3.87,1.66s1.244,1.542,1.244,2.722c0,1.253-0.517,2.222-1.55,2.905s-2.438,1.025-4.212,1.025
			c-1.644,0-3.022-0.346-4.138-1.038c-1.115-0.691-1.647-1.786-1.599-3.284l0.012-0.073h2.295c0,0.879,0.331,1.522,0.995,1.929
			c0.663,0.407,1.475,0.61,2.435,0.61c1.066,0,1.893-0.191,2.479-0.574C112.836,164.731,113.129,164.234,113.129,163.624z"/>
		<path fill="#13ACC4" d="M127.143,164.064h-6.214l-1.257,3.271h-2.49l5.725-14.221h2.271l5.713,14.221h-2.478L127.143,164.064z
			 M121.649,162.184h4.773l-2.355-6.079h-0.074L121.649,162.184z"/>
		<path fill="#13ACC4" d="M145.148,153.114v9.363c0,1.587-0.567,2.828-1.703,3.723c-1.135,0.896-2.61,1.343-4.425,1.343
			c-1.799,0-3.268-0.447-4.407-1.343c-1.139-0.895-1.709-2.136-1.709-3.723v-9.363h2.393v9.363c0,1.001,0.344,1.787,1.032,2.356
			c0.688,0.57,1.585,0.854,2.691,0.854c1.115,0,2.016-0.283,2.704-0.848c0.688-0.566,1.031-1.353,1.031-2.362v-9.363H145.148z"/>
		<path fill="#13ACC4" d="M151.178,165.48h6.409v1.855h-8.814v-14.221h2.405V165.48z"/>
		<path fill="#13ACC4" d="M169.672,154.981h-4.357v12.354h-2.404v-12.354h-4.297v-1.868h11.059V154.981z"/>
		<path fill="#13ACC4" d="M181.586,160.865h-6.481v4.614h7.544v1.855H172.7v-14.221h9.949v1.868h-7.544v4.004h6.481V160.865z"/>
		<path fill="#13ACC4" d="M186.067,167.335v-14.221h5.14c1.717,0,3.161,0.547,4.333,1.642c1.172,1.094,1.758,2.492,1.758,4.193
			v2.563c0,1.709-0.586,3.107-1.758,4.193c-1.172,1.087-2.616,1.63-4.333,1.63H186.067z M188.472,154.981v10.498h2.734
			c1.025,0,1.896-0.378,2.612-1.135s1.074-1.701,1.074-2.832v-2.576c0-1.115-0.358-2.053-1.074-2.813
			c-0.716-0.761-1.587-1.142-2.612-1.142H188.472z"/>
		<path fill="#13ACC4" d="M63.953,191.488v5.847h-2.405v-14.221h5.628c1.668,0,2.96,0.366,3.876,1.099
			c0.915,0.732,1.373,1.758,1.373,3.076c0,0.725-0.201,1.343-0.604,1.855c-0.402,0.513-0.995,0.928-1.776,1.245
			c0.847,0.244,1.455,0.659,1.825,1.245s0.556,1.306,0.556,2.161v1.44c0,0.366,0.022,0.725,0.067,1.074
			c0.044,0.35,0.12,0.615,0.226,0.793v0.232h-2.479c-0.098-0.187-0.158-0.48-0.183-0.879c-0.024-0.398-0.036-0.81-0.036-1.233
			v-1.416c0-0.732-0.212-1.302-0.635-1.709c-0.424-0.407-1.034-0.61-1.832-0.61H63.953z M63.953,189.608h3.223
			c0.977,0,1.692-0.191,2.148-0.574c0.456-0.382,0.684-0.932,0.684-1.648c0-0.749-0.23-1.336-0.689-1.764
			c-0.46-0.427-1.174-0.641-2.143-0.641h-3.223V189.608z"/>
		<path fill="#13ACC4" d="M85.045,190.865h-6.481v4.614h7.544v1.855h-9.949v-14.221h9.949v1.868h-7.544v4.004h6.481V190.865z"/>
		<path fill="#13ACC4" d="M91.931,192.208v5.127h-2.405v-14.221h5.689c1.651,0,2.951,0.423,3.899,1.27
			c0.948,0.847,1.423,1.941,1.423,3.284c0,1.351-0.475,2.446-1.423,3.284c-0.948,0.838-2.248,1.257-3.899,1.257H91.931z
			 M91.931,190.328h3.284c0.951,0,1.674-0.256,2.166-0.769s0.738-1.135,0.738-1.868c0-0.749-0.246-1.387-0.738-1.917
			c-0.492-0.529-1.215-0.793-2.166-0.793h-3.284V190.328z"/>
		<path fill="#13ACC4" d="M115.247,191.708c0,1.742-0.564,3.149-1.691,4.224s-2.602,1.611-4.425,1.611
			c-1.814,0-3.29-0.539-4.425-1.618c-1.136-1.078-1.703-2.484-1.703-4.217v-2.966c0-1.725,0.563-3.127,1.69-4.205
			c1.127-1.079,2.599-1.618,4.413-1.618c1.823,0,3.302,0.539,4.438,1.618c1.135,1.078,1.703,2.48,1.703,4.205V191.708z
			 M112.841,188.729c0-1.229-0.334-2.193-1.001-2.893c-0.667-0.7-1.579-1.05-2.734-1.05c-1.147,0-2.051,0.35-2.71,1.05
			c-0.659,0.7-0.989,1.665-0.989,2.893v2.979c0,1.253,0.332,2.23,0.995,2.93c0.663,0.7,1.573,1.05,2.729,1.05s2.063-0.35,2.722-1.05
			c0.66-0.7,0.989-1.676,0.989-2.93V188.729z"/>
		<path fill="#13ACC4" d="M120.886,191.488v5.847h-2.405v-14.221h5.628c1.668,0,2.96,0.366,3.876,1.099
			c0.915,0.732,1.373,1.758,1.373,3.076c0,0.725-0.201,1.343-0.604,1.855c-0.402,0.513-0.995,0.928-1.776,1.245
			c0.847,0.244,1.455,0.659,1.825,1.245s0.556,1.306,0.556,2.161v1.44c0,0.366,0.022,0.725,0.067,1.074
			c0.044,0.35,0.12,0.615,0.226,0.793v0.232h-2.479c-0.098-0.187-0.158-0.48-0.183-0.879c-0.024-0.398-0.036-0.81-0.036-1.233
			v-1.416c0-0.732-0.212-1.302-0.635-1.709c-0.424-0.407-1.034-0.61-1.832-0.61H120.886z M120.886,189.608h3.223
			c0.977,0,1.692-0.191,2.148-0.574c0.456-0.382,0.684-0.932,0.684-1.648c0-0.749-0.23-1.336-0.689-1.764
			c-0.46-0.427-1.174-0.641-2.143-0.641h-3.223V189.608z"/>
		<path fill="#13ACC4" d="M142.98,184.981h-4.357v12.354h-2.404v-12.354h-4.297v-1.868h11.059V184.981z"/>
		<path fill="#13ACC4" d="M162.279,184.981h-4.357v12.354h-2.404v-12.354h-4.297v-1.868h11.059V184.981z"/>
		<path fill="#13ACC4" d="M177.038,197.335h-2.417v-5.994h-6.909v5.994h-2.405v-14.221h2.405v6.36h6.909v-6.36h2.417V197.335z"/>
		<path fill="#13ACC4" d="M189.757,190.865h-6.481v4.614h7.544v1.855h-9.949v-14.221h9.949v1.868h-7.544v4.004h6.481V190.865z"/>
		<path fill="#13ACC4" d="M196.63,197.335h-2.393v-14.221h2.393V197.335z"/>
		<path fill="#13ACC4" d="M202.93,191.488v5.847h-2.405v-14.221h5.628c1.668,0,2.96,0.366,3.876,1.099
			c0.915,0.732,1.373,1.758,1.373,3.076c0,0.725-0.201,1.343-0.604,1.855c-0.402,0.513-0.995,0.928-1.776,1.245
			c0.847,0.244,1.455,0.659,1.825,1.245s0.556,1.306,0.556,2.161v1.44c0,0.366,0.022,0.725,0.067,1.074
			c0.044,0.35,0.12,0.615,0.226,0.793v0.232h-2.479c-0.098-0.187-0.158-0.48-0.183-0.879c-0.024-0.398-0.036-0.81-0.036-1.233
			v-1.416c0-0.732-0.212-1.302-0.635-1.709c-0.424-0.407-1.034-0.61-1.832-0.61H202.93z M202.93,189.608h3.223
			c0.977,0,1.692-0.191,2.148-0.574c0.456-0.382,0.684-0.932,0.684-1.648c0-0.749-0.23-1.336-0.689-1.764
			c-0.46-0.427-1.174-0.641-2.143-0.641h-3.223V189.608z"/>
		<path fill="#13ACC4" d="M95.241,224.064h-6.214l-1.257,3.271h-2.49l5.725-14.221h2.271l5.713,14.221H96.51L95.241,224.064z
			 M89.747,222.184h4.773l-2.355-6.079H92.09L89.747,222.184z"/>
		<path fill="#13ACC4" d="M109.876,223.624c0-0.578-0.252-1.045-0.757-1.404c-0.505-0.358-1.416-0.7-2.734-1.025
			c-1.814-0.472-3.136-1.011-3.961-1.618c-0.826-0.606-1.239-1.52-1.239-2.74c0-1.196,0.494-2.148,1.483-2.856
			c0.988-0.708,2.321-1.062,3.997-1.062c1.709,0,3.042,0.378,3.998,1.135s1.414,1.819,1.373,3.186l-0.023,0.073h-2.283
			c0-0.749-0.269-1.357-0.806-1.825c-0.537-0.468-1.29-0.702-2.259-0.702c-1.017,0-1.784,0.189-2.301,0.567
			c-0.517,0.379-0.775,0.869-0.775,1.471c0,0.594,0.234,1.056,0.702,1.385c0.468,0.33,1.427,0.67,2.875,1.02
			c1.75,0.472,3.04,1.025,3.87,1.66s1.244,1.542,1.244,2.722c0,1.253-0.517,2.222-1.55,2.905s-2.438,1.025-4.212,1.025
			c-1.644,0-3.022-0.346-4.138-1.038c-1.115-0.691-1.647-1.786-1.599-3.284l0.012-0.073h2.295c0,0.879,0.331,1.522,0.995,1.929
			c0.663,0.407,1.475,0.61,2.435,0.61c1.066,0,1.893-0.191,2.479-0.574C109.583,224.731,109.876,224.234,109.876,223.624z"/>
		<path fill="#13ACC4" d="M123.756,223.624c0-0.578-0.252-1.045-0.757-1.404c-0.505-0.358-1.416-0.7-2.734-1.025
			c-1.814-0.472-3.136-1.011-3.961-1.618c-0.826-0.606-1.239-1.52-1.239-2.74c0-1.196,0.494-2.148,1.483-2.856
			c0.988-0.708,2.321-1.062,3.997-1.062c1.709,0,3.042,0.378,3.998,1.135s1.414,1.819,1.373,3.186l-0.023,0.073h-2.283
			c0-0.749-0.269-1.357-0.806-1.825c-0.537-0.468-1.29-0.702-2.259-0.702c-1.017,0-1.784,0.189-2.301,0.567
			c-0.517,0.379-0.775,0.869-0.775,1.471c0,0.594,0.234,1.056,0.702,1.385c0.468,0.33,1.427,0.67,2.875,1.02
			c1.75,0.472,3.04,1.025,3.87,1.66s1.244,1.542,1.244,2.722c0,1.253-0.517,2.222-1.55,2.905s-2.438,1.025-4.212,1.025
			c-1.644,0-3.022-0.346-4.138-1.038c-1.115-0.691-1.647-1.786-1.599-3.284l0.012-0.073h2.295c0,0.879,0.331,1.522,0.995,1.929
			c0.663,0.407,1.475,0.61,2.435,0.61c1.066,0,1.893-0.191,2.479-0.574C123.463,224.731,123.756,224.234,123.756,223.624z"/>
		<path fill="#13ACC4" d="M137.77,224.064h-6.214l-1.257,3.271h-2.49l5.725-14.221h2.271l5.713,14.221h-2.478L137.77,224.064z
			 M132.276,222.184h4.773l-2.355-6.079h-0.074L132.276,222.184z"/>
		<path fill="#13ACC4" d="M155.775,213.114v9.363c0,1.587-0.567,2.828-1.703,3.723c-1.135,0.896-2.61,1.343-4.425,1.343
			c-1.799,0-3.268-0.447-4.407-1.343c-1.139-0.895-1.709-2.136-1.709-3.723v-9.363h2.393v9.363c0,1.001,0.344,1.787,1.032,2.356
			c0.688,0.57,1.585,0.854,2.691,0.854c1.115,0,2.016-0.283,2.704-0.848c0.688-0.566,1.031-1.353,1.031-2.362v-9.363H155.775z"/>
		<path fill="#13ACC4" d="M161.805,225.48h6.409v1.855H159.4v-14.221h2.405V225.48z"/>
		<path fill="#13ACC4" d="M180.299,214.981h-4.357v12.354h-2.404v-12.354h-4.297v-1.868h11.059V214.981z"/>
		<path fill="#13ACC4" d="M185.83,227.335h-2.405v-2.466h2.405V227.335z"/>
	</g>
</g>
</svg>