<!-- Generator: Adobe Illustrator 18.1.1, SVG Export Plug-In  -->
<svg version="1.1"
	 xmlns="http://www.w3.org/2000/svg" xmlns:xlink="http://www.w3.org/1999/xlink" xmlns:a="http://ns.adobe.com/AdobeSVGViewerExtensions/3.0/"
	 x="0px" y="0px" width="272.95px" height="272.95px" viewBox="0 0 272.95 272.95" enable-background="new 0 0 272.95 272.95"
	 xml:space="preserve">
<defs>
</defs>
<rect x="0" y="0" fill="#DFEBE9" width="272.95" height="272.95"/>
<g>
	<rect x="32.612" y="80.412" fill="none" width="207.726" height="192.127"/>
	<path fill="#13ACC4" d="M45.27,99.455h-2.417V83.903l-3.869,0.037v-1.855l6.286-0.659V99.455z"/>
	<path fill="#13ACC4" d="M61.151,99.455h-2.393V85.233h2.393V99.455z"/>
	<path fill="#13ACC4" d="M77.119,99.455h-2.393l-7.202-10.486l-0.073,0.024v10.461h-2.405V85.233h2.405l7.202,10.486l0.073-0.024
		V85.233h2.393V99.455z"/>
	<path fill="#13ACC4" d="M87.495,91.557l1.025-9.875h8.898v2.136h-6.873l-0.573,5.115c0.383-0.285,0.806-0.519,1.27-0.702
		c0.464-0.183,0.993-0.278,1.587-0.287c1.644-0.016,2.932,0.499,3.863,1.544c0.932,1.045,1.398,2.48,1.398,4.303
		c0,1.782-0.479,3.215-1.435,4.297c-0.957,1.083-2.351,1.624-4.181,1.624c-1.506,0-2.76-0.411-3.76-1.233
		c-1.002-0.822-1.481-2.03-1.441-3.625l0.025-0.073h2.172c0,0.969,0.279,1.719,0.837,2.252c0.557,0.533,1.279,0.799,2.167,0.799
		c1.017,0,1.807-0.358,2.367-1.074c0.562-0.716,0.843-1.697,0.843-2.942c0-1.131-0.283-2.046-0.849-2.747
		c-0.565-0.7-1.353-1.05-2.361-1.05c-0.944,0-1.628,0.143-2.051,0.427c-0.424,0.285-0.737,0.725-0.94,1.318L87.495,91.557z"/>
	<path fill="#13ACC4" d="M111.2,96.232v0.037l0.012-0.061l2.697-10.974h2.234l2.697,10.999v0.037l0.013-0.061l2.185-10.974h2.576
		l-3.589,14.221h-2.222l-2.746-10.437h-0.074l-2.771,10.437h-2.21l-3.588-14.221h2.575L111.2,96.232z"/>
	<path fill="#13ACC4" d="M138.031,93.827c0,1.742-0.564,3.149-1.691,4.224s-2.602,1.611-4.425,1.611
		c-1.814,0-3.29-0.539-4.425-1.618c-1.136-1.078-1.703-2.484-1.703-4.217v-2.966c0-1.725,0.563-3.127,1.69-4.205
		c1.127-1.079,2.599-1.618,4.413-1.618c1.823,0,3.302,0.539,4.438,1.618c1.135,1.078,1.703,2.48,1.703,4.205V93.827z
		 M135.625,90.849c0-1.229-0.334-2.193-1.001-2.893c-0.667-0.7-1.579-1.05-2.734-1.05c-1.147,0-2.051,0.35-2.71,1.05
		c-0.659,0.7-0.989,1.665-0.989,2.893v2.979c0,1.253,0.332,2.23,0.995,2.93c0.663,0.7,1.573,1.05,2.729,1.05s2.063-0.35,2.722-1.05
		c0.66-0.7,0.989-1.676,0.989-2.93V90.849z"/>
	<path fill="#13ACC4" d="M148.663,96.293h0.072l4.322-11.06h3.002v14.221h-2.404v-9.875l-0.073-0.024l-4.053,9.9h-1.66l-4.126-10.12
		l-0.073,0.024v10.095h-2.405V85.233h3.102L148.663,96.293z"/>
	<path fill="#13ACC4" d="M168.803,92.985h-6.481v4.614h7.544v1.855h-9.949V85.233h9.949v1.868h-7.544v4.004h6.481V92.985z"/>
	<path fill="#13ACC4" d="M185.357,99.455h-2.393l-7.202-10.486l-0.073,0.024v10.461h-2.405V85.233h2.405l7.202,10.486l0.073-0.024
		V85.233h2.393V99.455z"/>
	<path fill="#13ACC4" d="M204.034,96.183h-6.214l-1.257,3.271h-2.49l5.725-14.221h2.271l5.713,14.221h-2.478L204.034,96.183z
		 M198.539,94.303h4.773l-2.355-6.079h-0.074L198.539,94.303z"/>
	<path fill="#13ACC4" d="M212.639,93.607v5.847h-2.405V85.233h5.628c1.668,0,2.96,0.366,3.876,1.099
		c0.915,0.732,1.373,1.758,1.373,3.076c0,0.725-0.201,1.343-0.604,1.855c-0.402,0.513-0.995,0.928-1.776,1.245
		c0.847,0.244,1.455,0.659,1.825,1.245s0.556,1.306,0.556,2.161v1.44c0,0.366,0.022,0.725,0.067,1.074
		c0.044,0.35,0.12,0.615,0.226,0.793v0.232h-2.479c-0.098-0.187-0.158-0.48-0.183-0.879c-0.024-0.398-0.036-0.81-0.036-1.233v-1.416
		c0-0.732-0.212-1.302-0.635-1.709c-0.424-0.407-1.034-0.61-1.832-0.61H212.639z M212.639,91.727h3.223
		c0.977,0,1.692-0.191,2.148-0.574c0.456-0.382,0.684-0.932,0.684-1.648c0-0.749-0.23-1.336-0.689-1.764
		c-0.46-0.427-1.174-0.641-2.143-0.641h-3.223V91.727z"/>
	<path fill="#13ACC4" d="M233.733,92.985h-6.481v4.614h7.544v1.855h-9.949V85.233h9.949v1.868h-7.544v4.004h6.481V92.985z"/>
	<path fill="#13ACC4" d="M92.89,125.744c0-0.578-0.252-1.045-0.757-1.404c-0.505-0.358-1.416-0.7-2.734-1.025
		c-1.814-0.472-3.136-1.011-3.961-1.618c-0.826-0.606-1.239-1.52-1.239-2.74c0-1.196,0.494-2.148,1.483-2.856
		c0.988-0.708,2.321-1.062,3.997-1.062c1.709,0,3.042,0.378,3.998,1.135s1.414,1.819,1.373,3.186l-0.023,0.073h-2.283
		c0-0.749-0.269-1.357-0.806-1.825c-0.537-0.468-1.29-0.702-2.259-0.702c-1.017,0-1.784,0.189-2.301,0.567
		c-0.517,0.379-0.775,0.869-0.775,1.471c0,0.594,0.234,1.056,0.702,1.385c0.468,0.33,1.427,0.67,2.875,1.02
		c1.75,0.472,3.04,1.025,3.87,1.66s1.244,1.542,1.244,2.722c0,1.253-0.517,2.222-1.55,2.905s-2.438,1.025-4.212,1.025
		c-1.644,0-3.022-0.346-4.138-1.038c-1.115-0.691-1.647-1.786-1.599-3.284l0.012-0.073h2.295c0,0.879,0.331,1.522,0.995,1.929
		c0.663,0.407,1.475,0.61,2.435,0.61c1.066,0,1.893-0.191,2.479-0.574C92.597,126.851,92.89,126.354,92.89,125.744z"/>
	<path fill="#13ACC4" d="M107.221,122.985h-6.481v4.614h7.544v1.855h-9.949v-14.221h9.949v1.868h-7.544v4.004h6.481V122.985z"/>
	<path fill="#13ACC4" d="M116.792,120.519l3.394-5.286h2.844l-4.785,7.043l4.896,7.178h-2.808l-3.504-5.396l-3.479,5.396h-2.844
		l4.906-7.178l-4.797-7.043h2.832L116.792,120.519z"/>
	<path fill="#13ACC4" d="M137.922,115.233v9.363c0,1.587-0.567,2.828-1.703,3.723c-1.135,0.896-2.61,1.343-4.425,1.343
		c-1.799,0-3.268-0.447-4.407-1.343c-1.139-0.895-1.709-2.136-1.709-3.723v-9.363h2.393v9.363c0,1.001,0.344,1.787,1.032,2.356
		c0.688,0.57,1.585,0.854,2.691,0.854c1.115,0,2.016-0.283,2.704-0.848c0.688-0.566,1.031-1.353,1.031-2.362v-9.363H137.922z"/>
	<path fill="#13ACC4" d="M149.911,126.183h-6.214l-1.257,3.271h-2.49l5.725-14.221h2.271l5.713,14.221h-2.478L149.911,126.183z
		 M144.416,124.303h4.773l-2.355-6.079h-0.074L144.416,124.303z"/>
	<path fill="#13ACC4" d="M158.515,127.599h6.409v1.855h-8.814v-14.221h2.405V127.599z"/>
	<path fill="#13ACC4" d="M170.199,127.599h6.409v1.855h-8.814v-14.221h2.405V127.599z"/>
	<path fill="#13ACC4" d="M183.43,122.265l3.699-7.031h2.697l-5.225,9.216v5.005h-2.404v-5.115l-5.151-9.106h2.698L183.43,122.265z"
		/>
	<path fill="#13ACC4" d="M70.38,156.183h-6.214l-1.257,3.271h-2.49l5.725-14.221h2.271l5.713,14.221H71.65L70.38,156.183z
		 M64.886,154.303h4.773l-2.355-6.079H67.23L64.886,154.303z"/>
	<path fill="#13ACC4" d="M85.016,155.744c0-0.578-0.252-1.045-0.757-1.404c-0.505-0.358-1.416-0.7-2.734-1.025
		c-1.814-0.472-3.136-1.011-3.961-1.618c-0.826-0.606-1.239-1.52-1.239-2.74c0-1.196,0.494-2.148,1.483-2.856
		c0.988-0.708,2.321-1.062,3.997-1.062c1.709,0,3.042,0.378,3.998,1.135s1.414,1.819,1.373,3.186l-0.023,0.073H84.87
		c0-0.749-0.269-1.357-0.806-1.825c-0.537-0.468-1.29-0.702-2.259-0.702c-1.017,0-1.784,0.189-2.301,0.567
		c-0.517,0.379-0.775,0.869-0.775,1.471c0,0.594,0.234,1.056,0.702,1.385c0.468,0.33,1.427,0.67,2.875,1.02
		c1.75,0.472,3.04,1.025,3.87,1.66s1.244,1.542,1.244,2.722c0,1.253-0.517,2.222-1.55,2.905s-2.438,1.025-4.212,1.025
		c-1.644,0-3.022-0.346-4.138-1.038c-1.115-0.691-1.647-1.786-1.599-3.284l0.012-0.073h2.295c0,0.879,0.331,1.522,0.995,1.929
		c0.663,0.407,1.475,0.61,2.435,0.61c1.066,0,1.893-0.191,2.479-0.574C84.723,156.851,85.016,156.354,85.016,155.744z"/>
	<path fill="#13ACC4" d="M98.895,155.744c0-0.578-0.252-1.045-0.757-1.404c-0.505-0.358-1.416-0.7-2.734-1.025
		c-1.814-0.472-3.136-1.011-3.961-1.618c-0.826-0.606-1.239-1.52-1.239-2.74c0-1.196,0.494-2.148,1.483-2.856
		c0.988-0.708,2.321-1.062,3.997-1.062c1.709,0,3.042,0.378,3.998,1.135s1.414,1.819,1.373,3.186l-0.023,0.073h-2.283
		c0-0.749-0.269-1.357-0.806-1.825c-0.537-0.468-1.29-0.702-2.259-0.702c-1.017,0-1.784,0.189-2.301,0.567
		c-0.517,0.379-0.775,0.869-0.775,1.471c0,0.594,0.234,1.056,0.702,1.385c0.468,0.33,1.427,0.67,2.875,1.02
		c1.75,0.472,3.04,1.025,3.87,1.66s1.244,1.542,1.244,2.722c0,1.253-0.517,2.222-1.55,2.905s-2.438,1.025-4.212,1.025
		c-1.644,0-3.022-0.346-4.138-1.038c-1.115-0.691-1.647-1.786-1.599-3.284l0.012-0.073h2.295c0,0.879,0.331,1.522,0.995,1.929
		c0.663,0.407,1.475,0.61,2.435,0.61c1.066,0,1.893-0.191,2.479-0.574C98.602,156.851,98.895,156.354,98.895,155.744z"/>
	<path fill="#13ACC4" d="M112.909,156.183h-6.214l-1.257,3.271h-2.49l5.725-14.221h2.271l5.713,14.221h-2.478L112.909,156.183z
		 M107.414,154.303h4.773l-2.355-6.079h-0.074L107.414,154.303z"/>
	<path fill="#13ACC4" d="M130.913,145.233v9.363c0,1.587-0.567,2.828-1.703,3.723c-1.135,0.896-2.61,1.343-4.425,1.343
		c-1.799,0-3.268-0.447-4.407-1.343c-1.139-0.895-1.709-2.136-1.709-3.723v-9.363h2.393v9.363c0,1.001,0.344,1.787,1.032,2.356
		c0.688,0.57,1.585,0.854,2.691,0.854c1.115,0,2.016-0.283,2.704-0.848c0.688-0.566,1.031-1.353,1.031-2.362v-9.363H130.913z"/>
	<path fill="#13ACC4" d="M136.944,157.599h6.409v1.855h-8.814v-14.221h2.405V157.599z"/>
	<path fill="#13ACC4" d="M155.438,147.101h-4.357v12.354h-2.404v-12.354h-4.297v-1.868h11.059V147.101z"/>
	<path fill="#13ACC4" d="M167.352,152.985h-6.481v4.614h7.544v1.855h-9.949v-14.221h9.949v1.868h-7.544v4.004h6.481V152.985z"/>
	<path fill="#13ACC4" d="M171.832,159.455v-14.221h5.14c1.717,0,3.161,0.547,4.333,1.642c1.172,1.094,1.758,2.492,1.758,4.193v2.563
		c0,1.709-0.586,3.107-1.758,4.193c-1.172,1.087-2.616,1.63-4.333,1.63H171.832z M174.238,147.101v10.498h2.734
		c1.025,0,1.896-0.378,2.612-1.135s1.074-1.701,1.074-2.832v-2.576c0-1.115-0.358-2.053-1.074-2.813
		c-0.716-0.761-1.587-1.142-2.612-1.142H174.238z"/>
	<path fill="#13ACC4" d="M195.014,159.455h-2.393v-14.221h2.393V159.455z"/>
	<path fill="#13ACC4" d="M210.982,159.455h-2.393l-7.202-10.486l-0.073,0.024v10.461h-2.405v-14.221h2.405l7.202,10.486l0.073-0.024
		v-10.461h2.393V159.455z"/>
	<path fill="#13ACC4" d="M98.78,184.804l0.024,0.073c0.041,1.538-0.466,2.72-1.52,3.546c-1.055,0.826-2.419,1.239-4.096,1.239
		c-1.685,0-3.091-0.545-4.218-1.636c-1.127-1.09-1.69-2.49-1.69-4.199v-2.966c0-1.701,0.563-3.096,1.69-4.187
		c1.127-1.09,2.533-1.636,4.218-1.636c1.726,0,3.104,0.413,4.139,1.239c1.033,0.826,1.529,2,1.488,3.522l-0.023,0.073h-2.308
		c0-0.984-0.289-1.725-0.866-2.222c-0.578-0.496-1.388-0.745-2.43-0.745c-1.001,0-1.835,0.378-2.502,1.135
		c-0.668,0.757-1.002,1.693-1.002,2.808v2.979c0,1.131,0.334,2.077,1.002,2.838c0.667,0.761,1.501,1.141,2.502,1.141
		c1.033,0,1.839-0.248,2.417-0.745c0.578-0.496,0.866-1.249,0.866-2.258H98.78z"/>
	<path fill="#13ACC4" d="M113.807,183.827c0,1.742-0.564,3.149-1.691,4.224s-2.602,1.611-4.425,1.611
		c-1.814,0-3.29-0.539-4.425-1.618c-1.136-1.078-1.703-2.484-1.703-4.217v-2.966c0-1.725,0.563-3.127,1.69-4.205
		c1.127-1.079,2.599-1.618,4.413-1.618c1.823,0,3.302,0.539,4.438,1.618c1.135,1.078,1.703,2.48,1.703,4.205V183.827z
		 M111.402,180.849c0-1.229-0.334-2.193-1.001-2.893c-0.667-0.7-1.579-1.05-2.734-1.05c-1.147,0-2.051,0.35-2.71,1.05
		c-0.659,0.7-0.989,1.665-0.989,2.893v2.979c0,1.253,0.332,2.23,0.995,2.93c0.663,0.7,1.573,1.05,2.729,1.05s2.063-0.35,2.722-1.05
		c0.66-0.7,0.989-1.676,0.989-2.93V180.849z"/>
	<path fill="#13ACC4" d="M119.447,187.599h6.409v1.855h-8.814v-14.221h2.405V187.599z"/>
	<path fill="#13ACC4" d="M131.128,187.599h6.409v1.855h-8.814v-14.221h2.405V187.599z"/>
	<path fill="#13ACC4" d="M149.291,182.985h-6.481v4.614h7.544v1.855h-9.949v-14.221h9.949v1.868h-7.544v4.004h6.481V182.985z"/>
	<path fill="#13ACC4" d="M165.321,187.538c-0.367,0.529-1.042,1.015-2.027,1.458c-0.984,0.444-2.213,0.666-3.686,0.666
		c-1.881,0-3.406-0.539-4.578-1.618c-1.172-1.078-1.758-2.484-1.758-4.217v-2.966c0-1.717,0.59-3.117,1.77-4.199
		c1.181-1.082,2.686-1.624,4.518-1.624c1.807,0,3.204,0.409,4.192,1.227c0.989,0.817,1.467,1.866,1.435,3.143l-0.024,0.073h-2.295
		c0-0.822-0.295-1.457-0.885-1.904c-0.591-0.447-1.397-0.671-2.423-0.671c-1.14,0-2.071,0.375-2.796,1.123
		c-0.725,0.749-1.087,1.689-1.087,2.82v2.979c0,1.156,0.358,2.108,1.074,2.856c0.717,0.749,1.669,1.123,2.857,1.123
		c0.854,0,1.56-0.085,2.117-0.256s0.963-0.366,1.215-0.586v-3.052h-3.149v-1.88h5.53V187.538z"/>
	<path fill="#13ACC4" d="M177.735,182.985h-6.481v4.614h7.544v1.855h-9.949v-14.221h9.949v1.868h-7.544v4.004h6.481V182.985z"/>
	<path fill="#13ACC4" d="M184.718,189.455h-2.405v-2.466h2.405V189.455z"/>
</g>
</svg>