<!-- Generator: Adobe Illustrator 18.1.1, SVG Export Plug-In  -->
<svg version="1.1"
	 xmlns="http://www.w3.org/2000/svg" xmlns:xlink="http://www.w3.org/1999/xlink" xmlns:a="http://ns.adobe.com/AdobeSVGViewerExtensions/3.0/"
	 x="0px" y="0px" width="391.167px" height="126.8px" viewBox="0 0 391.167 126.8" enable-background="new 0 0 391.167 126.8"
	 xml:space="preserve">
<defs>
</defs>
<circle fill="#3D9389" cx="105.497" cy="10.783" r="10.783"/>
<g>
	<g>
		<path fill="#303030" d="M126.148,13.199h-1.823l0.084-0.479h1.823l0.467-2.65h-1.822l0.084-0.48h1.822l0.42-2.398h0.516
			l-0.419,2.398h2.267l0.42-2.398h0.516l-0.42,2.398h1.787l-0.084,0.48h-1.787l-0.468,2.65h1.787l-0.084,0.479h-1.787l-0.42,2.387
			h-0.516l0.42-2.387h-2.267l-0.42,2.387h-0.516L126.148,13.199z M129.014,12.72l0.468-2.65h-2.267l-0.468,2.65H129.014z"/>
		<path fill="#303030" d="M133.432,7.19h4.821v0.36l-2.711,3.13c1.008-0.012,2.771,0.504,2.771,2.482
			c0,1.439-1.211,2.566-2.662,2.566c-1.596,0-2.614-1.163-2.614-1.163l0.383-0.384c0,0,0.876,1.056,2.255,1.056
			c1.067,0,2.1-0.84,2.1-2.075c0-1.307-1.104-2.003-2.243-2.003c-0.3,0-0.563,0.024-0.563,0.024l-0.156-0.384l2.471-2.891
			c0.096-0.12,0.264-0.24,0.264-0.24V7.647c0,0-0.228,0.023-0.359,0.023h-3.25v1.212h-0.504V7.19z"/>
		<path fill="#303030" d="M144.003,7.047c1.007,0,3.058,0.396,3.058,1.667v0.791h-0.527V8.834c0-0.924-1.583-1.296-2.519-1.296
			c-2.099,0-3.694,1.632-3.694,3.79c0,2.171,1.583,3.91,3.73,3.91c0.755,0,2.614-0.312,2.614-1.283v-0.66h0.527v0.78
			c0,1.199-1.979,1.654-3.142,1.654c-2.482,0-4.27-1.967-4.27-4.401S141.603,7.047,144.003,7.047z"/>
		<path fill="#303030" d="M151.203,7.047c1.859,0,2.938,1.774,2.938,3.922c0,2.051-1.02,4.761-3.61,4.761
			c-0.863,0-1.463-0.336-1.463-0.336l0.252-0.467c0,0,0.516,0.312,1.235,0.312c1.955,0,2.927-2.027,3.046-3.874h-0.023
			c-0.468,0.672-1.392,1.115-2.375,1.115c-1.475,0-2.578-1.043-2.578-2.639C148.625,8.019,149.824,7.047,151.203,7.047z
			 M151.227,11.988c1.295,0,2.326-0.888,2.326-1.644c0-1.163-0.911-2.807-2.339-2.807c-1.295,0-2.051,0.972-2.051,2.303
			C149.164,11.148,150.015,11.988,151.227,11.988z"/>
		<path fill="#303030" d="M155.921,7.19h4.821v0.36l-2.711,3.13c1.008-0.012,2.771,0.504,2.771,2.482
			c0,1.439-1.211,2.566-2.662,2.566c-1.596,0-2.614-1.163-2.614-1.163l0.383-0.384c0,0,0.876,1.056,2.255,1.056
			c1.067,0,2.1-0.84,2.1-2.075c0-1.307-1.104-2.003-2.243-2.003c-0.3,0-0.563,0.024-0.563,0.024l-0.156-0.384l2.471-2.891
			c0.096-0.12,0.264-0.24,0.264-0.24V7.647c0,0-0.228,0.023-0.359,0.023h-3.25v1.212h-0.504V7.19z"/>
		<path fill="#303030" d="M163.791,10.824c-0.636-0.384-1.115-0.911-1.115-1.715c0-1.079,0.828-2.062,2.482-2.062
			c1.535,0,2.483,0.875,2.483,2.123c0,1.283-0.996,2.278-1.092,2.362c0.72,0.396,1.271,0.924,1.271,1.811
			c0,1.319-1.188,2.387-2.698,2.387c-1.392,0-2.783-0.911-2.783-2.494C162.34,11.712,163.611,10.933,163.791,10.824z
			 M165.098,15.238c1.092,0,2.183-0.792,2.183-1.835c0-1.308-1.511-1.619-3.01-2.327c-0.252,0.156-1.392,0.864-1.392,2.135
			C162.88,14.446,163.995,15.238,165.098,15.238z M166.057,11.305c0.133-0.108,1.044-1.008,1.044-2.111
			c0-1.031-0.815-1.655-1.955-1.655c-1.211,0-1.931,0.708-1.931,1.56C163.215,10.345,164.751,10.717,166.057,11.305z"/>
		<path fill="#303030" d="M171.89,7.047c1.859,0,2.938,1.774,2.938,3.922c0,2.051-1.02,4.761-3.61,4.761
			c-0.863,0-1.463-0.336-1.463-0.336l0.252-0.467c0,0,0.516,0.312,1.235,0.312c1.955,0,2.927-2.027,3.046-3.874h-0.023
			c-0.468,0.672-1.392,1.115-2.375,1.115c-1.475,0-2.578-1.043-2.578-2.639C169.312,8.019,170.511,7.047,171.89,7.047z
			 M171.915,11.988c1.295,0,2.326-0.888,2.326-1.644c0-1.163-0.911-2.807-2.339-2.807c-1.295,0-2.051,0.972-2.051,2.303
			C169.851,11.148,170.703,11.988,171.915,11.988z"/>
	</g>
</g>
<circle fill="#49C3CD" cx="105.497" cy="37.091" r="10.783"/>
<g>
	<g>
		<path fill="#303030" d="M125.999,40.022h-1.823l0.084-0.479h1.823l0.467-2.65h-1.822l0.084-0.48h1.822l0.42-2.398h0.516
			l-0.419,2.398h2.267l0.42-2.398h0.516l-0.42,2.398h1.787l-0.084,0.48h-1.787l-0.468,2.65h1.787l-0.084,0.479h-1.787l-0.42,2.387
			h-0.516l0.42-2.387h-2.267l-0.42,2.387h-0.516L125.999,40.022z M128.865,39.542l0.468-2.65h-2.267l-0.468,2.65H128.865z"/>
		<path fill="#303030" d="M132.671,39.649l4.354-5.637h0.479v5.518h1.247v0.479h-1.247v2.398h-0.516V40.01h-4.318V39.649z
			 M133.39,39.506v0.024h3.599v-4.234c0-0.228,0.036-0.468,0.036-0.468h-0.024c0,0-0.12,0.204-0.264,0.384L133.39,39.506z"/>
		<path fill="#303030" d="M141.442,37.647c-0.636-0.384-1.115-0.911-1.115-1.715c0-1.079,0.828-2.062,2.482-2.062
			c1.535,0,2.483,0.875,2.483,2.123c0,1.283-0.996,2.278-1.092,2.362c0.72,0.396,1.271,0.924,1.271,1.811
			c0,1.319-1.188,2.387-2.698,2.387c-1.392,0-2.783-0.911-2.783-2.494C139.991,38.534,141.262,37.755,141.442,37.647z
			 M142.75,42.061c1.092,0,2.183-0.792,2.183-1.835c0-1.308-1.511-1.619-3.01-2.327c-0.252,0.156-1.392,0.864-1.392,2.135
			C140.531,41.269,141.646,42.061,142.75,42.061z M143.709,38.127c0.133-0.108,1.044-1.008,1.044-2.111
			c0-1.031-0.815-1.655-1.955-1.655c-1.211,0-1.931,0.708-1.931,1.56C140.867,37.167,142.402,37.539,143.709,38.127z"/>
		<path fill="#303030" d="M151.221,33.869c1.007,0,3.058,0.396,3.058,1.667v0.791h-0.527v-0.671c0-0.924-1.583-1.296-2.519-1.296
			c-2.099,0-3.694,1.632-3.694,3.79c0,2.171,1.583,3.91,3.73,3.91c0.755,0,2.614-0.312,2.614-1.283v-0.66h0.527v0.78
			c0,1.199-1.979,1.654-3.142,1.654c-2.483,0-4.27-1.967-4.27-4.401S148.822,33.869,151.221,33.869z"/>
		<path fill="#303030" d="M155.855,41.965c0-2.915,4.474-3.251,4.474-5.793c0-1.008-0.744-1.812-1.955-1.812
			c-1.343,0-2.039,1.212-2.039,1.212l-0.384-0.265c0,0,0.756-1.438,2.435-1.438c1.655,0,2.483,1.104,2.483,2.303
			c0,2.866-4.462,3.226-4.462,5.757h4.39v-1.212h0.504v1.691h-5.409C155.867,42.252,155.855,42.108,155.855,41.965z"/>
		<path fill="#303030" d="M166.928,33.869c1.007,0,3.058,0.396,3.058,1.667v0.791h-0.527v-0.671c0-0.924-1.583-1.296-2.519-1.296
			c-2.099,0-3.694,1.632-3.694,3.79c0,2.171,1.583,3.91,3.73,3.91c0.755,0,2.614-0.312,2.614-1.283v-0.66h0.527v0.78
			c0,1.199-1.979,1.654-3.142,1.654c-2.483,0-4.27-1.967-4.27-4.401S164.529,33.869,166.928,33.869z"/>
		<path fill="#303030" d="M171.514,41.929h1.14v-7.437h-1.14v-0.479h3.502c0.731,0,1.235,0.048,1.811,0.228
			c1.571,0.528,2.531,1.968,2.531,3.982c0,2.099-1.031,3.514-2.747,4.006c-0.503,0.144-1.007,0.18-1.595,0.18h-3.502V41.929z
			 M174.932,41.929c0.576,0,1.067-0.048,1.547-0.192c1.428-0.432,2.339-1.679,2.339-3.525c0-1.775-0.839-3.047-2.219-3.515
			c-0.527-0.18-1.031-0.204-1.667-0.204h-1.763v7.437H174.932z"/>
	</g>
</g>
<circle fill="#FFFFFF" stroke="#ABABAB" stroke-miterlimit="10" cx="105.497" cy="89.709" r="10.783"/>
<g>
	<g>
		<path fill="#303030" d="M126.824,93.667h-1.823l0.084-0.48h1.823l0.467-2.65h-1.822l0.084-0.48h1.822l0.42-2.398h0.516
			l-0.419,2.398h2.267l0.42-2.398h0.516l-0.42,2.398h1.787l-0.084,0.48h-1.787l-0.468,2.65h1.787l-0.084,0.48h-1.787l-0.42,2.387
			h-0.516l0.42-2.387h-2.267l-0.42,2.387h-0.516L126.824,93.667z M129.69,93.187l0.468-2.65h-2.267l-0.468,2.65H129.69z"/>
		<path fill="#303030" d="M133.772,95.573h1.14v-7.436h-1.14v-0.48h5.493v1.619h-0.504v-1.139h-3.334v3.502h3.214v0.48h-3.214v3.453
			h1.199v0.48h-2.854V95.573z"/>
		<path fill="#303030" d="M140.432,95.573h1.14v-7.436h-1.14v-0.48h5.493v1.619h-0.504v-1.139h-3.334v3.502h3.214v0.48h-3.214v3.453
			h1.199v0.48h-2.854V95.573z"/>
		<path fill="#303030" d="M147.092,95.573h1.14v-7.436h-1.14v-0.48h5.493v1.619h-0.504v-1.139h-3.334v3.502h3.214v0.48h-3.214v3.453
			h1.199v0.48h-2.854V95.573z"/>
		<path fill="#303030" d="M153.753,95.573h1.14v-7.436h-1.14v-0.48h5.493v1.619h-0.504v-1.139h-3.334v3.502h3.214v0.48h-3.214v3.453
			h1.199v0.48h-2.854V95.573z"/>
		<path fill="#303030" d="M160.412,95.573h1.14v-7.436h-1.14v-0.48h5.493v1.619h-0.504v-1.139h-3.334v3.502h3.214v0.48h-3.214v3.453
			h1.199v0.48h-2.854V95.573z"/>
		<path fill="#303030" d="M167.072,95.573h1.14v-7.436h-1.14v-0.48h5.493v1.619h-0.504v-1.139h-3.334v3.502h3.214v0.48h-3.214v3.453
			h1.199v0.48h-2.854V95.573z"/>
	</g>
</g>
<circle fill="#EFD039" cx="105.497" cy="116.017" r="10.783"/>
<g>
	<g>
		<path fill="#303030" d="M127.18,120.489h-1.823l0.084-0.479h1.823l0.467-2.65h-1.822l0.084-0.48h1.822l0.42-2.398h0.516
			l-0.419,2.398h2.267l0.42-2.398h0.516l-0.42,2.398h1.787l-0.084,0.48h-1.787l-0.468,2.65h1.787l-0.084,0.479h-1.787l-0.42,2.387
			h-0.516l0.42-2.387h-2.267l-0.42,2.387h-0.516L127.18,120.489z M130.047,120.01l0.468-2.65h-2.267l-0.468,2.65H130.047z"/>
		<path fill="#303030" d="M134.129,122.397h1.14v-7.437h-1.14v-0.479h5.793v1.56h-0.504v-1.08h-3.634v3.442h3.346v0.479h-3.346
			v3.515h3.874v-1.151h0.503v1.631h-6.032V122.397z"/>
		<path fill="#303030" d="M141.521,122.397h1.14v-7.437h-1.14v-0.479h5.493v1.619h-0.504v-1.14h-3.334v3.503h3.214v0.479h-3.214
			v3.454h1.199v0.479h-2.854V122.397z"/>
		<path fill="#303030" d="M148.18,122.397h1.14v-7.437h-1.14v-0.479h3.502c0.731,0,1.235,0.048,1.811,0.228
			c1.571,0.528,2.531,1.968,2.531,3.982c0,2.099-1.031,3.514-2.747,4.006c-0.503,0.144-1.007,0.18-1.595,0.18h-3.502V122.397z
			 M151.598,122.397c0.576,0,1.067-0.048,1.547-0.192c1.428-0.432,2.339-1.679,2.339-3.525c0-1.775-0.839-3.047-2.219-3.515
			c-0.527-0.18-1.031-0.204-1.667-0.204h-1.763v7.437H151.598z"/>
		<path fill="#303030" d="M157.636,118.679c0-2.423,0.695-4.342,2.83-4.342s2.831,1.919,2.831,4.342
			c0,2.435-0.696,4.341-2.831,4.341S157.636,121.113,157.636,118.679z M162.757,118.679c0-2.159-0.504-3.851-2.291-3.851
			s-2.29,1.691-2.29,3.851c0,2.17,0.503,3.85,2.29,3.85S162.757,120.849,162.757,118.679z"/>
		<path fill="#303030" d="M165.125,114.481h4.821v0.36l-2.711,3.13c1.008-0.012,2.771,0.504,2.771,2.482
			c0,1.439-1.211,2.566-2.662,2.566c-1.596,0-2.614-1.163-2.614-1.163l0.383-0.384c0,0,0.876,1.056,2.255,1.056
			c1.067,0,2.1-0.84,2.1-2.075c0-1.307-1.104-2.003-2.243-2.003c-0.3,0-0.563,0.024-0.563,0.024l-0.156-0.384l2.471-2.891
			c0.096-0.12,0.264-0.24,0.264-0.24v-0.023c0,0-0.228,0.023-0.359,0.023h-3.25v1.212h-0.504V114.481z"/>
		<path fill="#303030" d="M174.014,114.337c1.859,0,2.938,1.774,2.938,3.922c0,2.051-1.02,4.761-3.61,4.761
			c-0.863,0-1.463-0.336-1.463-0.336l0.252-0.467c0,0,0.516,0.312,1.235,0.312c1.955,0,2.927-2.027,3.046-3.874h-0.023
			c-0.468,0.672-1.392,1.115-2.375,1.115c-1.475,0-2.578-1.043-2.578-2.639C171.436,115.309,172.635,114.337,174.014,114.337z
			 M174.039,119.278c1.295,0,2.326-0.888,2.326-1.644c0-1.163-0.911-2.807-2.339-2.807c-1.295,0-2.051,0.972-2.051,2.303
			C171.975,118.439,172.827,119.278,174.039,119.278z"/>
	</g>
</g>
<circle fill="#3D8991" cx="105.497" cy="63.4" r="10.783"/>
<g>
	<g>
		<path fill="#303030" d="M126.52,66.845h-1.823l0.084-0.479h1.823l0.467-2.65h-1.822l0.084-0.48h1.822l0.42-2.398h0.516
			l-0.419,2.398h2.267l0.42-2.398h0.516l-0.42,2.398h1.787l-0.084,0.48h-1.787l-0.468,2.65h1.787l-0.084,0.479h-1.787l-0.42,2.387
			h-0.516l0.42-2.387h-2.267l-0.42,2.387H126.1L126.52,66.845z M129.386,66.365l0.468-2.65h-2.267l-0.468,2.65H129.386z"/>
		<path fill="#303030" d="M133.804,60.836h4.821v0.36l-2.711,3.13c1.008-0.012,2.771,0.504,2.771,2.482
			c0,1.439-1.211,2.566-2.662,2.566c-1.596,0-2.614-1.163-2.614-1.163l0.383-0.384c0,0,0.876,1.056,2.255,1.056
			c1.067,0,2.1-0.84,2.1-2.075c0-1.307-1.104-2.003-2.243-2.003c-0.3,0-0.563,0.024-0.563,0.024l-0.156-0.384l2.471-2.891
			c0.096-0.12,0.264-0.24,0.264-0.24v-0.023c0,0-0.228,0.023-0.359,0.023h-3.25v1.212h-0.504V60.836z"/>
		<path fill="#303030" d="M140.081,68.752h1.14v-7.437h-1.14v-0.479h3.502c0.731,0,1.235,0.048,1.811,0.228
			c1.571,0.528,2.531,1.968,2.531,3.982c0,2.099-1.031,3.514-2.747,4.006c-0.503,0.144-1.007,0.18-1.595,0.18h-3.502V68.752z
			 M143.499,68.752c0.576,0,1.067-0.048,1.547-0.192c1.428-0.432,2.339-1.679,2.339-3.525c0-1.775-0.839-3.047-2.219-3.515
			c-0.527-0.18-1.031-0.204-1.667-0.204h-1.763v7.437H143.499z"/>
		<path fill="#303030" d="M150.915,64.47c-0.636-0.384-1.115-0.911-1.115-1.715c0-1.079,0.828-2.062,2.482-2.062
			c1.535,0,2.483,0.875,2.483,2.123c0,1.283-0.996,2.278-1.092,2.362c0.72,0.396,1.271,0.924,1.271,1.811
			c0,1.319-1.188,2.387-2.698,2.387c-1.392,0-2.783-0.911-2.783-2.494C149.464,65.357,150.735,64.578,150.915,64.47z
			 M152.222,68.884c1.092,0,2.183-0.792,2.183-1.835c0-1.308-1.511-1.619-3.01-2.327c-0.252,0.156-1.392,0.864-1.392,2.135
			C150.004,68.092,151.119,68.884,152.222,68.884z M153.181,64.95c0.133-0.108,1.044-1.008,1.044-2.111
			c0-1.031-0.815-1.655-1.955-1.655c-1.211,0-1.931,0.708-1.931,1.56C150.34,63.99,151.875,64.362,153.181,64.95z"/>
		<path fill="#303030" d="M159.014,60.692c1.859,0,2.938,1.774,2.938,3.922c0,2.051-1.02,4.761-3.61,4.761
			c-0.863,0-1.463-0.336-1.463-0.336l0.252-0.467c0,0,0.516,0.312,1.235,0.312c1.955,0,2.927-2.027,3.046-3.874h-0.023
			c-0.468,0.672-1.392,1.115-2.375,1.115c-1.475,0-2.578-1.043-2.578-2.639C156.436,61.664,157.635,60.692,159.014,60.692z
			 M159.039,65.634c1.295,0,2.326-0.888,2.326-1.644c0-1.163-0.911-2.807-2.339-2.807c-1.295,0-2.051,0.972-2.051,2.303
			C156.975,64.794,157.827,65.634,159.039,65.634z"/>
		<path fill="#303030" d="M166.01,60.692c1.859,0,2.938,1.774,2.938,3.922c0,2.051-1.02,4.761-3.61,4.761
			c-0.863,0-1.463-0.336-1.463-0.336l0.252-0.467c0,0,0.516,0.312,1.235,0.312c1.955,0,2.927-2.027,3.046-3.874h-0.023
			c-0.468,0.672-1.392,1.115-2.375,1.115c-1.475,0-2.578-1.043-2.578-2.639C163.432,61.664,164.632,60.692,166.01,60.692z
			 M166.035,65.634c1.295,0,2.326-0.888,2.326-1.644c0-1.163-0.911-2.807-2.339-2.807c-1.295,0-2.051,0.972-2.051,2.303
			C163.971,64.794,164.823,65.634,166.035,65.634z"/>
		<path fill="#303030" d="M170.344,68.752h1.906v-6.837c0-0.216,0.013-0.419,0.013-0.419h-0.024c0,0-0.084,0.155-0.443,0.516
			l-0.996,0.995l-0.359-0.348l1.811-1.823h0.517v7.916h1.858v0.479h-4.281V68.752z"/>
	</g>
</g>
<polyline fill="none" stroke="#303030" stroke-miterlimit="10" points="86.333,5.466 72.274,5.466 72.274,42.408 86.333,42.408 "/>
<polyline fill="none" stroke="#303030" stroke-miterlimit="10" points="86.187,56.541 72.274,56.541 72.274,122.876 86.187,122.876 
	"/>
<polyline fill="none" stroke="#303030" stroke-miterlimit="10" points="303.71,91.643 317.623,91.643 317.623,25.309 303.71,25.309 
	"/>
<g>
	<rect x="0" y="19.758" fill="none" width="67.667" height="16.333"/>
	<path d="M23.36,26.249h0.936v-6.103H23.36v-0.394h3.051c0.434,0,0.866,0.05,1.191,0.207c0.64,0.305,1.053,0.955,1.053,1.801
		c0,0.926-0.492,1.624-1.24,1.89c-0.324,0.118-0.64,0.138-1.004,0.138h-1.692v2.461h0.935v0.394H23.36V26.249z M26.391,23.395
		c0.345,0,0.64-0.039,0.896-0.128c0.571-0.217,0.926-0.758,0.926-1.506c0-0.698-0.306-1.19-0.817-1.437
		c-0.256-0.118-0.62-0.178-1.004-0.178h-1.673v3.248H26.391z"/>
	<path d="M29.556,26.249h0.936v-6.103h-0.936v-0.394h2.903c0.463,0,0.808,0.03,1.182,0.158c0.64,0.246,1.062,0.787,1.062,1.673
		c0,1.062-0.63,1.851-1.644,1.968v0.021c0,0,0.099,0.078,0.197,0.246l1.299,2.204c0.118,0.197,0.236,0.227,0.502,0.227h0.187v0.394
		h-0.187c-0.601,0-0.68-0.079-0.945-0.521l-1.229-2.077c-0.207-0.354-0.345-0.452-0.817-0.452h-1.151v2.657h0.935v0.394h-2.293
		V26.249z M32.735,23.198c0.906,0,1.525-0.64,1.525-1.595c0-0.699-0.324-1.122-0.846-1.318c-0.266-0.099-0.61-0.139-0.975-0.139
		h-1.525v3.052H32.735z"/>
	<path d="M36.135,26.249h0.936v-6.103h-0.936v-0.394h2.293v0.394h-0.935v6.103h0.935v0.394h-2.293V26.249z"/>
	<path d="M39.302,26.249h0.935l0.482-6.103h-0.944v-0.394h1.388l2.214,4.783c0.079,0.178,0.128,0.325,0.128,0.325h0.02
		c0,0,0.05-0.147,0.128-0.325l2.215-4.783h1.388v0.394h-0.945l0.482,6.103h0.936v0.394h-2.294v-0.394h0.936l-0.423-5.334
		c-0.011-0.148,0.01-0.414,0.01-0.414h-0.021c0,0-0.068,0.256-0.128,0.384l-2.076,4.429h-0.433l-2.077-4.429
		c-0.059-0.128-0.128-0.384-0.128-0.384h-0.02c0,0,0.02,0.266,0.01,0.414l-0.423,5.334h0.935v0.394h-2.293V26.249z"/>
	<path d="M48.174,26.249h0.738l2.431-6.496h0.453l2.431,6.496h0.738v0.394h-2.027v-0.394h0.836l-0.748-1.988h-2.923l-0.738,1.988
		h0.837v0.394h-2.027V26.249z M52.878,23.867l-1.2-3.219c-0.069-0.177-0.099-0.374-0.099-0.374h-0.02c0,0-0.03,0.197-0.099,0.374
		l-1.211,3.219H52.878z"/>
	<path d="M55.579,26.249h0.936v-6.103h-0.936v-0.394h2.903c0.463,0,0.808,0.03,1.182,0.158c0.64,0.246,1.062,0.787,1.062,1.673
		c0,1.062-0.63,1.851-1.644,1.968v0.021c0,0,0.099,0.078,0.197,0.246l1.299,2.204c0.118,0.197,0.236,0.227,0.502,0.227h0.187v0.394
		h-0.187c-0.601,0-0.68-0.079-0.945-0.521l-1.229-2.077c-0.207-0.354-0.345-0.452-0.817-0.452h-1.151v2.657h0.935v0.394h-2.293
		V26.249z M58.757,23.198c0.906,0,1.525-0.64,1.525-1.595c0-0.699-0.324-1.122-0.846-1.318c-0.266-0.099-0.61-0.139-0.975-0.139
		h-1.525v3.052H58.757z"/>
	<path d="M63.4,26.249h0.935V23.65l-2.116-3.504H61.52v-0.394h2.008v0.394h-0.817l1.693,2.825c0.059,0.099,0.128,0.246,0.128,0.246
		h0.02c0,0,0.068-0.138,0.138-0.246l1.702-2.825h-0.816v-0.394h1.998v0.394h-0.699l-2.116,3.504v2.599h0.936v0.394H63.4V26.249z"/>
</g>
<g>
	<rect x="323.5" y="48.374" fill="none" width="67.667" height="16.333"/>
	<path d="M324.021,54.865h0.936v-6.103h-0.936v-0.394h4.508v1.329h-0.413v-0.936h-2.736v2.874h2.638v0.394h-2.638v2.835h0.984v0.394
		h-2.343V54.865z"/>
	<path d="M333.022,48.251c1.92,0,3.484,1.536,3.484,3.514c0,2.027-1.564,3.612-3.484,3.612c-1.919,0-3.483-1.585-3.483-3.612
		C329.539,49.787,331.103,48.251,333.022,48.251z M333.022,54.974c1.684,0,3.041-1.397,3.041-3.209c0-1.762-1.357-3.109-3.041-3.109
		c-1.683,0-3.041,1.348-3.041,3.109C329.981,53.576,331.34,54.974,333.022,54.974z"/>
	<path d="M337.535,54.865h0.936v-6.103h-0.936v-0.394h1.319l4.291,5.886c0.088,0.128,0.187,0.354,0.187,0.354h0.02
		c0,0-0.039-0.256-0.029-0.403v-5.443h-0.935v-0.394h2.293v0.394h-0.936v6.496h-0.394l-4.281-5.896
		c-0.088-0.128-0.187-0.354-0.187-0.354h-0.02c0,0,0.039,0.256,0.029,0.404v5.452h0.935v0.394h-2.293V54.865z"/>
	<path d="M347.126,54.865h0.935v-6.103h-2.204v1.162h-0.413v-1.556h5.659v1.556h-0.414v-1.162h-2.204v6.103h0.935v0.394h-2.293
		V54.865z"/>
	<path d="M354.413,54.865h0.936v-6.103h-0.936v-0.394h4.508v1.329h-0.413v-0.936h-2.736v2.874h2.638v0.394h-2.638v2.835h0.984v0.394
		h-2.343V54.865z"/>
	<path d="M358.965,54.865h0.738l2.431-6.496h0.453l2.431,6.496h0.738v0.394h-2.027v-0.394h0.836l-0.748-1.988h-2.923l-0.738,1.988
		h0.837v0.394h-2.027V54.865z M363.67,52.483l-1.2-3.219c-0.069-0.177-0.099-0.374-0.099-0.374h-0.02c0,0-0.03,0.197-0.099,0.374
		l-1.211,3.219H363.67z"/>
	<path d="M366.204,54.865h0.935l0.482-6.103h-0.944v-0.394h1.388l2.214,4.783c0.079,0.178,0.128,0.325,0.128,0.325h0.02
		c0,0,0.05-0.147,0.128-0.325l2.215-4.783h1.388v0.394h-0.945l0.482,6.103h0.936v0.394h-2.294v-0.394h0.936l-0.423-5.334
		c-0.011-0.148,0.01-0.414,0.01-0.414h-0.021c0,0-0.068,0.256-0.128,0.384l-2.076,4.429H370.2l-2.077-4.429
		c-0.059-0.128-0.128-0.384-0.128-0.384h-0.02c0,0,0.02,0.266,0.01,0.414l-0.423,5.334h0.935v0.394h-2.293V54.865z"/>
	<path d="M375.498,54.865h0.936v-6.103h-0.936v-0.394h2.293v0.394h-0.935v6.103h0.935v0.394h-2.293V54.865z"/>
	<path d="M378.832,54.865h0.936v-6.103h-0.936v-0.394h2.293v0.394h-0.935v6.103h3.07v-1.181h0.414v1.574h-4.843V54.865z"/>
	<path d="M385.511,54.865h0.935v-2.599l-2.116-3.504h-0.698v-0.394h2.008v0.394h-0.817l1.693,2.825
		c0.059,0.099,0.128,0.246,0.128,0.246h0.02c0,0,0.068-0.138,0.138-0.246l1.702-2.825h-0.816v-0.394h1.998v0.394h-0.699
		l-2.116,3.504v2.599h0.936v0.394h-2.293V54.865z"/>
</g>
<g>
	<rect x="0" y="86.091" fill="none" width="67.667" height="16.333"/>
	<path d="M6.896,91.186v0.502c0,0.63,0.788,1.004,1.644,1.004c0.984,0,1.693-0.512,1.693-1.418c0-1.003-0.847-1.348-1.781-1.702
		c-0.896-0.335-1.851-0.669-1.851-1.86c0-1.122,0.896-1.742,1.998-1.742c0.935,0,1.899,0.364,1.899,1.014v0.66h-0.433v-0.521
		c0-0.482-0.798-0.748-1.467-0.748c-0.876,0-1.555,0.452-1.555,1.289c0,0.925,0.787,1.2,1.673,1.545
		c0.984,0.384,1.958,0.748,1.958,2.008c0,1.122-0.876,1.88-2.136,1.88c-0.915,0-2.076-0.413-2.076-1.309v-0.601H6.896z"/>
	<path d="M11.803,92.583h0.936v-6.103h-0.936v-0.394h4.754v1.279h-0.413v-0.886h-2.982v2.825h2.746v0.394h-2.746v2.884h3.179v-0.945
		h0.413v1.339h-4.95V92.583z"/>
	<path d="M21.337,85.969c0.827,0,2.51,0.325,2.51,1.368v0.649h-0.433v-0.551c0-0.758-1.3-1.062-2.067-1.062
		c-1.722,0-3.031,1.338-3.031,3.109c0,1.781,1.299,3.209,3.061,3.209c0.62,0,2.146-0.256,2.146-1.054v-0.541h0.434v0.64
		c0,0.984-1.624,1.358-2.579,1.358c-2.037,0-3.503-1.614-3.503-3.612S19.368,85.969,21.337,85.969z"/>
	<path d="M28.634,85.969c1.919,0,3.484,1.536,3.484,3.514c0,2.027-1.565,3.612-3.484,3.612s-3.483-1.585-3.483-3.612
		C25.151,87.505,26.715,85.969,28.634,85.969z M28.634,92.691c1.684,0,3.041-1.397,3.041-3.209c0-1.762-1.357-3.109-3.041-3.109
		c-1.683,0-3.041,1.348-3.041,3.109C25.593,91.294,26.952,92.691,28.634,92.691z"/>
	<path d="M33.146,92.583h0.936v-6.103h-0.936v-0.394h1.319l4.291,5.886c0.088,0.128,0.187,0.354,0.187,0.354h0.02
		c0,0-0.039-0.256-0.029-0.403v-5.443h-0.935v-0.394h2.293v0.394h-0.936v6.496h-0.394l-4.281-5.896
		c-0.088-0.128-0.187-0.354-0.187-0.354h-0.02c0,0,0.039,0.256,0.029,0.404v5.452h0.935v0.394h-2.293V92.583z"/>
	<path d="M41.241,92.583h0.936v-6.103h-0.936v-0.394h2.874c0.601,0,1.014,0.04,1.486,0.188c1.289,0.433,2.076,1.614,2.076,3.268
		c0,1.722-0.846,2.884-2.254,3.287c-0.413,0.118-0.826,0.147-1.309,0.147h-2.874V92.583z M44.046,92.583
		c0.473,0,0.876-0.039,1.27-0.157c1.172-0.354,1.92-1.378,1.92-2.894c0-1.457-0.689-2.5-1.821-2.884
		c-0.433-0.147-0.846-0.168-1.368-0.168h-1.446v6.103H44.046z"/>
	<path d="M48.175,92.583h0.738l2.431-6.496h0.453l2.431,6.496h0.738v0.394h-2.027v-0.394h0.836l-0.748-1.988h-2.923l-0.738,1.988
		h0.837v0.394h-2.027V92.583z M52.88,90.201l-1.2-3.219c-0.069-0.177-0.099-0.374-0.099-0.374h-0.02c0,0-0.03,0.197-0.099,0.374
		l-1.211,3.219H52.88z"/>
	<path d="M55.581,92.583h0.936v-6.103h-0.936v-0.394h2.903c0.463,0,0.808,0.03,1.182,0.158c0.64,0.246,1.062,0.787,1.062,1.673
		c0,1.062-0.63,1.851-1.644,1.968v0.021c0,0,0.099,0.078,0.197,0.246l1.299,2.204c0.118,0.197,0.236,0.227,0.502,0.227h0.187v0.394
		h-0.187c-0.601,0-0.68-0.079-0.945-0.521l-1.229-2.077c-0.207-0.354-0.345-0.452-0.817-0.452h-1.151v2.657h0.935v0.394h-2.293
		V92.583z M58.759,89.532c0.906,0,1.525-0.64,1.525-1.595c0-0.699-0.324-1.122-0.846-1.318c-0.266-0.099-0.61-0.139-0.975-0.139
		h-1.525v3.052H58.759z"/>
	<path d="M63.401,92.583h0.935v-2.599l-2.116-3.504h-0.698v-0.394h2.008v0.394h-0.817l1.693,2.825
		c0.059,0.099,0.128,0.246,0.128,0.246h0.02c0,0,0.068-0.138,0.138-0.246l1.702-2.825h-0.816v-0.394h1.998v0.394h-0.699
		l-2.116,3.504v2.599h0.936v0.394h-2.293V92.583z"/>
</g>
<g>
	<rect x="192.167" y="31.9" fill="none" width="108.5" height="63"/>
	<path d="M229.599,38.391h0.935l0.482-6.103h-0.944v-0.394h1.388l2.214,4.783c0.079,0.178,0.128,0.325,0.128,0.325h0.02
		c0,0,0.05-0.147,0.128-0.325l2.215-4.783h1.388v0.394h-0.945l0.482,6.103h0.936v0.394h-2.294v-0.394h0.936l-0.423-5.334
		c-0.011-0.148,0.01-0.414,0.01-0.414h-0.021c0,0-0.068,0.256-0.128,0.384l-2.076,4.429h-0.433l-2.077-4.429
		c-0.059-0.128-0.128-0.384-0.128-0.384h-0.02c0,0,0.02,0.266,0.01,0.414l-0.423,5.334h0.935v0.394h-2.293V38.391z"/>
	<path d="M239.337,34.247h-0.936v-0.384h1.349v2.973c0,0.855,0.108,1.663,1.211,1.663c1.229,0,2.018-1.083,2.018-2.234v-2.018
		h-0.936v-0.384h1.349v4.33c0,0.147,0.079,0.217,0.217,0.217h0.59v0.374h-0.649c-0.403,0-0.57-0.167-0.57-0.541v-0.275
		c0-0.227,0.02-0.404,0.02-0.404h-0.02c-0.168,0.463-0.827,1.339-2.018,1.339c-1.211,0-1.624-0.669-1.624-1.919V34.247z"/>
	<path d="M245.011,37.317h0.413v0.374c0,0.571,0.837,0.808,1.427,0.808c0.68,0,1.29-0.315,1.29-0.896
		c0-0.64-0.699-0.876-1.418-1.152c-0.748-0.285-1.516-0.609-1.516-1.437c0-0.837,0.808-1.27,1.595-1.27
		c0.64,0,1.575,0.285,1.575,0.935v0.542h-0.414v-0.403c0-0.414-0.57-0.67-1.142-0.67c-0.61,0-1.181,0.285-1.181,0.837
		c0,0.601,0.659,0.847,1.349,1.112c0.768,0.295,1.584,0.62,1.584,1.466c0,0.788-0.688,1.339-1.762,1.339
		c-0.915,0-1.801-0.423-1.801-1.161V37.317z"/>
	<path d="M251.957,33.745c1.339,0,2.008,1.053,2.008,2.244c0,0.108-0.02,0.266-0.02,0.266h-3.946c0,1.427,0.964,2.244,2.105,2.244
		c0.945,0,1.525-0.62,1.525-0.62l0.227,0.345c0,0-0.688,0.679-1.752,0.679c-1.388,0-2.539-1.004-2.539-2.568
		C249.565,34.67,250.697,33.745,251.957,33.745z M253.532,35.871c-0.05-1.201-0.769-1.742-1.585-1.742
		c-0.905,0-1.742,0.591-1.919,1.742H253.532z"/>
	<path d="M257.494,33.745c1.407,0,2.549,1.112,2.549,2.549c0,1.467-1.142,2.608-2.549,2.608s-2.549-1.142-2.549-2.608
		C254.945,34.857,256.087,33.745,257.494,33.745z M257.494,38.499c1.171,0,2.116-0.955,2.116-2.205c0-1.22-0.945-2.146-2.116-2.146
		s-2.116,0.926-2.116,2.146C255.378,37.544,256.323,38.499,257.494,38.499z"/>
	<path d="M264.043,36.993v0.502c0,0.63,0.788,1.004,1.644,1.004c0.984,0,1.693-0.512,1.693-1.418c0-1.003-0.847-1.348-1.781-1.702
		c-0.896-0.335-1.851-0.669-1.851-1.86c0-1.122,0.896-1.742,1.998-1.742c0.935,0,1.899,0.364,1.899,1.014v0.66h-0.433v-0.521
		c0-0.482-0.798-0.748-1.467-0.748c-0.876,0-1.555,0.452-1.555,1.289c0,0.925,0.787,1.2,1.673,1.545
		c0.984,0.384,1.958,0.748,1.958,2.008c0,1.122-0.876,1.88-2.136,1.88c-0.915,0-2.076-0.413-2.076-1.309v-0.601H264.043z"/>
	<path d="M269.374,32.278h-0.926v-0.384h1.339v5.768c0,0.384,0.108,0.758,0.58,0.758c0.188,0,0.296-0.02,0.296-0.02l-0.01,0.384
		c0,0-0.168,0.02-0.354,0.02c-0.581,0-0.925-0.345-0.925-1.103V32.278z"/>
	<path d="M274.382,35.782h0.324v-0.217c0-1.053-0.541-1.427-1.309-1.427c-0.866,0-1.447,0.482-1.447,0.482l-0.236-0.335
		c0,0,0.62-0.541,1.693-0.541c1.132,0,1.712,0.61,1.712,1.811v2.628c0,0.147,0.079,0.217,0.217,0.217h0.591v0.384h-0.649
		c-0.404,0-0.571-0.167-0.571-0.541v-0.108c0-0.266,0.039-0.443,0.039-0.443h-0.02c0,0-0.433,1.211-1.742,1.211
		c-0.787,0-1.653-0.443-1.653-1.457C271.33,35.812,273.535,35.782,274.382,35.782z M272.983,38.519c1.132,0,1.723-1.112,1.723-2.087
		v-0.266h-0.314c-0.364,0-2.628-0.088-2.628,1.23C271.763,37.968,272.186,38.519,272.983,38.519z"/>
	<path d="M277.103,32.278h-0.935v-0.384h1.349v2.56c0,0.226-0.04,0.403-0.04,0.403h0.021c0,0,0.423-1.112,1.781-1.112
		c1.318,0,2.126,1.053,2.126,2.578c0,1.565-0.916,2.579-2.205,2.579c-1.24,0-1.702-1.112-1.702-1.112h-0.021
		c0,0,0.04,0.178,0.04,0.434v0.561h-0.414V32.278z M279.219,38.499c0.965,0,1.752-0.798,1.752-2.176
		c0-1.328-0.709-2.175-1.712-2.175c-0.906,0-1.752,0.64-1.752,2.186C277.507,37.426,278.068,38.499,279.219,38.499z"/>
	<path d="M284.864,38.391h1.564v-5.61c0-0.177,0.01-0.344,0.01-0.344h-0.02c0,0-0.068,0.128-0.364,0.423l-0.816,0.816l-0.296-0.285
		l1.486-1.496h0.424v6.496h1.525v0.394h-3.514V38.391z"/>
	<path d="M289.29,35.34c0-1.988,0.57-3.563,2.322-3.563s2.322,1.575,2.322,3.563c0,1.998-0.57,3.562-2.322,3.562
		S289.29,37.338,289.29,35.34z M293.492,35.34c0-1.771-0.413-3.159-1.88-3.159s-1.88,1.388-1.88,3.159
		c0,1.781,0.413,3.159,1.88,3.159S293.492,37.121,293.492,35.34z"/>
	<path d="M295.329,35.34c0-1.988,0.57-3.563,2.322-3.563s2.322,1.575,2.322,3.563c0,1.998-0.57,3.562-2.322,3.562
		S295.329,37.338,295.329,35.34z M299.531,35.34c0-1.771-0.413-3.159-1.88-3.159s-1.88,1.388-1.88,3.159
		c0,1.781,0.413,3.159,1.88,3.159S299.531,37.121,299.531,35.34z"/>
	<path d="M227.318,61.817h0.905l0.463-5.776h-0.916V55.47h1.664l2.008,4.527c0.088,0.227,0.138,0.403,0.138,0.403h0.02
		c0,0,0.049-0.177,0.147-0.403l2.008-4.527h1.653v0.571h-0.905l0.452,5.776h0.906v0.571h-2.471v-0.571h0.886l-0.374-4.772
		c-0.01-0.178,0.02-0.492,0.02-0.492h-0.02c0,0-0.079,0.295-0.147,0.462l-1.841,4.056h-0.64l-1.85-4.056
		c-0.069-0.167-0.139-0.462-0.139-0.462h-0.029c0,0,0.029,0.314,0.02,0.492l-0.374,4.772h0.886v0.571h-2.47V61.817z"/>
	<path d="M237.124,57.989h-0.886v-0.551h1.556v2.981c0,0.778,0.118,1.467,1.082,1.467c1.112,0,1.821-1.023,1.821-2.097v-1.801
		h-0.886v-0.551h1.555v4.192c0,0.147,0.079,0.217,0.217,0.217h0.561v0.541h-0.836c-0.414,0-0.591-0.177-0.591-0.551v-0.246
		c0-0.197,0.01-0.354,0.01-0.354h-0.02c-0.128,0.374-0.738,1.27-1.959,1.27c-1.142,0-1.624-0.63-1.624-1.919V57.989z"/>
	<path d="M242.917,60.854h0.609v0.354c0,0.502,0.719,0.718,1.29,0.718c0.63,0,1.161-0.275,1.161-0.777
		c0-0.57-0.63-0.768-1.339-1.033c-0.748-0.275-1.535-0.61-1.535-1.477c0-0.905,0.886-1.318,1.713-1.318
		c0.669,0,1.644,0.285,1.644,0.964v0.571h-0.61v-0.364c0-0.364-0.492-0.591-1.014-0.591c-0.552,0-1.044,0.236-1.044,0.719
		c0,0.541,0.601,0.768,1.25,1.004c0.768,0.275,1.614,0.601,1.614,1.486c0,0.856-0.768,1.397-1.87,1.397
		c-0.915,0-1.869-0.413-1.869-1.171V60.854z"/>
	<path d="M249.999,57.32c1.368,0,2.077,1.053,2.077,2.283c0,0.118-0.03,0.314-0.03,0.314h-3.799c0.029,1.27,0.896,1.988,1.919,1.988
		c0.906,0,1.506-0.591,1.506-0.591l0.306,0.502c0,0-0.709,0.689-1.831,0.689c-1.476,0-2.588-1.062-2.588-2.589
		C247.558,58.294,248.66,57.32,249.999,57.32z M251.377,59.426c-0.039-1.043-0.669-1.545-1.397-1.545
		c-0.827,0-1.545,0.542-1.703,1.545H251.377z"/>
	<path d="M255.575,57.32c1.447,0,2.618,1.103,2.618,2.568c0,1.496-1.171,2.618-2.618,2.618c-1.437,0-2.607-1.122-2.607-2.618
		C252.967,58.423,254.138,57.32,255.575,57.32z M255.575,61.906c1.063,0,1.93-0.866,1.93-2.018c0-1.122-0.866-1.968-1.93-1.968
		c-1.053,0-1.919,0.846-1.919,1.968C253.656,61.04,254.522,61.906,255.575,61.906z"/>
	<path d="M262.331,60.46v0.502c0,0.58,0.719,0.915,1.516,0.915c0.896,0,1.545-0.443,1.545-1.25c0-0.905-0.836-1.221-1.732-1.555
		c-0.905-0.345-1.85-0.709-1.85-1.92c0-1.21,0.974-1.801,2.105-1.801c0.984,0,1.998,0.384,1.998,1.083v0.738h-0.659v-0.512
		c0-0.443-0.719-0.68-1.339-0.68c-0.787,0-1.397,0.384-1.397,1.122c0,0.837,0.748,1.103,1.585,1.427
		c1.004,0.374,1.998,0.758,1.998,2.027c0,1.221-0.975,1.949-2.254,1.949c-0.994,0-2.175-0.443-2.175-1.388V60.46H262.331z"/>
	<path d="M267.533,56.021h-0.876V55.47h1.545v5.63c0,0.403,0.108,0.738,0.562,0.738c0.177,0,0.275-0.021,0.275-0.021v0.571
		c0,0-0.188,0.029-0.384,0.029c-0.649,0-1.122-0.324-1.122-1.27V56.021z"/>
	<path d="M272.678,59.357h0.324V59.15c0-0.925-0.502-1.25-1.19-1.25c-0.837,0-1.438,0.482-1.438,0.482l-0.314-0.502
		c0,0,0.669-0.561,1.791-0.561c1.201,0,1.821,0.64,1.821,1.86v2.44c0,0.147,0.078,0.217,0.216,0.217h0.542v0.551h-0.808
		c-0.423,0-0.591-0.187-0.591-0.541v-0.089c0-0.236,0.03-0.384,0.03-0.384h-0.02c0,0-0.424,1.132-1.693,1.132
		c-0.807,0-1.653-0.463-1.653-1.477C269.696,59.426,271.841,59.357,272.678,59.357z M271.448,61.956c0.994,0,1.555-0.994,1.555-1.86
		v-0.236h-0.285c-0.403,0-2.333-0.039-2.333,1.103C270.384,61.474,270.758,61.956,271.448,61.956z"/>
	<path d="M275.578,56.021h-0.886V55.47h1.555v2.44c0,0.236-0.029,0.414-0.029,0.414h0.02c0,0,0.434-1.004,1.693-1.004
		c1.328,0,2.155,1.062,2.155,2.598c0,1.565-0.936,2.589-2.234,2.589c-1.19,0-1.634-1.014-1.634-1.014h-0.02
		c0,0,0.029,0.177,0.029,0.413v0.482h-0.649V56.021z M277.802,61.906c0.876,0,1.604-0.729,1.604-1.988
		c0-1.21-0.649-1.987-1.574-1.987c-0.827,0-1.604,0.59-1.604,1.997C276.227,60.922,276.749,61.906,277.802,61.906z"/>
	<path d="M283.751,55.47h4.094v0.482l-2.047,2.372c0.856,0.039,2.136,0.521,2.136,2.018c0,1.181-0.965,2.165-2.283,2.165
		c-1.358,0-2.194-0.945-2.194-0.945l0.413-0.502c0,0,0.708,0.817,1.771,0.817c0.826,0,1.584-0.62,1.584-1.516
		c0-0.955-0.807-1.477-1.702-1.477c-0.217,0-0.413,0.02-0.434,0.02l-0.177-0.413l1.87-2.215c0.099-0.107,0.236-0.216,0.236-0.216
		v-0.02c0,0-0.197,0.02-0.325,0.02h-2.312v0.944h-0.63V55.47z"/>
	<path d="M289.179,58.925c0-1.988,0.581-3.573,2.382-3.573s2.392,1.585,2.392,3.573c0,2.007-0.591,3.582-2.392,3.582
		S289.179,60.932,289.179,58.925z M293.244,58.925c0-1.654-0.363-2.943-1.683-2.943c-1.309,0-1.673,1.289-1.673,2.943
		c0,1.663,0.364,2.952,1.673,2.952C292.881,61.877,293.244,60.588,293.244,58.925z"/>
	<path d="M295.248,58.925c0-1.988,0.581-3.573,2.382-3.573s2.392,1.585,2.392,3.573c0,2.007-0.591,3.582-2.392,3.582
		S295.248,60.932,295.248,58.925z M299.312,58.925c0-1.654-0.363-2.943-1.683-2.943c-1.309,0-1.673,1.289-1.673,2.943
		c0,1.663,0.364,2.952,1.673,2.952C298.949,61.877,299.312,60.588,299.312,58.925z"/>
	<path d="M226.236,85.225h0.866l0.442-5.423h-0.886v-0.758h1.969l1.781,4.231c0.108,0.286,0.157,0.502,0.157,0.502h0.021
		c0,0,0.049-0.216,0.157-0.502l1.781-4.231h1.969v0.758h-0.887l0.443,5.423h0.866v0.768h-2.677v-0.768h0.836l-0.314-4.153
		c-0.01-0.217,0.029-0.571,0.029-0.571h-0.029c0,0-0.079,0.335-0.157,0.532l-1.595,3.651h-0.866l-1.595-3.651
		c-0.078-0.197-0.157-0.532-0.157-0.532h-0.029c0,0,0.039,0.354,0.029,0.571l-0.314,4.153h0.836v0.768h-2.677V85.225z"/>
	<path d="M236.14,81.75h-0.836v-0.738h1.791v2.992c0,0.689,0.138,1.24,0.935,1.24c0.994,0,1.614-0.955,1.614-1.938V81.75h-0.837
		v-0.738h1.792v4.036c0,0.138,0.078,0.216,0.216,0.216h0.521v0.729h-1.033c-0.433,0-0.63-0.197-0.63-0.551v-0.217
		c0-0.167,0.02-0.295,0.02-0.295h-0.02c-0.099,0.266-0.659,1.181-1.899,1.181c-1.072,0-1.634-0.591-1.634-1.909V81.75z"/>
	<path d="M242.041,84.388h0.837v0.325c0,0.423,0.59,0.62,1.142,0.62c0.561,0,1.004-0.227,1.004-0.64c0-0.502-0.552-0.66-1.24-0.905
		c-0.738-0.276-1.555-0.61-1.555-1.517c0-0.983,0.974-1.377,1.84-1.377c0.699,0,1.723,0.275,1.723,1.003v0.601h-0.837v-0.324
		c0-0.306-0.394-0.512-0.876-0.512c-0.472,0-0.886,0.196-0.886,0.6c0,0.473,0.552,0.67,1.151,0.876
		c0.769,0.256,1.644,0.581,1.644,1.506c0,0.945-0.865,1.467-1.997,1.467c-0.906,0-1.949-0.403-1.949-1.191V84.388z"/>
	<path d="M249.271,80.895c1.417,0,2.155,1.043,2.155,2.332c0,0.128-0.029,0.364-0.029,0.364h-3.642
		c0.059,1.103,0.837,1.692,1.723,1.692c0.865,0,1.485-0.561,1.485-0.561l0.395,0.698c0,0-0.748,0.689-1.939,0.689
		c-1.564,0-2.638-1.132-2.638-2.608C246.781,81.918,247.854,80.895,249.271,80.895z M250.442,82.981
		c-0.029-0.876-0.561-1.328-1.19-1.328c-0.729,0-1.319,0.491-1.457,1.328H250.442z"/>
	<path d="M254.916,80.895c1.486,0,2.687,1.092,2.687,2.598c0,1.516-1.201,2.618-2.687,2.618c-1.485,0-2.687-1.103-2.687-2.618
		C252.229,81.986,253.43,80.895,254.916,80.895z M254.916,85.283c0.936,0,1.713-0.748,1.713-1.791c0-1.033-0.777-1.771-1.713-1.771
		c-0.944,0-1.712,0.738-1.712,1.771C253.204,84.535,253.971,85.283,254.916,85.283z"/>
	<path d="M261.878,83.905v0.512c0,0.513,0.66,0.817,1.388,0.817c0.798,0,1.378-0.374,1.378-1.062c0-0.808-0.816-1.073-1.673-1.408
		c-0.915-0.344-1.851-0.737-1.851-1.968c0-1.31,1.054-1.87,2.225-1.87c1.043,0,2.106,0.394,2.106,1.151v0.817h-0.916v-0.482
		c0-0.403-0.62-0.62-1.19-0.62c-0.679,0-1.221,0.314-1.221,0.954c0,0.738,0.699,0.984,1.477,1.28
		c1.023,0.384,2.037,0.777,2.037,2.066c0,1.328-1.082,2.018-2.372,2.018c-1.082,0-2.293-0.482-2.293-1.477v-0.729H261.878z"/>
	<path d="M266.972,79.782h-0.827v-0.738h1.781v5.472c0,0.424,0.099,0.709,0.531,0.709c0.158,0,0.267-0.01,0.267-0.01l-0.011,0.787
		c0,0-0.196,0.02-0.423,0.02c-0.709,0-1.318-0.285-1.318-1.446V79.782z"/>
	<path d="M272.246,82.932h0.314v-0.188c0-0.787-0.452-1.062-1.062-1.062c-0.788,0-1.428,0.482-1.428,0.482l-0.384-0.68
		c0,0,0.729-0.59,1.89-0.59c1.27,0,1.939,0.659,1.939,1.919v2.224c0,0.148,0.078,0.217,0.216,0.217h0.502v0.738h-0.993
		c-0.443,0-0.62-0.217-0.62-0.541v-0.069c0-0.196,0.039-0.324,0.039-0.324h-0.02c0,0-0.434,1.053-1.644,1.053
		c-0.827,0-1.653-0.482-1.653-1.506C269.342,83.04,271.419,82.932,272.246,82.932z M271.202,85.372c0.847,0,1.368-0.866,1.368-1.614
		v-0.206h-0.246c-0.452,0-2.018,0.02-2.018,0.974C270.306,84.969,270.632,85.372,271.202,85.372z"/>
	<path d="M275.312,79.782h-0.837v-0.738h1.791v2.303c0,0.236-0.029,0.413-0.029,0.413h0.02c0,0,0.443-0.865,1.604-0.865
		c1.349,0,2.194,1.062,2.194,2.607c0,1.585-0.954,2.608-2.273,2.608c-1.151,0-1.574-0.905-1.574-0.905h-0.02
		c0,0,0.029,0.177,0.029,0.394v0.394h-0.905V79.782z M277.654,85.283c0.777,0,1.428-0.64,1.428-1.771
		c0-1.082-0.581-1.781-1.408-1.781c-0.737,0-1.437,0.521-1.437,1.791C276.237,84.407,276.7,85.283,277.654,85.283z"/>
	<path d="M283.848,84.525c0,0,0.581,0.709,1.585,0.709c0.876,0,1.564-0.63,1.564-1.417c0-0.856-0.62-1.438-1.574-1.438
		c-0.738,0-1.221,0.354-1.221,0.354l-0.57-0.206l0.344-3.484h3.593v1.692h-0.856v-0.886h-1.89l-0.177,1.663
		c-0.02,0.128-0.05,0.276-0.05,0.276h0.02c0,0,0.384-0.217,0.984-0.217c1.438,0,2.401,0.965,2.401,2.204
		c0,1.31-1.072,2.333-2.52,2.333c-1.407,0-2.146-0.896-2.146-0.896L283.848,84.525z"/>
	<path d="M289.061,82.508c0-1.998,0.6-3.582,2.46-3.582c1.851,0,2.461,1.584,2.461,3.582c0,2.008-0.61,3.603-2.461,3.603
		C289.661,86.11,289.061,84.516,289.061,82.508z M292.978,82.508c0-1.516-0.325-2.716-1.457-2.716c-1.142,0-1.456,1.2-1.456,2.716
		c0,1.536,0.314,2.727,1.456,2.727C292.653,85.234,292.978,84.044,292.978,82.508z"/>
	<path d="M295.159,82.508c0-1.998,0.6-3.582,2.46-3.582c1.851,0,2.461,1.584,2.461,3.582c0,2.008-0.61,3.603-2.461,3.603
		C295.758,86.11,295.159,84.516,295.159,82.508z M299.076,82.508c0-1.516-0.325-2.716-1.457-2.716c-1.142,0-1.456,1.2-1.456,2.716
		c0,1.536,0.314,2.727,1.456,2.727C298.751,85.234,299.076,84.044,299.076,82.508z"/>
</g>
</svg>