<!-- Generator: Adobe Illustrator 18.1.1, SVG Export Plug-In  -->
<svg version="1.1"
	 xmlns="http://www.w3.org/2000/svg" xmlns:xlink="http://www.w3.org/1999/xlink" xmlns:a="http://ns.adobe.com/AdobeSVGViewerExtensions/3.0/"
	 x="0px" y="0px" width="493.915px" height="409.785px" viewBox="0 0 493.915 409.785" enable-background="new 0 0 493.915 409.785"
	 xml:space="preserve">
<defs>
</defs>
<rect x="29.651" y="0" fill="#49C3CD" width="434.613" height="409.785"/>
<g>
	<rect x="0" y="281.609" fill="none" width="493.915" height="59.446"/>
	<path fill="#FFFFFF" d="M91.602,291.028l-0.925,4.335c1.676-1.444,3.873-2.485,6.762-2.485c3.931,0,7.052,2.255,7.052,9.133
		c0,7.803-3.005,20.403-14.219,20.403c-2.89,0-4.277-0.982-4.913-2.081l-3.005,14.104l-8.728,2.081l9.653-45.489H91.602z
		 M96.573,301.836c0-4.45-1.85-4.797-2.89-4.797c-1.271,0-2.89,0.982-3.988,2.832l-3.41,16.185c0.231,0.636,0.867,1.329,2.196,1.329
		C94.55,317.385,96.573,307.27,96.573,301.836z"/>
	<path fill="#FFFFFF" d="M133.678,293.166l-4.162,19.652c-0.173,0.751-0.231,1.329-0.231,1.85c0,1.618,0.751,2.485,2.37,2.485
		c2.254,0,3.815-2.543,4.682-5.434h2.428c-3.294,9.422-8.497,10.693-11.618,10.693c-3.237,0-5.318-1.85-5.665-5.317
		c-1.792,2.659-4.508,5.317-8.612,5.317c-3.93,0-7.688-2.428-7.688-9.306c0-7.803,4.797-20.23,14.855-20.23
		c3.294,0,4.682,1.271,4.682,2.948v0.404l0.636-3.063H133.678z M113.737,312.298c0,4.451,1.85,4.509,2.89,4.509
		c1.676,0,4.104-1.734,4.797-5.087l2.774-13.062c0-0.693-0.52-2.196-2.37-2.196C116.916,296.461,113.737,306.866,113.737,312.298z"
		/>
	<path fill="#FFFFFF" d="M148.588,293.166l-0.751,3.584c2.023-1.734,4.219-3.584,6.994-3.584c2.601,0,3.988,2.139,3.988,4.335
		c0,2.023-1.33,4.22-4.162,4.22c-3.237,0-1.619-3.814-3.353-3.814s-2.774,0.866-4.219,2.196l-4.624,21.964h-8.323l6.126-28.9
		H148.588z"/>
	<path fill="#FFFFFF" d="M185.348,293.166l-11.56,8.034c0.636-0.115,1.271-0.23,1.907-0.23c4.277,0,6.358,3.062,6.358,6.762
		c0,0.694-0.058,1.445-0.231,2.197l-0.636,2.89c-0.116,0.578-0.289,1.214-0.289,1.85c0,1.156,0.462,2.139,2.254,2.139
		c2.543,0,3.583-2.081,4.855-5.087h2.428c-3.294,9.711-7.977,10.693-10.635,10.693c-4.74,0-7.283-2.37-7.283-6.589
		c0-0.925,0.116-1.907,0.347-3.006l0.462-2.254c0.173-0.752,0.231-1.503,0.231-2.139c0-1.677-0.578-2.774-2.081-2.774
		c-1.33,0-2.659,0.809-4.277,2.139l-3.005,14.276h-8.323l8.381-39.304l8.555-1.156l-4.335,20.346l11.156-8.786H185.348z"/>
	<path fill="#FFFFFF" d="M200.258,293.166l-4.161,19.652c-0.174,0.751-0.231,1.329-0.231,1.85c0,1.618,0.751,2.139,2.37,2.139
		c2.254,0,4.335-2.196,5.202-5.087h2.428c-3.294,9.422-9.017,10.693-12.138,10.693c-3.468,0-6.185-2.081-6.185-6.936
		c0-1.099,0.173-2.37,0.462-3.758l3.93-18.554H200.258z M197.658,280.855c2.543,0,4.624,2.081,4.624,4.624
		c0,2.544-2.081,4.566-4.624,4.566c-2.543,0-4.566-2.022-4.566-4.566C193.091,282.936,195.114,280.855,197.658,280.855z"/>
	<path fill="#FFFFFF" d="M218.003,298.196c-2.081,0-3.642,2.427-4.509,5.317l-3.93,18.554h-8.323l6.126-28.9h8.323l-0.636,3.006
		c2.428-2.774,4.971-3.237,6.763-3.237c3.699,0,6.416,1.908,6.416,6.532c0,4.682-2.774,11.676-2.774,14.912
		c0,1.445,0.578,2.428,2.312,2.428c2.543,0,3.583-2.081,4.855-5.087h2.428c-3.237,9.479-7.688,10.693-10.751,10.693
		c-5.028,0-6.82-3.236-6.82-6.531c0-3.931,2.601-11.04,2.601-14.739C220.083,299.236,219.389,298.196,218.003,298.196z"/>
	<path fill="#FFFFFF" d="M251.987,293.166h8.381l-7.052,33.524c-1.733,8.266-6.705,9.826-10.52,9.826
		c-3.526,0-6.82-2.485-6.82-6.242c0-5.376,4.508-7.052,10-8.67l0.52-2.428c-1.676,1.791-3.931,3.236-6.936,3.236
		c-3.93,0-7.688-2.428-7.688-9.306c0-7.803,4.797-20.23,14.855-20.23c3.294,0,4.682,1.271,4.682,3.063L251.987,293.166z
		 M241.467,331.372c1.214,0,2.659-1.098,3.411-4.508l0.693-3.41c-3.642,1.213-6.416,2.89-6.416,6.011
		C239.155,330.275,240.195,331.372,241.467,331.372z M240.427,312.298c0,4.451,1.85,4.509,2.89,4.509
		c1.561,0,3.988-1.388,4.624-4.335l2.948-13.988c-0.115-0.751-0.636-2.022-2.369-2.022
		C243.606,296.461,240.427,306.866,240.427,312.298z"/>
	<path fill="#FFFFFF" d="M279.092,282.763l8.555-1.156l-2.774,13.005c2.37-1.445,3.583-1.618,4.739-1.618
		c4.046,0,6.82,2.543,6.82,9.884c0,6.763-3.583,19.536-15.837,19.536c-5.317,0-8.092-2.774-8.092-7.398
		c0-0.982,0.115-2.081,0.404-3.295L279.092,282.763z M287.531,297.097c-0.809,0-2.774,0.289-3.41,1.04l-3.179,14.682
		c-0.115,0.462-0.174,0.925-0.174,1.329c0,1.677,0.983,2.659,3.063,2.659c3.758,0,6.763-8.092,6.763-14.161
		C290.594,299.814,289.612,297.097,287.531,297.097z"/>
	<path fill="#FFFFFF" d="M325.099,293.166l-4.161,19.652c-0.174,0.751-0.231,1.329-0.231,1.85c0,1.618,0.751,2.139,2.37,2.139
		c2.254,0,3.814-2.196,4.682-5.087h2.428c-3.295,9.422-8.497,10.693-11.618,10.693c-3.295,0-5.376-1.907-5.723-5.491
		c-2.89,4.74-6.127,5.491-8.554,5.491c-3.469,0-6.186-2.081-6.186-6.936c0-1.099,0.174-2.37,0.463-3.758l3.931-18.554h8.323
		l-4.162,19.652c-0.115,0.578-0.173,1.099-0.173,1.618c0,1.33,0.462,2.37,1.733,2.37c2.255,0,3.758-2.196,4.624-5.087l3.931-18.554
		H325.099z"/>
	<path fill="#FFFFFF" d="M357.928,281.607l-6.647,31.212c-0.173,0.751-0.23,1.329-0.23,1.85c0,1.618,0.751,2.139,2.369,2.139
		c2.255,0,3.815-2.196,4.682-5.087h2.428c-3.294,9.422-8.496,10.347-11.617,10.347c-3.122,0-5.202-1.734-5.665-4.971
		c-1.733,2.659-4.45,5.317-8.555,5.317c-3.93,0-7.687-2.428-7.687-9.306c0-7.803,4.797-20.23,14.854-20.23
		c3.294,0,4.682,1.271,4.682,2.948v0.231l2.832-13.294L357.928,281.607z M343.189,311.72l2.832-13.236
		c-0.115-0.693-0.636-2.022-2.369-2.022c-4.913,0-8.093,10.404-8.093,15.837c0,4.451,1.85,4.509,2.891,4.509
		c1.618,0,3.988-1.618,4.739-4.798V311.72z"/>
	<path fill="#FFFFFF" d="M388.272,281.607l-6.647,31.212c-0.173,0.751-0.23,1.329-0.23,1.85c0,1.618,0.751,2.139,2.369,2.139
		c2.255,0,3.815-2.196,4.682-5.087h2.428c-3.294,9.422-8.496,10.347-11.617,10.347c-3.122,0-5.202-1.734-5.665-4.971
		c-1.733,2.659-4.45,5.317-8.555,5.317c-3.93,0-7.687-2.428-7.687-9.306c0-7.803,4.797-20.23,14.854-20.23
		c3.294,0,4.682,1.271,4.682,2.948v0.231l2.832-13.294L388.272,281.607z M373.533,311.72l2.832-13.236
		c-0.115-0.693-0.636-2.022-2.369-2.022c-4.913,0-8.093,10.404-8.093,15.837c0,4.451,1.85,4.509,2.891,4.509
		c1.618,0,3.988-1.618,4.739-4.798V311.72z"/>
	<path fill="#FFFFFF" d="M400.698,293.166l-4.162,19.652c-0.115,0.462-0.173,0.982-0.173,1.445c0,1.329,0.404,2.543,1.733,2.543
		c2.255,0,3.758-2.196,4.624-5.087l3.931-18.554h8.381l-7.052,33.524c-1.733,8.266-6.704,9.826-10.52,9.826
		c-3.525,0-6.82-2.485-6.82-6.242c0-5.376,4.509-7.052,10-8.67l0.577-2.544c-2.485,2.832-5.086,3.353-7.051,3.353
		c-3.469,0-6.186-2.081-6.186-6.936c0-1.099,0.174-2.37,0.463-3.758l3.931-18.554H400.698z M396.131,331.372
		c1.156,0,2.659-1.098,3.41-4.508l0.693-3.41c-3.642,1.213-6.416,2.89-6.416,6.011C393.819,330.275,394.86,331.372,396.131,331.372z
		"/>
</g>
<g>
	<linearGradient id="SVGID_1_" gradientUnits="userSpaceOnUse" x1="163.7887" y1="274.7563" x2="163.7887" y2="68.7304">
		<stop  offset="0" style="stop-color:#3DA5AE"/>
		<stop  offset="1" style="stop-color:#49C3CD"/>
	</linearGradient>
	<path fill="url(#SVGID_1_)" d="M80.62,251.994h25.68V91.2H80.62V68.73h96.009c12.549,0,25.097,0.875,35.31,5.545
		c21.303,9.047,35.019,30.933,35.019,58.364c0,28.89-15.175,52.236-38.812,60.407c-9.63,3.502-19.552,4.377-30.933,4.377h-41.73
		v54.571h25.972v22.762H80.62V251.994z M173.71,173.494c9.338,0,16.634-1.459,23.054-4.086
		c13.132-5.836,20.719-18.968,20.719-36.769c0-16.634-6.712-28.89-18.385-35.019c-6.42-3.501-15.175-4.961-25.096-4.961h-38.521
		v80.835H173.71z"/>
	<linearGradient id="SVGID_2_" gradientUnits="userSpaceOnUse" x1="325.1641" y1="274.7563" x2="325.1641" y2="68.7304">
		<stop  offset="0" style="stop-color:#3DA5AE"/>
		<stop  offset="1" style="stop-color:#49C3CD"/>
	</linearGradient>
	<path fill="url(#SVGID_2_)" d="M241.995,251.994h25.68V91.2h-25.68V68.73h93.674c14.883,0,25.972,1.459,36.186,6.128
		c16.342,7.295,28.307,24.221,28.307,46.399c0,20.136-9.922,36.186-25.972,44.357v0.584c22.178,6.42,34.143,26.556,34.143,49.901
		c0,27.139-16.634,47.567-37.937,54.863c-9.922,3.21-19.552,3.794-30.933,3.794h-97.468V251.994z M340.047,155.401
		c18.677,0,30.349-12.84,30.349-31.517c0-11.965-4.669-22.178-13.423-27.139c-5.837-2.918-12.549-4.086-21.303-4.086h-38.812v62.742
		H340.047z M340.631,250.827c5.836,0,12.84-0.584,18.384-2.918c11.965-4.961,19.552-17.801,19.552-33.268
		c0-21.303-14.008-35.31-35.602-35.31h-46.108v71.496H340.631z"/>
</g>
<g id="mkzvjx.tif_1_">
	<g>
		<g>
			<path fill="#FFFFFF" d="M155.909,197.212c-0.044-0.9-0.089-1.814-0.136-2.766c-0.427-0.21-1.033-0.311-1.256-0.659
				c-0.521-0.81-1.287-1.811-1.153-2.598c0.147-0.865,1.105-1.684,1.879-2.315c0.455-0.371,1.61-0.147,1.805-0.525
				c0.521-1.007,0.847-2.179,0.966-3.315c0.156-1.497,0.036-3.022,0.04-4.535c0.005-2.458,0.606-3.305,2.983-3.696
				c1.416-0.233,2.506-0.811,3.534-1.805c5.196-5.029,11.718-7.594,18.47-9.641c7.354-2.23,14.882-3.486,22.583-3.532
				c1.181-0.007,1.949-0.381,2.681-1.33c8.579-11.13,19.812-17.974,33.622-20.525c6.795-1.255,13.666-1.22,20.553-1.06
				c18.001,0.418,33.177,7.216,45.842,19.902c8.849,8.864,17.004,18.275,23.475,29.058c0.248,0.413,0.839,0.756,1.329,0.862
				c1.946,0.422,2.886,2.125,2.207,3.982c-0.18,0.492-0.122,1.151,0.038,1.668c0.213,0.687,0.665,1.296,0.956,1.964
				c0.679,1.559,0.033,3.097-1.63,3.385c-4.333,0.75-8.697,1.258-13.058,0.172c-2.613-0.65-4.272-2.19-5.038-4.905
				c-2.532-8.98-10.907-14.851-20.299-14.396c-8.917,0.432-16.603,7.219-18.307,16.165c-0.803,4.218-2.361,5.511-6.676,5.512
				c-21.526,0.003-43.051,0.007-64.577-0.014c-1.209-0.001-2.454-0.075-3.619-0.367c-2.877-0.72-4.718-2.45-5.338-5.509
				c-1.968-9.71-10.937-16.583-20.791-15.745c-7.256,0.618-13.208,3.635-16.569,10.506c-0.546,1.116-0.784,2.395-1.08,3.618
				C158.871,196.723,158.108,197.319,155.909,197.212z M258.721,164.057c0.505,0.023,0.84,0.052,1.176,0.052
				c14.145,0.002,28.29,0.002,42.435,0.001c0.292,0,0.607,0.051,0.872-0.038c0.613-0.207,1.201-0.485,1.799-0.735
				c-0.282-0.637-0.404-1.44-0.869-1.887c-5.656-5.441-11.896-10.036-19.172-13.13c-5.559-2.364-11.372-3.695-17.35-4.305
				c-2.929-0.299-5.884-0.345-8.89-0.51C258.721,150.486,258.721,157.2,258.721,164.057z M253.877,143.718
				c-4.192-0.39-11.497,0.639-17.694,2.569c-8.984,2.798-16.44,7.922-22.51,15.076c-0.35,0.412-0.647,1.253-0.456,1.644
				c0.242,0.496,0.979,0.8,1.56,1.06c0.327,0.146,0.769,0.043,1.159,0.043c12.1,0.001,24.199,0.001,36.299,0.001
				c0.52,0,1.041,0,1.642,0C253.877,157.22,253.877,150.514,253.877,143.718z"/>
			<path fill="#FFFFFF" d="M193.205,200.409c0.106,8.073-6.489,14.732-14.732,14.875c-8.03,0.139-14.809-6.516-14.956-14.682
				c-0.144-8.029,6.578-14.86,14.692-14.929C186.464,185.604,193.096,192.121,193.205,200.409z M178.154,209.341
				c4.829,0.129,8.97-3.696,9.088-8.393c0.131-5.212-3.622-9.257-8.708-9.385c-4.84-0.122-8.886,3.751-9.03,8.642
				C169.359,205.175,173.178,209.208,178.154,209.341z"/>
			<path fill="#FFFFFF" d="M312.297,200.529c-0.005,8.142-6.696,14.807-14.815,14.755c-8.199-0.052-14.769-6.636-14.769-14.802
				c-0.001-8.251,6.622-14.839,14.887-14.81C305.759,185.702,312.302,192.316,312.297,200.529z M297.511,209.37
				c4.92-0.004,8.958-4.049,8.927-8.944c-0.031-4.84-3.997-8.805-8.867-8.862c-4.883-0.058-8.976,3.979-9,8.876
				C288.547,205.331,292.594,209.374,297.511,209.37z"/>
			<path fill="#FFFFFF" d="M181.577,200.442c-0.015-1.682-1.502-3.151-3.19-3.151c-1.721,0-3.158,1.416-3.18,3.135
				c-0.023,1.778,1.479,3.284,3.234,3.241C180.116,203.625,181.592,202.108,181.577,200.442z"/>
			<path fill="#FFFFFF" d="M300.623,200.411c-0.021-1.766-1.432-3.154-3.172-3.12c-1.742,0.034-3.081,1.449-3.063,3.237
				c0.018,1.736,1.477,3.177,3.177,3.138C299.283,203.627,300.643,202.18,300.623,200.411z"/>
			<path fill="#FFFFFF" d="M181.577,200.442c0.015,1.666-1.461,3.184-3.136,3.225c-1.755,0.043-3.257-1.463-3.234-3.241
				c0.023-1.719,1.459-3.135,3.18-3.135C180.075,197.29,181.563,198.76,181.577,200.442z"/>
			<path fill="#FFFFFF" d="M300.623,200.411c0.021,1.769-1.339,3.217-3.058,3.256c-1.7,0.039-3.159-1.403-3.177-3.138
				c-0.019-1.788,1.32-3.203,3.063-3.237C299.191,197.257,300.602,198.645,300.623,200.411z"/>
		</g>
	</g>
</g>
</svg>