<!-- Generator: Adobe Illustrator 18.1.1, SVG Export Plug-In  -->
<svg version="1.1"
	 xmlns="http://www.w3.org/2000/svg" xmlns:xlink="http://www.w3.org/1999/xlink" xmlns:a="http://ns.adobe.com/AdobeSVGViewerExtensions/3.0/"
	 x="0px" y="0px" width="324.524px" height="324.524px" viewBox="0 0 324.524 324.524" enable-background="new 0 0 324.524 324.524"
	 xml:space="preserve">
<defs>
</defs>
<path fill="#427E7E" d="M306.436,324.524H18.088C8.098,324.524,0,316.426,0,306.436V18.088C0,8.098,8.098,0,18.088,0h288.348
	c9.99,0,18.088,8.098,18.088,18.088v288.348C324.524,316.426,316.426,324.524,306.436,324.524z"/>
<g id="yHXUOr.tif_1_">
	<g>
		<g>
			<path fill="#FFFFFF" d="M86.043,246.285c-7.182-0.269-14.424-1.175-21.457-2.655c-10.627-2.236-17.937-8.718-21.79-19.069
				c-2.933-7.879-4.032-16.054-4.797-24.34c-1.933-20.924-1.3-41.901-0.95-62.843c0.209-12.497,0.754-25.111,4.652-37.229
				c4.844-15.06,14.934-22.983,30.787-24.054c41.864-2.827,83.775-3.257,125.701-2.167c17.244,0.448,34.483,1.278,51.708,2.221
				c15.637,0.856,25.748,9.037,30.617,23.897c3.02,9.217,3.872,18.773,4.151,28.306c0.54,18.416,0.889,36.859,0.517,55.274
				c-0.256,12.68-0.91,25.421-4.644,37.779c-4.829,15.983-16.588,23.264-30.603,23.913L86.043,246.285z M136.116,195.207
				c22.24-11.596,44.147-23.017,66.359-34.598c-22.332-11.658-44.264-23.107-66.359-34.642
				C136.116,149.095,136.116,171.9,136.116,195.207z"/>
		</g>
	</g>
</g>
</svg>