<!-- Generator: Adobe Illustrator 18.1.1, SVG Export Plug-In  -->
<svg version="1.1"
	 xmlns="http://www.w3.org/2000/svg" xmlns:xlink="http://www.w3.org/1999/xlink" xmlns:a="http://ns.adobe.com/AdobeSVGViewerExtensions/3.0/"
	 x="0px" y="0px" width="84.048px" height="13.26px" viewBox="0 0 84.048 13.26" enable-background="new 0 0 84.048 13.26"
	 xml:space="preserve">
<defs>
</defs>
<g>
	<rect x="0" y="1.777" fill="none" width="84.048" height="10.272"/>
	<path fill="#2B2B2B" d="M19.962,7.871v0.641c0,0.641,0.826,1.023,1.738,1.023c0.998,0,1.727-0.469,1.727-1.332
		c0-1.011-1.023-1.344-2.096-1.763c-1.146-0.432-2.318-0.925-2.318-2.466c0-1.64,1.318-2.343,2.787-2.343
		c1.307,0,2.639,0.493,2.639,1.442v1.023H23.29V3.494c0-0.506-0.775-0.777-1.49-0.777c-0.852,0-1.529,0.395-1.529,1.196
		c0,0.925,0.875,1.232,1.85,1.603c1.281,0.48,2.551,0.975,2.551,2.589c0,1.665-1.355,2.528-2.971,2.528
		c-1.355,0-2.873-0.604-2.873-1.85V7.871H19.962z"/>
	<path fill="#2B2B2B" d="M27.683,9.522h1.098V2.791h-2.047v1.356h-1.072V1.78h7.471v2.367H32.06V2.791h-2.047v6.731h1.098v0.962
		h-3.428V9.522z"/>
	<path fill="#2B2B2B" d="M34.148,9.522h1.084V2.729h-1.084V1.78h3.771c0.617,0,1.123,0.024,1.604,0.185
		c0.912,0.309,1.518,1.072,1.518,2.256c0,1.258-0.691,2.158-1.801,2.441v0.025c0,0,0.223,0.123,0.369,0.406l1.234,2.146
		c0.135,0.234,0.295,0.283,0.604,0.283h0.258v0.962h-0.738c-0.74,0-0.912-0.136-1.209-0.653l-1.344-2.38
		c-0.223-0.369-0.383-0.48-0.912-0.48h-1.035v2.552h1.072v0.962h-3.391V9.522z M38.216,5.96c0.949,0,1.578-0.617,1.578-1.64
		c0-0.679-0.271-1.147-0.814-1.369c-0.283-0.111-0.652-0.16-1.072-0.16h-1.441V5.96H38.216z"/>
	<path fill="#2B2B2B" d="M42.745,9.522h1.084V2.729h-1.084V1.78h6.301v2.021h-1.074V2.791h-2.908V5.59h3.082v1.011h-3.082v2.873
		h3.119V8.426h1.072v2.059h-6.51V9.522z"/>
	<path fill="#2B2B2B" d="M50.54,9.522h1.084V2.729H50.54V1.78h6.301v2.021h-1.074V2.791h-2.908V5.59h3.082v1.011h-3.082v2.873h3.119
		V8.426h1.072v2.059h-6.51V9.522z"/>
	<path fill="#2B2B2B" d="M60.062,9.522h1.096V2.791h-2.045v1.356h-1.074V1.78h7.473v2.367h-1.072V2.791h-2.047v6.731h1.096v0.962
		h-3.426V9.522z"/>
</g>
</svg>