<!-- Generator: Adobe Illustrator 18.1.1, SVG Export Plug-In  -->
<svg version="1.1"
	 xmlns="http://www.w3.org/2000/svg" xmlns:xlink="http://www.w3.org/1999/xlink" xmlns:a="http://ns.adobe.com/AdobeSVGViewerExtensions/3.0/"
	 x="0px" y="0px" width="324.524px" height="324.524px" viewBox="0 0 324.524 324.524" enable-background="new 0 0 324.524 324.524"
	 xml:space="preserve">
<defs>
</defs>
<path fill="#427E7E" d="M306.436,324.524H18.088C8.098,324.524,0,316.426,0,306.436V18.088C0,8.098,8.098,0,18.088,0h288.348
	c9.99,0,18.088,8.098,18.088,18.088v288.348C324.524,316.426,316.426,324.524,306.436,324.524z"/>
<g id="_x35_8WVqf.tif_1_">
	<g>
		<g>
			<path fill="#FFFFFF" d="M142.483,154.927c9.899,0.63,15.99,5.808,19.678,14.096c4.256,9.565,5.566,19.549,3.156,29.785
				c-3.269,13.884-12.672,21.799-25.992,25.405c-3.66,0.991-7.561,1.501-11.355,1.523c-23.788,0.134-47.577,0.068-71.366,0.068
				c-0.913,0-1.827,0-2.897,0c0-43.617,0-87.022,0-130.691c0.753-0.048,1.567-0.139,2.382-0.147
				c10.324-0.095,20.647-0.18,30.971-0.262c13.953-0.111,27.906-0.299,41.859-0.29c6.58,0.004,12.791,1.649,18.355,5.334
				c7.711,5.107,11.527,12.527,12.669,21.49c0.803,6.309,0.323,12.508-2.179,18.419
				C154.836,146.578,149.777,151.474,142.483,154.927z M83.322,203.295c12.23,0,24.049-0.247,35.851,0.084
				c8.327,0.234,16.285-4.362,17.485-14.619c1.417-12.112-5.235-20.608-17.334-20.532c-11.25,0.07-22.501,0.015-33.751,0.015
				c-0.763,0-1.525,0-2.251,0C83.322,179.898,83.322,191.315,83.322,203.295z M83.297,148.998c0.738,0.053,1.085,0.095,1.434,0.1
				c6.756,0.112,13.512,0.236,20.269,0.32c3.345,0.042,6.698-0.131,10.035,0.034c8.291,0.41,14.665-4.558,15.633-13.429
				c1.197-10.969-4.425-18.919-15.877-18.828c-9.68,0.077-19.362,0.013-29.043,0.021c-0.829,0.001-1.657,0.071-2.452,0.108
				C83.297,127.962,83.297,138.388,83.297,148.998z"/>
			<path fill="#FFFFFF" d="M268.084,184.964c-23.012,0-45.853,0-68.885,0c-0.142,4.86,1.227,9.11,3.601,13.047
				c4.738,7.857,14.076,12.005,23.478,10.727c5.764-0.784,10.904-2.611,14.609-7.38c0.175-0.225,0.433-0.427,0.507-0.682
				c0.954-3.306,3.436-3.38,6.288-3.312c6.622,0.159,13.25,0.061,19.876,0.072c0.136,0,0.272,0.062,0.639,0.151
				c0.23,4.034-0.482,7.956-2.057,11.714c-3.312,7.904-9.428,12.936-17.195,15.94c-16.151,6.248-32.543,6.527-48.781,0.585
				c-11.854-4.338-20.082-12.825-24.427-24.681c-6.152-16.784-5.652-33.518,2.013-49.707c6.394-13.502,17.661-20.811,32.164-23.311
				c8.564-1.476,17.162-1.498,25.647,0.571c13.571,3.309,22.801,11.689,28.025,24.552
				C267.702,163.384,268.813,173.949,268.084,184.964z M200.226,167.03c14.26,0,28.496,0,42.768,0
				c-1.839-9.46-9.53-19.559-22.001-19.31C209.044,147.958,201.776,158.121,200.226,167.03z"/>
			<path fill="#FFFFFF" d="M194.271,116.938c0-4.383,0-8.498,0-12.807c18.084,0,36.104,0,54.266,0c0,4.279,0,8.507,0,12.807
				C230.433,116.938,212.451,116.938,194.271,116.938z"/>
		</g>
	</g>
</g>
</svg>