<!-- Generator: Adobe Illustrator 18.1.1, SVG Export Plug-In  -->
<svg version="1.1"
	 xmlns="http://www.w3.org/2000/svg" xmlns:xlink="http://www.w3.org/1999/xlink" xmlns:a="http://ns.adobe.com/AdobeSVGViewerExtensions/3.0/"
	 x="0px" y="0px" width="230.054px" height="244.067px" viewBox="0 0 230.054 244.067" enable-background="new 0 0 230.054 244.067"
	 xml:space="preserve">
<defs>
</defs>
<rect x="0" y="0" fill="#13ACC4" width="230.054" height="244.067"/>
<g>
	<g>
		<path fill="#E5E5E5" d="M139.098,46.573h-4.114l-0.977,2.816h-1.51l3.942-10.934h1.269l3.86,10.934h-1.509L139.098,46.573z
			 M135.411,45.334h3.266l-1.592-4.692h-0.045L135.411,45.334z"/>
		<path fill="#E5E5E5" d="M149.911,45.635c0,1.172-0.281,2.116-0.845,2.835c-0.563,0.718-1.338,1.077-2.324,1.077
			c-0.54,0-1.01-0.106-1.407-0.319c-0.398-0.212-0.728-0.526-0.988-0.942l-0.24,1.104h-1.134V37.675h1.479v4.551
			c0.256-0.36,0.572-0.636,0.949-0.826c0.379-0.19,0.82-0.285,1.326-0.285c1.001,0,1.782,0.4,2.343,1.201
			c0.561,0.802,0.841,1.855,0.841,3.162V45.635z M148.433,45.477c0-0.932-0.172-1.691-0.516-2.279
			c-0.342-0.589-0.864-0.883-1.564-0.883c-0.456,0-0.84,0.111-1.153,0.334c-0.313,0.224-0.562,0.522-0.747,0.897v3.522
			c0.189,0.4,0.439,0.713,0.747,0.938s0.697,0.338,1.167,0.338c0.696,0,1.215-0.248,1.555-0.743
			c0.341-0.496,0.512-1.151,0.512-1.968V45.477z"/>
		<path fill="#E5E5E5" d="M151.368,45.252c0-1.201,0.325-2.191,0.977-2.97c0.65-0.778,1.533-1.168,2.65-1.168
			c1.127,0,2.016,0.388,2.67,1.164c0.652,0.775,0.979,1.767,0.979,2.974v0.165c0,1.212-0.325,2.203-0.976,2.974
			c-0.651,0.771-1.537,1.156-2.658,1.156c-1.122,0-2.01-0.387-2.662-1.16c-0.654-0.773-0.98-1.763-0.98-2.97V45.252z
			 M152.847,45.417c0,0.861,0.182,1.572,0.545,2.133s0.902,0.841,1.619,0.841c0.705,0,1.24-0.28,1.606-0.841
			c0.365-0.561,0.548-1.271,0.548-2.133v-0.165c0-0.852-0.184-1.56-0.552-2.125c-0.368-0.566-0.907-0.849-1.618-0.849
			c-0.706,0-1.24,0.282-1.604,0.849c-0.363,0.565-0.545,1.273-0.545,2.125V45.417z"/>
		<path fill="#E5E5E5" d="M165.613,48.187c-0.255,0.436-0.583,0.771-0.983,1.007s-0.864,0.353-1.39,0.353
			c-0.886,0-1.577-0.282-2.073-0.849c-0.495-0.565-0.742-1.446-0.742-2.643v-4.791h1.479v4.806c0,0.866,0.128,1.462,0.383,1.787
			c0.256,0.325,0.654,0.488,1.194,0.488c0.525,0,0.96-0.106,1.303-0.319s0.603-0.515,0.777-0.904v-5.857h1.479v8.125h-1.33
			L165.613,48.187z"/>
		<path fill="#E5E5E5" d="M171.253,39.304v1.96h1.539v1.096h-1.539v4.934c0,0.381,0.078,0.648,0.236,0.804
			c0.157,0.155,0.366,0.233,0.627,0.233c0.085,0,0.18-0.012,0.285-0.034s0.193-0.046,0.263-0.071l0.202,1.014
			c-0.109,0.09-0.271,0.164-0.487,0.222s-0.429,0.086-0.638,0.086c-0.602,0-1.08-0.182-1.436-0.544
			c-0.355-0.363-0.533-0.933-0.533-1.709V42.36h-1.291v-1.096h1.291v-1.96H171.253z"/>
	</g>
</g>
<g>
	<path fill="#E5E5E5" d="M114.009,167.583h-3.604v9.77h-1.479v-9.77h-3.56v-1.164h8.643V167.583z"/>
	<path fill="#E5E5E5" d="M116.841,170.316c0.279-0.391,0.624-0.694,1.031-0.912c0.408-0.218,0.86-0.327,1.355-0.327
		c0.867,0,1.541,0.261,2.024,0.781s0.725,1.322,0.725,2.403v5.091h-1.479v-5.106c0-0.67-0.144-1.166-0.432-1.486
		s-0.717-0.48-1.287-0.48c-0.441,0-0.824,0.086-1.149,0.259s-0.589,0.414-0.788,0.725v6.09h-1.48v-11.714h1.48V170.316z"/>
	<path fill="#E5E5E5" d="M127.466,177.511c-1.166,0-2.076-0.373-2.729-1.119s-0.979-1.728-0.979-2.943v-0.331
		c0-1.166,0.336-2.131,1.01-2.895c0.673-0.764,1.495-1.146,2.467-1.146c1.086,0,1.9,0.338,2.443,1.015
		c0.543,0.676,0.815,1.574,0.815,2.695v0.781h-5.196l-0.023,0.037c0,0.816,0.181,1.479,0.541,1.986
		c0.361,0.508,0.911,0.763,1.652,0.763c0.5,0,0.939-0.071,1.318-0.215c0.377-0.143,0.701-0.339,0.973-0.589l0.578,0.961
		c-0.291,0.28-0.674,0.517-1.149,0.71C128.71,177.414,128.137,177.511,127.466,177.511z M127.233,170.241
		c-0.516,0-0.943,0.199-1.281,0.598c-0.338,0.397-0.544,0.907-0.619,1.527l0.016,0.038h3.664v-0.12c0-0.591-0.145-1.079-0.436-1.465
		C128.286,170.434,127.839,170.241,127.233,170.241z"/>
	<path fill="#E5E5E5" d="M143.821,167.583h-3.605v9.77h-1.479v-9.77h-3.56v-1.164h8.644V167.583z"/>
	<path fill="#E5E5E5" d="M147.794,177.511c-1.167,0-2.076-0.373-2.73-1.119c-0.652-0.746-0.979-1.728-0.979-2.943v-0.331
		c0-1.166,0.337-2.131,1.01-2.895s1.495-1.146,2.467-1.146c1.087,0,1.901,0.338,2.444,1.015c0.543,0.676,0.814,1.574,0.814,2.695
		v0.781h-5.196l-0.022,0.037c0,0.816,0.18,1.479,0.541,1.986c0.36,0.508,0.91,0.763,1.652,0.763c0.5,0,0.939-0.071,1.317-0.215
		c0.378-0.143,0.702-0.339,0.973-0.589l0.578,0.961c-0.29,0.28-0.673,0.517-1.149,0.71
		C149.038,177.414,148.464,177.511,147.794,177.511z M147.561,170.241c-0.516,0-0.942,0.199-1.28,0.598
		c-0.338,0.397-0.545,0.907-0.619,1.527l0.015,0.038h3.665v-0.12c0-0.591-0.146-1.079-0.436-1.465
		C148.614,170.434,148.167,170.241,147.561,170.241z"/>
	<path fill="#E5E5E5" d="M157.473,177.352c-0.05-0.245-0.089-0.462-0.116-0.649s-0.044-0.377-0.049-0.566
		c-0.275,0.39-0.635,0.717-1.078,0.979c-0.442,0.263-0.92,0.395-1.43,0.395c-0.846,0-1.49-0.217-1.934-0.649
		c-0.443-0.434-0.665-1.03-0.665-1.791c0-0.776,0.313-1.383,0.942-1.821s1.48-0.657,2.557-0.657h1.607v-0.804
		c0-0.476-0.146-0.852-0.436-1.13c-0.291-0.277-0.701-0.417-1.231-0.417c-0.481,0-0.868,0.12-1.164,0.36s-0.442,0.528-0.442,0.864
		l-1.404,0.015l-0.016-0.045c-0.035-0.591,0.242-1.132,0.83-1.622s1.348-0.736,2.279-0.736c0.92,0,1.662,0.234,2.223,0.702
		c0.561,0.469,0.84,1.144,0.84,2.024v3.912c0,0.29,0.016,0.57,0.046,0.841s0.085,0.536,0.165,0.796H157.473z M155.017,176.271
		c0.536,0,1.02-0.138,1.449-0.413c0.432-0.275,0.711-0.591,0.842-0.946v-1.321h-1.66c-0.596,0-1.072,0.15-1.43,0.45
		c-0.358,0.301-0.537,0.653-0.537,1.059c0,0.361,0.113,0.646,0.338,0.856S154.577,176.271,155.017,176.271z"/>
	<path fill="#E5E5E5" d="M162.257,169.227l0.104,1.066c0.265-0.386,0.603-0.685,1.011-0.897c0.407-0.213,0.882-0.319,1.422-0.319
		c0.541,0,1.006,0.126,1.394,0.376s0.68,0.626,0.874,1.126c0.261-0.465,0.6-0.832,1.018-1.1s0.908-0.402,1.469-0.402
		c0.826,0,1.479,0.284,1.96,0.853c0.48,0.568,0.721,1.423,0.721,2.564v4.858h-1.479v-4.873c0-0.801-0.138-1.368-0.412-1.701
		c-0.275-0.333-0.687-0.499-1.232-0.499c-0.506,0-0.914,0.175-1.228,0.525s-0.497,0.794-0.552,1.329v0.061v5.158h-1.486v-4.873
		c0-0.761-0.143-1.318-0.425-1.671c-0.283-0.354-0.69-0.529-1.22-0.529c-0.451,0-0.822,0.093-1.111,0.277
		c-0.291,0.186-0.514,0.446-0.669,0.781v6.015h-1.479v-8.125H162.257z"/>
</g>
<g>
	<path fill="#E5E5E5" d="M59.86,142.606c0-0.496-0.178-0.912-0.533-1.247s-0.981-0.62-1.877-0.856
		c-1.111-0.275-1.979-0.68-2.603-1.217c-0.623-0.535-0.935-1.209-0.935-2.02c0-0.855,0.335-1.569,1.006-2.14
		c0.671-0.571,1.542-0.856,2.613-0.856c1.151,0,2.068,0.326,2.752,0.98c0.684,0.652,1.016,1.415,0.995,2.286l-0.022,0.045h-1.412
		c0-0.62-0.217-1.134-0.649-1.539s-0.987-0.608-1.663-0.608c-0.691,0-1.221,0.168-1.588,0.503c-0.368,0.335-0.553,0.771-0.553,1.307
		c0,0.476,0.202,0.872,0.605,1.19c0.402,0.318,1.057,0.598,1.963,0.838c1.102,0.285,1.939,0.705,2.516,1.261
		s0.863,1.241,0.863,2.058c0,0.881-0.346,1.59-1.039,2.125c-0.693,0.536-1.599,0.804-2.715,0.804c-1.057,0-1.988-0.296-2.797-0.886
		c-0.809-0.591-1.201-1.382-1.176-2.373l0.016-0.045h1.411c0,0.686,0.261,1.215,0.781,1.588s1.108,0.56,1.765,0.56
		c0.701,0,1.255-0.157,1.663-0.474C59.656,143.575,59.86,143.146,59.86,142.606z"/>
	<path fill="#E5E5E5" d="M68.391,144.16c-0.255,0.436-0.583,0.771-0.983,1.007c-0.4,0.234-0.864,0.353-1.39,0.353
		c-0.886,0-1.577-0.282-2.073-0.849c-0.495-0.565-0.742-1.447-0.742-2.643v-4.791h1.479v4.806c0,0.866,0.128,1.462,0.383,1.787
		c0.256,0.325,0.654,0.487,1.194,0.487c0.525,0,0.96-0.105,1.303-0.318s0.603-0.515,0.777-0.904v-5.857h1.479v8.125h-1.33
		L68.391,144.16z"/>
	<path fill="#E5E5E5" d="M71.71,141.45c0-1.307,0.278-2.361,0.837-3.162c0.558-0.801,1.338-1.201,2.339-1.201
		c0.516,0,0.969,0.104,1.359,0.312s0.719,0.507,0.983,0.897l0.181-1.059h1.179v8.17c0,1.041-0.303,1.841-0.909,2.398
		c-0.605,0.559-1.479,0.838-2.62,0.838c-0.391,0-0.812-0.055-1.265-0.162c-0.453-0.107-0.854-0.254-1.198-0.439l0.226-1.148
		c0.285,0.15,0.629,0.271,1.032,0.364s0.8,0.14,1.19,0.14c0.721,0,1.244-0.164,1.572-0.492s0.492-0.828,0.492-1.498v-0.924
		c-0.266,0.34-0.583,0.598-0.953,0.773c-0.371,0.175-0.799,0.263-1.285,0.263c-0.99,0-1.766-0.359-2.323-1.077
		c-0.559-0.719-0.837-1.664-0.837-2.835V141.45z M73.189,141.607c0,0.815,0.168,1.472,0.504,1.968
		c0.335,0.495,0.854,0.742,1.554,0.742c0.446,0,0.819-0.101,1.119-0.304c0.3-0.202,0.548-0.489,0.743-0.859v-3.739
		c-0.189-0.346-0.438-0.62-0.743-0.822c-0.306-0.203-0.673-0.305-1.104-0.305c-0.705,0-1.227,0.293-1.564,0.879
		s-0.508,1.346-0.508,2.283V141.607z"/>
	<path fill="#E5E5E5" d="M80.45,141.45c0-1.307,0.279-2.361,0.838-3.162s1.338-1.201,2.339-1.201c0.516,0,0.969,0.104,1.359,0.312
		s0.718,0.507,0.983,0.897l0.181-1.059h1.179v8.17c0,1.041-0.303,1.841-0.908,2.398c-0.605,0.559-1.479,0.838-2.621,0.838
		c-0.391,0-0.812-0.055-1.266-0.162s-0.852-0.254-1.197-0.439l0.225-1.148c0.285,0.15,0.63,0.271,1.033,0.364
		c0.402,0.093,0.799,0.14,1.189,0.14c0.722,0,1.246-0.164,1.574-0.492c0.327-0.328,0.491-0.828,0.491-1.498v-0.924
		c-0.265,0.34-0.583,0.598-0.954,0.773c-0.37,0.175-0.798,0.263-1.283,0.263c-0.992,0-1.766-0.359-2.324-1.077
		c-0.559-0.719-0.838-1.664-0.838-2.835V141.45z M81.931,141.607c0,0.815,0.167,1.472,0.502,1.968
		c0.336,0.495,0.854,0.742,1.555,0.742c0.445,0,0.818-0.101,1.119-0.304c0.301-0.202,0.549-0.489,0.743-0.859v-3.739
		c-0.19-0.346-0.438-0.62-0.743-0.822c-0.306-0.203-0.674-0.305-1.104-0.305c-0.706,0-1.229,0.293-1.566,0.879
		s-0.506,1.346-0.506,2.283V141.607z"/>
	<path fill="#E5E5E5" d="M92.818,145.519c-1.167,0-2.076-0.373-2.729-1.119c-0.653-0.745-0.98-1.728-0.98-2.943v-0.331
		c0-1.166,0.337-2.131,1.01-2.895c0.674-0.764,1.496-1.145,2.467-1.145c1.087,0,1.901,0.338,2.445,1.014
		c0.543,0.676,0.814,1.574,0.814,2.695v0.781h-5.197l-0.021,0.037c0,0.816,0.18,1.479,0.541,1.986
		c0.359,0.508,0.91,0.763,1.651,0.763c0.501,0,0.94-0.071,1.317-0.214c0.379-0.143,0.703-0.34,0.973-0.59l0.578,0.961
		c-0.29,0.281-0.673,0.518-1.148,0.71S93.489,145.519,92.818,145.519z M92.585,138.251c-0.516,0-0.941,0.199-1.279,0.597
		s-0.545,0.907-0.62,1.528l0.015,0.037h3.665v-0.12c0-0.591-0.146-1.079-0.436-1.464C93.64,138.443,93.191,138.251,92.585,138.251z"
		/>
	<path fill="#E5E5E5" d="M102.228,143.177c0-0.326-0.124-0.591-0.372-0.796c-0.247-0.206-0.717-0.386-1.407-0.541
		c-0.957-0.205-1.691-0.493-2.205-0.863c-0.513-0.37-0.77-0.866-0.77-1.487c0-0.66,0.281-1.227,0.846-1.697
		c0.562-0.471,1.292-0.705,2.188-0.705c0.921,0,1.667,0.25,2.237,0.75c0.57,0.502,0.844,1.084,0.818,1.75l-0.015,0.045h-1.411
		c0-0.35-0.154-0.668-0.463-0.953c-0.307-0.285-0.697-0.428-1.167-0.428c-0.521,0-0.91,0.117-1.168,0.353s-0.387,0.516-0.387,0.841
		c0,0.32,0.111,0.568,0.335,0.744c0.223,0.175,0.682,0.335,1.377,0.48c0.996,0.21,1.752,0.508,2.268,0.893
		c0.516,0.387,0.773,0.889,0.773,1.51c0,0.721-0.291,1.31-0.874,1.765c-0.583,0.456-1.346,0.684-2.286,0.684
		c-1.037,0-1.854-0.263-2.449-0.788s-0.878-1.139-0.848-1.84l0.015-0.045h1.411c0.025,0.525,0.221,0.91,0.586,1.152
		s0.794,0.364,1.285,0.364c0.525,0,0.937-0.111,1.234-0.335C102.078,143.805,102.228,143.522,102.228,143.177z"/>
	<path fill="#E5E5E5" d="M107.605,135.276v1.961h1.539v1.096h-1.539v4.934c0,0.381,0.078,0.648,0.236,0.804
		c0.157,0.155,0.366,0.233,0.627,0.233c0.085,0,0.18-0.012,0.285-0.035c0.105-0.021,0.193-0.045,0.263-0.07l0.202,1.014
		c-0.109,0.09-0.271,0.164-0.487,0.221c-0.216,0.059-0.429,0.087-0.638,0.087c-0.602,0-1.08-0.182-1.436-0.544
		c-0.355-0.363-0.533-0.933-0.533-1.709v-4.934h-1.291v-1.096h1.291v-1.961H107.605z"/>
	<path fill="#E5E5E5" d="M119.544,145.362c-0.051-0.246-0.09-0.463-0.117-0.65s-0.043-0.377-0.049-0.566
		c-0.275,0.391-0.635,0.717-1.077,0.98c-0.442,0.262-0.92,0.394-1.431,0.394c-0.846,0-1.49-0.216-1.934-0.649
		s-0.664-1.03-0.664-1.791c0-0.775,0.313-1.383,0.941-1.821c0.629-0.438,1.48-0.657,2.558-0.657h1.606v-0.803
		c0-0.477-0.145-0.853-0.436-1.131c-0.29-0.277-0.701-0.416-1.23-0.416c-0.481,0-0.869,0.119-1.164,0.359
		c-0.296,0.24-0.443,0.529-0.443,0.864l-1.404,0.015l-0.016-0.045c-0.035-0.59,0.242-1.131,0.83-1.621
		c0.588-0.491,1.348-0.736,2.279-0.736c0.921,0,1.662,0.234,2.223,0.701c0.561,0.469,0.841,1.144,0.841,2.024v3.912
		c0,0.29,0.015,0.571,0.046,0.841c0.029,0.271,0.084,0.536,0.164,0.797H119.544z M117.088,144.28c0.536,0,1.019-0.137,1.449-0.412
		s0.711-0.592,0.841-0.947v-1.321h-1.659c-0.596,0-1.073,0.15-1.431,0.45c-0.357,0.301-0.537,0.654-0.537,1.059
		c0,0.361,0.113,0.646,0.338,0.857C116.315,144.175,116.648,144.28,117.088,144.28z"/>
	<path fill="#E5E5E5" d="M132.857,142.606c0-0.496-0.178-0.912-0.532-1.247c-0.356-0.335-0.981-0.62-1.878-0.856
		c-1.111-0.275-1.979-0.68-2.602-1.217c-0.623-0.535-0.936-1.209-0.936-2.02c0-0.855,0.336-1.569,1.007-2.14
		c0.671-0.571,1.542-0.856,2.613-0.856c1.151,0,2.069,0.326,2.752,0.98c0.684,0.652,1.015,1.415,0.995,2.286l-0.022,0.045h-1.411
		c0-0.62-0.217-1.134-0.65-1.539c-0.433-0.405-0.987-0.608-1.663-0.608c-0.69,0-1.22,0.168-1.589,0.503
		c-0.367,0.335-0.551,0.771-0.551,1.307c0,0.476,0.201,0.872,0.604,1.19c0.403,0.318,1.059,0.598,1.965,0.838
		c1.101,0.285,1.939,0.705,2.516,1.261c0.574,0.556,0.863,1.241,0.863,2.058c0,0.881-0.348,1.59-1.041,2.125
		c-0.693,0.536-1.598,0.804-2.714,0.804c-1.057,0-1.989-0.296-2.798-0.886c-0.809-0.591-1.199-1.382-1.175-2.373l0.015-0.045h1.412
		c0,0.686,0.26,1.215,0.781,1.588c0.521,0.373,1.108,0.56,1.765,0.56c0.7,0,1.255-0.157,1.663-0.474
		C132.653,143.575,132.857,143.146,132.857,142.606z"/>
	<path fill="#E5E5E5" d="M139.458,144.363c0.455,0,0.854-0.151,1.193-0.454c0.341-0.303,0.512-0.675,0.512-1.115h1.336l0.023,0.045
		c0.02,0.701-0.281,1.322-0.902,1.865c-0.62,0.544-1.342,0.815-2.162,0.815c-1.141,0-2.022-0.388-2.643-1.164
		c-0.621-0.776-0.932-1.742-0.932-2.898v-0.315c0-1.146,0.312-2.109,0.935-2.887c0.624-0.779,1.503-1.168,2.64-1.168
		c0.906,0,1.648,0.28,2.227,0.841s0.857,1.249,0.838,2.065l-0.016,0.045h-1.344c0-0.496-0.162-0.918-0.484-1.266
		c-0.323-0.348-0.73-0.521-1.221-0.521c-0.727,0-1.256,0.281-1.588,0.844c-0.333,0.564-0.5,1.246-0.5,2.047v0.315
		c0,0.815,0.164,1.505,0.492,2.065S138.722,144.363,139.458,144.363z"/>
	<path fill="#E5E5E5" d="M145.759,138.325c0.279-0.391,0.624-0.694,1.031-0.912c0.408-0.218,0.86-0.326,1.355-0.326
		c0.867,0,1.541,0.26,2.024,0.781c0.483,0.52,0.725,1.321,0.725,2.402v5.092h-1.479v-5.107c0-0.67-0.144-1.166-0.432-1.486
		s-0.717-0.48-1.287-0.48c-0.441,0-0.824,0.086-1.149,0.26c-0.325,0.172-0.589,0.414-0.788,0.725v6.09h-1.48v-11.715h1.48V138.325z"
		/>
	<path fill="#E5E5E5" d="M152.675,141.223c0-1.201,0.324-2.191,0.976-2.969c0.651-0.779,1.534-1.168,2.651-1.168
		c1.126,0,2.016,0.388,2.669,1.164c0.653,0.775,0.979,1.767,0.979,2.973v0.166c0,1.211-0.325,2.203-0.976,2.974
		c-0.651,0.771-1.537,1.156-2.658,1.156c-1.122,0-2.009-0.387-2.662-1.16s-0.979-1.763-0.979-2.97V141.223z M154.153,141.389
		c0,0.861,0.182,1.572,0.545,2.133s0.902,0.841,1.618,0.841c0.706,0,1.241-0.28,1.606-0.841s0.549-1.271,0.549-2.133v-0.166
		c0-0.851-0.184-1.559-0.553-2.125c-0.367-0.565-0.907-0.848-1.617-0.848c-0.707,0-1.24,0.282-1.604,0.848
		c-0.363,0.566-0.545,1.274-0.545,2.125V141.389z"/>
	<path fill="#E5E5E5" d="M161.415,141.223c0-1.201,0.325-2.191,0.977-2.969c0.65-0.779,1.533-1.168,2.65-1.168
		c1.127,0,2.016,0.388,2.67,1.164c0.652,0.775,0.979,1.767,0.979,2.973v0.166c0,1.211-0.325,2.203-0.976,2.974
		c-0.651,0.771-1.537,1.156-2.658,1.156c-1.122,0-2.01-0.387-2.662-1.16c-0.654-0.773-0.98-1.763-0.98-2.97V141.223z
		 M162.894,141.389c0,0.861,0.182,1.572,0.545,2.133s0.902,0.841,1.619,0.841c0.705,0,1.24-0.28,1.606-0.841
		c0.365-0.561,0.548-1.271,0.548-2.133v-0.166c0-0.851-0.184-1.559-0.552-2.125c-0.368-0.565-0.907-0.848-1.618-0.848
		c-0.706,0-1.24,0.282-1.604,0.848c-0.363,0.566-0.545,1.274-0.545,2.125V141.389z"/>
	<path fill="#E5E5E5" d="M172.101,145.362h-1.479v-11.715h1.479V145.362z"/>
</g>
<g>
	<path fill="#E5E5E5" d="M32.062,109.856h0.045l1.449-7.419h2.26l-2.553,10.934h-2.035l-2.012-7.201H29.17l-2.005,7.201H25.13
		l-2.553-10.934h2.26l1.457,7.411h0.045l1.968-7.411h1.772L32.062,109.856z"/>
	<path fill="#E5E5E5" d="M38.954,106.274c0.256-0.37,0.568-0.659,0.939-0.867c0.37-0.207,0.781-0.312,1.231-0.312
		c0.846,0,1.511,0.282,1.993,0.845c0.483,0.563,0.725,1.434,0.725,2.609v4.821H41.65v-4.836c0-0.631-0.101-1.077-0.304-1.341
		c-0.203-0.262-0.507-0.395-0.912-0.395c-0.336,0-0.627,0.055-0.875,0.162s-0.449,0.262-0.605,0.462v5.947h-2.191v-11.714h2.191
		V106.274z"/>
	<path fill="#E5E5E5" d="M48.424,109.962l0.091,0.451h0.045l1.554-5.167h2.358l-3.297,9.341c-0.23,0.582-0.543,1.07-0.938,1.469
		s-0.989,0.598-1.78,0.598c-0.185,0-0.356-0.016-0.514-0.046c-0.158-0.03-0.35-0.072-0.574-0.128l0.255-1.6
		c0.065,0.011,0.136,0.021,0.21,0.031c0.075,0.01,0.143,0.014,0.203,0.014c0.36,0,0.639-0.088,0.834-0.266s0.345-0.399,0.45-0.665
		l0.255-0.63l-2.883-8.118h2.357L48.424,109.962z"/>
	<path fill="#E5E5E5" d="M65.973,109.856h0.045l1.45-7.419h2.26l-2.553,10.934H65.14l-2.013-7.201h-0.046l-2.004,7.201h-2.035
		l-2.553-10.934h2.26l1.457,7.411h0.045l1.967-7.411h1.772L65.973,109.856z"/>
	<path fill="#E5E5E5" d="M74.015,113.528c-1.211,0-2.157-0.371-2.838-1.115c-0.682-0.742-1.021-1.7-1.021-2.871v-0.301
		c0-1.217,0.33-2.213,0.991-2.988c0.661-0.776,1.569-1.162,2.726-1.157c1.092,0,1.93,0.335,2.512,1.003
		c0.584,0.668,0.875,1.568,0.875,2.699v1.134h-4.844l-0.021,0.046c0.035,0.555,0.203,1.006,0.506,1.352
		c0.304,0.345,0.753,0.518,1.349,0.518c0.491,0,0.907-0.05,1.251-0.15c0.342-0.1,0.696-0.252,1.062-0.458l0.593,1.353
		c-0.325,0.265-0.767,0.487-1.321,0.668C75.276,113.438,74.671,113.528,74.015,113.528z M73.872,106.786
		c-0.439,0-0.779,0.15-1.018,0.453c-0.237,0.304-0.381,0.705-0.432,1.205l0.016,0.038h2.673v-0.165c0-0.476-0.097-0.85-0.292-1.123
		C74.624,106.922,74.308,106.786,73.872,106.786z"/>
	<path fill="#E5E5E5" d="M91.369,113.371h-2.192l-4.408-7.374l-0.045,0.008v7.366H82.53v-10.934h2.193l4.408,7.366l0.045-0.007
		v-7.359h2.192V113.371z"/>
	<path fill="#E5E5E5" d="M96.738,113.528c-1.212,0-2.157-0.371-2.839-1.115c-0.681-0.742-1.021-1.7-1.021-2.871v-0.301
		c0-1.217,0.331-2.213,0.992-2.988c0.66-0.776,1.569-1.162,2.726-1.157c1.091,0,1.929,0.335,2.512,1.003s0.875,1.568,0.875,2.699
		v1.134h-4.844l-0.022,0.046c0.035,0.555,0.204,1.006,0.507,1.352c0.304,0.345,0.753,0.518,1.349,0.518c0.49,0,0.906-0.05,1.25-0.15
		c0.343-0.1,0.697-0.252,1.062-0.458l0.594,1.353c-0.326,0.265-0.767,0.487-1.322,0.668C98,113.438,97.394,113.528,96.738,113.528z
		 M96.596,106.786c-0.44,0-0.78,0.15-1.018,0.453c-0.237,0.304-0.382,0.705-0.432,1.205l0.015,0.038h2.674v-0.165
		c0-0.476-0.098-0.85-0.293-1.123C97.347,106.922,97.031,106.786,96.596,106.786z"/>
	<path fill="#E5E5E5" d="M104.78,113.528c-1.211,0-2.157-0.371-2.838-1.115c-0.682-0.742-1.021-1.7-1.021-2.871v-0.301
		c0-1.217,0.33-2.213,0.991-2.988c0.661-0.776,1.569-1.162,2.726-1.157c1.092,0,1.93,0.335,2.512,1.003
		c0.584,0.668,0.875,1.568,0.875,2.699v1.134h-4.844l-0.021,0.046c0.035,0.555,0.203,1.006,0.506,1.352
		c0.304,0.345,0.753,0.518,1.349,0.518c0.491,0,0.907-0.05,1.251-0.15c0.342-0.1,0.696-0.252,1.062-0.458l0.593,1.353
		c-0.325,0.265-0.767,0.487-1.321,0.668C106.042,113.438,105.437,113.528,104.78,113.528z M104.638,106.786
		c-0.439,0-0.779,0.15-1.018,0.453c-0.237,0.304-0.381,0.705-0.432,1.205l0.016,0.038h2.673v-0.165c0-0.476-0.097-0.85-0.292-1.123
		C105.39,106.922,105.073,106.786,104.638,106.786z"/>
	<path fill="#E5E5E5" d="M108.963,109.376c0-1.281,0.276-2.314,0.83-3.102c0.554-0.785,1.333-1.179,2.339-1.179
		c0.406,0,0.771,0.088,1.097,0.263c0.325,0.176,0.61,0.426,0.856,0.752v-4.453h2.199v11.714h-1.869l-0.188-0.999
		c-0.256,0.376-0.559,0.662-0.909,0.859c-0.351,0.198-0.751,0.297-1.201,0.297c-0.997,0-1.771-0.365-2.324-1.096
		s-0.83-1.697-0.83-2.898V109.376z M111.149,109.534c0,0.711,0.12,1.27,0.36,1.678s0.631,0.612,1.172,0.612
		c0.314,0,0.59-0.063,0.826-0.191c0.234-0.128,0.428-0.313,0.578-0.56v-3.462c-0.15-0.255-0.342-0.454-0.575-0.597
		c-0.232-0.143-0.505-0.215-0.814-0.215c-0.536,0-0.928,0.238-1.175,0.714c-0.248,0.476-0.372,1.097-0.372,1.862V109.534z"/>
	<path fill="#E5E5E5" d="M130.177,109.751l0.016,0.046c0.02,1.167-0.336,2.08-1.066,2.741c-0.731,0.66-1.74,0.99-3.026,0.99
		c-1.312,0-2.37-0.422-3.177-1.265c-0.806-0.844-1.209-1.934-1.209-3.271v-2.17c0-1.332,0.393-2.422,1.18-3.271
		c0.785-0.849,1.816-1.272,3.094-1.272c1.331,0,2.373,0.325,3.123,0.977c0.752,0.65,1.117,1.566,1.097,2.748l-0.015,0.045h-2.133
		c0-0.701-0.169-1.223-0.507-1.566c-0.338-0.342-0.86-0.514-1.565-0.514c-0.656,0-1.168,0.264-1.536,0.792s-0.552,1.21-0.552,2.046
		v2.186c0,0.842,0.193,1.527,0.582,2.058c0.388,0.53,0.928,0.796,1.618,0.796c0.655,0,1.146-0.172,1.468-0.514
		c0.323-0.344,0.484-0.871,0.484-1.582H130.177z"/>
	<path fill="#E5E5E5" d="M136.387,113.371c-0.08-0.185-0.149-0.38-0.206-0.586c-0.059-0.205-0.1-0.415-0.124-0.63
		c-0.226,0.395-0.523,0.723-0.894,0.982c-0.371,0.261-0.811,0.391-1.322,0.391c-0.851,0-1.506-0.219-1.967-0.656
		c-0.461-0.438-0.691-1.035-0.691-1.791c0-0.797,0.307-1.413,0.92-1.852c0.613-0.438,1.508-0.656,2.685-0.656h1.231v-0.646
		c0-0.391-0.103-0.693-0.308-0.908s-0.511-0.323-0.916-0.323c-0.355,0-0.63,0.087-0.822,0.259c-0.192,0.173-0.289,0.41-0.289,0.71
		h-2.11l-0.015-0.045c-0.035-0.687,0.264-1.278,0.897-1.776c0.633-0.498,1.461-0.747,2.481-0.747c0.976,0,1.767,0.245,2.369,0.736
		c0.603,0.49,0.905,1.194,0.905,2.11v3.355c0,0.381,0.028,0.739,0.086,1.074c0.058,0.336,0.148,0.668,0.273,0.999H136.387z
		 M134.382,111.907c0.381,0,0.721-0.096,1.021-0.285c0.301-0.191,0.506-0.411,0.615-0.662v-1.148h-1.231
		c-0.466,0-0.817,0.115-1.055,0.346s-0.356,0.514-0.356,0.849c0,0.275,0.088,0.494,0.266,0.657
		C133.819,111.825,134.066,111.907,134.382,111.907z"/>
	<path fill="#E5E5E5" d="M142.161,113.371h-2.192v-11.714h2.192V113.371z"/>
	<path fill="#E5E5E5" d="M146.269,113.371h-2.192v-11.714h2.192V113.371z"/>
	<path fill="#E5E5E5" d="M150.377,103.302h-2.192v-1.645h2.192V103.302z M150.377,113.371h-2.192v-8.125h2.192V113.371z"/>
	<path fill="#E5E5E5" d="M156.571,111.118c0-0.24-0.115-0.447-0.349-0.619c-0.233-0.173-0.665-0.324-1.296-0.455
		c-0.951-0.189-1.673-0.478-2.166-0.863c-0.493-0.385-0.74-0.908-0.74-1.569c0-0.696,0.296-1.289,0.887-1.779
		c0.591-0.491,1.377-0.736,2.357-0.736c1.027,0,1.85,0.245,2.467,0.736c0.619,0.49,0.916,1.101,0.891,1.832l-0.016,0.045h-2.117
		c0-0.325-0.105-0.591-0.315-0.796s-0.513-0.308-0.909-0.308c-0.35,0-0.628,0.087-0.833,0.263s-0.308,0.391-0.308,0.646
		c0,0.251,0.105,0.454,0.318,0.612s0.645,0.299,1.296,0.424c0.996,0.201,1.738,0.494,2.227,0.883
		c0.488,0.388,0.731,0.922,0.731,1.604c0,0.73-0.312,1.328-0.938,1.795c-0.627,0.465-1.452,0.697-2.479,0.697
		c-1.082,0-1.936-0.273-2.564-0.822c-0.629-0.548-0.928-1.172-0.897-1.873l0.015-0.045h2.006c0.015,0.436,0.157,0.751,0.428,0.945
		c0.27,0.195,0.623,0.293,1.059,0.293c0.406,0,0.715-0.08,0.928-0.244C156.466,111.62,156.571,111.399,156.571,111.118z"/>
	<path fill="#E5E5E5" d="M162.737,103.257v1.989h1.373v1.54h-1.373v4.137c0,0.315,0.066,0.541,0.199,0.676
		c0.132,0.135,0.307,0.203,0.521,0.203c0.115,0,0.215-0.006,0.301-0.02c0.084-0.012,0.182-0.033,0.292-0.062l0.181,1.584
		c-0.221,0.074-0.435,0.131-0.643,0.169c-0.207,0.038-0.434,0.056-0.68,0.056c-0.756,0-1.338-0.207-1.746-0.623
		c-0.408-0.415-0.611-1.074-0.611-1.975v-4.145h-1.187v-1.54h1.187v-1.989H162.737z"/>
	<path fill="#E5E5E5" d="M165.124,109.233c0-1.211,0.338-2.204,1.015-2.978c0.676-0.773,1.612-1.16,2.808-1.16
		c1.202,0,2.143,0.386,2.824,1.157c0.681,0.771,1.021,1.764,1.021,2.98v0.158c0,1.221-0.34,2.217-1.018,2.984
		c-0.679,0.769-1.616,1.152-2.812,1.152c-1.201,0-2.142-0.384-2.82-1.152c-0.678-0.768-1.018-1.764-1.018-2.984V109.233z
		 M167.31,109.391c0,0.74,0.131,1.335,0.391,1.783c0.26,0.447,0.682,0.672,1.262,0.672c0.565,0,0.98-0.225,1.242-0.676
		c0.264-0.451,0.395-1.044,0.395-1.779v-0.158c0-0.721-0.133-1.309-0.397-1.765c-0.266-0.456-0.684-0.683-1.255-0.683
		c-0.564,0-0.979,0.229-1.242,0.687s-0.395,1.045-0.395,1.761V109.391z"/>
</g>
<g>
	<path fill="#E5E5E5" d="M94.553,71.61h-3.604v9.77H89.47v-9.77h-3.561v-1.164h8.644V71.61z"/>
	<path fill="#E5E5E5" d="M97.384,74.344c0.28-0.391,0.625-0.694,1.032-0.912c0.408-0.218,0.86-0.327,1.355-0.327
		c0.866,0,1.54,0.261,2.024,0.781c0.482,0.521,0.725,1.322,0.725,2.403v5.091h-1.48v-5.106c0-0.67-0.143-1.166-0.432-1.486
		c-0.287-0.32-0.717-0.48-1.287-0.48c-0.441,0-0.824,0.086-1.148,0.259c-0.326,0.173-0.589,0.414-0.789,0.725v6.09h-1.479V69.666
		h1.479V74.344z"/>
	<path fill="#E5E5E5" d="M108.009,81.538c-1.166,0-2.076-0.373-2.729-1.119c-0.654-0.746-0.98-1.728-0.98-2.943v-0.331
		c0-1.166,0.336-2.131,1.01-2.895s1.496-1.146,2.467-1.146c1.086,0,1.9,0.338,2.444,1.015c0.543,0.676,0.815,1.574,0.815,2.695
		v0.781h-5.197l-0.022,0.037c0,0.816,0.181,1.479,0.541,1.986s0.911,0.763,1.651,0.763c0.501,0,0.94-0.071,1.318-0.215
		c0.378-0.143,0.702-0.339,0.973-0.589l0.578,0.961c-0.291,0.28-0.674,0.517-1.148,0.71
		C109.253,81.441,108.681,81.538,108.009,81.538z M107.776,74.268c-0.516,0-0.942,0.199-1.28,0.598
		c-0.338,0.397-0.544,0.907-0.62,1.527l0.016,0.038h3.664v-0.12c0-0.591-0.145-1.079-0.436-1.465
		C108.83,74.462,108.382,74.268,107.776,74.268z"/>
	<path fill="#E5E5E5" d="M118.199,76.995v4.385h-1.479V70.446h4.183c1.167,0,2.073,0.301,2.722,0.901s0.973,1.392,0.973,2.373
		c0,0.991-0.324,1.785-0.973,2.381s-1.555,0.894-2.722,0.894H118.199z M118.199,75.838h2.703c0.741,0,1.294-0.198,1.659-0.597
		c0.366-0.397,0.549-0.899,0.549-1.506c0-0.605-0.184-1.111-0.552-1.517s-0.92-0.608-1.656-0.608h-2.703V75.838z"/>
	<path fill="#E5E5E5" d="M130.14,74.561l-0.759-0.045c-0.391,0-0.72,0.093-0.987,0.278c-0.268,0.185-0.475,0.445-0.619,0.78v5.805
		h-1.48v-8.125h1.322l0.143,1.187c0.23-0.42,0.515-0.748,0.853-0.983s0.728-0.354,1.167-0.354c0.11,0,0.216,0.009,0.316,0.026
		c0.1,0.018,0.182,0.037,0.247,0.057L130.14,74.561z"/>
	<path fill="#E5E5E5" d="M131.183,77.242c0-1.201,0.326-2.191,0.977-2.97s1.534-1.168,2.65-1.168c1.127,0,2.017,0.389,2.67,1.164
		c0.653,0.776,0.98,1.768,0.98,2.974v0.166c0,1.211-0.326,2.202-0.977,2.974c-0.65,0.771-1.537,1.156-2.658,1.156
		s-2.009-0.387-2.662-1.16s-0.98-1.764-0.98-2.97V77.242z M132.662,77.408c0,0.86,0.182,1.571,0.544,2.132
		c0.363,0.562,0.902,0.842,1.619,0.842c0.705,0,1.241-0.28,1.607-0.842c0.365-0.561,0.547-1.271,0.547-2.132v-0.166
		c0-0.851-0.184-1.559-0.551-2.125c-0.369-0.565-0.908-0.849-1.619-0.849c-0.705,0-1.24,0.283-1.604,0.849
		c-0.362,0.566-0.544,1.274-0.544,2.125V77.408z"/>
	<path fill="#E5E5E5" d="M147.208,77.626c0,1.171-0.281,2.116-0.846,2.834c-0.562,0.719-1.338,1.078-2.324,1.078
		c-0.54,0-1.01-0.106-1.407-0.319s-0.728-0.527-0.987-0.942l-0.24,1.104h-1.135V69.666h1.48v4.55
		c0.255-0.36,0.571-0.635,0.949-0.825s0.82-0.286,1.326-0.286c1,0,1.781,0.401,2.342,1.202s0.842,1.854,0.842,3.161V77.626z
		 M145.729,77.468c0-0.931-0.172-1.69-0.515-2.279c-0.343-0.588-0.865-0.882-1.565-0.882c-0.456,0-0.84,0.111-1.153,0.334
		c-0.312,0.223-0.562,0.521-0.746,0.897v3.521c0.189,0.4,0.439,0.714,0.746,0.938c0.309,0.226,0.697,0.338,1.168,0.338
		c0.695,0,1.215-0.247,1.555-0.743c0.34-0.495,0.511-1.151,0.511-1.967V77.468z"/>
	<path fill="#E5E5E5" d="M150.609,81.38h-1.479V69.666h1.479V81.38z"/>
	<path fill="#E5E5E5" d="M156.249,81.538c-1.166,0-2.076-0.373-2.729-1.119s-0.979-1.728-0.979-2.943v-0.331
		c0-1.166,0.336-2.131,1.01-2.895c0.673-0.764,1.495-1.146,2.467-1.146c1.086,0,1.9,0.338,2.443,1.015
		c0.543,0.676,0.815,1.574,0.815,2.695v0.781h-5.196l-0.023,0.037c0,0.816,0.181,1.479,0.541,1.986
		c0.361,0.508,0.911,0.763,1.652,0.763c0.5,0,0.939-0.071,1.318-0.215c0.377-0.143,0.701-0.339,0.973-0.589l0.578,0.961
		c-0.291,0.28-0.674,0.517-1.149,0.71C157.493,81.441,156.92,81.538,156.249,81.538z M156.017,74.268
		c-0.516,0-0.943,0.199-1.281,0.598c-0.338,0.397-0.544,0.907-0.619,1.527l0.016,0.038h3.664v-0.12c0-0.591-0.145-1.079-0.436-1.465
		C157.069,74.462,156.622,74.268,156.017,74.268z"/>
	<path fill="#E5E5E5" d="M162.257,73.255l0.104,1.066c0.265-0.386,0.603-0.685,1.011-0.897c0.407-0.213,0.882-0.319,1.422-0.319
		c0.541,0,1.006,0.126,1.394,0.376s0.68,0.626,0.874,1.126c0.261-0.465,0.6-0.832,1.018-1.1s0.908-0.402,1.469-0.402
		c0.826,0,1.479,0.284,1.96,0.853c0.48,0.568,0.721,1.423,0.721,2.564v4.858h-1.479v-4.873c0-0.801-0.138-1.368-0.412-1.701
		c-0.275-0.333-0.687-0.499-1.232-0.499c-0.506,0-0.914,0.175-1.228,0.525s-0.497,0.794-0.552,1.329v0.061v5.158h-1.486v-4.873
		c0-0.761-0.143-1.318-0.425-1.671c-0.283-0.354-0.69-0.529-1.22-0.529c-0.451,0-0.822,0.093-1.111,0.277
		c-0.291,0.186-0.514,0.446-0.669,0.781v6.015h-1.479v-8.125H162.257z"/>
</g>
<circle fill="#E5E5E5" cx="190.385" cy="172.666" r="4.188"/>
<circle fill="#E5E5E5" cx="190.385" cy="204.532" r="4.188"/>
<circle fill="#E5E5E5" cx="190.385" cy="140.799" r="4.188"/>
<circle fill="#E5E5E5" cx="190.385" cy="44.933" r="4.188"/>
<circle fill="#E5E5E5" cx="190.385" cy="77.067" r="4.188"/>
<circle fill="#E5E5E5" cx="191.045" cy="108.933" r="7.33"/>
<g>
	<path fill="#E5E5E5" d="M106.02,205.844l0.015,0.046c0.021,1.026-0.34,1.885-1.081,2.575c-0.741,0.691-1.72,1.036-2.937,1.036
		c-1.236,0-2.244-0.438-3.021-1.313c-0.779-0.876-1.168-1.987-1.168-3.335v-1.944c0-1.347,0.389-2.459,1.168-3.338
		c0.777-0.879,1.785-1.318,3.021-1.318s2.221,0.33,2.951,0.988c0.731,0.658,1.087,1.53,1.066,2.616l-0.015,0.045h-1.419
		c0-0.766-0.226-1.371-0.676-1.816c-0.451-0.446-1.086-0.669-1.908-0.669c-0.826,0-1.484,0.333-1.975,0.999
		s-0.736,1.492-0.736,2.478v1.96c0,0.997,0.246,1.828,0.736,2.493c0.49,0.666,1.148,0.999,1.975,0.999
		c0.822,0,1.457-0.222,1.908-0.664c0.45-0.443,0.676-1.056,0.676-1.837H106.02z"/>
	<path fill="#E5E5E5" d="M107.409,205.206c0-1.201,0.324-2.191,0.976-2.97s1.534-1.168,2.651-1.168c1.126,0,2.016,0.388,2.669,1.164
		c0.653,0.775,0.979,1.767,0.979,2.974v0.165c0,1.212-0.325,2.203-0.976,2.974c-0.651,0.771-1.537,1.156-2.658,1.156
		c-1.122,0-2.009-0.387-2.662-1.16s-0.979-1.763-0.979-2.97V205.206z M108.888,205.371c0,0.861,0.182,1.572,0.545,2.133
		s0.902,0.841,1.618,0.841c0.706,0,1.241-0.28,1.606-0.841s0.549-1.271,0.549-2.133v-0.165c0-0.852-0.184-1.56-0.553-2.125
		c-0.367-0.566-0.907-0.849-1.617-0.849c-0.707,0-1.24,0.282-1.604,0.849c-0.363,0.565-0.545,1.273-0.545,2.125V205.371z"/>
	<path fill="#E5E5E5" d="M117.817,201.219l0.104,1.209c0.271-0.431,0.609-0.765,1.018-1.003c0.408-0.237,0.872-0.356,1.394-0.356
		c0.875,0,1.554,0.257,2.035,0.77c0.48,0.514,0.721,1.306,0.721,2.377v5.129h-1.48v-5.099c0-0.716-0.141-1.225-0.424-1.524
		c-0.283-0.301-0.715-0.451-1.295-0.451c-0.456,0-0.843,0.092-1.16,0.274c-0.318,0.183-0.57,0.439-0.755,0.77v6.03h-1.479v-8.125
		H117.817z"/>
	<path fill="#E5E5E5" d="M127.294,199.259v1.96h1.539v1.096h-1.539v4.934c0,0.381,0.078,0.648,0.236,0.804
		c0.157,0.155,0.366,0.233,0.627,0.233c0.085,0,0.18-0.012,0.285-0.034s0.193-0.046,0.263-0.071l0.202,1.014
		c-0.109,0.09-0.271,0.164-0.487,0.222s-0.429,0.086-0.638,0.086c-0.602,0-1.08-0.182-1.436-0.544
		c-0.355-0.363-0.533-0.933-0.533-1.709v-4.934h-1.291v-1.096h1.291v-1.96H127.294z"/>
	<path fill="#E5E5E5" d="M135.411,209.344c-0.051-0.245-0.09-0.462-0.117-0.649c-0.027-0.188-0.043-0.377-0.049-0.567
		c-0.275,0.391-0.635,0.717-1.077,0.98c-0.442,0.263-0.92,0.394-1.431,0.394c-0.846,0-1.49-0.216-1.934-0.649
		c-0.443-0.433-0.664-1.03-0.664-1.791c0-0.775,0.313-1.383,0.941-1.821c0.629-0.438,1.48-0.656,2.558-0.656h1.606v-0.804
		c0-0.476-0.145-0.853-0.436-1.13c-0.29-0.278-0.701-0.417-1.23-0.417c-0.481,0-0.869,0.12-1.164,0.36
		c-0.296,0.24-0.443,0.528-0.443,0.863l-1.404,0.016l-0.016-0.046c-0.035-0.59,0.242-1.131,0.83-1.621
		c0.588-0.491,1.348-0.736,2.279-0.736c0.921,0,1.662,0.234,2.223,0.702s0.841,1.143,0.841,2.023v3.912
		c0,0.291,0.015,0.571,0.046,0.842c0.029,0.27,0.084,0.535,0.164,0.796H135.411z M132.955,208.262c0.536,0,1.019-0.137,1.449-0.412
		s0.711-0.591,0.841-0.946v-1.322h-1.659c-0.596,0-1.073,0.15-1.431,0.451c-0.357,0.3-0.537,0.653-0.537,1.059
		c0,0.36,0.113,0.646,0.338,0.856C132.182,208.157,132.515,208.262,132.955,208.262z"/>
	<path fill="#E5E5E5" d="M142.102,208.345c0.456,0,0.854-0.151,1.194-0.454c0.34-0.303,0.51-0.675,0.51-1.115h1.338l0.021,0.045
		c0.021,0.701-0.28,1.323-0.9,1.866c-0.621,0.543-1.342,0.814-2.163,0.814c-1.142,0-2.022-0.388-2.644-1.164
		c-0.621-0.775-0.931-1.742-0.931-2.898v-0.315c0-1.146,0.312-2.108,0.935-2.887s1.504-1.168,2.64-1.168
		c0.906,0,1.648,0.28,2.227,0.841s0.857,1.249,0.837,2.065l-0.015,0.045h-1.345c0-0.496-0.16-0.917-0.484-1.266
		c-0.322-0.348-0.729-0.521-1.22-0.521c-0.726,0-1.255,0.281-1.589,0.845c-0.332,0.563-0.498,1.245-0.498,2.046v0.315
		c0,0.816,0.163,1.505,0.491,2.065C140.833,208.064,141.366,208.345,142.102,208.345z"/>
	<path fill="#E5E5E5" d="M148.98,199.259v1.96h1.54v1.096h-1.54v4.934c0,0.381,0.079,0.648,0.236,0.804
		c0.158,0.155,0.367,0.233,0.628,0.233c0.085,0,0.181-0.012,0.285-0.034s0.192-0.046,0.263-0.071l0.203,1.014
		c-0.11,0.09-0.273,0.164-0.488,0.222s-0.428,0.086-0.639,0.086c-0.601,0-1.078-0.182-1.434-0.544
		c-0.355-0.363-0.533-0.933-0.533-1.709v-4.934h-1.292v-1.096h1.292v-1.96H148.98z"/>
	<path fill="#E5E5E5" d="M164.193,198.41v7.262c0,1.201-0.39,2.14-1.171,2.815s-1.787,1.014-3.02,1.014
		c-1.186,0-2.157-0.339-2.913-1.018c-0.756-0.678-1.134-1.615-1.134-2.812v-7.262h1.479v7.262c0,0.836,0.24,1.49,0.718,1.963
		c0.478,0.474,1.095,0.71,1.851,0.71c0.801,0,1.453-0.236,1.957-0.71c0.503-0.473,0.754-1.127,0.754-1.963v-7.262H164.193z"/>
	<path fill="#E5E5E5" d="M171.058,207.158c0-0.325-0.125-0.591-0.373-0.796c-0.247-0.205-0.717-0.386-1.407-0.541
		c-0.956-0.205-1.69-0.492-2.204-0.863c-0.514-0.37-0.77-0.866-0.77-1.486c0-0.661,0.281-1.227,0.845-1.697s1.292-0.706,2.188-0.706
		c0.922,0,1.668,0.25,2.238,0.751s0.844,1.084,0.818,1.75l-0.016,0.045h-1.411c0-0.351-0.153-0.669-0.462-0.954
		c-0.308-0.285-0.697-0.428-1.168-0.428c-0.521,0-0.91,0.117-1.168,0.353s-0.387,0.516-0.387,0.841c0,0.321,0.111,0.568,0.335,0.744
		c0.223,0.175,0.683,0.335,1.378,0.48c0.996,0.21,1.752,0.508,2.268,0.894s0.773,0.889,0.773,1.509c0,0.722-0.291,1.31-0.875,1.765
		c-0.583,0.456-1.346,0.684-2.286,0.684c-1.036,0-1.853-0.263-2.448-0.788s-0.879-1.139-0.849-1.84l0.015-0.045h1.412
		c0.025,0.525,0.221,0.91,0.586,1.152c0.365,0.243,0.793,0.364,1.284,0.364c0.525,0,0.937-0.111,1.235-0.334
		C170.907,207.788,171.058,207.504,171.058,207.158z"/>
</g>
</svg>