<!-- Generator: Adobe Illustrator 18.1.1, SVG Export Plug-In  -->
<svg version="1.1"
	 xmlns="http://www.w3.org/2000/svg" xmlns:xlink="http://www.w3.org/1999/xlink" xmlns:a="http://ns.adobe.com/AdobeSVGViewerExtensions/3.0/"
	 x="0px" y="0px" width="500px" height="500px" viewBox="0 0 500 500" enable-background="new 0 0 500 500" xml:space="preserve">
<defs>
</defs>
<rect fill="#C0C8CB" width="500" height="500"/>
<path fill="#4F8E8B" d="M443.337,267.484c0,0,25.333-6.074,50,10.594c0,0-11.333,21.392-25,26.03c0,0,14.333,29.145,13.667,42.694
	c0,0-15.347-14.519-60.67-13.952C421.333,332.85,455.337,274.888,443.337,267.484z"/>
<path fill="#48726D" d="M453.044,335.342c-8.633-8.761-6.605-68.345-6.604-68.393c-1.981,0.268-3.104,0.534-3.104,0.534
	c12,7.404-22.004,65.366-22.004,65.366c12.883-0.161,23.338,0.898,31.713,2.495C453.046,335.344,453.045,335.343,453.044,335.342z"
	/>
<path fill="#32514E" d="M442.333,327.739c0,0-13,6.427-21,5.261l1-17h16.333L442.333,327.739z"/>
<path fill="#4F8E8B" d="M435.663,255.333c0,0,8.671,1.333,11.337,3.333l-4.667,69.073c0,0-12.523-10.739-27.795-7.739
	L435.663,255.333z"/>
<path fill="#48726D" d="M435.663,255.333L416.482,316c5.981,1.53,16.119-4.423,22.12-2.663l2.45-56.91
	C437.471,255.158,435.663,255.333,435.663,255.333z"/>
<g>
	<path fill="#4F8E8B" d="M59.33,267.484c0,0-25.333-6.074-50,10.594c0,0,11.333,21.392,25,26.03c0,0-14.333,29.145-13.667,42.694
		c0,0,15.347-14.519,60.67-13.952C81.333,332.85,47.33,274.888,59.33,267.484z"/>
	<path fill="#48726D" d="M49.622,335.342c8.633-8.761,6.605-68.345,6.604-68.393c1.981,0.268,3.104,0.534,3.104,0.534
		c-12,7.404,22.004,65.366,22.004,65.366c-12.883-0.161-23.338,0.898-31.713,2.495C49.621,335.344,49.622,335.343,49.622,335.342z"
		/>
	<path fill="#32514E" d="M60.333,327.739c0,0,13,6.427,21,5.261l-1-17H64L60.333,327.739z"/>
	<path fill="#4F8E8B" d="M67.004,255.333c0,0-8.671,1.333-11.337,3.333l4.667,69.073c0,0,12.523-10.739,27.795-7.739L67.004,255.333
		z"/>
	<path fill="#48726D" d="M67.004,255.333L86.185,316c-5.981,1.53-16.119-4.423-22.12-2.663l-2.45-56.91
		C65.196,255.158,67.004,255.333,67.004,255.333z"/>
</g>
<path fill="#FFF6DF" stroke="#3A3A3A" stroke-width="5" stroke-miterlimit="10" d="M72.857,270.667
	c10.251,89.491,86.24,159,178.477,159s168.225-69.509,178.477-159H72.857z"/>
<line fill="none" stroke="#3A3A3A" stroke-width="3" stroke-linecap="round" stroke-miterlimit="10" x1="251.333" y1="405.479" x2="251.333" y2="421.604"/>
<line fill="none" stroke="#3A3A3A" stroke-width="3" stroke-linecap="round" stroke-miterlimit="10" x1="262.179" y1="405.1" x2="263.304" y2="421.185"/>
<line fill="none" stroke="#3A3A3A" stroke-width="3" stroke-linecap="round" stroke-miterlimit="10" x1="272.972" y1="403.966" x2="275.216" y2="419.933"/>
<line fill="none" stroke="#3A3A3A" stroke-width="3" stroke-linecap="round" stroke-miterlimit="10" x1="283.659" y1="402.081" x2="287.012" y2="417.854"/>
<line fill="none" stroke="#3A3A3A" stroke-width="3" stroke-linecap="round" stroke-miterlimit="10" x1="294.189" y1="399.456" x2="298.634" y2="414.956"/>
<line fill="none" stroke="#3A3A3A" stroke-width="3" stroke-linecap="round" stroke-miterlimit="10" x1="304.51" y1="396.102" x2="310.025" y2="411.255"/>
<line fill="none" stroke="#3A3A3A" stroke-width="3" stroke-linecap="round" stroke-miterlimit="10" x1="314.572" y1="392.037" x2="321.131" y2="406.768"/>
<line fill="none" stroke="#3A3A3A" stroke-width="3" stroke-linecap="round" stroke-miterlimit="10" x1="324.326" y1="387.28" x2="331.896" y2="401.517"/>
<line fill="none" stroke="#3A3A3A" stroke-width="3" stroke-linecap="round" stroke-miterlimit="10" x1="333.725" y1="381.854" x2="342.269" y2="395.528"/>
<line fill="none" stroke="#3A3A3A" stroke-width="3" stroke-linecap="round" stroke-miterlimit="10" x1="342.722" y1="375.785" x2="352.199" y2="388.83"/>
<line fill="none" stroke="#3A3A3A" stroke-width="3" stroke-linecap="round" stroke-miterlimit="10" x1="351.273" y1="369.104" x2="361.638" y2="381.456"/>
<line fill="none" stroke="#3A3A3A" stroke-width="3" stroke-linecap="round" stroke-miterlimit="10" x1="359.338" y1="361.842" x2="370.539" y2="373.441"/>
<line fill="none" stroke="#3A3A3A" stroke-width="3" stroke-linecap="round" stroke-miterlimit="10" x1="366.877" y1="354.036" x2="378.86" y2="364.825"/>
<line fill="none" stroke="#3A3A3A" stroke-width="3" stroke-linecap="round" stroke-miterlimit="10" x1="373.852" y1="345.722" x2="386.559" y2="355.65"/>
<line fill="none" stroke="#3A3A3A" stroke-width="3" stroke-linecap="round" stroke-miterlimit="10" x1="380.231" y1="336.943" x2="393.599" y2="345.959"/>
<line fill="none" stroke="#3A3A3A" stroke-width="3" stroke-linecap="round" stroke-miterlimit="10" x1="385.982" y1="327.739" x2="399.946" y2="335.802"/>
<line fill="none" stroke="#3A3A3A" stroke-width="3" stroke-linecap="round" stroke-miterlimit="10" x1="391.077" y1="318.157" x2="405.57" y2="325.226"/>
<line fill="none" stroke="#3A3A3A" stroke-width="3" stroke-linecap="round" stroke-miterlimit="10" x1="395.491" y1="308.243" x2="410.441" y2="314.284"/>
<line fill="none" stroke="#3A3A3A" stroke-width="3" stroke-linecap="round" stroke-miterlimit="10" x1="399.203" y1="298.046" x2="414.538" y2="303.028"/>
<line fill="none" stroke="#3A3A3A" stroke-width="3" stroke-linecap="round" stroke-miterlimit="10" x1="402.194" y1="287.614" x2="417.84" y2="291.515"/>
<line fill="none" stroke="#3A3A3A" stroke-width="3" stroke-linecap="round" stroke-miterlimit="10" x1="404.45" y1="276.999" x2="420.33" y2="279.799"/>
<line fill="none" stroke="#3A3A3A" stroke-width="3" stroke-linecap="round" stroke-miterlimit="10" x1="82.337" y1="279.799" x2="98.217" y2="276.999"/>
<line fill="none" stroke="#3A3A3A" stroke-width="3" stroke-linecap="round" stroke-miterlimit="10" x1="84.827" y1="291.515" x2="100.473" y2="287.614"/>
<line fill="none" stroke="#3A3A3A" stroke-width="3" stroke-linecap="round" stroke-miterlimit="10" x1="88.129" y1="303.028" x2="103.464" y2="298.046"/>
<line fill="none" stroke="#3A3A3A" stroke-width="3" stroke-linecap="round" stroke-miterlimit="10" x1="92.225" y1="314.284" x2="107.176" y2="308.243"/>
<line fill="none" stroke="#3A3A3A" stroke-width="3" stroke-linecap="round" stroke-miterlimit="10" x1="97.097" y1="325.226" x2="111.59" y2="318.157"/>
<line fill="none" stroke="#3A3A3A" stroke-width="3" stroke-linecap="round" stroke-miterlimit="10" x1="102.72" y1="335.802" x2="116.685" y2="327.739"/>
<line fill="none" stroke="#3A3A3A" stroke-width="3" stroke-linecap="round" stroke-miterlimit="10" x1="109.068" y1="345.959" x2="122.436" y2="336.943"/>
<line fill="none" stroke="#3A3A3A" stroke-width="3" stroke-linecap="round" stroke-miterlimit="10" x1="116.108" y1="355.65" x2="128.814" y2="345.722"/>
<line fill="none" stroke="#3A3A3A" stroke-width="3" stroke-linecap="round" stroke-miterlimit="10" x1="123.807" y1="364.825" x2="135.79" y2="354.036"/>
<line fill="none" stroke="#3A3A3A" stroke-width="3" stroke-linecap="round" stroke-miterlimit="10" x1="132.128" y1="373.441" x2="143.329" y2="361.842"/>
<line fill="none" stroke="#3A3A3A" stroke-width="3" stroke-linecap="round" stroke-miterlimit="10" x1="141.029" y1="381.456" x2="151.393" y2="369.104"/>
<line fill="none" stroke="#3A3A3A" stroke-width="3" stroke-linecap="round" stroke-miterlimit="10" x1="150.467" y1="388.83" x2="159.945" y2="375.785"/>
<line fill="none" stroke="#3A3A3A" stroke-width="3" stroke-linecap="round" stroke-miterlimit="10" x1="160.397" y1="395.528" x2="168.942" y2="381.854"/>
<line fill="none" stroke="#3A3A3A" stroke-width="3" stroke-linecap="round" stroke-miterlimit="10" x1="170.77" y1="401.517" x2="178.34" y2="387.28"/>
<line fill="none" stroke="#3A3A3A" stroke-width="3" stroke-linecap="round" stroke-miterlimit="10" x1="181.536" y1="406.768" x2="188.094" y2="392.037"/>
<line fill="none" stroke="#3A3A3A" stroke-width="3" stroke-linecap="round" stroke-miterlimit="10" x1="192.641" y1="411.255" x2="198.156" y2="396.102"/>
<line fill="none" stroke="#3A3A3A" stroke-width="3" stroke-linecap="round" stroke-miterlimit="10" x1="204.033" y1="414.956" x2="208.478" y2="399.456"/>
<line fill="none" stroke="#3A3A3A" stroke-width="3" stroke-linecap="round" stroke-miterlimit="10" x1="215.655" y1="417.854" x2="219.007" y2="402.081"/>
<line fill="none" stroke="#3A3A3A" stroke-width="3" stroke-linecap="round" stroke-miterlimit="10" x1="227.451" y1="419.933" x2="229.695" y2="403.966"/>
<line fill="none" stroke="#3A3A3A" stroke-width="3" stroke-linecap="round" stroke-miterlimit="10" x1="239.363" y1="421.185" x2="240.488" y2="405.1"/>
<path fill="#3A3A3A" stroke="#3A3A3A" stroke-width="5" stroke-miterlimit="10" d="M106.228,281.987
	c14.632,66.676,74.036,116.582,145.105,116.582s130.473-49.906,145.105-116.582H106.228z"/>
<g>
	<circle fill="#FFF6DF" cx="251.333" cy="250" r="99.44"/>
</g>
<g>
	<path fill="#FFF6DF" d="M251.333,344.167c-51.924,0-94.167-42.243-94.167-94.167s42.243-94.167,94.167-94.167
		S345.5,198.076,345.5,250S303.257,344.167,251.333,344.167z"/>
	<path fill="#3A3A3A" d="M251.333,158.333C301.879,158.333,343,199.455,343,250s-41.121,91.667-91.667,91.667
		S159.667,300.545,159.667,250S200.788,158.333,251.333,158.333 M251.333,153.333c-53.387,0-96.667,43.279-96.667,96.667
		s43.279,96.667,96.667,96.667S348,303.388,348,250S304.721,153.333,251.333,153.333L251.333,153.333z"/>
</g>
<polygon fill="#3A3A3A" points="81.667,250 127.667,157 136.333,163 155.672,139.667 183.667,152.333 225.667,99 247,113 
	261.667,106.333 323,174.5 332.333,164.333 341,168.333 365.667,148.333 384.333,204.333 425.667,250 "/>
<path fill="#4F8E8B" d="M60.333,247.48l9.107,63.567c0,0,171.825-53.047,363.914-0.891l0.078-0.542l2.162-15.09l6.739-47.043
	C219.008,189,60.333,247.48,60.333,247.48z"/>
<polygon fill="#FFF6DF" points="125.697,168.908 117.055,188.226 129.256,194.157 139.931,186.023 136.203,177.72 128.493,185.853 
	"/>
<polygon fill="#FFF6DF" points="157.216,151.624 158.571,173.653 166.197,170.094 185.514,207.035 213.813,209.238 219.066,200.935 
	222.964,200.935 189.412,156.707 182.125,166.197 "/>
<polygon fill="#FFF6DF" points="225.336,111.463 198.224,146.032 204.324,146.032 205.849,150.099 211.78,148.573 212.627,155.352 
	219.236,152.471 220.761,170.941 239.231,152.81 284.306,185.345 253.667,129.764 237.029,134.678 "/>
<polygon fill="#FFF6DF" points="261.599,126.036 289.898,152.979 298.71,182.973 322.942,192.97 293.796,148.404 260.413,119.258 
	"/>
<polygon fill="#FFF6DF" points="365.475,156.114 382.759,209.916 401.569,229.911 370.389,221.1 343.107,191.954 339.887,178.567 
	357.002,178.567 "/>
<g>
	<path fill="none" d="M75.671,306.221L75.671,306.221L75.671,306.221c0.007-0.003,0.014-0.006,0.02-0.009
		C75.684,306.215,75.678,306.218,75.671,306.221c34.256-7.398,156.629-50.308,362.519,0.022l1.473,1.545"/>
	<path fill="#FFF6DF" d="M88.016,245.034l26.661-5.39l1.586,7.841l-9.018,1.823l9.512,47.048l-8.625,1.744l-9.513-47.049
		l-9.018,1.823L88.016,245.034z"/>
	<path fill="#FFF6DF" d="M145.396,290.63l-8.688,1.4l-8.908-55.286l8.688-1.399l3.818,23.693l9.872-1.591l-3.817-23.693l8.846-1.426
		l8.908,55.286l-8.846,1.425l-3.818-23.693l-9.872,1.591L145.396,290.63z"/>
	<path fill="#FFF6DF" d="M183.244,252.906l12.027-1.136l0.752,7.965l-12.027,1.136l1.542,16.328l15.134-1.429l0.752,7.965
		l-23.895,2.257l-5.267-55.755l23.896-2.257l0.752,7.965l-15.133,1.43L183.244,252.906z"/>
	<path fill="#FFF6DF" d="M209.441,227.101l27.18-0.991l0.291,7.994l-9.192,0.335l1.748,47.964l-8.793,0.32l-1.749-47.964
		l-9.193,0.335L209.441,227.101z"/>
	<path fill="#FFF6DF" d="M275.25,282.46l-8.879-0.141l-1.358-10.183l-10.799-0.171l-1.681,10.134l-8.078-0.128l9.845-55.848
		l12.878,0.204L275.25,282.46z M255.454,264.385l8.479,0.134l-3.791-28.381L255.454,264.385z"/>
	<path fill="#FFF6DF" d="M333.998,266.109l-0.725,7.405c-0.871,8.917-5.828,13.577-14.427,12.736
		c-8.6-0.84-12.56-6.372-11.688-15.289l2.833-28.982c0.871-8.917,5.828-13.577,14.427-12.736c8.6,0.84,12.561,6.372,11.688,15.289
		l-0.529,5.414l-8.28-0.809l0.584-5.972c0.389-3.981-1.215-5.665-4.002-5.938c-2.786-0.272-4.686,1.069-5.075,5.05l-2.941,30.096
		c-0.39,3.981,1.223,5.586,4.009,5.857c2.787,0.272,4.679-0.989,5.067-4.971l0.778-7.962L333.998,266.109z"/>
	<path fill="#FFF6DF" d="M353.247,289.728l-8.705-1.294l8.235-55.392l8.705,1.294l-3.53,23.74l9.892,1.47l3.529-23.739l8.863,1.317
		l-8.235,55.392l-8.862-1.317l3.529-23.739l-9.892-1.471L353.247,289.728z"/>
	<path fill="#FFF6DF" d="M395.989,239.96l8.649,1.623l-10.329,55.04L385.661,295L395.989,239.96z"/>
</g>
<g>
	<path fill="#3A3A3A" d="M210.741,304.028h-8.124c-0.028,0-0.028-0.168,0-0.168h1.232c0.057,0,0.084-0.014,0.084-0.056v-9.483
		c0-0.042-0.027-0.057-0.084-0.057h-1.232c-0.028,0-0.028-0.168,0-0.168h7.382c0.057,0,0.057,0.028,0.057,0.042v2.97
		c0,0.028-0.169,0.028-0.169,0c0-1.303-0.84-2.844-2.577-2.844h-1.345c-0.069,0-0.098,0.015-0.098,0.057v4.524h0.322
		c1.12,0,1.835-0.925,1.835-1.892c0-0.027,0.14-0.027,0.14,0v3.95c0,0.028-0.14,0.028-0.14,0c0-0.952-0.715-1.891-1.835-1.891
		h-0.322v4.791c0,0.042,0.028,0.056,0.098,0.056h1.387c2.283,0,3.278-1.681,3.278-3.124c0-0.027,0.153-0.027,0.153,0v3.25
		C210.783,304.015,210.769,304.028,210.741,304.028z"/>
	<path fill="#3A3A3A" d="M215.176,304.267c-0.98,0-1.765-0.574-2.353-0.574c-0.406,0-0.729,0.28-0.757,0.532
		c-0.028,0.042-0.168,0.042-0.168,0v-3.404c0-0.042,0.168-0.042,0.168,0c0,1.121,1.289,3.292,3.096,3.292
		c1.611,0,2.339-0.896,2.339-1.807c0-1.359-0.826-1.682-2.969-2.466c-1.303-0.476-2.34-1.177-2.34-2.844
		c0-1.807,1.289-3.138,2.689-3.138c0.771,0,1.121,0.379,1.821,0.379c0.406,0,0.546-0.183,0.574-0.337c0-0.042,0.154-0.042,0.154,0
		v2.647c0,0.028-0.154,0.028-0.154,0c0-1.33-1.121-2.521-2.382-2.521c-1.106,0-1.793,0.714-1.793,1.666
		c0,1.009,0.743,1.569,2.494,2.199c1.793,0.673,2.913,1.303,2.913,3.012C218.51,302.445,217.362,304.267,215.176,304.267z"/>
	<path fill="#3A3A3A" d="M227.667,297.529c0-1.625-0.98-3.265-2.998-3.265h-0.153c-0.057,0-0.085,0.015-0.085,0.057v9.483
		c0,0.042,0.028,0.056,0.085,0.056h1.232c0.027,0,0.027,0.168,0,0.168h-4.566c-0.028,0-0.028-0.168,0-0.168h1.219
		c0.056,0,0.084-0.014,0.084-0.056v-9.483c0-0.042-0.028-0.057-0.084-0.057h-0.141c-2.017,0-2.941,1.64-2.941,3.265
		c0,0.027-0.168,0.027-0.168,0v-3.391c0-0.014,0.014-0.042,0.042-0.042h8.601c0.028,0,0.028,0.028,0.028,0.042v3.391
		C227.822,297.557,227.667,297.557,227.667,297.529z"/>
	<path fill="#3A3A3A" d="M232.481,304.028c-0.042,0-0.042-0.168,0-0.168h1.261c0.042,0,0.07-0.028,0.057-0.042l-1.064-3.124h-2.998
		l-0.938,2.577c-0.168,0.505-0.183,0.589-0.112,0.589h1.219c0.042,0,0.042,0.168,0,0.168h-2.676c-0.027,0-0.027-0.168,0-0.168h1.065
		c0.126,0,0.153-0.042,0.35-0.589l3.348-9.371c0.015-0.042,0.154-0.042,0.168,0l3.727,9.918c0.014,0.014,0.056,0.042,0.112,0.042
		h1.19c0.028,0,0.028,0.168,0,0.168H232.481z M231.262,296.38l-1.471,4.146h2.872L231.262,296.38z"/>
	<path fill="#3A3A3A" d="M241.958,304.028h-4.679c-0.042,0-0.042-0.168,0-0.168h1.219c0.057,0,0.084-0.014,0.084-0.056v-9.483
		c0-0.042-0.027-0.057-0.084-0.057h-1.219c-0.042,0-0.042-0.168,0-0.168h4.007c1.793,0,3.235,0.743,3.235,2.298
		c0,1.345-1.232,2.339-2.507,2.339c1.82,0,3.207,0.994,3.207,2.661C245.222,302.726,244.144,304.028,241.958,304.028z
		 M241.062,294.265h-0.448c-0.056,0-0.084,0.015-0.084,0.057v4.328h0.995c1.008,0,1.274-0.477,1.274-2.199
		C242.799,294.797,242.421,294.265,241.062,294.265z M241.384,298.804h-0.854v5.001c0,0.042,0.028,0.056,0.084,0.056h0.967
		c1.303,0,1.709-0.547,1.709-2.382C243.29,299.237,242.786,298.804,241.384,298.804z"/>
	<path fill="#3A3A3A" d="M254.127,304.028h-7.761c-0.027,0-0.027-0.168,0-0.168h1.233c0.042,0,0.069-0.014,0.069-0.056v-9.483
		c0-0.042-0.027-0.057-0.069-0.057h-1.233c-0.027,0-0.027-0.168,0-0.168h4.566c0.028,0,0.028,0.168,0,0.168H249.7
		c-0.042,0-0.07,0.015-0.07,0.057v9.483c0,0.042,0.028,0.056,0.07,0.056h1.219c2.102,0,3.096-1.821,3.096-3.25
		c0-0.028,0.154-0.028,0.154,0v3.376C254.169,304.015,254.155,304.028,254.127,304.028z"/>
	<path fill="#3A3A3A" d="M254.977,304.028c-0.027,0-0.027-0.168,0-0.168h1.233c0.042,0,0.069-0.014,0.069-0.056v-9.483
		c0-0.042-0.027-0.057-0.069-0.057h-1.233c-0.027,0-0.027-0.168,0-0.168h4.566c0.028,0,0.028,0.168,0,0.168h-1.232
		c-0.056,0-0.084,0.015-0.084,0.057v9.483c0,0.042,0.028,0.056,0.084,0.056h1.232c0.028,0,0.028,0.168,0,0.168H254.977z"/>
	<path fill="#3A3A3A" d="M264.12,304.267c-0.98,0-1.765-0.574-2.353-0.574c-0.406,0-0.729,0.28-0.757,0.532
		c-0.028,0.042-0.168,0.042-0.168,0v-3.404c0-0.042,0.168-0.042,0.168,0c0,1.121,1.289,3.292,3.096,3.292
		c1.611,0,2.339-0.896,2.339-1.807c0-1.359-0.826-1.682-2.969-2.466c-1.303-0.476-2.34-1.177-2.34-2.844
		c0-1.807,1.289-3.138,2.689-3.138c0.771,0,1.121,0.379,1.821,0.379c0.406,0,0.546-0.183,0.574-0.337c0-0.042,0.154-0.042,0.154,0
		v2.647c0,0.028-0.154,0.028-0.154,0c0-1.33-1.121-2.521-2.382-2.521c-1.106,0-1.793,0.714-1.793,1.666
		c0,1.009,0.743,1.569,2.494,2.199c1.793,0.673,2.913,1.303,2.913,3.012C267.454,302.445,266.306,304.267,264.12,304.267z"/>
	<path fill="#3A3A3A" d="M273.697,304.028c-0.027,0-0.027-0.168,0-0.168h1.093c0.042,0,0.07-0.014,0.07-0.056v-4.861h-3.25v4.861
		c0,0.042,0.028,0.056,0.084,0.056h1.093c0.028,0,0.028,0.168,0,0.168h-4.427c-0.027,0-0.027-0.168,0-0.168h1.219
		c0.057,0,0.084-0.014,0.084-0.056v-9.483c0-0.042-0.027-0.057-0.084-0.057h-1.219c-0.027,0-0.027-0.168,0-0.168h4.427
		c0.028,0,0.028,0.168,0,0.168h-1.093c-0.056,0-0.084,0.015-0.084,0.057v4.454h3.25v-4.454c0-0.042-0.028-0.057-0.07-0.057h-1.093
		c-0.027,0-0.027-0.168,0-0.168h4.44c0.028,0,0.028,0.168,0,0.168h-1.232c-0.056,0-0.084,0.015-0.084,0.057v9.483
		c0,0.042,0.028,0.056,0.084,0.056h1.232c0.028,0,0.028,0.168,0,0.168H273.697z"/>
	<path fill="#3A3A3A" d="M287.32,304.028h-8.124c-0.028,0-0.028-0.168,0-0.168h1.232c0.057,0,0.084-0.014,0.084-0.056v-9.483
		c0-0.042-0.027-0.057-0.084-0.057h-1.232c-0.028,0-0.028-0.168,0-0.168h7.382c0.057,0,0.057,0.028,0.057,0.042v2.97
		c0,0.028-0.169,0.028-0.169,0c0-1.303-0.84-2.844-2.577-2.844h-1.345c-0.07,0-0.098,0.015-0.098,0.057v4.524h0.322
		c1.12,0,1.835-0.925,1.835-1.892c0-0.027,0.14-0.027,0.14,0v3.95c0,0.028-0.14,0.028-0.14,0c0-0.952-0.715-1.891-1.835-1.891
		h-0.322v4.791c0,0.042,0.027,0.056,0.098,0.056h1.387c2.283,0,3.278-1.681,3.278-3.124c0-0.027,0.153-0.027,0.153,0v3.25
		C287.362,304.015,287.349,304.028,287.32,304.028z"/>
	<path fill="#3A3A3A" d="M292.709,304.028h-4.455c-0.027,0-0.027-0.168,0-0.168h1.219c0.057,0,0.084-0.014,0.084-0.056v-9.483
		c0-0.042-0.027-0.057-0.084-0.057h-1.219c-0.027,0-0.027-0.168,0-0.168h4.455c2.493,0,4.51,2.228,4.51,4.973
		C297.219,301.801,295.202,304.028,292.709,304.028z M294.193,294.77c-0.392-0.379-0.868-0.505-1.484-0.505h-1.121
		c-0.056,0-0.084,0.015-0.084,0.057v9.497c0,0.028,0.028,0.042,0.084,0.042h1.121c0.616,0,1.093-0.112,1.484-0.505
		c0.645-0.644,0.883-1.639,0.883-4.286C295.076,296.759,294.838,295.414,294.193,294.77z"/>
</g>
<g>
	<path fill="#3A3A3A" d="M217.734,324.571c-0.04,0-0.04-0.16,0-0.16h1.76c0.08,0,0.12-0.02,0.12-0.08v-13.482l-4.48,13.982
		c-0.021,0.061-0.16,0.061-0.181,0l-5.141-14.022v13.522c0,0.061,0.02,0.08,0.12,0.08h1.76c0.04,0,0.04,0.16,0,0.16h-3.94
		c-0.04,0-0.04-0.16,0-0.16h1.761c0.08,0,0.119-0.02,0.119-0.08v-13.703c0-0.06-0.039-0.08-0.119-0.08h-1.761
		c-0.04,0-0.04-0.159,0-0.159h4.301c0.12,0,0.22,0.119,0.3,0.359l3.801,10.242l3.301-10.242c0.061-0.22,0.181-0.359,0.261-0.359
		h4.28c0.04,0,0.04,0.159,0,0.159h-1.76c-0.08,0-0.12,0.021-0.12,0.08v13.703c0,0.061,0.04,0.08,0.12,0.08h1.76
		c0.04,0,0.04,0.16,0,0.16H217.734z"/>
	<path fill="#3A3A3A" d="M236.734,324.871c-0.04-0.24-0.34-0.6-0.9-0.6c-0.939,0-2.36,0.64-3.48,0.64
		c-3.801,0-6.642-3.461-6.642-7.421c0-3.981,2.741-7.442,6.542-7.442c0.979,0,2.18,0.54,3.101,0.54c0.58,0,0.96-0.26,1-0.479
		c0-0.04,0.16-0.04,0.16,0v4.4c0,0.04-0.16,0.04-0.16,0c0-1.98-2.12-4.301-4.101-4.301c-0.9,0-1.741,0.181-2.361,0.761
		c-1.02,0.979-1.5,3.021-1.5,6.521c0,3.48,0.48,5.541,1.5,6.501c0.62,0.58,1.561,0.78,2.461,0.78c2.461,0,4.381-2.261,4.381-4.881
		c0-0.04,0.141-0.04,0.141,0v4.98C236.875,324.892,236.754,324.892,236.734,324.871z"/>
	<path fill="#3A3A3A" d="M248.553,324.571c-0.04,0-0.04-0.16,0-0.16h1.76c0.08,0,0.12-0.02,0.12-0.08v-13.482l-4.48,13.982
		c-0.021,0.061-0.16,0.061-0.181,0l-5.141-14.022v13.522c0,0.061,0.02,0.08,0.12,0.08h1.76c0.04,0,0.04,0.16,0,0.16h-3.94
		c-0.04,0-0.04-0.16,0-0.16h1.761c0.08,0,0.119-0.02,0.119-0.08v-13.703c0-0.06-0.039-0.08-0.119-0.08h-1.761
		c-0.04,0-0.04-0.159,0-0.159h4.301c0.12,0,0.22,0.119,0.3,0.359l3.801,10.242l3.301-10.242c0.061-0.22,0.181-0.359,0.261-0.359
		h4.28c0.04,0,0.04,0.159,0,0.159h-1.76c-0.08,0-0.12,0.021-0.12,0.08v13.703c0,0.061,0.04,0.08,0.12,0.08h1.76
		c0.04,0,0.04,0.16,0,0.16H248.553z"/>
	<path fill="#3A3A3A" d="M263.271,324.571c-0.04,0-0.04-0.16,0-0.16h2.001c0.08,0,0.08-0.04,0.06-0.08l-3.341-5.981l-3.181,5.222
		c-0.46,0.78-0.479,0.84-0.3,0.84h1.721c0.04,0,0.04,0.16,0,0.16h-4.021c-0.039,0-0.039-0.16,0-0.16h1.741
		c0.04,0,0.22-0.08,0.68-0.84l3.261-5.401l-4.281-7.542c-0.02-0.04-0.1-0.08-0.16-0.08h-1.88c-0.04,0-0.04-0.159,0-0.159h6.821
		c0.04,0,0.04,0.159,0,0.159h-1.98c-0.08,0-0.1,0.04-0.08,0.08l2.961,5.302l2.761-4.541c0.46-0.78,0.479-0.841,0.26-0.841h-1.7
		c-0.04,0-0.04-0.159,0-0.159h4.021c0.04,0,0.04,0.159,0,0.159h-1.74c-0.06,0-0.2,0.08-0.68,0.841l-2.821,4.701l4.661,8.241
		c0.021,0.04,0.101,0.08,0.181,0.08h1.86c0.04,0,0.04,0.16,0,0.16H263.271z"/>
	<path fill="#3A3A3A" d="M270.23,324.571c-0.04,0-0.04-0.16,0-0.16h1.761c0.08,0,0.12-0.02,0.12-0.08v-13.703
		c0-0.06-0.04-0.08-0.12-0.08h-1.761c-0.04,0-0.04-0.159,0-0.159h6.262c0.04,0,0.04,0.159,0,0.159h-1.78
		c-0.08,0-0.12,0.021-0.12,0.08v13.703c0,0.061,0.04,0.08,0.12,0.08h1.78c0.04,0,0.04,0.16,0,0.16H270.23z"/>
	<path fill="#3A3A3A" d="M278.07,324.571c-0.04,0-0.04-0.16,0-0.16h1.761c0.08,0,0.12-0.02,0.12-0.08v-13.703
		c0-0.06-0.04-0.08-0.12-0.08h-1.761c-0.04,0-0.04-0.159,0-0.159h6.262c0.04,0,0.04,0.159,0,0.159h-1.78
		c-0.08,0-0.12,0.021-0.12,0.08v13.703c0,0.061,0.04,0.08,0.12,0.08h1.78c0.04,0,0.04,0.16,0,0.16H278.07z"/>
	<path fill="#3A3A3A" d="M285.91,324.571c-0.04,0-0.04-0.16,0-0.16h1.761c0.08,0,0.12-0.02,0.12-0.08v-13.703
		c0-0.06-0.04-0.08-0.12-0.08h-1.761c-0.04,0-0.04-0.159,0-0.159h6.262c0.04,0,0.04,0.159,0,0.159h-1.78
		c-0.08,0-0.12,0.021-0.12,0.08v13.703c0,0.061,0.04,0.08,0.12,0.08h1.78c0.04,0,0.04,0.16,0,0.16H285.91z"/>
</g>
<polygon fill="#3A3A3A" points="302.029,296.453 300.503,299.096 300.503,299.096 302.029,301.74 303.555,299.096 "/>
<polygon fill="#3A3A3A" points="197.898,296.453 196.372,299.096 196.372,299.096 197.898,301.74 199.424,299.096 "/>
<g>
	<path fill="none" d="M121.807,285.79c0,0,31.509,94.845,128.193,94.845S378.86,285.79,378.86,285.79"/>
	<path fill="#FFF6DF" d="M149.447,312.316c-0.029-0.046-0.063-0.066-0.108-0.038l-7.318,4.621c-2.091,1.32-4.138,1.065-5.736-1.465
		c-1.425-2.258-1.439-4.495,0.818-5.921l7.5-4.735c0.045-0.028,0.042-0.068,0.003-0.129l-0.842-1.334
		c-0.019-0.03,0.163-0.145,0.182-0.114l3.129,4.954c0.019,0.03-0.163,0.146-0.182,0.115l-0.842-1.333
		c-0.048-0.076-0.082-0.097-0.127-0.068l-7.5,4.736c-1.833,1.157-2.658,2.335-1.586,4.032c1.339,2.121,3.196,2.241,5.06,1.064
		l7.318-4.62c0.045-0.029,0.042-0.069,0.003-0.13l-0.861-1.363c-0.019-0.03,0.163-0.146,0.182-0.115l1.933,3.061
		c0.02,0.03-0.163,0.146-0.182,0.115L149.447,312.316z"/>
	<path fill="#FFF6DF" d="M152.337,322.67c-0.03-0.041-0.055-0.054-0.085-0.031l-7.121,5.268c-0.03,0.022-0.115-0.07-0.097-0.131
		l3.65-9.832l-6.768,5.007c-0.03,0.022-0.033,0.04-0.003,0.08l0.656,0.888c0.015,0.02-0.106,0.109-0.121,0.089L140.964,322
		c-0.022-0.03,0.099-0.12,0.121-0.09l0.649,0.878c0.037,0.051,0.055,0.053,0.085,0.03l6.828-5.051
		c0.03-0.022,0.033-0.04-0.004-0.091l-0.649-0.877c-0.022-0.03,0.099-0.12,0.121-0.09l1.813,2.451
		c0.052,0.07,0.057,0.161-0.017,0.355l-2.449,6.479l4.7-3.478c0.03-0.022,0.025-0.05-0.004-0.09l-0.657-0.888
		c-0.015-0.021,0.106-0.109,0.121-0.09l1.485,2.007c0.015,0.021-0.106,0.11-0.121,0.09L152.337,322.67z"/>
	<path fill="#FFF6DF" d="M147.084,330.109c-0.016-0.02,0.101-0.115,0.117-0.096l0.701,0.854c0.024,0.029,0.05,0.041,0.079,0.017
		l6.57-5.393c0.029-0.023,0.023-0.051-0.001-0.08l-0.701-0.854c-0.016-0.02,0.101-0.115,0.117-0.096l2.596,3.163
		c0.016,0.02-0.1,0.115-0.116,0.096l-0.701-0.854c-0.032-0.039-0.057-0.051-0.086-0.026l-6.57,5.393
		c-0.029,0.023-0.023,0.051,0.009,0.09l0.701,0.854c0.016,0.02-0.101,0.115-0.117,0.096L147.084,330.109z"/>
	<path fill="#FFF6DF" d="M162.433,334.443c-0.059-0.064-0.122-0.059-0.592,0.132l-8.157,3.521c-0.036,0.016-0.129-0.086-0.109-0.121
		l4.003-8.794c0.02-0.035,0.012-0.062-0.03-0.108l-0.768-0.845c-0.017-0.019,0.095-0.119,0.111-0.101l2.996,3.293
		c0.017,0.019-0.094,0.12-0.111,0.102l-0.86-0.946c-0.034-0.037-0.052-0.038-0.071-0.003l-3.031,6.452l5.936-2.551
		c0.472-0.209,0.491-0.243,0.44-0.299l-0.76-0.835c-0.017-0.019,0.095-0.12,0.111-0.102l1.713,1.884
		c0.017,0.019-0.095,0.119-0.111,0.101L162.433,334.443z"/>
	<path fill="#FFF6DF" d="M162.724,346.965l-5.23-5.062c-0.018-0.018,0.086-0.126,0.104-0.108l0.794,0.768
		c0.036,0.035,0.062,0.044,0.089,0.017l5.909-6.105c0.026-0.026,0.017-0.053-0.019-0.088l-0.793-0.769
		c-0.018-0.018,0.086-0.125,0.104-0.108l4.752,4.601c0.036,0.034,0.019,0.053,0.01,0.062l-1.85,1.912
		c-0.018,0.018-0.125-0.087-0.108-0.105c0.812-0.838,1.231-2.354,0.113-3.437l-0.866-0.838c-0.045-0.043-0.072-0.052-0.098-0.024
		l-2.819,2.912l0.208,0.201c0.722,0.698,1.757,0.548,2.36-0.074c0.017-0.018,0.107,0.069,0.09,0.088l-2.461,2.543
		c-0.018,0.018-0.108-0.069-0.09-0.088c0.593-0.613,0.718-1.662-0.003-2.36l-0.208-0.201l-2.985,3.084
		c-0.026,0.027-0.017,0.054,0.028,0.098l0.893,0.864c1.47,1.423,3.157,0.96,4.057,0.031c0.017-0.019,0.116,0.078,0.099,0.096
		l-2.025,2.092C162.759,346.982,162.742,346.982,162.724,346.965z"/>
	<path fill="#FFF6DF" d="M169.898,353.391c-0.786-0.663-1.265-1.903-0.108-3.273l0.525-0.623c0.712-0.844,0.461-1.597-0.401-2.324
		l-0.565-0.478l-2.807,3.325c-0.024,0.029-0.013,0.055,0.025,0.087l0.795,0.671c0.009,0.009-0.087,0.124-0.097,0.115l-3.076-2.596
		c-0.019-0.017,0.078-0.131,0.097-0.115l0.843,0.712c0.029,0.024,0.056,0.031,0.081,0.002l5.475-6.487
		c0.024-0.028,0.013-0.055-0.016-0.079l-0.843-0.711c-0.019-0.017,0.078-0.132,0.097-0.115l2.961,2.499
		c1.418,1.196,1.676,2.661,0.883,3.6c-0.752,0.892-2.138,0.92-3.221,0.006c1.552,1.311,1.404,2.711,0.587,3.679l-0.728,0.862
		c-0.413,0.489-0.441,0.989-0.087,1.289c0.25,0.21,0.502,0.26,0.749,0.221c0.027,0.007,0.021,0.15-0.006,0.144
		C170.701,353.839,170.31,353.738,169.898,353.391z M172.558,343.921l-0.451-0.38c-0.038-0.033-0.065-0.039-0.09-0.011l-2.572,3.048
		l0.565,0.477c0.93,0.784,1.356,0.668,2.383-0.549C173.405,345.309,173.449,344.673,172.558,343.921z"/>
	<path fill="#FFF6DF" d="M174.099,356.535c-0.707-0.521-0.968-1.351-1.393-1.663c-0.292-0.215-0.674-0.184-0.828-0.017
		c-0.042,0.015-0.144-0.06-0.121-0.09l1.806-2.454c0.022-0.03,0.144,0.059,0.121,0.089c-0.594,0.809-0.817,3.058,0.486,4.017
		c1.162,0.854,2.162,0.594,2.646-0.062c0.721-0.979,0.295-1.65-0.834-3.354c-0.687-1.034-1.062-2.089-0.178-3.291
		c0.958-1.304,2.594-1.579,3.604-0.836c0.556,0.408,0.607,0.867,1.113,1.238c0.292,0.216,0.49,0.159,0.592,0.062
		c0.022-0.03,0.133,0.052,0.111,0.082l-1.405,1.909c-0.015,0.02-0.126-0.062-0.111-0.082c0.706-0.96,0.529-2.413-0.38-3.082
		c-0.798-0.587-1.672-0.436-2.177,0.251c-0.535,0.728-0.297,1.525,0.631,2.909c0.937,1.436,1.41,2.485,0.503,3.717
		C177.469,356.99,175.675,357.694,174.099,356.535z"/>
	<path fill="#FFF6DF" d="M178.18,359.171c-0.021-0.014,0.062-0.14,0.083-0.126l0.924,0.604c0.032,0.021,0.06,0.023,0.08-0.008
		l4.648-7.107c0.021-0.031,0.007-0.056-0.025-0.076l-0.924-0.604c-0.021-0.014,0.062-0.14,0.083-0.126l3.422,2.239
		c0.021,0.014-0.062,0.14-0.083,0.126l-0.924-0.604c-0.042-0.027-0.07-0.031-0.09,0.001l-4.648,7.106
		c-0.021,0.032-0.007,0.057,0.035,0.084l0.924,0.604c0.021,0.014-0.062,0.14-0.082,0.126L178.18,359.171z"/>
	<path fill="#FFF6DF" d="M192.657,361.133c0.721-1.266,0.684-2.977-0.888-3.871l-0.12-0.068c-0.044-0.024-0.072-0.026-0.09,0.007
		l-4.205,7.386c-0.019,0.032-0.003,0.056,0.041,0.081l0.96,0.546c0.022,0.013-0.053,0.144-0.074,0.131l-3.557-2.024
		c-0.022-0.012,0.053-0.143,0.074-0.131l0.949,0.54c0.044,0.025,0.072,0.026,0.09-0.006l4.205-7.386
		c0.019-0.033,0.003-0.057-0.041-0.081l-0.109-0.062c-1.571-0.895-3.018-0.027-3.738,1.238c-0.012,0.021-0.143-0.053-0.131-0.075
		l1.503-2.64c0.006-0.011,0.03-0.026,0.052-0.015l6.699,3.813c0.021,0.013,0.009,0.034,0.003,0.045l-1.503,2.641
		C192.765,361.223,192.645,361.154,192.657,361.133z"/>
	<path fill="#FFF6DF" d="M201.814,362.286c-0.068-0.032-0.146-0.013-0.802,0.524l-3.345,2.794l-1.612,3.417
		c-0.016,0.034,0.001,0.056,0.058,0.083l0.987,0.466c0.023,0.011-0.042,0.146-0.064,0.136l-3.701-1.745
		c-0.022-0.011,0.042-0.147,0.064-0.137l0.988,0.466c0.045,0.021,0.073,0.021,0.089-0.013l1.569-3.327l-0.157-5.403
		c0-0.028-0.035-0.072-0.069-0.088l-1.067-0.504c-0.022-0.011,0.042-0.146,0.064-0.136l4.064,1.917
		c0.022,0.011-0.042,0.146-0.064,0.137l-1.158-0.547c-0.045-0.021-0.044,0.007-0.066,0.024l0.153,4.999l3.367-2.812
		c0.413-0.346,0.44-0.375,0.361-0.412l-1.067-0.504c-0.023-0.011,0.042-0.146,0.064-0.136l2.293,1.082
		c0.023,0.011-0.042,0.146-0.064,0.136L201.814,362.286z"/>
	<path fill="#FFF6DF" d="M208.071,374.225c-2.118-0.712-3.181-3.267-2.361-5.707c0.795-2.368,3.106-3.884,5.332-3.136
		c2.13,0.716,3.192,3.271,2.369,5.723C212.591,373.544,210.202,374.94,208.071,374.225z M212.115,366.404
		c-0.217-0.457-0.609-0.708-1.122-0.88c-0.5-0.168-0.964-0.205-1.401,0.032c-0.751,0.384-1.369,1.514-2.061,3.573
		c-0.792,2.356-0.881,3.333-0.514,4.092c0.206,0.453,0.598,0.704,1.098,0.872c0.512,0.172,0.977,0.209,1.426-0.024
		c0.739-0.388,1.257-1.22,2.049-3.576C212.281,368.434,212.471,367.159,212.115,366.404z"/>
	<path fill="#FFF6DF" d="M222.08,371.506c0.283-1.132-0.248-2.687-1.758-3.063l-1.047-0.261c-0.049-0.013-0.076-0.007-0.085,0.03
		l-0.981,3.933l0.207,0.052c0.974,0.243,1.905-0.379,2.115-1.219c0.006-0.024,0.152,0.012,0.146,0.036l-0.856,3.435
		c-0.006,0.024-0.152-0.013-0.146-0.037c0.207-0.828-0.321-1.826-1.295-2.068l-0.207-0.052l-1.038,4.164
		c-0.009,0.037,0.012,0.055,0.061,0.067l1.072,0.267c0.024,0.007-0.012,0.152-0.037,0.146l-3.969-0.99
		c-0.024-0.006,0.012-0.152,0.036-0.146l1.072,0.267c0.036,0.01,0.064,0.003,0.073-0.033l2.056-8.243
		c0.009-0.037-0.012-0.056-0.048-0.064l-1.072-0.267c-0.024-0.007,0.012-0.152,0.037-0.146l6.429,1.604
		c0.024,0.006,0.03,0.033,0.027,0.045l-0.644,2.582C222.22,371.567,222.074,371.53,222.08,371.506z"/>
	<path fill="#FFF6DF" d="M237.323,380.425c-0.009-0.218-0.218-0.569-0.734-0.634c-0.8-0.1-2.206,0.303-3.185,0.18
		c-3.363-0.421-5.468-3.811-5.027-7.334c0.443-3.54,3.248-6.315,6.593-5.896c0.854,0.107,1.915,0.728,2.733,0.83
		c0.498,0.062,0.883-0.124,0.943-0.315c0.005-0.035,0.2-0.011,0.196,0.024l-0.528,4.217c-0.004,0.035-0.2,0.011-0.196-0.024
		c0.221-1.762-1.431-4.3-3.175-4.518c-0.801-0.101-1.426-0.017-1.988,0.438c-0.926,0.751-1.471,2.509-1.856,5.586
		c-0.385,3.078-0.29,4.915,0.421,5.872c0.434,0.578,1.107,0.825,1.908,0.926c2.153,0.27,4.204-1.823,4.496-4.154
		c0.004-0.035,0.2-0.011,0.196,0.025l-0.602,4.804C237.517,380.468,237.339,380.445,237.323,380.425z"/>
	<path fill="#FFF6DF" d="M244.443,380.526c-0.038-0.002-0.032-0.152,0.006-0.15l1.129,0.045c0.038,0.002,0.063-0.022,0.052-0.035
		l-0.841-2.836l-2.684-0.107l-0.933,2.274c-0.169,0.445-0.185,0.521-0.122,0.522l1.091,0.044c0.038,0.002,0.031,0.152-0.006,0.15
		l-2.396-0.096c-0.025-0.001-0.019-0.152,0.006-0.15l0.953,0.038c0.113,0.004,0.14-0.032,0.335-0.515l3.334-8.271
		c0.014-0.037,0.14-0.032,0.15,0.006l2.98,9.015c0.012,0.013,0.049,0.039,0.099,0.041l1.066,0.043
		c0.025,0.001,0.019,0.151-0.006,0.15L244.443,380.526z M243.626,373.634l-1.466,3.66l2.571,0.104L243.626,373.634z"/>
	<path fill="#FFF6DF" d="M256.78,380.521l-6.949,0.152c-0.025,0.001-0.028-0.15-0.003-0.15l1.104-0.024
		c0.038-0.001,0.062-0.014,0.062-0.052l-0.186-8.491c-0.001-0.037-0.026-0.05-0.064-0.049l-1.104,0.024
		c-0.025,0.001-0.028-0.15-0.003-0.15l4.089-0.09c0.025,0,0.028,0.15,0.003,0.15l-1.104,0.024c-0.037,0.001-0.062,0.014-0.062,0.052
		l0.187,8.491c0,0.038,0.025,0.05,0.063,0.049l1.091-0.023c1.882-0.042,2.736-1.691,2.708-2.971c0-0.025,0.138-0.028,0.139-0.004
		l0.066,3.023C256.817,380.508,256.806,380.521,256.78,380.521z"/>
	<path fill="#FFF6DF" d="M258.534,380.397c-0.025,0.002-0.036-0.148-0.012-0.15l1.102-0.082c0.037-0.003,0.062-0.017,0.059-0.055
		l-0.63-8.471c-0.003-0.037-0.029-0.048-0.066-0.045l-1.102,0.082c-0.024,0.001-0.036-0.148-0.011-0.15l4.079-0.304
		c0.024-0.002,0.036,0.148,0.011,0.15l-1.101,0.082c-0.051,0.003-0.074,0.018-0.071,0.056l0.63,8.471
		c0.003,0.037,0.028,0.048,0.079,0.044l1.101-0.082c0.025-0.002,0.036,0.148,0.012,0.15L258.534,380.397z"/>
	<path fill="#FFF6DF" d="M270.274,372.946c-0.15-1.156-1.212-2.409-2.754-2.209l-1.069,0.139c-0.05,0.007-0.073,0.022-0.068,0.06
		l0.522,4.017l0.212-0.027c0.994-0.129,1.634-1.047,1.522-1.905c-0.003-0.024,0.146-0.044,0.149-0.02l0.456,3.507
		c0.003,0.025-0.146,0.045-0.149,0.02c-0.11-0.846-0.965-1.581-1.959-1.452l-0.212,0.027l0.554,4.253
		c0.004,0.038,0.031,0.047,0.081,0.04l1.094-0.142c0.025-0.004,0.045,0.146,0.02,0.148l-4.054,0.527
		c-0.025,0.004-0.045-0.146-0.02-0.148l1.094-0.143c0.038-0.005,0.061-0.021,0.056-0.058l-1.095-8.42
		c-0.005-0.037-0.031-0.046-0.068-0.041l-1.095,0.143c-0.024,0.003-0.044-0.146-0.02-0.149l6.566-0.854
		c0.025-0.003,0.041,0.021,0.042,0.032l0.343,2.637C270.427,372.952,270.277,372.971,270.274,372.946z"/>
	<path fill="#FFF6DF" d="M277.531,378.108c-2.187,0.451-4.388-1.221-4.907-3.739c-0.504-2.444,0.729-4.914,3.025-5.388
		c2.198-0.453,4.4,1.219,4.922,3.749C281.091,375.249,279.73,377.655,277.531,378.108z M277.091,369.325
		c-0.418-0.285-0.883-0.305-1.411-0.196c-0.516,0.106-0.936,0.309-1.193,0.733c-0.456,0.708-0.421,1.994,0.018,4.119
		c0.501,2.433,0.915,3.32,1.613,3.791c0.405,0.288,0.87,0.308,1.387,0.201c0.527-0.109,0.947-0.312,1.218-0.738
		c0.443-0.706,0.472-1.686-0.029-4.117C278.254,370.993,277.777,369.798,277.091,369.325z"/>
	<path fill="#FFF6DF" d="M291.172,374.552c-0.987,0.289-2.286,0.003-2.79-1.719l-0.229-0.782c-0.311-1.06-1.076-1.267-2.16-0.949
		l-0.71,0.208l1.223,4.178c0.011,0.036,0.038,0.041,0.087,0.026l0.999-0.292c0.012-0.004,0.054,0.141,0.042,0.145l-3.864,1.131
		c-0.024,0.007-0.066-0.137-0.043-0.145l1.06-0.31c0.036-0.011,0.057-0.03,0.047-0.066l-2.387-8.15
		c-0.011-0.036-0.038-0.041-0.074-0.03l-1.06,0.311c-0.024,0.007-0.066-0.138-0.042-0.145l3.72-1.09
		c1.782-0.521,3.146,0.073,3.491,1.253c0.327,1.119-0.414,2.291-1.775,2.689c1.951-0.571,3.037,0.326,3.393,1.542l0.317,1.084
		c0.18,0.613,0.582,0.914,1.027,0.784c0.312-0.092,0.494-0.275,0.598-0.502c0.021-0.02,0.137,0.064,0.116,0.084
		C291.989,374.13,291.689,374.4,291.172,374.552z M284.743,367.102l-0.566,0.166c-0.048,0.014-0.068,0.032-0.058,0.068l1.12,3.829
		l0.711-0.208c1.168-0.342,1.306-0.762,0.858-2.291C286.368,367.161,285.862,366.773,284.743,367.102z"/>
	<path fill="#FFF6DF" d="M296.825,362.886c-0.047,0.018-0.065,0.038-0.052,0.073l3.178,8.273c0.014,0.035-0.1,0.092-0.152,0.059
		l-8.507-6.146l3.021,7.863c0.014,0.035,0.03,0.042,0.077,0.024l1.031-0.396c0.023-0.009,0.077,0.132,0.054,0.141l-2.332,0.896
		c-0.035,0.014-0.089-0.127-0.054-0.141l1.02-0.392c0.059-0.022,0.065-0.038,0.052-0.073l-3.047-7.934
		c-0.014-0.035-0.03-0.043-0.089-0.021l-1.02,0.392c-0.035,0.014-0.089-0.127-0.054-0.141l2.848-1.094
		c0.082-0.031,0.17-0.012,0.339,0.112l5.593,4.092l-2.098-5.461c-0.014-0.035-0.042-0.038-0.089-0.021l-1.031,0.396
		c-0.023,0.009-0.077-0.132-0.054-0.141l2.332-0.896c0.023-0.01,0.077,0.131,0.054,0.141L296.825,362.886z"/>
	<path fill="#FFF6DF" d="M302.678,369.859c-0.023,0.011-0.087-0.126-0.063-0.137l1.001-0.464c0.034-0.017,0.052-0.038,0.036-0.072
		l-3.574-7.706c-0.016-0.034-0.044-0.035-0.078-0.02l-1.002,0.465c-0.022,0.011-0.086-0.126-0.062-0.137l3.71-1.722
		c0.023-0.01,0.087,0.126,0.063,0.137l-1.001,0.465c-0.046,0.021-0.063,0.043-0.048,0.077l3.574,7.706
		c0.017,0.034,0.044,0.035,0.09,0.015l1.002-0.465c0.022-0.011,0.086,0.126,0.063,0.137L302.678,369.859z"/>
	<path fill="#FFF6DF" d="M311.729,365.378c-0.033,0.018-0.105-0.114-0.072-0.133l0.993-0.538c0.033-0.018,0.043-0.052,0.026-0.057
		l-2.173-2.006l-2.36,1.28l0.361,2.431c0.083,0.469,0.107,0.541,0.163,0.511l0.96-0.521c0.033-0.018,0.104,0.115,0.071,0.133
		l-2.107,1.143c-0.021,0.012-0.094-0.121-0.071-0.133l0.839-0.454c0.099-0.054,0.103-0.1,0.024-0.613l-1.365-8.81
		c-0.007-0.039,0.104-0.1,0.133-0.072l7.169,6.22c0.017,0.005,0.062,0.009,0.106-0.015l0.938-0.509
		c0.022-0.012,0.094,0.121,0.072,0.133L311.729,365.378z M307.503,359.875l0.612,3.894l2.261-1.227L307.503,359.875z"/>
	<path fill="#FFF6DF" d="M325.275,356.854l-4.882,3.466c-0.044,0.03-0.169-0.145-0.125-0.176l1.272-0.902
		c0.058-0.042,0.077-0.077,0.046-0.121l-7.024-9.896c-0.031-0.044-0.071-0.037-0.13,0.004l-1.271,0.902
		c-0.044,0.031-0.168-0.144-0.124-0.175l4.181-2.968c1.871-1.328,3.927-1.622,5.078,0.001c0.996,1.403,0.446,3.354-0.884,4.298
		c1.9-1.349,4.084-1.338,5.319,0.401C327.717,353.076,327.556,355.234,325.275,356.854z M317.108,347.329l-0.468,0.332
		c-0.059,0.041-0.077,0.076-0.047,0.12l3.207,4.518l1.037-0.737c1.053-0.747,0.978-1.441-0.299-3.239
		C319.315,346.598,318.526,346.322,317.108,347.329z M320.807,351.826l-0.893,0.633l3.705,5.219c0.03,0.044,0.07,0.038,0.129-0.004
		l1.009-0.716c1.359-0.965,1.378-1.836,0.02-3.751C323.116,350.868,322.268,350.789,320.807,351.826z"/>
	<path fill="#FFF6DF" d="M336.397,347.976l-5.558,4.699c-0.02,0.016-0.116-0.099-0.098-0.115l0.844-0.713
		c0.038-0.032,0.049-0.059,0.025-0.087l-5.485-6.487c-0.024-0.029-0.052-0.022-0.091,0.01l-0.843,0.713
		c-0.02,0.017-0.116-0.099-0.098-0.114l5.051-4.271c0.038-0.032,0.054-0.013,0.062-0.004l1.718,2.032
		c0.016,0.019-0.1,0.116-0.115,0.097c-0.754-0.891-2.22-1.459-3.408-0.454l-0.92,0.777c-0.048,0.041-0.059,0.066-0.034,0.096
		l2.617,3.095l0.22-0.187c0.767-0.647,0.721-1.693,0.162-2.354c-0.017-0.02,0.079-0.101,0.096-0.081l2.284,2.702
		c0.017,0.02-0.079,0.101-0.096,0.081c-0.551-0.651-1.582-0.881-2.349-0.232l-0.221,0.187l2.771,3.277
		c0.024,0.028,0.051,0.022,0.1-0.019l0.948-0.802c1.562-1.321,1.27-3.046,0.436-4.033c-0.017-0.02,0.089-0.108,0.105-0.089
		l1.88,2.223C336.418,347.941,336.417,347.959,336.397,347.976z"/>
	<path fill="#FFF6DF" d="M343.523,341.465c-0.739,0.715-2.023,1.067-3.271-0.223l-0.567-0.586c-0.768-0.794-1.543-0.62-2.354,0.166
		l-0.532,0.515l3.029,3.129c0.025,0.027,0.053,0.019,0.089-0.017l0.748-0.724c0.009-0.009,0.114,0.1,0.104,0.108l-2.895,2.801
		c-0.018,0.018-0.123-0.09-0.104-0.107l0.794-0.769c0.026-0.026,0.036-0.053,0.01-0.079l-5.909-6.105
		c-0.026-0.027-0.053-0.019-0.08,0.008l-0.793,0.768c-0.019,0.018-0.123-0.091-0.105-0.108l2.787-2.696
		c1.335-1.292,2.818-1.401,3.674-0.518c0.812,0.839,0.7,2.222-0.318,3.208c1.461-1.414,2.841-1.125,3.722-0.215l0.786,0.812
		c0.445,0.46,0.94,0.539,1.274,0.216c0.234-0.228,0.31-0.475,0.296-0.723c0.009-0.027,0.15-0.007,0.142,0.02
		C344.051,340.71,343.911,341.089,343.523,341.465z M334.361,337.862l-0.425,0.41c-0.035,0.035-0.045,0.062-0.019,0.089l2.775,2.867
		l0.532-0.515c0.875-0.847,0.802-1.283-0.307-2.429C335.828,337.158,335.199,337.051,334.361,337.862z"/>
	<path fill="#FFF6DF" d="M347.916,336.393c-0.017,0.019-0.128-0.083-0.111-0.102l0.8-0.883c0.034-0.037,0.023-0.063,0.006-0.062
		l-5.102-0.646l3.113,2.822c0.027,0.025,0.054,0.015,0.079-0.013l0.741-0.818c0.017-0.019,0.128,0.083,0.111,0.102l-2.746,3.029
		c-0.017,0.019-0.128-0.083-0.111-0.102l0.741-0.817c0.025-0.028,0.033-0.055,0.005-0.08l-6.291-5.702
		c-0.027-0.025-0.054-0.016-0.079,0.013l-0.741,0.817c-0.017,0.019-0.128-0.082-0.111-0.101l2.746-3.029
		c0.017-0.019,0.128,0.082,0.111,0.101l-0.741,0.818c-0.025,0.027-0.033,0.055-0.005,0.08l3.122,2.83l-0.63-4.871
		c-0.067-0.653-0.112-0.66-0.163-0.604l-0.699,0.771c-0.017,0.019-0.128-0.082-0.111-0.101l1.643-1.812
		c0.009-0.01,0.12,0.092,0.111,0.101l-0.665,0.734c-0.067,0.074-0.056,0.136,0.011,0.772l0.434,3.405l6.617,0.768
		c0.018-0.001,0.087-0.04,0.104-0.059l0.792-0.873c0.025-0.028,0.137,0.073,0.111,0.101L347.916,336.393z"/>
	<path fill="#FFF6DF" d="M355.814,326.927l-4.558,5.673c-0.016,0.02-0.134-0.074-0.117-0.094l0.691-0.861
		c0.031-0.039,0.037-0.066,0.008-0.09l-6.622-5.32c-0.029-0.023-0.055-0.012-0.086,0.027l-0.691,0.861
		c-0.016,0.02-0.133-0.075-0.117-0.095l4.141-5.154c0.032-0.039,0.052-0.023,0.062-0.016l2.073,1.666
		c0.02,0.016-0.075,0.133-0.095,0.117c-0.909-0.73-2.457-1.008-3.431,0.204l-0.755,0.939c-0.039,0.049-0.045,0.076-0.016,0.1
		l3.159,2.538l0.181-0.225c0.629-0.782,0.384-1.8-0.291-2.342c-0.02-0.016,0.059-0.114,0.078-0.098l2.759,2.216
		c0.02,0.016-0.06,0.113-0.079,0.098c-0.665-0.534-1.721-0.562-2.35,0.221l-0.181,0.225l3.345,2.688
		c0.029,0.023,0.056,0.012,0.095-0.037l0.777-0.968c1.281-1.595,0.666-3.232-0.342-4.042c-0.02-0.016,0.066-0.123,0.086-0.107
		l2.27,1.823C355.828,326.89,355.83,326.907,355.814,326.927z"/>
	<path fill="#FFF6DF" d="M360.988,319.772l-4.049,5.646c-0.015,0.021-0.137-0.067-0.122-0.088l0.643-0.896
		c0.022-0.031,0.026-0.059-0.004-0.081l-6.9-4.947c-0.031-0.022-0.056-0.009-0.077,0.021l-0.644,0.896
		c-0.015,0.021-0.137-0.067-0.122-0.087l2.383-3.323c0.015-0.021,0.137,0.067,0.122,0.088l-0.644,0.896
		c-0.021,0.031-0.026,0.059,0.005,0.08l6.9,4.948c0.03,0.022,0.055,0.009,0.077-0.021l0.636-0.887
		c1.097-1.529,0.29-3.203-0.749-3.948c-0.021-0.015,0.06-0.127,0.08-0.112l2.456,1.762C361,319.734,361.003,319.752,360.988,319.772
		z"/>
	<path fill="#FFF6DF" d="M365.908,312.158l-3.921,6.134c-0.014,0.021-0.141-0.061-0.127-0.082l0.595-0.93
		c0.027-0.043,0.03-0.07-0.002-0.091l-7.158-4.576c-0.032-0.021-0.056-0.006-0.083,0.036l-0.595,0.931
		c-0.014,0.021-0.141-0.06-0.127-0.081l3.562-5.573c0.026-0.042,0.048-0.028,0.059-0.021l2.241,1.433
		c0.021,0.014-0.06,0.141-0.081,0.127c-0.983-0.628-2.552-0.737-3.39,0.574l-0.649,1.015c-0.033,0.053-0.036,0.081-0.005,0.102
		l3.415,2.183l0.156-0.243c0.54-0.846,0.188-1.831-0.542-2.298c-0.021-0.014,0.046-0.119,0.067-0.105l2.981,1.906
		c0.021,0.014-0.046,0.119-0.067,0.105c-0.719-0.459-1.772-0.373-2.312,0.473l-0.156,0.243l3.617,2.312
		c0.031,0.02,0.056,0.006,0.089-0.047l0.67-1.047c1.102-1.724,0.312-3.286-0.776-3.982c-0.021-0.014,0.053-0.13,0.074-0.116
		l2.453,1.568C365.918,312.12,365.922,312.138,365.908,312.158z"/>
	<path fill="#FFF6DF" d="M362.789,300.045c-0.037,0.065-0.024,0.145,0.461,0.839l2.532,3.545l3.284,1.864
		c0.032,0.019,0.056,0.003,0.087-0.052l0.539-0.949c0.013-0.021,0.144,0.053,0.131,0.074l-2.02,3.558
		c-0.013,0.021-0.144-0.053-0.131-0.075l0.539-0.949c0.024-0.043,0.026-0.071-0.007-0.09l-3.196-1.815l-5.397-0.251
		c-0.028-0.002-0.075,0.029-0.094,0.062l-0.582,1.025c-0.013,0.021-0.144-0.053-0.131-0.074l2.218-3.906
		c0.013-0.021,0.144,0.053,0.131,0.074l-0.632,1.113c-0.024,0.044,0.003,0.045,0.019,0.068l4.995,0.225l-2.548-3.567
		c-0.314-0.438-0.341-0.468-0.384-0.392l-0.583,1.025c-0.012,0.022-0.144-0.052-0.131-0.074l1.252-2.203
		c0.012-0.022,0.143,0.052,0.131,0.074L362.789,300.045z"/>
</g>
<g>
	<path fill="#3A3A3A" d="M194.847,84.605c-13.223,0-23.943,10.72-23.943,23.943c0,12.514,9.601,22.779,21.838,23.846l24.795-31.486
		C214.348,91.432,205.398,84.605,194.847,84.605z"/>
</g>
<path fill="#3A3A3A" d="M306.527,123.043c0,0,10.049-1.938,16.153,1.699c0,0,3.468-2.756,13.933-1.834c0,0-9.769,0.314-13.803,2.873
	C322.81,125.781,315.393,122.551,306.527,123.043z"/>
<path fill="#3A3A3A" d="M330.472,126.696c0,0,5.545-1.987,9.795,1.839c0,0,2.415-2.899,9.7-1.929c0,0-6.802,0.33-9.61,3.022
	C340.357,129.628,336.645,126.178,330.472,126.696z"/>
<path fill="#3A3A3A" d="M295.917,118.132c0,0,5.798-1.945,9.32,1.705c0,0,2.001-2.767,8.039-1.841c0,0-5.637,0.315-7.964,2.884
	C305.312,120.88,301.032,117.638,295.917,118.132z"/>
</svg>