<!-- Generator: Adobe Illustrator 18.1.1, SVG Export Plug-In  -->
<svg version="1.1"
	 xmlns="http://www.w3.org/2000/svg" xmlns:xlink="http://www.w3.org/1999/xlink" xmlns:a="http://ns.adobe.com/AdobeSVGViewerExtensions/3.0/"
	 x="0px" y="0px" width="912.787px" height="340.511px" viewBox="0 0 912.787 340.511" enable-background="new 0 0 912.787 340.511"
	 xml:space="preserve">
<defs>
</defs>
<g>
	<polygon opacity="0.1" fill="#C8E3BC" points="912.787,323.514 835.492,126.559 795.66,237.183 734.123,80.384 683.528,220.902 
		587.775,169.099 330.849,185.539 226.105,242.226 174.222,110.022 103.679,231.968 53.697,153.314 0,323.514 	"/>
	<g>
		<g>
			<rect x="202.414" y="122.381" fill="#F89959" width="99.433" height="185.887"/>
			<rect x="301.847" y="131.457" fill="#F9A86F" width="82.12" height="176.811"/>
			<rect x="551.172" y="131.457" fill="#F9A86F" width="82.12" height="176.811"/>
			<polygon fill="#BF8423" points="630.952,131.457 630.952,147.887 626.624,147.887 630.952,156.31 630.024,156.31 
				630.024,157.558 630.952,157.558 630.952,159.793 630.952,159.793 630.952,308.267 633.292,308.267 633.292,131.457 			"/>
			<polygon fill="#BF8423" points="381.628,131.457 381.628,147.887 377.3,147.887 381.628,156.31 380.699,156.31 380.699,157.558 
				381.628,157.558 381.628,159.793 381.628,159.793 381.628,308.267 383.968,308.267 383.968,131.457 			"/>
			<rect x="633.292" y="122.381" fill="#F89959" width="99.433" height="185.887"/>
			<rect x="383.968" y="106.784" fill="#FFDEA4" width="167.204" height="201.483"/>
			<polygon fill="#F9F2DF" points="545.397,117.838 545.397,113.367 546.718,113.367 546.718,109.02 551.19,109.02 551.19,113.491 
				551.19,113.491 551.19,117.838 551.19,117.838 551.19,122.31 551.19,122.31 551.19,126.657 551.19,126.657 551.19,131.129 
				551.19,131.129 551.19,135.476 551.19,135.476 551.19,139.948 551.19,139.948 551.19,144.295 551.19,144.295 551.19,148.766 
				551.19,148.766 551.19,153.114 551.19,153.114 551.19,157.585 551.19,157.585 551.19,161.933 551.19,161.933 551.19,166.404 
				551.19,166.404 551.19,170.752 551.19,170.752 551.19,175.223 551.19,175.223 551.19,179.57 551.19,179.57 551.19,184.042 
				551.19,184.042 551.19,188.389 551.19,188.389 551.19,192.861 551.19,192.861 551.19,197.208 551.19,197.208 551.19,201.68 
				551.19,201.68 551.19,206.027 551.19,206.027 551.19,210.498 551.19,210.498 551.19,214.846 551.19,214.846 551.19,219.317 
				551.19,219.317 551.19,223.665 551.19,223.665 551.19,228.136 551.19,228.136 551.19,232.484 551.19,232.484 551.19,236.955 
				551.19,236.955 551.19,241.302 551.19,241.302 551.19,245.774 551.19,245.774 551.19,250.121 551.19,250.121 551.19,254.593 
				551.19,254.593 551.19,258.94 551.19,258.94 551.19,263.412 551.19,263.412 551.19,267.759 551.19,267.759 551.19,272.23 
				551.19,272.23 551.19,276.578 551.19,276.578 551.19,281.049 551.19,281.049 551.19,285.397 545.397,285.397 545.397,280.925 
				546.718,280.925 546.718,276.578 545.397,276.578 545.397,272.106 546.718,272.106 546.718,267.759 545.397,267.759 
				545.397,263.288 546.718,263.288 546.718,258.94 545.397,258.94 545.397,254.469 546.718,254.469 546.718,250.121 
				545.397,250.121 545.397,245.65 546.718,245.65 546.718,241.302 545.397,241.302 545.397,236.831 546.718,236.831 
				546.718,232.484 545.397,232.484 545.397,228.012 546.718,228.012 546.718,223.665 545.397,223.665 545.397,219.193 
				546.718,219.193 546.718,214.846 545.397,214.846 545.397,210.374 546.718,210.374 546.718,206.027 545.397,206.027 
				545.397,201.556 546.718,201.556 546.718,197.208 545.397,197.208 545.397,192.737 546.718,192.737 546.718,188.389 
				545.397,188.389 545.397,183.918 546.718,183.918 546.718,179.57 545.397,179.57 545.397,175.099 546.718,175.099 
				546.718,170.752 545.397,170.752 545.397,166.28 546.718,166.28 546.718,161.933 545.397,161.933 545.397,157.461 
				546.718,157.461 546.718,153.114 545.397,153.114 545.397,148.642 546.718,148.642 546.718,144.295 545.397,144.295 
				545.397,139.824 546.718,139.824 546.718,135.476 545.397,135.476 545.397,131.005 546.718,131.005 546.718,126.657 
				545.397,126.657 545.397,122.186 546.718,122.186 546.718,117.838 			"/>
			<g>
				<polygon fill="#F9F2DF" points="639.084,133.435 639.084,128.963 637.763,128.963 637.763,124.616 633.292,124.616 
					633.292,128.963 633.292,129.087 633.292,133.435 633.292,137.782 633.292,137.906 633.292,142.254 633.292,146.601 
					633.292,146.725 633.292,151.073 633.292,155.42 633.292,155.544 633.292,159.891 633.292,164.239 633.292,164.363 
					633.292,168.71 633.292,173.058 633.292,173.182 633.292,177.529 633.292,181.877 633.292,182.001 633.292,186.348 
					633.292,190.695 633.292,190.819 633.292,195.167 633.292,199.514 633.292,199.638 633.292,203.986 633.292,208.333 
					633.292,208.457 633.292,212.805 633.292,217.152 633.292,217.276 633.292,221.623 633.292,225.971 633.292,226.095 
					633.292,230.442 633.292,234.79 633.292,234.914 633.292,239.261 633.292,243.609 633.292,243.733 633.292,248.08 
					633.292,252.427 633.292,252.551 633.292,256.899 633.292,261.246 633.292,261.37 633.292,265.718 633.292,270.065 
					633.292,270.189 633.292,274.537 633.292,278.884 633.292,279.008 633.292,283.355 639.084,283.355 639.084,278.884 
					637.763,278.884 637.763,274.537 639.084,274.537 639.084,270.065 637.763,270.065 637.763,265.718 639.084,265.718 
					639.084,261.246 637.763,261.246 637.763,256.899 639.084,256.899 639.084,252.427 637.763,252.427 637.763,248.08 
					639.084,248.08 639.084,243.609 637.763,243.609 637.763,239.261 639.084,239.261 639.084,234.79 637.763,234.79 
					637.763,230.442 639.084,230.442 639.084,225.971 637.763,225.971 637.763,221.623 639.084,221.623 639.084,217.152 
					637.763,217.152 637.763,212.805 639.084,212.805 639.084,208.333 637.763,208.333 637.763,203.986 639.084,203.986 
					639.084,199.514 637.763,199.514 637.763,195.167 639.084,195.167 639.084,190.695 637.763,190.695 637.763,186.348 
					639.084,186.348 639.084,181.877 637.763,181.877 637.763,177.529 639.084,177.529 639.084,173.058 637.763,173.058 
					637.763,168.71 639.084,168.71 639.084,164.239 637.763,164.239 637.763,159.891 639.084,159.891 639.084,155.42 
					637.763,155.42 637.763,151.073 639.084,151.073 639.084,146.601 637.763,146.601 637.763,142.254 639.084,142.254 
					639.084,137.782 637.763,137.782 637.763,133.435 				"/>
				<polygon fill="#F9F2DF" points="726.933,133.435 726.933,128.963 728.254,128.963 728.254,124.616 732.725,124.616 
					732.725,128.963 732.725,129.087 732.725,133.435 732.725,137.782 732.725,137.906 732.725,142.254 732.725,146.601 
					732.725,146.725 732.725,151.073 732.725,155.42 732.725,155.544 732.725,159.891 732.725,164.239 732.725,164.363 
					732.725,168.71 732.725,173.058 732.725,173.182 732.725,177.529 732.725,181.877 732.725,182.001 732.725,186.348 
					732.725,190.695 732.725,190.819 732.725,195.167 732.725,199.514 732.725,199.638 732.725,203.986 732.725,208.333 
					732.725,208.457 732.725,212.805 732.725,217.152 732.725,217.276 732.725,221.623 732.725,225.971 732.725,226.095 
					732.725,230.442 732.725,234.79 732.725,234.914 732.725,239.261 732.725,243.609 732.725,243.733 732.725,248.08 
					732.725,252.427 732.725,252.551 732.725,256.899 732.725,261.246 732.725,261.37 732.725,265.718 732.725,270.065 
					732.725,270.189 732.725,274.537 732.725,278.884 732.725,279.008 732.725,283.355 726.933,283.355 726.933,278.884 
					728.254,278.884 728.254,274.537 726.933,274.537 726.933,270.065 728.254,270.065 728.254,265.718 726.933,265.718 
					726.933,261.246 728.254,261.246 728.254,256.899 726.933,256.899 726.933,252.427 728.254,252.427 728.254,248.08 
					726.933,248.08 726.933,243.609 728.254,243.609 728.254,239.261 726.933,239.261 726.933,234.79 728.254,234.79 
					728.254,230.442 726.933,230.442 726.933,225.971 728.254,225.971 728.254,221.623 726.933,221.623 726.933,217.152 
					728.254,217.152 728.254,212.805 726.933,212.805 726.933,208.333 728.254,208.333 728.254,203.986 726.933,203.986 
					726.933,199.514 728.254,199.514 728.254,195.167 726.933,195.167 726.933,190.695 728.254,190.695 728.254,186.348 
					726.933,186.348 726.933,181.877 728.254,181.877 728.254,177.529 726.933,177.529 726.933,173.058 728.254,173.058 
					728.254,168.71 726.933,168.71 726.933,164.239 728.254,164.239 728.254,159.891 726.933,159.891 726.933,155.42 
					728.254,155.42 728.254,151.073 726.933,151.073 726.933,146.601 728.254,146.601 728.254,142.254 726.933,142.254 
					726.933,137.782 728.254,137.782 728.254,133.435 				"/>
			</g>
			<polygon fill="#F9F2DF" points="389.742,117.838 389.742,113.367 388.421,113.367 388.421,109.02 383.95,109.02 383.95,113.491 
				383.95,113.491 383.95,117.838 383.95,117.838 383.95,122.31 383.95,122.31 383.95,126.657 383.95,126.657 383.95,131.129 
				383.95,131.129 383.95,135.476 383.95,135.476 383.95,139.948 383.95,139.948 383.95,144.295 383.95,144.295 383.95,148.766 
				383.95,148.766 383.95,153.114 383.95,153.114 383.95,157.585 383.95,157.585 383.95,161.933 383.95,161.933 383.95,166.404 
				383.95,166.404 383.95,170.752 383.95,170.752 383.95,175.223 383.95,175.223 383.95,179.57 383.95,179.57 383.95,184.042 
				383.95,184.042 383.95,188.389 383.95,188.389 383.95,192.861 383.95,192.861 383.95,197.208 383.95,197.208 383.95,201.68 
				383.95,201.68 383.95,206.027 383.95,206.027 383.95,210.498 383.95,210.498 383.95,214.846 383.95,214.846 383.95,219.317 
				383.95,219.317 383.95,223.665 383.95,223.665 383.95,228.136 383.95,228.136 383.95,232.484 383.95,232.484 383.95,236.955 
				383.95,236.955 383.95,241.302 383.95,241.302 383.95,245.774 383.95,245.774 383.95,250.121 383.95,250.121 383.95,254.593 
				383.95,254.593 383.95,258.94 383.95,258.94 383.95,263.412 383.95,263.412 383.95,267.759 383.95,267.759 383.95,272.23 
				383.95,272.23 383.95,276.578 383.95,276.578 383.95,281.049 383.95,281.049 383.95,285.397 389.742,285.397 389.742,280.925 
				388.421,280.925 388.421,276.578 389.742,276.578 389.742,272.106 388.421,272.106 388.421,267.759 389.742,267.759 
				389.742,263.288 388.421,263.288 388.421,258.94 389.742,258.94 389.742,254.469 388.421,254.469 388.421,250.121 
				389.742,250.121 389.742,245.65 388.421,245.65 388.421,241.302 389.742,241.302 389.742,236.831 388.421,236.831 
				388.421,232.484 389.742,232.484 389.742,228.012 388.421,228.012 388.421,223.665 389.742,223.665 389.742,219.193 
				388.421,219.193 388.421,214.846 389.742,214.846 389.742,210.374 388.421,210.374 388.421,206.027 389.742,206.027 
				389.742,201.556 388.421,201.556 388.421,197.208 389.742,197.208 389.742,192.737 388.421,192.737 388.421,188.389 
				389.742,188.389 389.742,183.918 388.421,183.918 388.421,179.57 389.742,179.57 389.742,175.099 388.421,175.099 
				388.421,170.752 389.742,170.752 389.742,166.28 388.421,166.28 388.421,161.933 389.742,161.933 389.742,157.461 
				388.421,157.461 388.421,153.114 389.742,153.114 389.742,148.642 388.421,148.642 388.421,144.295 389.742,144.295 
				389.742,139.824 388.421,139.824 388.421,135.476 389.742,135.476 389.742,131.005 388.421,131.005 388.421,126.657 
				389.742,126.657 389.742,122.186 388.421,122.186 388.421,117.838 			"/>
			<g>
				<polygon fill="#F9F2DF" points="208.206,133.435 208.206,128.963 206.885,128.963 206.885,124.616 202.414,124.616 
					202.414,128.963 202.414,129.087 202.414,133.435 202.414,137.782 202.414,137.906 202.414,142.254 202.414,146.601 
					202.414,146.725 202.414,151.073 202.414,155.42 202.414,155.544 202.414,159.891 202.414,164.239 202.414,164.363 
					202.414,168.71 202.414,173.058 202.414,173.182 202.414,177.529 202.414,181.877 202.414,182.001 202.414,186.348 
					202.414,190.695 202.414,190.819 202.414,195.167 202.414,199.514 202.414,199.638 202.414,203.986 202.414,208.333 
					202.414,208.457 202.414,212.805 202.414,217.152 202.414,217.276 202.414,221.623 202.414,225.971 202.414,226.095 
					202.414,230.442 202.414,234.79 202.414,234.914 202.414,239.261 202.414,243.609 202.414,243.733 202.414,248.08 
					202.414,252.427 202.414,252.551 202.414,256.899 202.414,261.246 202.414,261.37 202.414,265.718 202.414,270.065 
					202.414,270.189 202.414,274.537 202.414,278.884 202.414,279.008 202.414,283.355 208.206,283.355 208.206,278.884 
					206.885,278.884 206.885,274.537 208.206,274.537 208.206,270.065 206.885,270.065 206.885,265.718 208.206,265.718 
					208.206,261.246 206.885,261.246 206.885,256.899 208.206,256.899 208.206,252.427 206.885,252.427 206.885,248.08 
					208.206,248.08 208.206,243.609 206.885,243.609 206.885,239.261 208.206,239.261 208.206,234.79 206.885,234.79 
					206.885,230.442 208.206,230.442 208.206,225.971 206.885,225.971 206.885,221.623 208.206,221.623 208.206,217.152 
					206.885,217.152 206.885,212.805 208.206,212.805 208.206,208.333 206.885,208.333 206.885,203.986 208.206,203.986 
					208.206,199.514 206.885,199.514 206.885,195.167 208.206,195.167 208.206,190.695 206.885,190.695 206.885,186.348 
					208.206,186.348 208.206,181.877 206.885,181.877 206.885,177.529 208.206,177.529 208.206,173.058 206.885,173.058 
					206.885,168.71 208.206,168.71 208.206,164.239 206.885,164.239 206.885,159.891 208.206,159.891 208.206,155.42 
					206.885,155.42 206.885,151.073 208.206,151.073 208.206,146.601 206.885,146.601 206.885,142.254 208.206,142.254 
					208.206,137.782 206.885,137.782 206.885,133.435 				"/>
				<polygon fill="#F9F2DF" points="296.055,133.435 296.055,128.963 297.376,128.963 297.376,124.616 301.847,124.616 
					301.847,128.963 301.847,129.087 301.847,133.435 301.847,137.782 301.847,137.906 301.847,142.254 301.847,146.601 
					301.847,146.725 301.847,151.073 301.847,155.42 301.847,155.544 301.847,159.891 301.847,164.239 301.847,164.363 
					301.847,168.71 301.847,173.058 301.847,173.182 301.847,177.529 301.847,181.877 301.847,182.001 301.847,186.348 
					301.847,190.695 301.847,190.819 301.847,195.167 301.847,199.514 301.847,199.638 301.847,203.986 301.847,208.333 
					301.847,208.457 301.847,212.805 301.847,217.152 301.847,217.276 301.847,221.623 301.847,225.971 301.847,226.095 
					301.847,230.442 301.847,234.79 301.847,234.914 301.847,239.261 301.847,243.609 301.847,243.733 301.847,248.08 
					301.847,252.427 301.847,252.551 301.847,256.899 301.847,261.246 301.847,261.37 301.847,265.718 301.847,270.065 
					301.847,270.189 301.847,274.537 301.847,278.884 301.847,279.008 301.847,283.355 296.055,283.355 296.055,278.884 
					297.376,278.884 297.376,274.537 296.055,274.537 296.055,270.065 297.376,270.065 297.376,265.718 296.055,265.718 
					296.055,261.246 297.376,261.246 297.376,256.899 296.055,256.899 296.055,252.427 297.376,252.427 297.376,248.08 
					296.055,248.08 296.055,243.609 297.376,243.609 297.376,239.261 296.055,239.261 296.055,234.79 297.376,234.79 
					297.376,230.442 296.055,230.442 296.055,225.971 297.376,225.971 297.376,221.623 296.055,221.623 296.055,217.152 
					297.376,217.152 297.376,212.805 296.055,212.805 296.055,208.333 297.376,208.333 297.376,203.986 296.055,203.986 
					296.055,199.514 297.376,199.514 297.376,195.167 296.055,195.167 296.055,190.695 297.376,190.695 297.376,186.348 
					296.055,186.348 296.055,181.877 297.376,181.877 297.376,177.529 296.055,177.529 296.055,173.058 297.376,173.058 
					297.376,168.71 296.055,168.71 296.055,164.239 297.376,164.239 297.376,159.891 296.055,159.891 296.055,155.42 
					297.376,155.42 297.376,151.073 296.055,151.073 296.055,146.601 297.376,146.601 297.376,142.254 296.055,142.254 
					296.055,137.782 297.376,137.782 297.376,133.435 				"/>
			</g>
			<g>
				<g>
					<rect x="383.968" y="279.685" fill="#AD8C68" width="167.204" height="28.582"/>
				</g>
				
					<line fill="#49351E" stroke="#7F6B52" stroke-width="10" stroke-miterlimit="10" x1="383.968" y1="279.685" x2="551.172" y2="279.685"/>
			</g>
			<g>
				<rect x="383.968" y="106.784" fill="#7F6B52" width="167.204" height="2.235"/>
			</g>
			<rect x="396.446" y="137.656" fill="#FFDEA4" width="142.248" height="139.69"/>
			<g>
				<rect x="396.446" y="277.346" fill="#AD8C68" width="142.248" height="4.679"/>
				<rect x="395.836" y="281.494" fill="#7F6B52" width="143.467" height="4.679"/>
				<rect x="395.227" y="285.643" fill="#AD8C68" width="144.685" height="4.679"/>
				<rect x="394.618" y="289.792" fill="#7F6B52" width="145.903" height="4.679"/>
				<rect x="394.009" y="293.941" fill="#AD8C68" width="147.122" height="4.679"/>
				<rect x="393.4" y="298.09" fill="#7F6B52" width="148.34" height="4.679"/>
				<rect x="392.791" y="302.239" fill="#AD8C68" width="149.558" height="4.679"/>
				<rect x="392.181" y="306.388" fill="#7F6B52" width="150.776" height="4.679"/>
				<rect x="391.572" y="310.537" fill="#AD8C68" width="151.995" height="4.679"/>
				<rect x="390.963" y="314.686" fill="#7F6B52" width="153.213" height="4.679"/>
				<rect x="390.354" y="318.835" fill="#AD8C68" width="154.431" height="4.679"/>
			</g>
			<polygon fill="#BD9021" points="394.106,137.656 394.106,137.681 390.201,137.681 390.201,141.585 392.154,141.585 
				392.154,143.467 394.106,143.467 394.106,271.56 392.154,271.56 392.154,273.441 390.201,273.441 390.201,277.346 
				394.106,277.346 394.106,277.371 405.063,277.371 405.063,277.346 408.968,277.346 408.968,273.441 407.015,273.441 
				407.015,271.56 405.063,271.56 405.063,143.467 407.015,143.467 407.015,141.585 408.968,141.585 408.968,137.681 
				405.063,137.681 405.063,137.656 425.763,137.656 425.763,137.681 421.859,137.681 421.859,141.585 423.811,141.585 
				423.811,143.467 425.763,143.467 425.763,271.56 423.811,271.56 423.811,273.441 421.859,273.441 421.859,277.346 
				425.763,277.346 425.763,277.346 425.763,277.371 436.721,277.371 436.721,277.346 440.625,277.346 440.625,273.441 
				438.673,273.441 438.673,271.56 436.721,271.56 436.721,143.467 438.673,143.467 438.673,141.585 440.625,141.585 
				440.625,137.681 436.721,137.681 436.721,137.656 489.835,137.656 489.835,141.56 491.787,141.56 491.787,143.442 
				493.74,143.442 493.74,271.56 491.787,271.56 491.787,273.441 489.835,273.441 489.835,277.346 493.74,277.346 504.697,277.346 
				508.601,277.346 508.601,273.441 506.649,273.441 506.649,271.56 504.697,271.56 504.697,143.442 506.649,143.442 
				506.649,141.56 508.601,141.56 508.601,137.656 525.397,137.656 525.397,137.681 521.492,137.681 521.492,141.585 
				523.445,141.585 523.445,143.467 525.397,143.467 525.397,271.56 523.445,271.56 523.445,273.441 521.492,273.441 
				521.492,277.346 525.397,277.346 525.397,277.371 536.354,277.371 536.354,277.346 540.259,277.346 540.259,273.441 
				538.306,273.441 538.306,271.56 536.354,271.56 536.354,143.467 538.306,143.467 538.306,141.585 540.259,141.585 
				540.259,137.681 536.354,137.681 536.354,137.656 486.15,106.784 444.31,106.784 			"/>
			<polygon fill="#CBA55B" points="538.306,145.339 538.306,143.457 538.694,143.457 538.694,139.553 536.354,139.553 
				536.354,139.528 533.31,137.656 397.15,137.656 396.446,138.089 396.446,277.346 408.968,277.346 408.968,275.313 
				407.015,275.313 407.015,273.431 405.063,273.431 405.063,145.339 407.015,145.339 407.015,143.457 408.968,143.457 
				408.968,139.553 405.063,139.553 405.063,139.528 425.763,139.528 425.763,139.553 421.859,139.553 421.859,143.457 
				423.811,143.457 423.811,145.339 425.763,145.339 425.763,273.431 423.811,273.431 423.811,275.313 421.859,275.313 
				421.859,277.346 440.625,277.346 440.625,275.313 438.673,275.313 438.673,273.431 436.721,273.431 436.721,145.339 
				438.673,145.339 438.673,143.457 440.625,143.457 440.625,139.553 436.721,139.553 436.721,139.528 489.835,139.528 
				489.835,143.432 491.787,143.432 491.787,145.314 493.74,145.314 493.74,273.431 491.787,273.431 491.787,275.313 
				489.835,275.313 489.835,277.346 508.601,277.346 508.601,275.313 506.649,275.313 506.649,273.431 504.697,273.431 
				504.697,145.314 506.649,145.314 506.649,143.432 508.601,143.432 508.601,139.528 525.397,139.528 525.397,139.553 
				521.492,139.553 521.492,143.457 523.445,143.457 523.445,145.339 525.397,145.339 525.397,273.431 523.445,273.431 
				523.445,275.313 521.492,275.313 521.492,277.346 538.694,277.346 538.694,275.313 538.306,275.313 538.306,273.431 
				536.354,273.431 536.354,145.339 			"/>
			<polygon fill="#F9F2DF" points="540.646,143.467 540.646,141.585 542.598,141.585 542.598,137.681 538.694,137.681 
				538.694,137.656 467.57,93.92 396.446,137.656 396.446,137.681 392.541,137.681 392.541,141.585 394.493,141.585 
				394.493,143.467 396.446,143.467 396.446,271.56 394.493,271.56 394.493,273.441 392.541,273.441 392.541,277.346 
				396.446,277.346 396.446,277.371 407.403,277.371 407.403,277.346 411.307,277.346 411.307,273.441 409.355,273.441 
				409.355,271.56 407.403,271.56 407.403,143.467 409.355,143.467 409.355,141.585 411.307,141.585 411.307,137.681 
				407.403,137.681 407.403,137.656 428.103,137.656 428.103,137.681 424.199,137.681 424.199,141.585 426.151,141.585 
				426.151,143.467 428.103,143.467 428.103,271.56 426.151,271.56 426.151,273.441 424.198,273.441 424.198,277.346 
				428.103,277.346 428.103,277.346 428.103,277.371 439.06,277.371 439.06,277.346 442.965,277.346 442.965,273.441 
				441.012,273.441 441.012,271.56 439.06,271.56 439.06,143.467 441.012,143.467 441.012,141.585 442.965,141.585 442.965,137.681 
				439.06,137.681 439.06,137.656 492.175,137.656 492.175,141.56 494.127,141.56 494.127,143.442 496.079,143.442 496.079,271.56 
				494.127,271.56 494.127,273.441 492.175,273.441 492.175,277.346 496.079,277.346 507.036,277.346 510.941,277.346 
				510.941,273.441 508.989,273.441 508.989,271.56 507.036,271.56 507.036,143.442 508.989,143.442 508.989,141.56 510.941,141.56 
				510.941,137.656 527.737,137.656 527.737,137.681 523.832,137.681 523.832,141.585 525.784,141.585 525.784,143.467 
				527.737,143.467 527.737,271.56 525.784,271.56 525.784,273.441 523.832,273.441 523.832,277.346 527.737,277.346 
				527.737,277.371 538.694,277.371 538.694,277.346 542.598,277.346 542.598,273.441 540.646,273.441 540.646,271.56 
				538.694,271.56 538.694,143.467 			"/>
			<g>
				<g>
					<rect x="202.414" y="279.685" fill="#AD8C68" width="99.433" height="28.582"/>
				</g>
				
					<line fill="none" stroke="#7F6B52" stroke-width="10" stroke-miterlimit="10" x1="202.414" y1="279.685" x2="301.847" y2="279.685"/>
			</g>
			<g>
				<g>
					<rect x="301.847" y="282.025" fill="#AD8C68" width="82.12" height="26.243"/>
				</g>
				
					<line fill="#49351E" stroke="#7F6B52" stroke-width="10" stroke-miterlimit="10" x1="301.847" y1="282.025" x2="383.968" y2="282.025"/>
			</g>
			<g>
				<g>
					<rect x="551.172" y="282.025" fill="#AD8C68" width="82.12" height="26.243"/>
				</g>
				
					<line fill="#49351E" stroke="#7F6B52" stroke-width="10" stroke-miterlimit="10" x1="551.172" y1="282.025" x2="633.292" y2="282.025"/>
			</g>
			<g>
				<g>
					<rect x="633.292" y="279.685" fill="#AD8C68" width="99.433" height="28.582"/>
				</g>
				
					<line fill="#49351E" stroke="#7F6B52" stroke-width="10" stroke-miterlimit="10" x1="633.292" y1="279.685" x2="732.725" y2="279.685"/>
			</g>
			<rect x="551.172" y="150.227" fill="#F9F2DF" width="82.12" height="8.423"/>
			<rect x="301.847" y="150.227" fill="#F9F2DF" width="82.12" height="8.423"/>
			<polygon fill="#F9F2DF" points="551.172,147.887 538.694,147.887 538.694,156.31 551.172,156.31 555.5,147.887 			"/>
			<polygon fill="#F9F2DF" points="383.968,147.887 379.639,147.887 383.968,156.31 396.445,156.31 396.445,147.887 			"/>
			<polygon fill="#F9F2DF" points="732.725,147.887 633.292,147.887 628.964,147.887 633.292,156.31 732.725,156.31 
				737.054,147.887 			"/>
			<polygon fill="#F9F2DF" points="306.176,147.887 301.847,147.887 301.847,147.887 202.414,147.887 198.086,147.887 
				202.414,156.31 301.847,156.31 301.847,156.31 			"/>
			<g>
				<rect x="632.363" y="156.31" fill="#4E3B23" width="101.291" height="1.248"/>
				<rect x="633.292" y="157.558" fill="#F9F2DF" width="99.433" height="2.235"/>
			</g>
			<g>
				<rect x="538.694" y="156.31" fill="#4E3B23" width="13.407" height="1.248"/>
				<rect x="538.694" y="157.558" fill="#F9F2DF" width="12.478" height="2.235"/>
			</g>
			<g>
				<rect x="383.039" y="156.31" fill="#4E3B23" width="13.407" height="1.248"/>
				<rect x="383.968" y="157.558" fill="#F9F2DF" width="12.478" height="2.235"/>
			</g>
			<g>
				<rect x="201.485" y="156.31" fill="#4E3B23" width="101.291" height="1.248"/>
				<rect x="202.414" y="157.558" fill="#F9F2DF" width="99.433" height="2.235"/>
			</g>
			<g>
				<rect x="551.172" y="158.669" fill="#4E3B23" width="82.12" height="1.248"/>
				<rect x="551.172" y="159.917" fill="#F9F2DF" width="82.12" height="2.235"/>
			</g>
			<g>
				<rect x="301.847" y="158.649" fill="#4E3B23" width="82.12" height="1.248"/>
				<rect x="301.847" y="159.897" fill="#F9F2DF" width="82.12" height="2.235"/>
			</g>
			<g>
				<rect x="633.292" y="122.381" fill="#7F6B52" width="99.433" height="2.235"/>
			</g>
			<g>
				<rect x="202.414" y="122.381" fill="#7F6B52" width="99.433" height="2.235"/>
			</g>
			<g>
				<rect x="551.172" y="131.457" fill="#7F6B52" width="82.12" height="2.235"/>
			</g>
			<g>
				<rect x="301.847" y="131.457" fill="#7F6B52" width="82.12" height="2.235"/>
			</g>
			<polygon fill="#F9A86F" points="428.103,129.794 467.57,105.525 507.036,129.794 			"/>
			<path fill="#F9F2DF" d="M467.297,150.227c-10.919,0-19.77,8.851-19.77,19.77v42.464h39.539v-42.464
				C487.066,159.078,478.215,150.227,467.297,150.227z"/>
			<g>
				<path fill="#D8A048" d="M467.297,153.268c-9.239,0-16.728,7.49-16.728,16.728h33.456
					C484.025,160.758,476.535,153.268,467.297,153.268z"/>
			</g>
			<path fill="#B2853A" d="M469.285,153.814c1.166,0,2.303,0.12,3.401,0.347c-1.692-0.576-3.503-0.893-5.39-0.893
				c-9.239,0-16.728,7.49-16.728,16.728h2.002C452.86,161.011,460.23,153.814,469.285,153.814z"/>
			<rect x="450.569" y="172.063" fill="#D8A048" width="33.456" height="37.434"/>
			<polygon fill="#B2853A" points="453.259,174.52 484.025,174.52 484.025,172.063 450.569,172.063 450.569,209.497 
				453.259,209.497 			"/>
			<g>
				<rect x="455.495" y="172.063" fill="#F9F2DF" width="0.78" height="37.434"/>
				<rect x="461.201" y="172.063" fill="#F9F2DF" width="0.78" height="37.434"/>
				<rect x="466.907" y="172.063" fill="#F9F2DF" width="0.78" height="37.434"/>
				<rect x="472.613" y="172.063" fill="#F9F2DF" width="0.78" height="37.434"/>
				<rect x="478.319" y="172.063" fill="#F9F2DF" width="0.78" height="37.434"/>
				<rect x="448.58" y="176.742" fill="#F9F2DF" width="37.434" height="0.78"/>
				<rect x="448.58" y="182.201" fill="#F9F2DF" width="37.434" height="0.78"/>
				<rect x="448.58" y="187.661" fill="#F9F2DF" width="37.434" height="0.78"/>
				<rect x="448.58" y="193.12" fill="#F9F2DF" width="37.434" height="0.78"/>
				<rect x="448.58" y="198.579" fill="#F9F2DF" width="37.434" height="0.78"/>
				<rect x="448.58" y="204.038" fill="#F9F2DF" width="37.434" height="0.78"/>
			</g>
			<g>
				<circle fill="#F9F2DF" cx="467.297" cy="169.996" r="1.521"/>
				<rect x="466.907" y="153.034" fill="#F9F2DF" width="0.78" height="16.962"/>
				
					<rect x="474.16" y="155.243" transform="matrix(0.7071 0.7071 -0.7071 0.7071 254.7625 -287.6036)" fill="#F9F2DF" width="0.78" height="16.962"/>
				
					<rect x="459.693" y="155.243" transform="matrix(-0.7071 0.7071 -0.7071 -0.7071 901.1808 -45.8339)" fill="#F9F2DF" width="0.78" height="16.962"/>
			</g>
			<rect x="446.335" y="218.699" fill="#F9F2DF" width="41.923" height="58.671"/>
			<rect x="447.527" y="219.862" fill="#997B5E" width="39.539" height="57.509"/>
			<polygon fill="#F9F2DF" points="464.721,125.739 461.078,122.096 461.078,116.944 464.721,113.301 469.873,113.301 
				473.515,116.944 473.515,122.096 469.873,125.739 			"/>
			<polygon fill="#D8A048" points="465.527,123.793 463.024,121.29 463.024,117.75 465.527,115.247 469.067,115.247 471.57,117.75 
				471.57,121.29 469.067,123.793 			"/>
			<rect x="447.527" y="219.862" fill="#997B5E" width="19.77" height="57.509"/>
			<rect x="446.335" y="218.699" fill="#CDC9BB" width="41.923" height="0.468"/>
			<rect x="444.823" y="216.352" fill="#F9F2DF" width="44.948" height="2.347"/>
			<g>
				<g>
					<g>
						<rect x="450.103" y="224.902" fill="#615140" width="5.628" height="22.072"/>
						<rect x="459.093" y="224.902" fill="#615140" width="5.628" height="22.072"/>
					</g>
					<g>
						<rect x="450.103" y="250.258" fill="#615140" width="5.628" height="22.072"/>
						<rect x="459.093" y="250.258" fill="#615140" width="5.628" height="22.072"/>
					</g>
				</g>
				<g>
					<g>
						<rect x="469.873" y="224.902" fill="#615140" width="5.628" height="22.072"/>
						<rect x="478.862" y="224.902" fill="#615140" width="5.628" height="22.072"/>
					</g>
					<g>
						<rect x="469.873" y="250.258" fill="#615140" width="5.628" height="22.072"/>
						<rect x="478.862" y="250.258" fill="#615140" width="5.628" height="22.072"/>
					</g>
				</g>
			</g>
			<line fill="none" stroke="#4A371D" stroke-miterlimit="10" x1="467.297" y1="277.371" x2="467.297" y2="219.862"/>
			<circle fill="#F9F2DF" cx="467.297" cy="119.52" r="1.018"/>
			<g>
				<line fill="none" stroke="#F9F2DF" stroke-miterlimit="10" x1="465.527" y1="115.247" x2="469.067" y2="123.793"/>
				<line fill="none" stroke="#F9F2DF" stroke-miterlimit="10" x1="465.527" y1="123.793" x2="469.067" y2="115.247"/>
				<line fill="none" stroke="#F9F2DF" stroke-miterlimit="10" x1="463.024" y1="117.75" x2="471.57" y2="121.29"/>
				<line fill="none" stroke="#F9F2DF" stroke-miterlimit="10" x1="463.024" y1="121.29" x2="471.57" y2="117.75"/>
			</g>
			<rect x="551.19" y="217.638" fill="#BF8423" width="82.102" height="4.449"/>
			<rect x="301.856" y="217.638" fill="#BF8423" width="82.102" height="4.449"/>
			<g>
				<polygon fill="#F9F2DF" points="664.218,262.655 664.218,262.653 664.218,262.653 664.218,232.292 665.41,231.301 
					665.41,229.956 645.574,229.956 645.574,231.301 646.767,232.293 646.767,232.294 646.767,232.294 646.767,262.655 
					645.575,263.645 645.575,264.991 665.41,264.991 665.41,263.645 				"/>
				<g>
					<g>
						<rect x="648.607" y="233.821" fill="#A57B2F" width="13.772" height="28.473"/>
					</g>
				</g>
				<polygon fill="#886624" points="650.478,235.693 662.378,235.693 662.378,233.821 648.606,233.821 648.606,262.294 
					650.478,262.294 				"/>
				<g>
					<rect x="647.599" y="242.792" fill="#F9F2DF" width="15.641" height="0.78"/>
					<rect x="647.599" y="252.543" fill="#F9F2DF" width="15.641" height="0.78"/>
					<rect x="657.528" y="233.367" fill="#F9F2DF" width="0.78" height="29.554"/>
					<rect x="652.677" y="233.367" fill="#F9F2DF" width="0.78" height="29.554"/>
				</g>
			</g>
			<g>
				<polygon fill="#F9F2DF" points="719.407,262.655 719.407,262.653 719.408,262.653 719.408,232.292 720.599,231.301 
					720.599,229.956 700.764,229.956 700.764,231.301 701.956,232.293 701.956,232.294 701.956,232.294 701.956,262.655 
					700.764,263.645 700.764,264.991 720.599,264.991 720.599,263.645 				"/>
				<g>
					<g>
						<rect x="703.796" y="233.821" fill="#A57B2F" width="13.772" height="28.473"/>
					</g>
				</g>
				<polygon fill="#886624" points="705.667,235.693 717.568,235.693 717.568,233.821 703.796,233.821 703.796,262.294 
					705.667,262.294 				"/>
				<g>
					<rect x="702.788" y="242.792" fill="#F9F2DF" width="15.641" height="0.78"/>
					<rect x="702.788" y="252.543" fill="#F9F2DF" width="15.641" height="0.78"/>
					<rect x="712.717" y="233.367" fill="#F9F2DF" width="0.78" height="29.554"/>
					<rect x="707.866" y="233.367" fill="#F9F2DF" width="0.78" height="29.554"/>
				</g>
			</g>
			<g>
				<polygon fill="#F9F2DF" points="691.813,203.93 691.813,203.929 691.813,203.929 691.813,173.568 693.005,172.577 
					693.005,171.232 673.169,171.232 673.169,172.577 674.362,173.568 674.362,173.569 674.361,173.569 674.361,203.931 
					673.169,204.921 673.169,206.267 693.005,206.267 693.005,204.921 				"/>
				<g>
					<g>
						<rect x="676.201" y="175.097" fill="#A57B2F" width="13.772" height="28.473"/>
					</g>
				</g>
				<polygon fill="#886624" points="678.073,176.969 689.973,176.969 689.973,175.097 676.201,175.097 676.201,203.57 
					678.073,203.57 				"/>
				<g>
					<rect x="675.194" y="184.068" fill="#F9F2DF" width="15.641" height="0.78"/>
					<rect x="675.194" y="193.819" fill="#F9F2DF" width="15.641" height="0.78"/>
					<rect x="685.122" y="174.643" fill="#F9F2DF" width="0.78" height="29.554"/>
					<rect x="680.272" y="174.643" fill="#F9F2DF" width="0.78" height="29.554"/>
				</g>
			</g>
			<g>
				<polygon fill="#F9F2DF" points="719.407,203.93 719.407,203.929 719.408,203.929 719.408,173.568 720.599,172.577 
					720.599,171.232 700.764,171.232 700.764,172.577 701.956,173.568 701.956,173.569 701.956,173.569 701.956,203.931 
					700.764,204.921 700.764,206.267 720.599,206.267 720.599,204.921 				"/>
				<g>
					<g>
						<rect x="703.796" y="175.097" fill="#D8A048" width="13.772" height="28.473"/>
					</g>
				</g>
				<polygon fill="#B2853A" points="705.667,176.969 717.567,176.969 717.567,175.097 703.796,175.097 703.796,203.57 
					705.667,203.57 				"/>
				<g>
					<rect x="702.788" y="184.068" fill="#F9F2DF" width="15.641" height="0.78"/>
					<rect x="702.788" y="193.819" fill="#F9F2DF" width="15.641" height="0.78"/>
					<rect x="712.717" y="174.643" fill="#F9F2DF" width="0.78" height="29.554"/>
					<rect x="707.866" y="174.643" fill="#F9F2DF" width="0.78" height="29.554"/>
				</g>
			</g>
			<g>
				<polygon fill="#F9F2DF" points="664.218,203.93 664.218,203.929 664.218,203.929 664.218,173.568 665.41,172.577 
					665.41,171.232 645.574,171.232 645.574,172.577 646.767,173.568 646.767,173.569 646.767,173.569 646.767,203.931 
					645.575,204.921 645.575,206.267 665.41,206.267 665.41,204.921 				"/>
				<g>
					<g>
						<rect x="648.606" y="175.097" fill="#D8A048" width="13.772" height="28.473"/>
					</g>
				</g>
				<polygon fill="#B2853A" points="650.478,176.969 662.378,176.969 662.378,175.097 648.606,175.097 648.606,203.57 
					650.478,203.57 				"/>
				<g>
					<rect x="647.599" y="184.068" fill="#F9F2DF" width="15.641" height="0.78"/>
					<rect x="647.599" y="193.819" fill="#F9F2DF" width="15.641" height="0.78"/>
					<rect x="657.528" y="174.643" fill="#F9F2DF" width="0.78" height="29.554"/>
					<rect x="652.677" y="174.643" fill="#F9F2DF" width="0.78" height="29.554"/>
				</g>
			</g>
			<g>
				<polygon fill="#F9F2DF" points="691.813,262.655 691.813,262.653 691.813,262.653 691.813,232.292 693.005,231.301 
					693.005,229.956 673.169,229.956 673.169,231.301 674.361,232.293 674.361,232.294 674.361,232.294 674.361,262.655 
					673.169,263.645 673.169,264.991 693.005,264.991 693.005,263.645 				"/>
				<g>
					<g>
						<rect x="676.201" y="233.821" fill="#D8A048" width="13.772" height="28.473"/>
					</g>
				</g>
				<polygon fill="#B2853A" points="678.073,235.693 689.973,235.693 689.973,233.821 676.201,233.821 676.201,262.294 
					678.073,262.294 				"/>
				<g>
					<rect x="675.193" y="242.792" fill="#F9F2DF" width="15.641" height="0.78"/>
					<rect x="675.193" y="252.543" fill="#F9F2DF" width="15.641" height="0.78"/>
					<rect x="685.122" y="233.367" fill="#F9F2DF" width="0.78" height="29.554"/>
					<rect x="680.272" y="233.367" fill="#F9F2DF" width="0.78" height="29.554"/>
				</g>
			</g>
			<g>
				<polygon fill="#F9F2DF" points="614.755,265.014 614.755,265.013 614.755,265.013 614.755,234.652 615.947,233.661 
					615.947,232.316 596.111,232.316 596.111,233.661 597.304,234.652 597.304,234.653 597.304,234.653 597.304,265.015 
					596.112,266.005 596.112,267.35 615.947,267.35 615.947,266.005 				"/>
				<g>
					<g>
						<rect x="599.143" y="236.181" fill="#A57B2F" width="13.772" height="28.473"/>
					</g>
				</g>
				<polygon fill="#886624" points="601.015,238.053 612.915,238.053 612.915,236.181 599.143,236.181 599.143,264.654 
					601.015,264.654 				"/>
				<g>
					<rect x="598.136" y="245.152" fill="#F9F2DF" width="15.641" height="0.78"/>
					<rect x="598.136" y="254.903" fill="#F9F2DF" width="15.641" height="0.78"/>
					<rect x="608.065" y="235.727" fill="#F9F2DF" width="0.78" height="29.554"/>
					<rect x="603.214" y="235.727" fill="#F9F2DF" width="0.78" height="29.554"/>
				</g>
			</g>
			<g>
				<polygon fill="#F9F2DF" points="587.161,206.29 587.161,206.289 587.161,206.289 587.161,175.927 588.352,174.937 
					588.352,173.592 568.517,173.592 568.517,174.937 569.709,175.928 569.709,175.929 569.709,175.929 569.709,206.29 
					568.517,207.281 568.517,208.626 588.352,208.626 588.352,207.281 				"/>
				<g>
					<g>
						<rect x="571.549" y="177.457" fill="#A57B2F" width="13.772" height="28.473"/>
					</g>
				</g>
				<polygon fill="#886624" points="573.42,179.329 585.321,179.329 585.321,177.457 571.549,177.457 571.549,205.93 573.42,205.93 
									"/>
				<g>
					<rect x="570.541" y="186.428" fill="#F9F2DF" width="15.641" height="0.78"/>
					<rect x="570.541" y="196.179" fill="#F9F2DF" width="15.641" height="0.78"/>
					<rect x="580.47" y="177.003" fill="#F9F2DF" width="0.78" height="29.554"/>
					<rect x="575.62" y="177.003" fill="#F9F2DF" width="0.78" height="29.554"/>
				</g>
			</g>
			<g>
				<polygon fill="#F9F2DF" points="614.755,206.29 614.755,206.289 614.756,206.289 614.756,175.927 615.947,174.937 
					615.947,173.592 596.112,173.592 596.112,174.937 597.304,175.928 597.304,175.929 597.304,175.929 597.304,206.29 
					596.112,207.281 596.112,208.626 615.947,208.626 615.947,207.281 				"/>
				<g>
					<g>
						<rect x="599.144" y="177.457" fill="#D8A048" width="13.772" height="28.473"/>
					</g>
				</g>
				<polygon fill="#B2853A" points="601.015,179.329 612.915,179.329 612.915,177.457 599.144,177.457 599.144,205.93 
					601.015,205.93 				"/>
				<g>
					<rect x="598.136" y="186.428" fill="#F9F2DF" width="15.641" height="0.78"/>
					<rect x="598.136" y="196.179" fill="#F9F2DF" width="15.641" height="0.78"/>
					<rect x="608.065" y="177.003" fill="#F9F2DF" width="0.78" height="29.554"/>
					<rect x="603.214" y="177.003" fill="#F9F2DF" width="0.78" height="29.554"/>
				</g>
			</g>
			<g>
				<polygon fill="#F9F2DF" points="587.161,265.014 587.161,265.013 587.161,265.013 587.161,234.652 588.352,233.661 
					588.352,232.316 568.517,232.316 568.517,233.661 569.709,234.652 569.709,234.653 569.709,234.653 569.709,265.015 
					568.517,266.005 568.517,267.35 588.353,267.35 588.353,266.005 				"/>
				<g>
					<g>
						<rect x="571.549" y="236.181" fill="#D8A048" width="13.772" height="28.473"/>
					</g>
				</g>
				<polygon fill="#B2853A" points="573.421,238.053 585.321,238.053 585.321,236.181 571.549,236.181 571.549,264.654 
					573.421,264.654 				"/>
				<g>
					<rect x="570.541" y="245.152" fill="#F9F2DF" width="15.641" height="0.78"/>
					<rect x="570.541" y="254.903" fill="#F9F2DF" width="15.641" height="0.78"/>
					<rect x="580.47" y="235.727" fill="#F9F2DF" width="0.78" height="29.554"/>
					<rect x="575.62" y="235.727" fill="#F9F2DF" width="0.78" height="29.554"/>
				</g>
			</g>
			<g>
				<polygon fill="#F9F2DF" points="233.189,262.655 233.189,262.653 233.189,262.653 233.189,232.292 234.381,231.301 
					234.381,229.956 214.545,229.956 214.545,231.301 215.738,232.293 215.738,232.294 215.737,232.294 215.737,262.655 
					214.545,263.645 214.545,264.991 234.381,264.991 234.381,263.645 				"/>
				<g>
					<g>
						<rect x="217.577" y="233.821" fill="#A57B2F" width="13.772" height="28.473"/>
					</g>
				</g>
				<polygon fill="#886624" points="219.449,235.693 231.349,235.693 231.349,233.821 217.577,233.821 217.577,262.294 
					219.449,262.294 				"/>
				<g>
					<rect x="216.57" y="242.792" fill="#F9F2DF" width="15.641" height="0.78"/>
					<rect x="216.57" y="252.543" fill="#F9F2DF" width="15.641" height="0.78"/>
					<rect x="226.498" y="233.367" fill="#F9F2DF" width="0.78" height="29.554"/>
					<rect x="221.648" y="233.367" fill="#F9F2DF" width="0.78" height="29.554"/>
				</g>
			</g>
			<g>
				<polygon fill="#F9F2DF" points="288.378,262.655 288.378,262.653 288.378,262.653 288.378,232.292 289.57,231.301 
					289.57,229.956 269.734,229.956 269.734,231.301 270.927,232.293 270.927,232.294 270.927,232.294 270.927,262.655 
					269.735,263.645 269.735,264.991 289.57,264.991 289.57,263.645 				"/>
				<g>
					<g>
						<rect x="272.766" y="233.821" fill="#A57B2F" width="13.772" height="28.473"/>
					</g>
				</g>
				<polygon fill="#886624" points="274.638,235.693 286.538,235.693 286.538,233.821 272.766,233.821 272.766,262.294 
					274.638,262.294 				"/>
				<g>
					<rect x="271.759" y="242.792" fill="#F9F2DF" width="15.641" height="0.78"/>
					<rect x="271.759" y="252.543" fill="#F9F2DF" width="15.641" height="0.78"/>
					<rect x="281.688" y="233.367" fill="#F9F2DF" width="0.78" height="29.554"/>
					<rect x="276.837" y="233.367" fill="#F9F2DF" width="0.78" height="29.554"/>
				</g>
			</g>
			<g>
				<polygon fill="#F9F2DF" points="260.784,203.93 260.784,203.929 260.784,203.929 260.784,173.568 261.975,172.577 
					261.975,171.232 242.14,171.232 242.14,172.577 243.332,173.568 243.332,173.569 243.332,173.569 243.332,203.931 
					242.14,204.921 242.14,206.267 261.976,206.267 261.976,204.921 				"/>
				<g>
					<g>
						<rect x="245.172" y="175.097" fill="#A57B2F" width="13.772" height="28.473"/>
					</g>
				</g>
				<polygon fill="#886624" points="247.044,176.969 258.944,176.969 258.944,175.097 245.172,175.097 245.172,203.57 
					247.044,203.57 				"/>
				<g>
					<rect x="244.164" y="184.068" fill="#F9F2DF" width="15.641" height="0.78"/>
					<rect x="244.164" y="193.819" fill="#F9F2DF" width="15.641" height="0.78"/>
					<rect x="254.093" y="174.643" fill="#F9F2DF" width="0.78" height="29.554"/>
					<rect x="249.243" y="174.643" fill="#F9F2DF" width="0.78" height="29.554"/>
				</g>
			</g>
			<g>
				<polygon fill="#F9F2DF" points="288.378,203.93 288.378,203.929 288.378,203.929 288.378,173.568 289.57,172.577 
					289.57,171.232 269.734,171.232 269.734,172.577 270.927,173.568 270.927,173.569 270.926,173.569 270.926,203.931 
					269.735,204.921 269.735,206.267 289.57,206.267 289.57,204.921 				"/>
				<g>
					<g>
						<rect x="272.766" y="175.097" fill="#D8A048" width="13.772" height="28.473"/>
					</g>
				</g>
				<polygon fill="#B2853A" points="274.638,176.969 286.538,176.969 286.538,175.097 272.766,175.097 272.766,203.57 
					274.638,203.57 				"/>
				<g>
					<rect x="271.759" y="184.068" fill="#F9F2DF" width="15.641" height="0.78"/>
					<rect x="271.759" y="193.819" fill="#F9F2DF" width="15.641" height="0.78"/>
					<rect x="281.688" y="174.643" fill="#F9F2DF" width="0.78" height="29.554"/>
					<rect x="276.837" y="174.643" fill="#F9F2DF" width="0.78" height="29.554"/>
				</g>
			</g>
			<g>
				<polygon fill="#F9F2DF" points="233.189,203.93 233.189,203.929 233.189,203.929 233.189,173.568 234.381,172.577 
					234.381,171.232 214.545,171.232 214.545,172.577 215.737,173.568 215.737,173.569 215.737,173.569 215.737,203.931 
					214.545,204.921 214.545,206.267 234.381,206.267 234.381,204.921 				"/>
				<g>
					<g>
						<rect x="217.577" y="175.097" fill="#D8A048" width="13.772" height="28.473"/>
					</g>
				</g>
				<polygon fill="#B2853A" points="219.449,176.969 231.349,176.969 231.349,175.097 217.577,175.097 217.577,203.57 
					219.449,203.57 				"/>
				<g>
					<rect x="216.569" y="184.068" fill="#F9F2DF" width="15.641" height="0.78"/>
					<rect x="216.569" y="193.819" fill="#F9F2DF" width="15.641" height="0.78"/>
					<rect x="226.498" y="174.643" fill="#F9F2DF" width="0.78" height="29.554"/>
					<rect x="221.648" y="174.643" fill="#F9F2DF" width="0.78" height="29.554"/>
				</g>
			</g>
			<g>
				<polygon fill="#F9F2DF" points="260.783,262.655 260.783,262.653 260.784,262.653 260.784,232.292 261.975,231.301 
					261.975,229.956 242.14,229.956 242.14,231.301 243.332,232.293 243.332,232.294 243.332,232.294 243.332,262.655 
					242.14,263.645 242.14,264.991 261.975,264.991 261.975,263.645 				"/>
				<g>
					<g>
						<rect x="245.172" y="233.821" fill="#D8A048" width="13.772" height="28.473"/>
					</g>
				</g>
				<polygon fill="#B2853A" points="247.043,235.693 258.944,235.693 258.944,233.821 245.172,233.821 245.172,262.294 
					247.043,262.294 				"/>
				<g>
					<rect x="244.164" y="242.792" fill="#F9F2DF" width="15.641" height="0.78"/>
					<rect x="244.164" y="252.543" fill="#F9F2DF" width="15.641" height="0.78"/>
					<rect x="254.093" y="233.367" fill="#F9F2DF" width="0.78" height="29.554"/>
					<rect x="249.242" y="233.367" fill="#F9F2DF" width="0.78" height="29.554"/>
				</g>
			</g>
			<g>
				<polygon fill="#F9F2DF" points="365.431,265.014 365.431,265.013 365.431,265.013 365.431,234.652 366.622,233.661 
					366.622,232.316 346.787,232.316 346.787,233.661 347.979,234.652 347.979,234.653 347.979,234.653 347.979,265.015 
					346.787,266.005 346.787,267.35 366.623,267.35 366.623,266.005 				"/>
				<g>
					<g>
						<rect x="349.819" y="236.181" fill="#D8A048" width="13.772" height="28.473"/>
					</g>
				</g>
				<polygon fill="#B2853A" points="351.691,238.053 363.591,238.053 363.591,236.181 349.819,236.181 349.819,264.654 
					351.691,264.654 				"/>
				<g>
					<rect x="348.811" y="245.152" fill="#F9F2DF" width="15.641" height="0.78"/>
					<rect x="348.811" y="254.903" fill="#F9F2DF" width="15.641" height="0.78"/>
					<rect x="358.74" y="235.727" fill="#F9F2DF" width="0.78" height="29.554"/>
					<rect x="353.89" y="235.727" fill="#F9F2DF" width="0.78" height="29.554"/>
				</g>
			</g>
			<g>
				<polygon fill="#F9F2DF" points="337.836,206.29 337.836,206.289 337.836,206.289 337.836,175.927 339.028,174.937 
					339.028,173.592 319.192,173.592 319.192,174.937 320.385,175.928 320.385,175.929 320.384,175.929 320.384,206.29 
					319.192,207.281 319.192,208.626 339.028,208.626 339.028,207.281 				"/>
				<g>
					<g>
						<rect x="322.224" y="177.457" fill="#D8A048" width="13.772" height="28.473"/>
					</g>
				</g>
				<polygon fill="#B2853A" points="324.096,179.329 335.996,179.329 335.996,177.457 322.224,177.457 322.224,205.93 
					324.096,205.93 				"/>
				<g>
					<rect x="321.217" y="186.428" fill="#F9F2DF" width="15.641" height="0.78"/>
					<rect x="321.217" y="196.179" fill="#F9F2DF" width="15.641" height="0.78"/>
					<rect x="331.146" y="177.003" fill="#F9F2DF" width="0.78" height="29.554"/>
					<rect x="326.295" y="177.003" fill="#F9F2DF" width="0.78" height="29.554"/>
				</g>
			</g>
			<g>
				<polygon fill="#F9F2DF" points="365.431,206.29 365.431,206.289 365.431,206.289 365.431,175.927 366.622,174.937 
					366.622,173.592 346.787,173.592 346.787,174.937 347.979,175.928 347.979,175.929 347.979,175.929 347.979,206.29 
					346.787,207.281 346.787,208.626 366.623,208.626 366.623,207.281 				"/>
				<g>
					<g>
						<rect x="349.819" y="177.457" fill="#A57B2F" width="13.772" height="28.473"/>
					</g>
				</g>
				<polygon fill="#886624" points="351.691,179.329 363.591,179.329 363.591,177.457 349.819,177.457 349.819,205.93 
					351.691,205.93 				"/>
				<g>
					<rect x="348.811" y="186.428" fill="#F9F2DF" width="15.641" height="0.78"/>
					<rect x="348.811" y="196.179" fill="#F9F2DF" width="15.641" height="0.78"/>
					<rect x="358.74" y="177.003" fill="#F9F2DF" width="0.78" height="29.554"/>
					<rect x="353.89" y="177.003" fill="#F9F2DF" width="0.78" height="29.554"/>
				</g>
			</g>
			<g>
				<polygon fill="#F9F2DF" points="337.836,265.014 337.836,265.013 337.836,265.013 337.836,234.652 339.028,233.661 
					339.028,232.316 319.192,232.316 319.192,233.661 320.385,234.652 320.385,234.653 320.384,234.653 320.384,265.015 
					319.193,266.005 319.193,267.35 339.028,267.35 339.028,266.005 				"/>
				<g>
					<g>
						<rect x="322.224" y="236.181" fill="#A57B2F" width="13.772" height="28.473"/>
					</g>
				</g>
				<polygon fill="#886624" points="324.096,238.053 335.996,238.053 335.996,236.181 322.224,236.181 322.224,264.654 
					324.096,264.654 				"/>
				<g>
					<rect x="321.217" y="245.152" fill="#F9F2DF" width="15.641" height="0.78"/>
					<rect x="321.217" y="254.903" fill="#F9F2DF" width="15.641" height="0.78"/>
					<rect x="331.146" y="235.727" fill="#F9F2DF" width="0.78" height="29.554"/>
					<rect x="326.295" y="235.727" fill="#F9F2DF" width="0.78" height="29.554"/>
				</g>
			</g>
			<polygon fill="#CD8C5F" points="467.57,105.525 492.72,129.794 507.036,129.794 			"/>
			<rect x="381.628" y="279.685" fill="#7F6B52" width="2.34" height="28.582"/>
			<rect x="630.952" y="279.685" fill="#7F6B52" width="2.34" height="28.582"/>
			<g>
				<path fill="#4E3B23" d="M461.03,135.2c-0.347,0.878-1.272,1.219-1.868,1.219c-0.97,0-1.435-0.433-1.435-1.612
					c0-1.186,0.57-3.408,2.287-3.408c0.616,0,1.095,0.243,1.095,0.878c0,0.348-0.125,0.603-0.459,0.603
					c-0.105,0-0.249-0.026-0.374-0.17c0.157-0.079,0.302-0.354,0.302-0.603c0-0.21-0.105-0.4-0.4-0.4
					c-0.721,0-1.363,1.724-1.363,3.061c0,0.603,0.157,1.022,0.786,1.022c0.511,0,0.977-0.249,1.278-0.656L461.03,135.2z"/>
				<path fill="#4E3B23" d="M464.004,133.037l-0.472,2.229c-0.02,0.085-0.026,0.151-0.026,0.21c0,0.183,0.085,0.282,0.269,0.282
					c0.255,0,0.433-0.289,0.531-0.616h0.275c-0.373,1.068-0.963,1.213-1.317,1.213c-0.367,0-0.603-0.21-0.642-0.603
					c-0.203,0.301-0.511,0.603-0.977,0.603c-0.446,0-0.871-0.275-0.871-1.055c0-0.885,0.544-2.294,1.684-2.294
					c0.373,0,0.531,0.144,0.531,0.334v0.046l0.072-0.348H464.004z M461.742,135.207c0,0.505,0.21,0.511,0.328,0.511
					c0.19,0,0.465-0.196,0.544-0.577l0.315-1.481c0-0.079-0.059-0.249-0.269-0.249C462.103,133.411,461.742,134.59,461.742,135.207z
					"/>
				<path fill="#4E3B23" d="M465.975,131.726l-0.754,3.539c-0.02,0.085-0.026,0.151-0.026,0.21c0,0.183,0.085,0.242,0.269,0.242
					c0.255,0,0.492-0.249,0.59-0.577h0.275c-0.373,1.068-1.022,1.213-1.376,1.213c-0.393,0-0.701-0.236-0.701-0.786
					c0-0.125,0.02-0.269,0.053-0.426l0.701-3.284L465.975,131.726z"/>
				<path fill="#4E3B23" d="M467.724,131.726l-0.754,3.539c-0.02,0.085-0.026,0.151-0.026,0.21c0,0.183,0.085,0.242,0.269,0.242
					c0.255,0,0.492-0.249,0.59-0.577h0.275c-0.374,1.068-1.022,1.213-1.377,1.213c-0.393,0-0.701-0.236-0.701-0.786
					c0-0.125,0.02-0.269,0.053-0.426l0.701-3.284L467.724,131.726z"/>
				<path fill="#4E3B23" d="M469.192,133.037l-0.472,2.229c-0.02,0.085-0.026,0.151-0.026,0.21c0,0.183,0.085,0.242,0.269,0.242
					c0.255,0,0.492-0.249,0.59-0.577h0.275c-0.373,1.068-1.022,1.213-1.376,1.213c-0.393,0-0.702-0.236-0.702-0.786
					c0-0.125,0.02-0.269,0.053-0.426l0.446-2.104H469.192z M468.897,131.641c0.289,0,0.525,0.236,0.525,0.524
					c0,0.288-0.236,0.518-0.525,0.518c-0.288,0-0.518-0.229-0.518-0.518C468.379,131.877,468.608,131.641,468.897,131.641z"/>
				<path fill="#4E3B23" d="M472.331,135.141c-0.341,0.393-0.701,0.642-1.003,0.819c-0.275,0.288-0.695,0.393-1.029,0.393
					c-0.669,0-0.957-0.439-0.957-0.839c0-0.302,0.17-0.524,0.347-0.61c0.367-0.649,0.603-1.298,0.807-1.94l0.97-0.131
					c0.079,1.698,0.144,1.953,0.144,2.386c0,0.092-0.006,0.17-0.026,0.249c0.177-0.105,0.347-0.223,0.472-0.328H472.331z
					 M469.866,135.462c-0.065,0-0.144-0.02-0.177-0.085c0,0.308,0.112,0.459,0.4,0.459s0.57-0.151,0.57-0.61
					c0-0.341-0.059-0.544-0.124-1.553c-0.131,0.426-0.315,0.819-0.531,1.239c0.085,0.039,0.151,0.118,0.151,0.229
					C470.155,135.298,470.036,135.462,469.866,135.462z"/>
				<path fill="#4E3B23" d="M473.666,132.002l-0.223,1.035h0.393l-0.053,0.262h-0.393l-0.419,1.966
					c-0.02,0.085-0.026,0.151-0.026,0.21c0,0.183,0.085,0.242,0.269,0.242c0.255,0,0.492-0.249,0.59-0.577h0.275
					c-0.373,1.068-1.022,1.213-1.376,1.213c-0.393,0-0.701-0.236-0.701-0.786c0-0.125,0.02-0.269,0.053-0.426l0.393-1.842h-0.217
					l0.053-0.262h0.216l0.197-0.905L473.666,132.002z"/>
				<path fill="#4E3B23" d="M476.32,133.863c0.229-0.046,0.393-0.328,0.465-0.452h0.21c-0.131,0.282-0.328,0.688-0.675,0.878
					c-0.079,1.258-0.734,2.051-1.56,2.051c-0.61,0-1.049-0.289-1.049-1.036c0-0.754,0.426-2.327,1.776-2.327
					C476.005,132.978,476.28,133.28,476.32,133.863z M475.763,134.387c-0.105-0.039-0.157-0.131-0.157-0.295
					c0-0.177,0.072-0.288,0.183-0.341c-0.013-0.275-0.085-0.374-0.249-0.374c-0.465,0-0.852,1.199-0.852,1.842
					c0,0.433,0.085,0.531,0.335,0.531C475.343,135.751,475.664,135.161,475.763,134.387z"/>
			</g>
			<g>
				<rect x="232.356" y="134.071" fill="#BD9021" width="39.548" height="4.449"/>
				<rect x="271.905" y="131.761" fill="#BD9021" width="1.008" height="9.366"/>
				<rect x="231.349" y="131.761" fill="#BD9021" width="1.008" height="9.366"/>
			</g>
			<g>
				<polygon fill="#BD9021" points="702.788,131.613 702.788,134.071 663.24,134.071 663.24,138.52 702.788,138.52 702.788,140.978 
					703.796,140.978 703.796,131.613 				"/>
				<rect x="662.232" y="131.613" fill="#BD9021" width="1.008" height="9.366"/>
			</g>
			<g>
				<rect x="663.24" y="134.071" fill="#BD9021" width="39.548" height="4.449"/>
				<g>
					<polygon fill="#F9F2DF" points="690.479,133.224 690.479,129.099 691.484,128.108 691.484,126.763 674.748,126.763 
						674.748,128.108 675.709,129.054 675.697,129.054 675.697,143.548 674.748,144.483 674.748,145.828 691.484,145.828 
						691.484,144.483 690.479,143.493 690.479,139.367 					"/>
					<rect x="677.727" y="131.083" fill="#D8A048" width="10.721" height="10.721"/>
					<polygon fill="#B2853A" points="679.13,132.487 688.447,132.487 688.447,131.083 677.727,131.083 677.727,141.804 
						679.13,141.804 					"/>
					
						<line fill="none" stroke="#F9F2DF" stroke-width="2" stroke-miterlimit="10" x1="683.087" y1="131.083" x2="683.087" y2="141.804"/>
					
						<line fill="none" stroke="#F9F2DF" stroke-width="2" stroke-miterlimit="10" x1="677.727" y1="136.444" x2="688.447" y2="136.444"/>
				</g>
			</g>
			<g>
				<polygon fill="#F9F2DF" points="690.479,133.224 690.479,129.099 691.484,128.108 691.484,126.763 674.748,126.763 
					674.748,128.108 675.709,129.054 675.697,129.054 675.697,143.548 674.748,144.483 674.748,145.828 691.484,145.828 
					691.484,144.483 690.479,143.493 690.479,139.367 				"/>
				<rect x="677.727" y="131.083" fill="#D8A048" width="10.721" height="10.721"/>
				<polygon fill="#B2853A" points="679.13,132.487 688.447,132.487 688.447,131.083 677.727,131.083 677.727,141.804 
					679.13,141.804 				"/>
				
					<line fill="none" stroke="#F9F2DF" stroke-width="2" stroke-miterlimit="10" x1="683.087" y1="131.083" x2="683.087" y2="141.804"/>
				
					<line fill="none" stroke="#F9F2DF" stroke-width="2" stroke-miterlimit="10" x1="677.727" y1="136.444" x2="688.447" y2="136.444"/>
			</g>
			<g>
				<polygon fill="#F9F2DF" points="259.595,133.224 259.595,129.099 260.6,128.108 260.6,126.763 243.865,126.763 243.865,128.108 
					244.825,129.054 244.814,129.054 244.814,143.548 243.865,144.483 243.865,145.828 260.6,145.828 260.6,144.483 
					259.595,143.493 259.595,139.367 				"/>
				<rect x="246.843" y="131.083" fill="#D8A048" width="10.721" height="10.721"/>
				<polygon fill="#B2853A" points="248.247,132.487 257.564,132.487 257.564,131.083 246.843,131.083 246.843,141.804 
					248.247,141.804 				"/>
				
					<line fill="none" stroke="#F9F2DF" stroke-width="2" stroke-miterlimit="10" x1="252.204" y1="131.083" x2="252.204" y2="141.804"/>
				
					<line fill="none" stroke="#F9F2DF" stroke-width="2" stroke-miterlimit="10" x1="246.843" y1="136.444" x2="257.564" y2="136.444"/>
			</g>
			<rect x="272.766" y="290.839" fill="#7F6B52" width="7.667" height="2.586"/>
			<rect x="325.277" y="288.499" fill="#7F6B52" width="7.667" height="2.586"/>
			<rect x="356.632" y="299.542" fill="#7F6B52" width="7.667" height="2.586"/>
			<rect x="275.746" y="293.425" fill="#7F6B52" width="7.667" height="2.586"/>
			<rect x="213.158" y="289.012" fill="#7F6B52" width="7.667" height="2.586"/>
			<rect x="217.618" y="286.426" fill="#7F6B52" width="7.667" height="2.586"/>
			<rect x="215.527" y="291.599" fill="#7F6B52" width="7.667" height="2.586"/>
			<rect x="352.798" y="302.128" fill="#7F6B52" width="7.667" height="2.586"/>
			<rect x="572.176" y="290.839" fill="#7F6B52" width="7.667" height="2.586"/>
			<rect x="574.048" y="293.425" fill="#7F6B52" width="7.667" height="2.586"/>
			<rect x="609.688" y="297.843" fill="#7F6B52" width="7.667" height="2.586"/>
			<rect x="604.231" y="300.43" fill="#7F6B52" width="7.667" height="2.586"/>
			<rect x="694.033" y="294.504" fill="#7F6B52" width="7.667" height="2.586"/>
			<rect x="661.577" y="286.939" fill="#7F6B52" width="7.667" height="2.586"/>
			<rect x="230.547" y="299.137" fill="#7F6B52" width="7.667" height="2.586"/>
			<rect x="642.236" y="299.677" fill="#7F6B52" width="7.667" height="2.586"/>
			<rect x="697.866" y="297.09" fill="#7F6B52" width="7.667" height="2.586"/>
			<g>
				<polygon fill="#7F6B52" points="539.385,140.553 467.57,96.392 395.755,140.553 393.549,136.965 467.57,91.448 541.59,136.965 
									"/>
			</g>
		</g>
		<polygon fill="#CBA55B" points="394.106,137.681 393.549,136.965 438.995,109.02 417.655,109.02 392.541,137.681 		"/>
	</g>
	<path fill="#7F6B52" d="M164.08,291.207L164.08,291.207c-1.271,0-2.311,1.04-2.311,2.311v30.447c0,1.271,1.04,2.311,2.311,2.311
		l0,0c1.271,0,2.311-1.04,2.311-2.311v-30.447C166.391,292.247,165.351,291.207,164.08,291.207z"/>
	<circle fill="#F6F29D" cx="164.08" cy="280.519" r="18.817"/>
	<path fill="#7F6B52" d="M786.806,287.659L786.806,287.659c-1.233,0-2.242,1.009-2.242,2.242V328.8c0,1.233,1.009,2.242,2.242,2.242
		l0,0c1.233,0,2.242-1.009,2.242-2.242v-38.899C789.049,288.668,788.04,287.659,786.806,287.659z"/>
	<circle fill="#F6F29D" cx="786.714" cy="274.438" r="23.279"/>
	<path fill="#7F6B52" d="M758.839,288.554L758.839,288.554c-0.988,0-1.797,0.809-1.797,1.797v23.679
		c0,0.988,0.809,1.797,1.797,1.797l0,0c0.989,0,1.797-0.809,1.797-1.797v-23.679C760.637,289.363,759.828,288.554,758.839,288.554z"
		/>
	<circle fill="#F6F29D" cx="758.84" cy="280.242" r="14.635"/>
	<path fill="#A9D7A9" d="M164.08,322.605c-11.553,0-20.918,6.237-20.918,13.931h41.836
		C184.998,328.842,175.633,322.605,164.08,322.605z"/>
	<path fill="#82BC82" d="M758.84,313.18c-9.536,0-17.267,5.149-17.267,11.5h34.534C776.107,318.328,768.376,313.18,758.84,313.18z"
		/>
	<path fill="#A9D7A9" d="M786.714,326.993c-11.21,0-20.298,6.052-20.298,13.518h40.595
		C807.012,333.045,797.924,326.993,786.714,326.993z"/>
	<path fill="#82BC82" d="M308.917,306.814c-12.949,0-23.446,6.991-23.446,15.615h46.892
		C332.363,313.804,321.866,306.814,308.917,306.814z"/>
	<path fill="#A9D7A9" d="M324.27,314.621c-15.221,0-27.561,8.218-27.561,18.355h55.122
		C351.831,322.839,339.491,314.621,324.27,314.621z"/>
	<path fill="#82BC82" d="M635.955,319.861c-12.369,0-22.396,6.678-22.396,14.915h44.791
		C658.35,326.538,648.323,319.861,635.955,319.861z"/>
	<path opacity="0.75" fill="#D7EFF3" d="M235.835,83.411c0.048-0.397,0.081-0.798,0.081-1.208c0-5.466-4.431-9.897-9.897-9.897
		c-1.169,0-2.285,0.213-3.326,0.585c-0.399-7.096-6.262-12.731-13.457-12.731c-4.182,0-7.919,1.903-10.395,4.89
		c-1.02-0.246-2.079-0.391-3.175-0.391c-7.454,0-13.496,6.042-13.496,13.496c0,2.188,0.532,4.249,1.457,6.076
		c-5.43,0.975-8.699,2.228-8.699,3.596c0,3.106,16.843,5.623,37.62,5.623c20.777,0,37.62-2.518,37.62-5.623
		C250.169,86.035,244.561,84.441,235.835,83.411z"/>
	<path opacity="0.75" fill="#D7EFF3" d="M711.873,66.766c0.048-0.397,0.081-0.798,0.081-1.208c0-5.466-4.431-9.897-9.897-9.897
		c-1.169,0-2.285,0.213-3.326,0.585c-0.399-7.096-6.262-12.731-13.457-12.731c-4.182,0-7.919,1.903-10.395,4.89
		c-1.02-0.246-2.079-0.391-3.175-0.391c-7.454,0-13.496,6.042-13.496,13.496c0,2.188,0.532,4.249,1.457,6.076
		c-5.43,0.975-8.699,2.228-8.699,3.596c0,3.106,16.843,5.623,37.62,5.623c20.777,0,37.62-2.518,37.62-5.623
		C726.208,69.39,720.6,67.796,711.873,66.766z"/>
	<path opacity="0.75" fill="#D7EFF3" d="M366.776,37.395c-1.587-1.306-2.599-3.286-2.599-5.502c0-3.934,3.189-7.123,7.123-7.123
		c0.903,0,1.763,0.175,2.558,0.481c1.184-3.53,3.782-6.402,7.125-7.957c-0.033-0.419-0.064-0.84-0.064-1.267
		C380.918,7.176,388.094,0,396.946,0c5.182,0,9.777,2.47,12.707,6.286c2.795-1.408,5.95-2.206,9.294-2.206
		c11.427,0,20.691,9.264,20.691,20.691c0,5.114-1.859,9.791-4.934,13.402c7.446,0.865,11.948,1.984,11.948,3.209
		c0,2.736-22.442,4.954-50.125,4.954s-50.125-2.218-50.125-4.954C346.402,39.747,354.419,38.297,366.776,37.395z"/>
</g>
</svg>