<!-- Generator: Adobe Illustrator 18.1.1, SVG Export Plug-In  -->
<svg version="1.1"
	 xmlns="http://www.w3.org/2000/svg" xmlns:xlink="http://www.w3.org/1999/xlink" xmlns:a="http://ns.adobe.com/AdobeSVGViewerExtensions/3.0/"
	 x="0px" y="0px" width="324.524px" height="324.524px" viewBox="0 0 324.524 324.524" enable-background="new 0 0 324.524 324.524"
	 xml:space="preserve">
<defs>
</defs>
<path fill="#427E7E" d="M306.436,324.524H18.088C8.098,324.524,0,316.426,0,306.436V18.088C0,8.098,8.098,0,18.088,0h288.348
	c9.99,0,18.088,8.098,18.088,18.088v288.348C324.524,316.426,316.426,324.524,306.436,324.524z"/>
<g id="EjjsER.tif_1_">
	<g>
		<g>
			<path fill="#FEFFFF" d="M134.588,191.21c0-19.399-0.002-38.797,0.003-58.196c0.001-1.905-0.211-1.682,1.72-1.683
				c10.719-0.007,21.438,0.012,32.157-0.027c1.107-0.004,1.452,0.275,1.435,1.434c-0.069,4.602-0.038,9.206-0.012,13.809
				c0.002,0.385-0.321,0.995,0.318,1.147c0.538,0.129,0.583-0.47,0.772-0.795c3.292-5.666,7.903-9.961,13.539-13.161
				c6.111-3.47,12.708-5.127,19.71-5.278c6.922-0.15,13.716,0.539,20.296,2.84c9.881,3.455,16.53,10.279,20.408,19.963
				c2.691,6.721,3.836,13.785,4.447,20.961c0.512,6.022,0.504,12.059,0.504,18.095c-0.001,19.769-0.013,39.537,0.031,59.306
				c0.003,1.223-0.33,1.453-1.477,1.448c-11.371-0.046-22.742-0.055-34.113,0.008c-1.304,0.007-1.499-0.402-1.497-1.577
				c0.034-20.015,0.034-40.03,0.017-60.045c-0.004-5.056-0.315-10.081-1.578-15.014c-2.221-8.677-8.252-13.406-17.176-13.427
				c-4.205-0.01-8.288,0.532-12.029,2.614c-4.961,2.761-7.531,7.292-9.012,12.598c-1.346,4.824-1.697,9.773-1.702,14.75
				c-0.02,19.563-0.019,39.126,0.019,58.689c0.002,1.151-0.32,1.404-1.414,1.4c-11.371-0.04-22.742-0.039-34.113,0
				c-1.027,0.004-1.277-0.273-1.276-1.294C134.596,230.254,134.588,210.732,134.588,191.21z"/>
			<path fill="#FEFFFF" d="M74.522,191.177c0-19.477,0.008-38.954-0.022-58.431c-0.002-1.077,0.206-1.452,1.371-1.447
				c11.369,0.048,22.737,0.044,34.106,0.004c1.076-0.004,1.357,0.277,1.356,1.366c-0.029,39.036-0.028,78.072-0.002,117.108
				c0.001,1.02-0.248,1.297-1.275,1.293c-11.409-0.039-22.819-0.041-34.228,0.002c-1.074,0.004-1.334-0.253-1.332-1.341
				C74.532,230.213,74.522,210.695,74.522,191.177z"/>
			<path fill="#FEFFFF" d="M71.588,93.253c0.099-11.999,9.705-21.603,21.513-21.509c11.865,0.095,21.524,9.943,21.388,21.806
				c-0.137,11.894-9.839,21.522-21.621,21.455C81.06,114.938,71.489,105.155,71.588,93.253z"/>
		</g>
	</g>
</g>
</svg>