<!-- Generator: Adobe Illustrator 18.1.1, SVG Export Plug-In  -->
<svg version="1.1"
	 xmlns="http://www.w3.org/2000/svg" xmlns:xlink="http://www.w3.org/1999/xlink" xmlns:a="http://ns.adobe.com/AdobeSVGViewerExtensions/3.0/"
	 x="0px" y="0px" width="272.95px" height="272.95px" viewBox="0 0 272.95 272.95" enable-background="new 0 0 272.95 272.95"
	 xml:space="preserve">
<defs>
</defs>
<rect x="0" y="0" fill="#13ACC4" width="272.95" height="272.95"/>
<g>
	<rect x="32.612" y="39.412" fill="none" width="207.726" height="221.129"/>
	<path fill="#FFFFFF" d="M57.562,56.831c1.156,0,2.09-0.398,2.802-1.196c0.712-0.797,1.068-1.929,1.068-3.394v-1.514
		c-0.391,0.578-0.877,1.015-1.459,1.312c-0.582,0.297-1.219,0.446-1.91,0.446c-1.709,0-3.05-0.527-4.022-1.581
		c-0.973-1.054-1.459-2.517-1.459-4.389c0-1.79,0.518-3.253,1.551-4.389c1.033-1.135,2.312-1.703,3.833-1.703
		c1.774,0,3.198,0.558,4.272,1.672c1.074,1.115,1.611,2.69,1.611,4.724v5.396c0,2.043-0.586,3.636-1.758,4.779
		c-1.172,1.144-2.682,1.715-4.529,1.715c-0.626,0-1.268-0.065-1.922-0.195c-0.655-0.13-1.268-0.321-1.838-0.574l0.367-1.831
		c0.537,0.261,1.063,0.445,1.58,0.556C56.266,56.776,56.871,56.831,57.562,56.831z M58.063,50.605c0.838,0,1.544-0.191,2.118-0.574
		c0.573-0.382,0.99-0.871,1.251-1.465v-2.1c0-1.326-0.297-2.35-0.892-3.07c-0.594-0.72-1.428-1.08-2.502-1.08
		c-0.871,0-1.598,0.389-2.179,1.166c-0.582,0.777-0.873,1.788-0.873,3.033c0,1.221,0.269,2.208,0.806,2.96
		C56.329,50.229,57.086,50.605,58.063,50.605z"/>
	<path fill="#FFFFFF" d="M78.217,52.18c0,2.01-0.511,3.601-1.532,4.773s-2.395,1.758-4.12,1.758c-1.717,0-3.09-0.586-4.119-1.758
		c-1.03-1.172-1.545-2.763-1.545-4.773v-5.225c0-1.994,0.511-3.581,1.532-4.761c1.021-1.18,2.391-1.77,4.108-1.77
		c1.725,0,3.102,0.59,4.132,1.77c1.029,1.18,1.544,2.767,1.544,4.761V52.18z M75.813,46.455c0-1.277-0.285-2.287-0.855-3.027
		c-0.569-0.74-1.375-1.111-2.416-1.111c-1.034,0-1.832,0.371-2.393,1.111c-0.562,0.741-0.843,1.75-0.843,3.027v6.213
		c0,1.278,0.287,2.291,0.86,3.04c0.574,0.749,1.373,1.123,2.398,1.123c1.042,0,1.844-0.373,2.405-1.117
		c0.562-0.745,0.843-1.76,0.843-3.046V46.455z"/>
	<path fill="#FFFFFF" d="M80.866,44.099c0-1.033,0.334-1.904,1.001-2.612s1.559-1.062,2.673-1.062c1.115,0,2.007,0.352,2.674,1.056
		c0.667,0.704,1.001,1.577,1.001,2.618v0.94c0,1.034-0.332,1.9-0.995,2.6c-0.663,0.7-1.548,1.05-2.654,1.05
		c-1.123,0-2.021-0.35-2.692-1.05c-0.671-0.7-1.007-1.566-1.007-2.6V44.099z M82.648,45.039c0,0.603,0.165,1.113,0.494,1.532
		c0.33,0.419,0.804,0.629,1.423,0.629c0.594,0,1.054-0.208,1.379-0.623s0.488-0.928,0.488-1.538v-0.94
		c0-0.602-0.165-1.117-0.494-1.544c-0.33-0.428-0.796-0.641-1.398-0.641c-0.609,0-1.078,0.213-1.403,0.641
		c-0.325,0.427-0.488,0.942-0.488,1.544V45.039z M85.187,57.112l-1.331-0.818l8.68-13.892l1.33,0.818L85.187,57.112z M89.471,54.097
		c0-1.033,0.334-1.902,1.002-2.606c0.667-0.704,1.558-1.056,2.673-1.056c1.106,0,1.996,0.352,2.667,1.056
		c0.672,0.704,1.008,1.573,1.008,2.606v0.952c0,1.042-0.334,1.913-1.002,2.612c-0.667,0.7-1.55,1.05-2.648,1.05
		c-1.123,0-2.021-0.35-2.691-1.05c-0.672-0.7-1.008-1.57-1.008-2.612V54.097z M91.254,55.049c0,0.61,0.164,1.125,0.494,1.544
		c0.329,0.419,0.804,0.628,1.422,0.628c0.594,0,1.054-0.209,1.379-0.628c0.326-0.419,0.488-0.934,0.488-1.544v-0.952
		c0-0.602-0.166-1.115-0.5-1.538c-0.334-0.423-0.798-0.635-1.392-0.635c-0.603,0-1.068,0.212-1.397,0.635
		c-0.33,0.423-0.494,0.936-0.494,1.538V55.049z"/>
	<path fill="#FFFFFF" d="M117.707,52.827c0,1.742-0.564,3.149-1.691,4.224s-2.602,1.611-4.425,1.611
		c-1.814,0-3.29-0.539-4.425-1.618c-1.136-1.078-1.703-2.484-1.703-4.217v-2.966c0-1.725,0.563-3.127,1.69-4.205
		c1.127-1.079,2.599-1.618,4.413-1.618c1.823,0,3.302,0.539,4.438,1.618c1.135,1.078,1.703,2.48,1.703,4.205V52.827z
		 M115.302,49.849c0-1.229-0.334-2.193-1.001-2.893c-0.667-0.7-1.579-1.05-2.734-1.05c-1.147,0-2.051,0.35-2.71,1.05
		c-0.659,0.7-0.989,1.665-0.989,2.893v2.979c0,1.253,0.332,2.23,0.995,2.93c0.663,0.7,1.573,1.05,2.729,1.05s2.063-0.35,2.722-1.05
		c0.66-0.7,0.989-1.676,0.989-2.93V49.849z"/>
	<path fill="#FFFFFF" d="M129.854,52.339h-6.507v6.116h-2.405V44.233h9.974v1.868h-7.568v4.358h6.507V52.339z"/>
	<path fill="#FFFFFF" d="M148.469,54.744c0-0.578-0.252-1.045-0.757-1.404c-0.505-0.358-1.416-0.7-2.734-1.025
		c-1.814-0.472-3.136-1.011-3.961-1.618c-0.826-0.606-1.239-1.52-1.239-2.74c0-1.196,0.494-2.148,1.483-2.856
		c0.988-0.708,2.321-1.062,3.997-1.062c1.709,0,3.042,0.378,3.998,1.135s1.414,1.819,1.373,3.186l-0.023,0.073h-2.283
		c0-0.749-0.269-1.357-0.806-1.825c-0.537-0.468-1.29-0.702-2.259-0.702c-1.017,0-1.784,0.189-2.301,0.567
		c-0.517,0.379-0.775,0.869-0.775,1.471c0,0.594,0.234,1.056,0.702,1.385c0.468,0.33,1.427,0.67,2.875,1.02
		c1.75,0.472,3.04,1.025,3.87,1.66s1.244,1.542,1.244,2.722c0,1.253-0.517,2.222-1.55,2.905s-2.438,1.025-4.212,1.025
		c-1.644,0-3.022-0.346-4.138-1.038c-1.115-0.691-1.647-1.786-1.599-3.284l0.012-0.073h2.295c0,0.879,0.331,1.522,0.995,1.929
		c0.663,0.407,1.475,0.61,2.435,0.61c1.066,0,1.893-0.191,2.479-0.574C148.176,55.851,148.469,55.354,148.469,54.744z"/>
	<path fill="#FFFFFF" d="M162.799,51.985h-6.481v4.614h7.544v1.855h-9.949V44.233h9.949v1.868h-7.544v4.004h6.481V51.985z"/>
	<path fill="#FFFFFF" d="M172.371,49.519l3.394-5.286h2.844l-4.785,7.043l4.896,7.178h-2.808l-3.504-5.396l-3.479,5.396h-2.844
		l4.906-7.178l-4.797-7.043h2.832L172.371,49.519z"/>
	<path fill="#FFFFFF" d="M193.5,44.233v9.363c0,1.587-0.567,2.828-1.703,3.723c-1.135,0.896-2.61,1.343-4.425,1.343
		c-1.799,0-3.268-0.447-4.407-1.343c-1.139-0.895-1.709-2.136-1.709-3.723v-9.363h2.393v9.363c0,1.001,0.344,1.787,1.032,2.356
		c0.688,0.57,1.585,0.854,2.691,0.854c1.115,0,2.016-0.283,2.704-0.848c0.688-0.566,1.031-1.353,1.031-2.362v-9.363H193.5z"/>
	<path fill="#FFFFFF" d="M205.489,55.183h-6.214l-1.257,3.271h-2.49l5.725-14.221h2.271l5.713,14.221h-2.478L205.489,55.183z
		 M199.995,53.303h4.773l-2.355-6.079h-0.074L199.995,53.303z"/>
	<path fill="#FFFFFF" d="M214.093,56.599h6.409v1.855h-8.814V44.233h2.405V56.599z"/>
	<path fill="#FFFFFF" d="M67.231,85.183h-6.214l-1.257,3.271h-2.49l5.725-14.221h2.271l5.713,14.221H68.5L67.231,85.183z
		 M61.737,83.303h4.773l-2.355-6.079H64.08L61.737,83.303z"/>
	<path fill="#FFFFFF" d="M81.867,84.744c0-0.578-0.252-1.045-0.757-1.404c-0.505-0.358-1.416-0.7-2.734-1.025
		c-1.814-0.472-3.136-1.011-3.961-1.618c-0.826-0.606-1.239-1.52-1.239-2.74c0-1.196,0.494-2.148,1.483-2.856
		c0.988-0.708,2.321-1.062,3.997-1.062c1.709,0,3.042,0.378,3.998,1.135s1.414,1.819,1.373,3.186l-0.023,0.073H81.72
		c0-0.749-0.269-1.357-0.806-1.825c-0.537-0.468-1.29-0.702-2.259-0.702c-1.017,0-1.784,0.189-2.301,0.567
		c-0.517,0.379-0.775,0.869-0.775,1.471c0,0.594,0.234,1.056,0.702,1.385c0.468,0.33,1.427,0.67,2.875,1.02
		c1.75,0.472,3.04,1.025,3.87,1.66s1.244,1.542,1.244,2.722c0,1.253-0.517,2.222-1.55,2.905s-2.438,1.025-4.212,1.025
		c-1.644,0-3.022-0.346-4.138-1.038c-1.115-0.691-1.647-1.786-1.599-3.284l0.012-0.073h2.295c0,0.879,0.331,1.522,0.995,1.929
		c0.663,0.407,1.475,0.61,2.435,0.61c1.066,0,1.893-0.191,2.479-0.574C81.574,85.851,81.867,85.354,81.867,84.744z"/>
	<path fill="#FFFFFF" d="M95.746,84.744c0-0.578-0.252-1.045-0.757-1.404c-0.505-0.358-1.416-0.7-2.734-1.025
		c-1.814-0.472-3.136-1.011-3.961-1.618c-0.826-0.606-1.239-1.52-1.239-2.74c0-1.196,0.494-2.148,1.483-2.856
		c0.988-0.708,2.321-1.062,3.997-1.062c1.709,0,3.042,0.378,3.998,1.135s1.414,1.819,1.373,3.186l-0.023,0.073H95.6
		c0-0.749-0.269-1.357-0.806-1.825c-0.537-0.468-1.29-0.702-2.259-0.702c-1.017,0-1.784,0.189-2.301,0.567
		c-0.517,0.379-0.775,0.869-0.775,1.471c0,0.594,0.234,1.056,0.702,1.385c0.468,0.33,1.427,0.67,2.875,1.02
		c1.75,0.472,3.04,1.025,3.87,1.66s1.244,1.542,1.244,2.722c0,1.253-0.517,2.222-1.55,2.905s-2.438,1.025-4.212,1.025
		c-1.644,0-3.022-0.346-4.138-1.038c-1.115-0.691-1.647-1.786-1.599-3.284l0.012-0.073h2.295c0,0.879,0.331,1.522,0.995,1.929
		c0.663,0.407,1.475,0.61,2.435,0.61c1.066,0,1.893-0.191,2.479-0.574C95.454,85.851,95.746,85.354,95.746,84.744z"/>
	<path fill="#FFFFFF" d="M109.76,85.183h-6.214l-1.257,3.271h-2.49l5.725-14.221h2.271l5.713,14.221h-2.478L109.76,85.183z
		 M104.266,83.303h4.773l-2.355-6.079h-0.074L104.266,83.303z"/>
	<path fill="#FFFFFF" d="M127.765,74.233v9.363c0,1.587-0.567,2.828-1.703,3.723c-1.135,0.896-2.61,1.343-4.425,1.343
		c-1.799,0-3.268-0.447-4.407-1.343c-1.139-0.895-1.709-2.136-1.709-3.723v-9.363h2.393v9.363c0,1.001,0.344,1.787,1.032,2.356
		c0.688,0.57,1.585,0.854,2.691,0.854c1.115,0,2.016-0.283,2.704-0.848c0.688-0.566,1.031-1.353,1.031-2.362v-9.363H127.765z"/>
	<path fill="#FFFFFF" d="M133.795,86.599h6.409v1.855h-8.814V74.233h2.405V86.599z"/>
	<path fill="#FFFFFF" d="M152.289,76.101h-4.357v12.354h-2.404V76.101h-4.297v-1.868h11.059V76.101z"/>
	<path fill="#FFFFFF" d="M163.618,84.744c0-0.578-0.252-1.045-0.757-1.404c-0.505-0.358-1.416-0.7-2.734-1.025
		c-1.814-0.472-3.136-1.011-3.961-1.618c-0.826-0.606-1.239-1.52-1.239-2.74c0-1.196,0.494-2.148,1.483-2.856
		c0.988-0.708,2.321-1.062,3.997-1.062c1.709,0,3.042,0.378,3.998,1.135s1.414,1.819,1.373,3.186l-0.023,0.073h-2.283
		c0-0.749-0.269-1.357-0.806-1.825c-0.537-0.468-1.29-0.702-2.259-0.702c-1.017,0-1.784,0.189-2.301,0.567
		c-0.517,0.379-0.775,0.869-0.775,1.471c0,0.594,0.234,1.056,0.702,1.385c0.468,0.33,1.427,0.67,2.875,1.02
		c1.75,0.472,3.04,1.025,3.87,1.66s1.244,1.542,1.244,2.722c0,1.253-0.517,2.222-1.55,2.905s-2.438,1.025-4.212,1.025
		c-1.644,0-3.022-0.346-4.138-1.038c-1.115-0.691-1.647-1.786-1.599-3.284l0.012-0.073h2.295c0,0.879,0.331,1.522,0.995,1.929
		c0.663,0.407,1.475,0.61,2.435,0.61c1.066,0,1.893-0.191,2.479-0.574C163.325,85.851,163.618,85.354,163.618,84.744z"/>
	<path fill="#FFFFFF" d="M183.844,85.183h-6.214l-1.257,3.271h-2.49l5.725-14.221h2.271l5.713,14.221h-2.478L183.844,85.183z
		 M178.35,83.303h4.773l-2.355-6.079h-0.074L178.35,83.303z"/>
	<path fill="#FFFFFF" d="M192.45,82.607v5.847h-2.405V74.233h5.628c1.668,0,2.96,0.366,3.876,1.099
		c0.915,0.732,1.373,1.758,1.373,3.076c0,0.725-0.201,1.343-0.604,1.855c-0.402,0.513-0.995,0.928-1.776,1.245
		c0.847,0.244,1.455,0.659,1.825,1.245s0.556,1.306,0.556,2.161v1.44c0,0.366,0.022,0.725,0.067,1.074
		c0.044,0.35,0.12,0.615,0.226,0.793v0.232h-2.479c-0.098-0.187-0.158-0.48-0.183-0.879c-0.024-0.398-0.036-0.81-0.036-1.233v-1.416
		c0-0.732-0.212-1.302-0.635-1.709c-0.424-0.407-1.034-0.61-1.832-0.61H192.45z M192.45,80.728h3.223
		c0.977,0,1.692-0.191,2.148-0.574c0.456-0.382,0.684-0.932,0.684-1.648c0-0.749-0.23-1.336-0.689-1.764
		c-0.46-0.427-1.174-0.641-2.143-0.641h-3.223V80.728z"/>
	<path fill="#FFFFFF" d="M213.543,81.985h-6.481v4.614h7.544v1.855h-9.949V74.233h9.949v1.868h-7.544v4.004h6.481V81.985z"/>
	<path fill="#FFFFFF" d="M68.835,113.804l0.024,0.073c0.041,1.538-0.466,2.72-1.52,3.546c-1.055,0.826-2.419,1.239-4.096,1.239
		c-1.685,0-3.091-0.545-4.218-1.636c-1.127-1.09-1.69-2.49-1.69-4.199v-2.966c0-1.701,0.563-3.096,1.69-4.187
		c1.127-1.09,2.533-1.636,4.218-1.636c1.726,0,3.104,0.413,4.139,1.239c1.033,0.826,1.529,2,1.488,3.522l-0.023,0.073H66.54
		c0-0.984-0.289-1.725-0.866-2.222c-0.578-0.496-1.388-0.745-2.43-0.745c-1.001,0-1.835,0.378-2.502,1.135
		c-0.668,0.757-1.002,1.693-1.002,2.808v2.979c0,1.131,0.334,2.077,1.002,2.838c0.667,0.761,1.501,1.141,2.502,1.141
		c1.033,0,1.839-0.248,2.417-0.745c0.578-0.496,0.866-1.249,0.866-2.258H68.835z"/>
	<path fill="#FFFFFF" d="M83.863,112.827c0,1.742-0.564,3.149-1.691,4.224s-2.602,1.611-4.425,1.611
		c-1.814,0-3.29-0.539-4.425-1.618c-1.136-1.078-1.703-2.484-1.703-4.217v-2.966c0-1.725,0.563-3.127,1.69-4.205
		c1.127-1.079,2.599-1.618,4.413-1.618c1.823,0,3.302,0.539,4.438,1.618c1.135,1.078,1.703,2.48,1.703,4.205V112.827z
		 M81.457,109.849c0-1.229-0.334-2.193-1.001-2.893c-0.667-0.7-1.579-1.05-2.734-1.05c-1.147,0-2.051,0.35-2.71,1.05
		c-0.659,0.7-0.989,1.665-0.989,2.893v2.979c0,1.253,0.332,2.23,0.995,2.93c0.663,0.7,1.573,1.05,2.729,1.05s2.063-0.35,2.722-1.05
		c0.66-0.7,0.989-1.676,0.989-2.93V109.849z"/>
	<path fill="#FFFFFF" d="M94.495,115.293h0.072l4.322-11.06h3.002v14.221h-2.404v-9.875l-0.073-0.024l-4.053,9.9h-1.66l-4.126-10.12
		l-0.073,0.024v10.095h-2.405v-14.221h3.102L94.495,115.293z"/>
	<path fill="#FFFFFF" d="M113.147,115.293h0.072l4.322-11.06h3.002v14.221h-2.404v-9.875l-0.073-0.024l-4.053,9.9h-1.66
		l-4.126-10.12l-0.073,0.024v10.095h-2.405v-14.221h3.102L113.147,115.293z"/>
	<path fill="#FFFFFF" d="M126.793,118.455h-2.393v-14.221h2.393V118.455z"/>
	<path fill="#FFFFFF" d="M140.746,106.101h-4.357v12.354h-2.404v-12.354h-4.297v-1.868h11.059V106.101z"/>
	<path fill="#FFFFFF" d="M154.003,106.101h-4.357v12.354h-2.404v-12.354h-4.297v-1.868h11.059V106.101z"/>
	<path fill="#FFFFFF" d="M165.917,111.985h-6.481v4.614h7.544v1.855h-9.949v-14.221h9.949v1.868h-7.544v4.004h6.481V111.985z"/>
	<path fill="#FFFFFF" d="M170.398,118.455v-14.221h5.14c1.717,0,3.161,0.547,4.333,1.642c1.172,1.094,1.758,2.492,1.758,4.193v2.563
		c0,1.709-0.586,3.107-1.758,4.193c-1.172,1.087-2.616,1.63-4.333,1.63H170.398z M172.803,106.101v10.498h2.734
		c1.025,0,1.896-0.378,2.612-1.135s1.074-1.701,1.074-2.832v-2.576c0-1.115-0.358-2.053-1.074-2.813
		c-0.716-0.761-1.587-1.142-2.612-1.142H172.803z"/>
	<path fill="#FFFFFF" d="M191.187,118.455v-14.221h4.847c1.733,0,3.082,0.324,4.047,0.97c0.964,0.647,1.446,1.618,1.446,2.912
		c0,0.684-0.191,1.29-0.574,1.819c-0.382,0.529-0.928,0.928-1.635,1.196c0.83,0.204,1.48,0.61,1.953,1.221
		c0.472,0.61,0.707,1.306,0.707,2.087c0,1.318-0.449,2.317-1.349,2.997c-0.899,0.68-2.15,1.02-3.753,1.02H191.187z M193.592,110.374
		h2.441c1.009,0,1.776-0.181,2.301-0.543c0.525-0.362,0.788-0.889,0.788-1.581c0-0.7-0.251-1.192-0.751-1.477
		c-0.501-0.285-1.28-0.427-2.338-0.427h-2.441V110.374z M193.592,112.095v4.504h3.284c0.887,0,1.556-0.191,2.008-0.574
		c0.451-0.382,0.678-0.932,0.678-1.648c0-0.684-0.216-1.229-0.647-1.636c-0.432-0.407-1.066-0.623-1.904-0.647h-0.134H193.592z"/>
	<path fill="#FFFFFF" d="M210.046,111.265l3.699-7.031h2.697l-5.225,9.216v5.005h-2.404v-5.115l-5.151-9.106h2.698L210.046,111.265z
		"/>
	<path fill="#FFFFFF" d="M99.548,142.607v5.847h-2.405v-14.221h5.628c1.668,0,2.96,0.366,3.876,1.099
		c0.915,0.732,1.373,1.758,1.373,3.076c0,0.725-0.201,1.343-0.604,1.855c-0.402,0.513-0.995,0.928-1.776,1.245
		c0.847,0.244,1.455,0.659,1.825,1.245s0.556,1.306,0.556,2.161v1.44c0,0.366,0.022,0.725,0.067,1.074
		c0.044,0.35,0.12,0.615,0.226,0.793v0.232h-2.479c-0.098-0.187-0.158-0.48-0.183-0.879c-0.024-0.398-0.036-0.81-0.036-1.233v-1.416
		c0-0.732-0.212-1.302-0.635-1.709c-0.424-0.407-1.034-0.61-1.832-0.61H99.548z M99.548,140.728h3.223
		c0.977,0,1.692-0.191,2.148-0.574c0.456-0.382,0.684-0.932,0.684-1.648c0-0.749-0.23-1.336-0.689-1.764
		c-0.46-0.427-1.174-0.641-2.143-0.641h-3.223V140.728z"/>
	<path fill="#FFFFFF" d="M120.641,141.985h-6.481v4.614h7.544v1.855h-9.949v-14.221h9.949v1.868h-7.544v4.004h6.481V141.985z"/>
	<path fill="#FFFFFF" d="M127.527,143.328v5.127h-2.405v-14.221h5.689c1.651,0,2.951,0.423,3.899,1.27
		c0.948,0.847,1.423,1.941,1.423,3.284c0,1.351-0.475,2.446-1.423,3.284c-0.948,0.838-2.248,1.257-3.899,1.257H127.527z
		 M127.527,141.448h3.284c0.951,0,1.674-0.256,2.166-0.769s0.738-1.135,0.738-1.868c0-0.749-0.246-1.387-0.738-1.917
		c-0.492-0.529-1.215-0.793-2.166-0.793h-3.284V141.448z"/>
	<path fill="#FFFFFF" d="M147.985,141.985h-6.481v4.614h7.544v1.855h-9.949v-14.221h9.949v1.868h-7.544v4.004h6.481V141.985z"/>
	<path fill="#FFFFFF" d="M161.036,145.183h-6.214l-1.257,3.271h-2.49l5.725-14.221h2.271l5.713,14.221h-2.478L161.036,145.183z
		 M155.541,143.303h4.773l-2.355-6.079h-0.074L155.541,143.303z"/>
	<path fill="#FFFFFF" d="M176.513,136.101h-4.357v12.354h-2.404v-12.354h-4.297v-1.868h11.059V136.101z"/>
	<path fill="#FFFFFF" d="M56.605,172.827c0,1.742-0.564,3.149-1.691,4.224s-2.602,1.611-4.425,1.611
		c-1.814,0-3.29-0.539-4.425-1.618c-1.136-1.078-1.703-2.484-1.703-4.217v-2.966c0-1.725,0.563-3.127,1.69-4.205
		c1.127-1.079,2.599-1.618,4.413-1.618c1.823,0,3.302,0.539,4.438,1.618c1.135,1.078,1.703,2.48,1.703,4.205V172.827z M54.2,169.849
		c0-1.229-0.334-2.193-1.001-2.893c-0.667-0.7-1.579-1.05-2.734-1.05c-1.147,0-2.051,0.35-2.71,1.05
		c-0.659,0.7-0.989,1.665-0.989,2.893v2.979c0,1.253,0.332,2.23,0.995,2.93c0.663,0.7,1.573,1.05,2.729,1.05s2.063-0.35,2.722-1.05
		c0.66-0.7,0.989-1.676,0.989-2.93V169.849z"/>
	<path fill="#FFFFFF" d="M68.75,172.339h-6.507v6.116h-2.405v-14.221h9.974v1.868h-7.568v4.358h6.507V172.339z"/>
	<path fill="#FFFFFF" d="M81.629,172.339h-6.507v6.116h-2.405v-14.221h9.974v1.868h-7.568v4.358h6.507V172.339z"/>
	<path fill="#FFFFFF" d="M94.483,171.985h-6.481v4.614h7.544v1.855h-9.949v-14.221h9.949v1.868h-7.544v4.004h6.481V171.985z"/>
	<path fill="#FFFFFF" d="M111.037,178.455h-2.393l-7.202-10.486l-0.073,0.024v10.461h-2.405v-14.221h2.405l7.202,10.486l0.073-0.024
		v-10.461h2.393V178.455z"/>
	<path fill="#FFFFFF" d="M114.93,178.455v-14.221h5.14c1.717,0,3.161,0.547,4.333,1.642c1.172,1.094,1.758,2.492,1.758,4.193v2.563
		c0,1.709-0.586,3.107-1.758,4.193c-1.172,1.087-2.616,1.63-4.333,1.63H114.93z M117.335,166.101v10.498h2.734
		c1.025,0,1.896-0.378,2.612-1.135s1.074-1.701,1.074-2.832v-2.576c0-1.115-0.358-2.053-1.074-2.813
		c-0.716-0.761-1.587-1.142-2.612-1.142H117.335z"/>
	<path fill="#FFFFFF" d="M138.392,171.985h-6.481v4.614h7.544v1.855h-9.949v-14.221h9.949v1.868h-7.544v4.004h6.481V171.985z"/>
	<path fill="#FFFFFF" d="M145.277,172.607v5.847h-2.405v-14.221h5.628c1.668,0,2.96,0.366,3.876,1.099
		c0.915,0.732,1.373,1.758,1.373,3.076c0,0.725-0.201,1.343-0.604,1.855c-0.402,0.513-0.995,0.928-1.776,1.245
		c0.847,0.244,1.455,0.659,1.825,1.245s0.556,1.306,0.556,2.161v1.44c0,0.366,0.022,0.725,0.067,1.074
		c0.044,0.35,0.12,0.615,0.226,0.793v0.232h-2.479c-0.098-0.187-0.158-0.48-0.183-0.879c-0.024-0.398-0.036-0.81-0.036-1.233v-1.416
		c0-0.732-0.212-1.302-0.635-1.709c-0.424-0.407-1.034-0.61-1.832-0.61H145.277z M145.277,170.728h3.223
		c0.977,0,1.692-0.191,2.148-0.574c0.456-0.382,0.684-0.932,0.684-1.648c0-0.749-0.23-1.336-0.689-1.764
		c-0.46-0.427-1.174-0.641-2.143-0.641h-3.223V170.728z"/>
	<path fill="#FFFFFF" d="M165.918,174.744c0-0.578-0.252-1.045-0.757-1.404c-0.505-0.358-1.416-0.7-2.734-1.025
		c-1.814-0.472-3.136-1.011-3.961-1.618c-0.826-0.606-1.239-1.52-1.239-2.74c0-1.196,0.494-2.148,1.483-2.856
		c0.988-0.708,2.321-1.062,3.997-1.062c1.709,0,3.042,0.378,3.998,1.135s1.414,1.819,1.373,3.186l-0.023,0.073h-2.283
		c0-0.749-0.269-1.357-0.806-1.825c-0.537-0.468-1.29-0.702-2.259-0.702c-1.017,0-1.784,0.189-2.301,0.567
		c-0.517,0.379-0.775,0.869-0.775,1.471c0,0.594,0.234,1.056,0.702,1.385c0.468,0.33,1.427,0.67,2.875,1.02
		c1.75,0.472,3.04,1.025,3.87,1.66s1.244,1.542,1.244,2.722c0,1.253-0.517,2.222-1.55,2.905s-2.438,1.025-4.212,1.025
		c-1.644,0-3.022-0.346-4.138-1.038c-1.115-0.691-1.647-1.786-1.599-3.284l0.012-0.073h2.295c0,0.879,0.331,1.522,0.995,1.929
		c0.663,0.407,1.475,0.61,2.435,0.61c1.066,0,1.893-0.191,2.479-0.574C165.625,175.851,165.918,175.354,165.918,174.744z"/>
	<path fill="#FFFFFF" d="M173.34,177.869l-1.832,3.735h-1.428l0.854-3.857v-1.99h2.405V177.869z"/>
	<path fill="#FFFFFF" d="M186.194,175.232v0.037l0.012-0.061l2.697-10.974h2.234l2.697,10.999v0.037l0.013-0.061l2.185-10.974h2.576
		l-3.589,14.221h-2.222l-2.746-10.437h-0.074l-2.771,10.437h-2.21l-3.588-14.221h2.575L186.194,175.232z"/>
	<path fill="#FFFFFF" d="M213.012,178.455h-2.417v-5.994h-6.909v5.994h-2.405v-14.221h2.405v6.36h6.909v-6.36h2.417V178.455z"/>
	<path fill="#FFFFFF" d="M228.588,172.827c0,1.742-0.564,3.149-1.691,4.224s-2.602,1.611-4.425,1.611
		c-1.814,0-3.29-0.539-4.425-1.618c-1.136-1.078-1.703-2.484-1.703-4.217v-2.966c0-1.725,0.563-3.127,1.69-4.205
		c1.127-1.079,2.599-1.618,4.413-1.618c1.823,0,3.302,0.539,4.438,1.618c1.135,1.078,1.703,2.48,1.703,4.205V172.827z
		 M226.183,169.849c0-1.229-0.334-2.193-1.001-2.893c-0.667-0.7-1.579-1.05-2.734-1.05c-1.147,0-2.051,0.35-2.71,1.05
		c-0.659,0.7-0.989,1.665-0.989,2.893v2.979c0,1.253,0.332,2.23,0.995,2.93c0.663,0.7,1.573,1.05,2.729,1.05s2.063-0.35,2.722-1.05
		c0.66-0.7,0.989-1.676,0.989-2.93V169.849z"/>
	<path fill="#FFFFFF" d="M81.532,205.183h-6.214l-1.257,3.271h-2.49l5.725-14.221h2.271l5.713,14.221h-2.478L81.532,205.183z
		 M76.037,203.303h4.773l-2.355-6.079h-0.074L76.037,203.303z"/>
	<path fill="#FFFFFF" d="M90.137,202.607v5.847h-2.405v-14.221h5.628c1.668,0,2.96,0.366,3.876,1.099
		c0.915,0.732,1.373,1.758,1.373,3.076c0,0.725-0.201,1.343-0.604,1.855c-0.402,0.513-0.995,0.928-1.776,1.245
		c0.847,0.244,1.455,0.659,1.825,1.245s0.556,1.306,0.556,2.161v1.44c0,0.366,0.022,0.725,0.067,1.074
		c0.044,0.35,0.12,0.615,0.226,0.793v0.232h-2.479c-0.098-0.187-0.158-0.48-0.183-0.879c-0.024-0.398-0.036-0.81-0.036-1.233v-1.416
		c0-0.732-0.212-1.302-0.635-1.709c-0.424-0.407-1.034-0.61-1.832-0.61H90.137z M90.137,200.728h3.223
		c0.977,0,1.692-0.191,2.148-0.574c0.456-0.382,0.684-0.932,0.684-1.648c0-0.749-0.23-1.336-0.689-1.764
		c-0.46-0.427-1.174-0.641-2.143-0.641h-3.223V200.728z"/>
	<path fill="#FFFFFF" d="M111.231,201.985h-6.481v4.614h7.544v1.855h-9.949v-14.221h9.949v1.868h-7.544v4.004h6.481V201.985z"/>
	<path fill="#FFFFFF" d="M124.329,202.607v5.847h-2.405v-14.221h5.628c1.668,0,2.96,0.366,3.876,1.099
		c0.915,0.732,1.373,1.758,1.373,3.076c0,0.725-0.201,1.343-0.604,1.855c-0.402,0.513-0.995,0.928-1.776,1.245
		c0.847,0.244,1.455,0.659,1.825,1.245s0.556,1.306,0.556,2.161v1.44c0,0.366,0.022,0.725,0.067,1.074
		c0.044,0.35,0.12,0.615,0.226,0.793v0.232h-2.479c-0.098-0.187-0.158-0.48-0.183-0.879c-0.024-0.398-0.036-0.81-0.036-1.233v-1.416
		c0-0.732-0.212-1.302-0.635-1.709c-0.424-0.407-1.034-0.61-1.832-0.61H124.329z M124.329,200.728h3.223
		c0.977,0,1.692-0.191,2.148-0.574c0.456-0.382,0.684-0.932,0.684-1.648c0-0.749-0.23-1.336-0.689-1.764
		c-0.46-0.427-1.174-0.641-2.143-0.641h-3.223V200.728z"/>
	<path fill="#FFFFFF" d="M145.106,205.183h-6.214l-1.257,3.271h-2.49l5.725-14.221h2.271l5.713,14.221h-2.478L145.106,205.183z
		 M139.612,203.303h4.773l-2.355-6.079h-0.074L139.612,203.303z"/>
	<path fill="#FFFFFF" d="M153.711,202.607v5.847h-2.405v-14.221h5.628c1.668,0,2.96,0.366,3.876,1.099
		c0.915,0.732,1.373,1.758,1.373,3.076c0,0.725-0.201,1.343-0.604,1.855c-0.402,0.513-0.995,0.928-1.776,1.245
		c0.847,0.244,1.455,0.659,1.825,1.245s0.556,1.306,0.556,2.161v1.44c0,0.366,0.022,0.725,0.067,1.074
		c0.044,0.35,0.12,0.615,0.226,0.793v0.232h-2.479c-0.098-0.187-0.158-0.48-0.183-0.879c-0.024-0.398-0.036-0.81-0.036-1.233v-1.416
		c0-0.732-0.212-1.302-0.635-1.709c-0.424-0.407-1.034-0.61-1.832-0.61H153.711z M153.711,200.728h3.223
		c0.977,0,1.692-0.191,2.148-0.574c0.456-0.382,0.684-0.932,0.684-1.648c0-0.749-0.23-1.336-0.689-1.764
		c-0.46-0.427-1.174-0.641-2.143-0.641h-3.223V200.728z"/>
	<path fill="#FFFFFF" d="M174.805,201.985h-6.481v4.614h7.544v1.855h-9.949v-14.221h9.949v1.868h-7.544v4.004h6.481V201.985z"/>
	<path fill="#FFFFFF" d="M181.691,206.599h6.409v1.855h-8.814v-14.221h2.405V206.599z"/>
	<path fill="#FFFFFF" d="M194.922,201.265l3.699-7.031h2.697l-5.225,9.216v5.005h-2.404v-5.115l-5.151-9.106h2.698L194.922,201.265z
		"/>
	<path fill="#FFFFFF" d="M101.892,233.804l0.024,0.073c0.041,1.538-0.466,2.72-1.52,3.546c-1.055,0.826-2.419,1.239-4.096,1.239
		c-1.685,0-3.091-0.545-4.218-1.636c-1.127-1.09-1.69-2.49-1.69-4.199v-2.966c0-1.701,0.563-3.096,1.69-4.187
		c1.127-1.09,2.533-1.636,4.218-1.636c1.726,0,3.104,0.413,4.139,1.239c1.033,0.826,1.529,2,1.488,3.522l-0.023,0.073h-2.308
		c0-0.984-0.289-1.725-0.866-2.222c-0.578-0.496-1.388-0.745-2.43-0.745c-1.001,0-1.835,0.378-2.502,1.135
		c-0.668,0.757-1.002,1.693-1.002,2.808v2.979c0,1.131,0.334,2.077,1.002,2.838c0.667,0.761,1.501,1.141,2.502,1.141
		c1.033,0,1.839-0.248,2.417-0.745c0.578-0.496,0.866-1.249,0.866-2.258H101.892z"/>
	<path fill="#FFFFFF" d="M113.746,235.183h-6.214l-1.257,3.271h-2.49l5.725-14.221h2.271l5.713,14.221h-2.478L113.746,235.183z
		 M108.251,233.303h4.773l-2.355-6.079h-0.074L108.251,233.303z"/>
	<path fill="#FFFFFF" d="M131.75,224.233v9.363c0,1.587-0.567,2.828-1.703,3.723c-1.135,0.896-2.61,1.343-4.425,1.343
		c-1.799,0-3.268-0.447-4.407-1.343c-1.139-0.895-1.709-2.136-1.709-3.723v-9.363h2.393v9.363c0,1.001,0.344,1.787,1.032,2.356
		c0.688,0.57,1.585,0.854,2.691,0.854c1.115,0,2.016-0.283,2.704-0.848c0.688-0.566,1.031-1.353,1.031-2.362v-9.363H131.75z"/>
	<path fill="#FFFFFF" d="M146.924,236.538c-0.367,0.529-1.042,1.015-2.027,1.458c-0.984,0.444-2.213,0.666-3.686,0.666
		c-1.881,0-3.406-0.539-4.578-1.618c-1.172-1.078-1.758-2.484-1.758-4.217v-2.966c0-1.717,0.59-3.117,1.77-4.199
		c1.181-1.082,2.686-1.624,4.518-1.624c1.807,0,3.204,0.409,4.192,1.227c0.989,0.817,1.467,1.866,1.435,3.143l-0.024,0.073h-2.295
		c0-0.822-0.295-1.457-0.885-1.904c-0.591-0.447-1.397-0.671-2.423-0.671c-1.14,0-2.071,0.375-2.796,1.123
		c-0.725,0.749-1.087,1.689-1.087,2.82v2.979c0,1.156,0.358,2.108,1.074,2.856c0.717,0.749,1.669,1.123,2.857,1.123
		c0.854,0,1.56-0.085,2.117-0.256s0.963-0.366,1.215-0.586v-3.052h-3.149v-1.88h5.53V236.538z"/>
	<path fill="#FFFFFF" d="M162.183,238.455h-2.417v-5.994h-6.909v5.994h-2.405v-14.221h2.405v6.36h6.909v-6.36h2.417V238.455z"/>
	<path fill="#FFFFFF" d="M176.075,226.101h-4.357v12.354h-2.404v-12.354h-4.297v-1.868h11.059V226.101z"/>
	<path fill="#FFFFFF" d="M181.605,238.455H179.2v-2.466h2.405V238.455z"/>
</g>
</svg>