<!-- Generator: Adobe Illustrator 18.1.1, SVG Export Plug-In  -->
<svg version="1.1"
	 xmlns="http://www.w3.org/2000/svg" xmlns:xlink="http://www.w3.org/1999/xlink" xmlns:a="http://ns.adobe.com/AdobeSVGViewerExtensions/3.0/"
	 x="0px" y="0px" width="1214.097px" height="566.068px" viewBox="0 0 1214.097 566.068"
	 enable-background="new 0 0 1214.097 566.068" xml:space="preserve">
<defs>
</defs>
<circle fill="#0BADC5" cx="309.034" cy="43.034" r="43.034"/>
<circle fill="#DEEDEC" cx="309.034" cy="163.034" r="43.034"/>
<circle fill="#EBEEEE" cx="309.034" cy="283.034" r="43.034"/>
<circle fill="#FFDFA5" cx="309.034" cy="403.034" r="43.034"/>
<circle fill="#F9A970" cx="309.034" cy="523.034" r="43.034"/>
<polyline fill="none" stroke="#ABABAB" stroke-width="2" stroke-miterlimit="10" points="246,43.034 209.806,43.034 
	209.806,163.034 246,163.034 "/>
<polyline fill="none" stroke="#ABABAB" stroke-width="2" stroke-miterlimit="10" points="246,283.034 209.806,283.034 
	209.806,523.034 246,523.034 "/>
<g>
	<g>
		<path fill="#ABABAB" d="M56.032,101.854v10.044H54.04V87.727h8.334c2.534,0,4.496,0.647,5.885,1.942
			c1.389,1.295,2.083,3,2.083,5.113c0,2.147-0.695,3.863-2.083,5.146c-1.389,1.284-3.351,1.926-5.885,1.926H56.032z M56.032,100.161
			h6.342c1.992,0,3.486-0.506,4.482-1.519s1.494-2.288,1.494-3.827c0-1.549-0.498-2.836-1.494-3.86
			c-0.996-1.024-2.49-1.536-4.482-1.536h-6.342V100.161z"/>
		<path fill="#ABABAB" d="M76.95,100.975v10.924h-1.992V87.743h8.052c2.59,0,4.576,0.567,5.96,1.702
			c1.383,1.135,2.075,2.792,2.075,4.972c0,1.284-0.368,2.432-1.104,3.445c-0.736,1.013-1.779,1.751-3.129,2.216
			c1.494,0.376,2.57,1.049,3.229,2.017c0.658,0.969,0.988,2.183,0.988,3.644v2.274c0,0.753,0.088,1.428,0.266,2.025
			c0.177,0.598,0.47,1.085,0.88,1.461v0.398h-2.025c-0.41-0.398-0.697-0.957-0.863-1.677c-0.166-0.719-0.249-1.466-0.249-2.241
			v-2.208c0-1.483-0.479-2.653-1.436-3.511c-0.958-0.858-2.294-1.287-4.009-1.287H76.95z M76.95,99.281h5.827
			c2.18,0,3.774-0.44,4.781-1.32c1.007-0.88,1.511-2.067,1.511-3.561c0-1.594-0.501-2.819-1.502-3.677
			c-1.002-0.858-2.521-1.287-4.557-1.287h-6.06V99.281z"/>
		<path fill="#ABABAB" d="M99.694,111.898h-1.992V87.727h1.992V111.898z"/>
		<path fill="#ABABAB" d="M118.006,109.01h0.1l8.998-21.283h2.424v24.172h-1.992V91.595l-0.1-0.017l-8.666,20.32h-1.428
			l-8.865-20.818l-0.1,0.017v20.802h-1.992V87.727h2.656L118.006,109.01z"/>
		<path fill="#ABABAB" d="M148.652,105.158h-10.608l-2.44,6.74h-2.059l8.882-24.172h1.876l8.815,24.172h-2.059L148.652,105.158z
			 M138.675,103.382h9.33l-4.582-12.816h-0.1L138.675,103.382z"/>
		<path fill="#ABABAB" d="M158.796,100.975v10.924h-1.992V87.743h8.052c2.59,0,4.576,0.567,5.96,1.702
			c1.383,1.135,2.075,2.792,2.075,4.972c0,1.284-0.368,2.432-1.104,3.445c-0.736,1.013-1.779,1.751-3.129,2.216
			c1.494,0.376,2.57,1.049,3.229,2.017c0.658,0.969,0.988,2.183,0.988,3.644v2.274c0,0.753,0.088,1.428,0.266,2.025
			c0.177,0.598,0.47,1.085,0.88,1.461v0.398h-2.025c-0.41-0.398-0.697-0.957-0.863-1.677c-0.166-0.719-0.249-1.466-0.249-2.241
			v-2.208c0-1.483-0.479-2.653-1.436-3.511c-0.958-0.858-2.294-1.287-4.009-1.287H158.796z M158.796,99.281h5.827
			c2.18,0,3.774-0.44,4.781-1.32c1.007-0.88,1.511-2.067,1.511-3.561c0-1.594-0.501-2.819-1.502-3.677
			c-1.002-0.858-2.521-1.287-4.557-1.287h-6.06V99.281z"/>
		<path fill="#ABABAB" d="M185.524,101.157l7.487-13.431h2.308l-8.815,15.34v8.832h-1.976v-8.915l-8.749-15.257h2.308
			L185.524,101.157z"/>
	</g>
</g>
<g>
	<g>
		<path fill="#ABABAB" d="M19.177,410.09c0-1.24-0.493-2.263-1.478-3.071c-0.985-0.808-2.656-1.566-5.014-2.274
			c-2.579-0.708-4.541-1.591-5.885-2.648c-1.345-1.057-2.017-2.493-2.017-4.308c0-1.848,0.752-3.367,2.258-4.557
			c1.505-1.19,3.425-1.785,5.761-1.785c2.457,0,4.433,0.672,5.927,2.017s2.219,3.052,2.175,5.122l-0.033,0.1h-1.859
			c0-1.594-0.579-2.916-1.735-3.968c-1.157-1.051-2.648-1.577-4.474-1.577c-1.882,0-3.356,0.446-4.424,1.336
			c-1.068,0.891-1.602,1.984-1.602,3.279c0,1.229,0.484,2.239,1.453,3.03c0.968,0.792,2.675,1.53,5.122,2.216
			c2.545,0.742,4.488,1.655,5.827,2.739c1.339,1.085,2.009,2.523,2.009,4.316c0,1.882-0.783,3.395-2.349,4.541
			c-1.566,1.146-3.539,1.718-5.918,1.718c-2.38,0-4.455-0.606-6.226-1.818c-1.771-1.212-2.629-2.98-2.573-5.304l0.033-0.1h1.843
			c0,1.871,0.703,3.262,2.108,4.175c1.405,0.913,3.01,1.37,4.814,1.37c1.848,0,3.354-0.423,4.516-1.27S19.177,411.429,19.177,410.09
			z"/>
		<path fill="#ABABAB" d="M38.899,404.262H28.059v10.027h12.534v1.677H26.066v-24.172H40.51v1.693H28.059v9.081h10.841V404.262z"/>
		<path fill="#ABABAB" d="M61.461,408.413l0.033,0.1c0.044,2.369-0.73,4.261-2.324,5.678c-1.594,1.417-3.686,2.125-6.275,2.125
			c-2.689,0-4.859-0.971-6.508-2.914c-1.649-1.942-2.474-4.458-2.474-7.545v-3.935c0-3.077,0.824-5.592,2.474-7.545
			c1.649-1.953,3.818-2.93,6.508-2.93c2.623,0,4.723,0.692,6.3,2.075c1.577,1.384,2.343,3.287,2.299,5.711l-0.033,0.1h-1.859
			c0-1.948-0.595-3.467-1.785-4.557c-1.19-1.09-2.831-1.635-4.922-1.635c-2.114,0-3.81,0.819-5.088,2.457
			c-1.278,1.638-1.917,3.735-1.917,6.292v3.968c0,2.59,0.639,4.701,1.917,6.333c1.278,1.633,2.974,2.449,5.088,2.449
			c2.092,0,3.732-0.531,4.922-1.594c1.189-1.062,1.785-2.606,1.785-4.632H61.461z"/>
		<path fill="#ABABAB" d="M84.338,405.856c0,3.121-0.855,5.645-2.565,7.57s-4.004,2.889-6.881,2.889
			c-2.833,0-5.094-0.963-6.782-2.889c-1.688-1.926-2.532-4.449-2.532-7.57v-3.935c0-3.11,0.841-5.633,2.523-7.57
			c1.682-1.937,3.94-2.905,6.773-2.905c2.877,0,5.174,0.969,6.89,2.905c1.715,1.937,2.573,4.46,2.573,7.57V405.856z M82.362,401.888
			c0-2.612-0.662-4.715-1.984-6.309c-1.323-1.594-3.157-2.391-5.503-2.391c-2.302,0-4.095,0.797-5.379,2.391
			c-1.284,1.594-1.926,3.697-1.926,6.309v3.968c0,2.634,0.645,4.748,1.934,6.342c1.289,1.594,3.085,2.391,5.387,2.391
			c2.357,0,4.192-0.794,5.503-2.382c1.312-1.588,1.967-3.705,1.967-6.35V401.888z"/>
		<path fill="#ABABAB" d="M107.298,415.967h-1.992l-13.729-20.686l-0.1,0.017v20.669h-1.992v-24.172h1.992l13.729,20.636l0.1-0.017
			v-20.619h1.992V415.967z"/>
		<path fill="#ABABAB" d="M113.474,415.967v-24.172h7.371c2.955,0,5.398,0.985,7.33,2.955c1.931,1.97,2.897,4.499,2.897,7.587v3.104
			c0,3.088-0.966,5.614-2.897,7.579c-1.932,1.965-4.375,2.947-7.33,2.947H113.474z M115.466,393.488v20.802h5.379
			c2.391,0,4.36-0.835,5.91-2.507c1.549-1.671,2.324-3.785,2.324-6.342v-3.154c0-2.523-0.778-4.621-2.333-6.292
			c-1.555-1.671-3.522-2.507-5.902-2.507H115.466z"/>
		<path fill="#ABABAB" d="M148.652,409.226h-10.608l-2.44,6.74h-2.059l8.882-24.172h1.876l8.815,24.172h-2.059L148.652,409.226z
			 M138.675,407.45h9.33l-4.582-12.816h-0.1L138.675,407.45z"/>
		<path fill="#ABABAB" d="M158.796,405.043v10.924h-1.992v-24.155h8.052c2.59,0,4.576,0.567,5.96,1.702
			c1.383,1.135,2.075,2.792,2.075,4.972c0,1.284-0.368,2.432-1.104,3.445c-0.736,1.013-1.779,1.751-3.129,2.216
			c1.494,0.376,2.57,1.049,3.229,2.017c0.658,0.969,0.988,2.183,0.988,3.644v2.274c0,0.753,0.088,1.428,0.266,2.025
			c0.177,0.598,0.47,1.085,0.88,1.461v0.398h-2.025c-0.41-0.398-0.697-0.957-0.863-1.677c-0.166-0.719-0.249-1.466-0.249-2.241
			v-2.208c0-1.483-0.479-2.653-1.436-3.511c-0.958-0.858-2.294-1.287-4.009-1.287H158.796z M158.796,403.349h5.827
			c2.18,0,3.774-0.44,4.781-1.32c1.007-0.88,1.511-2.067,1.511-3.561c0-1.594-0.501-2.819-1.502-3.677
			c-1.002-0.858-2.521-1.287-4.557-1.287h-6.06V403.349z"/>
		<path fill="#ABABAB" d="M185.524,405.225l7.487-13.431h2.308l-8.815,15.34v8.832h-1.976v-8.915l-8.749-15.257h2.308
			L185.524,405.225z"/>
	</g>
</g>
<g>
	<rect x="950.097" y="246.551" fill="none" width="264" height="56"/>
	<path fill="#ABABAB" d="M966.283,261.127h-11.106v11.322h-1.992v-24.172h14.792v1.693h-12.8v9.446h11.106V261.127z"/>
	<path fill="#ABABAB" d="M989.642,262.339c0,3.121-0.854,5.645-2.564,7.57s-4.004,2.889-6.882,2.889
		c-2.833,0-5.094-0.963-6.781-2.889c-1.688-1.926-2.532-4.449-2.532-7.57v-3.935c0-3.11,0.841-5.633,2.523-7.57
		c1.683-1.937,3.94-2.905,6.773-2.905c2.878,0,5.174,0.969,6.89,2.905c1.716,1.937,2.573,4.46,2.573,7.57V262.339z M987.666,258.371
		c0-2.612-0.661-4.715-1.983-6.309c-1.323-1.594-3.157-2.391-5.504-2.391c-2.302,0-4.095,0.797-5.379,2.391
		s-1.926,3.697-1.926,6.309v3.968c0,2.634,0.645,4.748,1.935,6.342c1.289,1.594,3.085,2.391,5.387,2.391
		c2.357,0,4.192-0.794,5.504-2.382c1.312-1.588,1.967-3.705,1.967-6.35V258.371z"/>
	<path fill="#ABABAB" d="M1012.602,272.449h-1.992l-13.729-20.686l-0.1,0.017v20.669h-1.992v-24.172h1.992l13.729,20.636l0.1-0.017
		v-20.619h1.992V272.449z"/>
	<path fill="#ABABAB" d="M1034.731,249.971h-8.234v22.479h-1.976v-22.479h-8.517v-1.693h18.727V249.971z"/>
	<path fill="#ABABAB" d="M1059.982,261.127h-11.106v11.322h-1.992v-24.172h14.792v1.693h-12.8v9.446h11.106V261.127z"/>
	<path fill="#ABABAB" d="M1077.281,265.709h-10.608l-2.44,6.74h-2.059l8.882-24.172h1.876l8.815,24.172h-2.059L1077.281,265.709z
		 M1067.304,263.933h9.33l-4.582-12.816h-0.1L1067.304,263.933z"/>
	<path fill="#ABABAB" d="M1097.104,269.561h0.1l8.998-21.283h2.424v24.172h-1.992v-20.304l-0.1-0.017l-8.666,20.32h-1.428
		l-8.865-20.818l-0.1,0.017v20.802h-1.992v-24.172h2.656L1097.104,269.561z"/>
	<path fill="#ABABAB" d="M1117.308,272.449h-1.992v-24.172h1.992V272.449z"/>
	<path fill="#ABABAB" d="M1125.99,270.773h12.484v1.677h-14.477v-24.172h1.992V270.773z"/>
	<path fill="#ABABAB" d="M1146.045,261.708l7.487-13.431h2.308l-8.815,15.34v8.832h-1.976v-8.915l-8.749-15.257h2.308
		L1146.045,261.708z"/>
</g>
<g>
	<rect x="424.097" y="116.551" fill="none" width="430" height="426"/>
	<path fill="#303030" d="M666.798,131.526v10.924h-1.992v-24.155h8.052c2.59,0,4.576,0.567,5.96,1.702
		c1.384,1.135,2.075,2.792,2.075,4.972c0,1.284-0.368,2.432-1.104,3.445c-0.736,1.013-1.779,1.751-3.13,2.216
		c1.494,0.376,2.57,1.049,3.229,2.017c0.658,0.969,0.987,2.183,0.987,3.644v2.274c0,0.753,0.089,1.428,0.266,2.025
		s0.471,1.085,0.88,1.461v0.398h-2.025c-0.409-0.398-0.697-0.957-0.863-1.677c-0.166-0.719-0.249-1.466-0.249-2.241v-2.208
		c0-1.483-0.479-2.653-1.437-3.511c-0.957-0.858-2.293-1.287-4.009-1.287H666.798z M666.798,129.832h5.827
		c2.181,0,3.774-0.44,4.781-1.32s1.511-2.067,1.511-3.561c0-1.594-0.501-2.819-1.503-3.677c-1.001-0.858-2.521-1.287-4.557-1.287
		h-6.06V129.832z"/>
	<path fill="#303030" d="M685.458,133.202c0-2.645,0.725-4.814,2.175-6.508s3.37-2.54,5.761-2.54c2.401,0,4.327,0.847,5.777,2.54
		s2.175,3.863,2.175,6.508v0.548c0,2.656-0.723,4.828-2.166,6.516c-1.445,1.688-3.362,2.532-5.753,2.532
		c-2.413,0-4.344-0.844-5.794-2.532c-1.45-1.688-2.175-3.86-2.175-6.516V133.202z M687.45,133.75c0,2.081,0.525,3.83,1.577,5.246
		c1.052,1.417,2.518,2.125,4.399,2.125c1.849,0,3.301-0.708,4.358-2.125c1.057-1.417,1.585-3.165,1.585-5.246v-0.548
		c0-2.047-0.531-3.785-1.594-5.213s-2.523-2.142-4.383-2.142s-3.314,0.714-4.366,2.142s-1.577,3.166-1.577,5.213V133.75z"/>
	<path fill="#303030" d="M719.973,133.966c0,2.689-0.608,4.834-1.826,6.433c-1.218,1.599-2.895,2.399-5.03,2.399
		c-1.306,0-2.438-0.263-3.396-0.789c-0.957-0.526-1.734-1.275-2.332-2.25l-0.332,2.689h-1.561v-25.898h1.992v10.691
		c0.598-0.985,1.361-1.746,2.291-2.283c0.93-0.537,2.031-0.805,3.304-0.805c2.158,0,3.846,0.861,5.063,2.582
		c1.218,1.721,1.826,4.015,1.826,6.881V133.966z M717.964,133.617c0-2.291-0.442-4.153-1.328-5.586
		c-0.886-1.433-2.197-2.15-3.935-2.15c-1.372,0-2.479,0.335-3.32,1.004c-0.841,0.67-1.472,1.536-1.893,2.598v8.218
		c0.442,1.041,1.099,1.862,1.967,2.465c0.869,0.603,1.962,0.905,3.279,0.905c1.737,0,3.044-0.642,3.918-1.926
		c0.874-1.284,1.312-3.01,1.312-5.18V133.617z"/>
	<path fill="#303030" d="M723.31,133.202c0-2.645,0.725-4.814,2.175-6.508s3.37-2.54,5.761-2.54c2.401,0,4.327,0.847,5.777,2.54
		s2.175,3.863,2.175,6.508v0.548c0,2.656-0.723,4.828-2.166,6.516c-1.445,1.688-3.362,2.532-5.753,2.532
		c-2.413,0-4.344-0.844-5.794-2.532c-1.45-1.688-2.175-3.86-2.175-6.516V133.202z M725.302,133.75c0,2.081,0.525,3.83,1.577,5.246
		c1.052,1.417,2.518,2.125,4.399,2.125c1.849,0,3.301-0.708,4.358-2.125c1.057-1.417,1.585-3.165,1.585-5.246v-0.548
		c0-2.047-0.531-3.785-1.594-5.213s-2.523-2.142-4.383-2.142s-3.314,0.714-4.366,2.142s-1.577,3.166-1.577,5.213V133.75z"/>
	<path fill="#303030" d="M746.452,119.888v4.599h3.951v1.627h-3.951v11.704c0,1.173,0.213,2.006,0.64,2.499
		c0.426,0.493,0.993,0.739,1.701,0.739c0.243,0,0.479-0.014,0.705-0.042c0.228-0.028,0.496-0.075,0.806-0.141l0.299,1.478
		c-0.266,0.133-0.595,0.241-0.987,0.324c-0.394,0.083-0.783,0.125-1.171,0.125c-1.262,0-2.244-0.398-2.946-1.195
		c-0.703-0.797-1.055-2.059-1.055-3.785v-11.704h-3.104v-1.627h3.104v-4.599H746.452z"/>
	<path fill="#303030" d="M753.176,133.202c0-2.645,0.725-4.814,2.175-6.508s3.37-2.54,5.761-2.54c2.401,0,4.327,0.847,5.777,2.54
		s2.175,3.863,2.175,6.508v0.548c0,2.656-0.723,4.828-2.166,6.516c-1.445,1.688-3.362,2.532-5.753,2.532
		c-2.413,0-4.344-0.844-5.794-2.532c-1.45-1.688-2.175-3.86-2.175-6.516V133.202z M755.168,133.75c0,2.081,0.525,3.83,1.577,5.246
		c1.052,1.417,2.518,2.125,4.399,2.125c1.849,0,3.301-0.708,4.358-2.125c1.057-1.417,1.585-3.165,1.585-5.246v-0.548
		c0-2.047-0.531-3.785-1.594-5.213s-2.523-2.142-4.383-2.142s-3.314,0.714-4.366,2.142s-1.577,3.166-1.577,5.213V133.75z"/>
	<path fill="#303030" d="M783.938,140.773h12.484v1.677h-14.477v-24.172h1.992V140.773z"/>
	<path fill="#303030" d="M802.433,119.34h-1.976v-2.789h1.976V119.34z M802.433,142.449h-1.976v-17.963h1.976V142.449z"/>
	<path fill="#303030" d="M807.214,133.617c0-2.866,0.606-5.16,1.817-6.881c1.213-1.721,2.903-2.582,5.072-2.582
		c1.272,0,2.38,0.274,3.32,0.822s1.716,1.325,2.324,2.333l0.282-2.822h1.61v18.062c0,2.291-0.631,4.056-1.893,5.296
		c-1.262,1.24-3.049,1.859-5.362,1.859c-0.863,0-1.784-0.105-2.765-0.315c-0.979-0.21-1.834-0.498-2.564-0.863l0.382-1.677
		c0.72,0.354,1.485,0.623,2.3,0.805c0.812,0.183,1.685,0.274,2.614,0.274c1.771,0,3.094-0.454,3.968-1.361
		c0.874-0.908,1.312-2.247,1.312-4.018v-2.54c-0.608,0.896-1.381,1.585-2.315,2.067c-0.936,0.481-2.018,0.722-3.246,0.722
		c-2.147,0-3.826-0.802-5.039-2.407c-1.211-1.605-1.817-3.746-1.817-6.425V133.617z M809.206,133.966
		c0,2.169,0.438,3.896,1.312,5.18c0.874,1.284,2.186,1.926,3.935,1.926c1.262,0,2.321-0.285,3.179-0.855
		c0.858-0.57,1.525-1.353,2.001-2.349v-8.566c-0.454-1.007-1.099-1.829-1.935-2.465c-0.835-0.636-1.906-0.955-3.212-0.955
		c-1.749,0-3.065,0.719-3.951,2.158c-0.886,1.439-1.328,3.298-1.328,5.578V133.966z"/>
	<path fill="#303030" d="M828.846,127.541c0.608-1.073,1.408-1.906,2.398-2.499c0.991-0.592,2.15-0.888,3.479-0.888
		c1.893,0,3.346,0.587,4.357,1.76c1.014,1.173,1.52,2.994,1.52,5.462v11.073h-1.992v-11.106c0-1.948-0.385-3.345-1.154-4.192
		c-0.769-0.847-1.828-1.27-3.179-1.27c-1.395,0-2.543,0.34-3.444,1.021c-0.902,0.681-1.563,1.591-1.984,2.731v12.816h-1.992v-25.898
		h1.992V127.541z"/>
	<path fill="#303030" d="M848.884,119.888v4.599h3.951v1.627h-3.951v11.704c0,1.173,0.213,2.006,0.64,2.499
		c0.426,0.493,0.993,0.739,1.701,0.739c0.243,0,0.479-0.014,0.705-0.042c0.228-0.028,0.496-0.075,0.806-0.141l0.299,1.478
		c-0.266,0.133-0.595,0.241-0.987,0.324c-0.394,0.083-0.783,0.125-1.171,0.125c-1.262,0-2.244-0.398-2.946-1.195
		c-0.703-0.797-1.055-2.059-1.055-3.785v-11.704h-3.104v-1.627h3.104v-4.599H848.884z"/>
	<path fill="#303030" d="M587.476,213.126l-1.627,10.924h-1.992l3.619-24.155h8.052c2.49,0,4.366,0.573,5.628,1.718
		s1.732,2.797,1.411,4.956c-0.21,1.339-0.758,2.507-1.644,3.503s-2.048,1.721-3.486,2.175c1.405,0.387,2.377,1.068,2.913,2.042
		c0.537,0.974,0.706,2.175,0.507,3.603l-0.349,2.274c-0.122,0.775-0.139,1.456-0.05,2.042c0.089,0.587,0.315,1.068,0.681,1.444
		l-0.066,0.398h-2.025c-0.343-0.398-0.545-0.957-0.605-1.677c-0.062-0.719-0.036-1.466,0.074-2.241l0.332-2.208
		c0.222-1.538-0.074-2.723-0.889-3.553c-0.812-0.83-2.089-1.245-3.826-1.245H587.476z M587.742,211.432h5.827
		c2.092,0,3.729-0.448,4.914-1.345s1.887-2.075,2.108-3.536c0.243-1.649-0.066-2.889-0.93-3.719s-2.324-1.245-4.383-1.245h-6.06
		L587.742,211.432z"/>
	<path fill="#303030" d="M605.904,214.802c0.398-2.745,1.438-4.939,3.121-6.583s3.735-2.465,6.159-2.465
		c2.302,0,4.076,0.855,5.32,2.565c1.246,1.71,1.675,3.871,1.287,6.483l-0.083,0.548c-0.421,2.756-1.47,4.953-3.146,6.591
		c-1.678,1.638-3.722,2.457-6.135,2.457c-2.313,0-4.092-0.852-5.338-2.557c-1.244-1.704-1.668-3.868-1.27-6.491L605.904,214.802z
		 M607.813,215.35c-0.332,2.158-0.08,3.926,0.756,5.304c0.835,1.378,2.205,2.067,4.108,2.067c1.771,0,3.31-0.717,4.615-2.15
		c1.306-1.433,2.119-3.174,2.44-5.221l0.083-0.548c0.31-2.125,0.042-3.882-0.806-5.271c-0.846-1.389-2.205-2.083-4.075-2.083
		c-1.782,0-3.326,0.722-4.632,2.167s-2.108,3.174-2.407,5.188L607.813,215.35z"/>
	<path fill="#303030" d="M640.302,215.566c-0.421,2.789-1.348,4.958-2.78,6.508c-1.434,1.55-3.235,2.324-5.404,2.324
		c-1.262,0-2.335-0.269-3.221-0.805s-1.561-1.303-2.025-2.299l-0.764,2.756h-1.561l3.885-25.898h1.992l-1.61,10.691
		c0.741-0.985,1.618-1.746,2.632-2.283c1.012-0.537,2.155-0.805,3.428-0.805c2.069,0,3.605,0.869,4.607,2.606
		c1.001,1.738,1.292,4.023,0.871,6.856L640.302,215.566z M638.343,215.218c0.354-2.368,0.196-4.25-0.474-5.645
		c-0.669-1.395-1.878-2.092-3.627-2.092c-1.317,0-2.457,0.343-3.42,1.029c-0.963,0.686-1.743,1.561-2.341,2.623l-1.229,8.201
		c0.299,1.029,0.833,1.843,1.603,2.44c0.769,0.598,1.812,0.896,3.129,0.896c1.66,0,3.044-0.65,4.15-1.951
		c1.106-1.3,1.826-3.019,2.158-5.155L638.343,215.218z"/>
	<path fill="#303030" d="M643.755,214.802c0.398-2.745,1.438-4.939,3.121-6.583s3.735-2.465,6.159-2.465
		c2.302,0,4.076,0.855,5.32,2.565c1.246,1.71,1.675,3.871,1.287,6.483l-0.083,0.548c-0.421,2.756-1.47,4.953-3.145,6.591
		c-1.678,1.638-3.722,2.457-6.135,2.457c-2.313,0-4.092-0.852-5.338-2.557c-1.244-1.704-1.668-3.868-1.27-6.491L643.755,214.802z
		 M645.665,215.35c-0.332,2.158-0.08,3.926,0.756,5.304c0.835,1.378,2.205,2.067,4.108,2.067c1.771,0,3.31-0.717,4.615-2.15
		c1.306-1.433,2.119-3.174,2.44-5.221l0.083-0.548c0.31-2.125,0.042-3.882-0.806-5.271c-0.846-1.389-2.205-2.083-4.075-2.083
		c-1.782,0-3.326,0.722-4.632,2.167s-2.108,3.174-2.407,5.188L645.665,215.35z"/>
	<path fill="#303030" d="M668.89,201.488l-0.697,4.599h3.951l-0.232,1.627h-3.968l-1.743,11.704
		c-0.188,1.229-0.105,2.075,0.249,2.54s0.891,0.697,1.61,0.697c0.232,0,0.474-0.017,0.722-0.05c0.25-0.033,0.518-0.077,0.806-0.133
		l0.083,1.478c-0.299,0.144-0.647,0.254-1.046,0.332c-0.398,0.077-0.791,0.116-1.179,0.116c-1.218,0-2.131-0.401-2.739-1.204
		c-0.608-0.802-0.78-2.061-0.515-3.777l1.743-11.704h-3.088l0.232-1.627h3.104l0.697-4.599H668.89z"/>
	<path fill="#303030" d="M673.621,214.802c0.398-2.745,1.438-4.939,3.121-6.583s3.735-2.465,6.159-2.465
		c2.302,0,4.076,0.855,5.32,2.565c1.246,1.71,1.675,3.871,1.287,6.483l-0.083,0.548c-0.421,2.756-1.47,4.953-3.146,6.591
		c-1.678,1.638-3.722,2.457-6.135,2.457c-2.313,0-4.092-0.852-5.338-2.557c-1.244-1.704-1.668-3.868-1.27-6.491L673.621,214.802z
		 M675.53,215.35c-0.332,2.158-0.08,3.926,0.756,5.304c0.835,1.378,2.205,2.067,4.108,2.067c1.771,0,3.31-0.717,4.615-2.15
		c1.306-1.433,2.119-3.174,2.44-5.221l0.083-0.548c0.31-2.125,0.042-3.882-0.806-5.271c-0.846-1.389-2.205-2.083-4.075-2.083
		c-1.782,0-3.326,0.722-4.632,2.167s-2.108,3.174-2.407,5.188L675.53,215.35z"/>
	<path fill="#303030" d="M703.238,222.373h12.484l-0.249,1.677h-14.477l3.619-24.172h1.992L703.238,222.373z"/>
	<path fill="#303030" d="M721.483,224.05h-1.976l2.689-17.963h1.976L721.483,224.05z M724.953,200.94h-1.976l0.415-2.789h1.976
		L724.953,200.94z"/>
	<path fill="#303030" d="M727.593,215.218c0.442-2.977,1.389-5.299,2.839-6.964c1.45-1.666,3.271-2.499,5.462-2.499
		c1.229,0,2.277,0.282,3.146,0.847c0.869,0.564,1.536,1.361,2.001,2.391l0.73-2.905h1.61l-2.706,18.062
		c-0.365,2.379-1.262,4.167-2.689,5.362s-3.31,1.793-5.645,1.793c-0.841,0-1.74-0.105-2.698-0.315
		c-0.957-0.21-1.773-0.498-2.448-0.863l0.631-1.677c0.675,0.354,1.405,0.623,2.191,0.805s1.644,0.274,2.573,0.274
		c1.704,0,3.077-0.459,4.117-1.378c1.04-0.919,1.693-2.252,1.959-4.001l0.382-2.54c-0.741,0.896-1.616,1.585-2.623,2.067
		s-2.125,0.722-3.354,0.722c-2.059,0-3.597-0.811-4.615-2.432c-1.019-1.621-1.322-3.755-0.913-6.4L727.593,215.218z
		 M729.535,215.566c-0.343,2.236-0.174,3.979,0.506,5.229c0.682,1.251,1.901,1.876,3.661,1.876c1.218,0,2.305-0.291,3.263-0.872
		c0.957-0.581,1.762-1.37,2.415-2.366l1.278-8.533c-0.299-1.007-0.816-1.829-1.553-2.465c-0.735-0.636-1.762-0.955-3.079-0.955
		c-1.683,0-3.094,0.728-4.233,2.183c-1.14,1.456-1.876,3.307-2.208,5.553L729.535,215.566z"/>
	<path fill="#303030" d="M750.138,209.025c0.764-1.051,1.685-1.859,2.765-2.424c1.078-0.564,2.282-0.847,3.61-0.847
		c1.826,0,3.174,0.592,4.042,1.776c0.869,1.184,1.121,3,0.756,5.445l-1.66,11.073h-1.992l1.66-11.106
		c0.299-2.025,0.136-3.442-0.49-4.25c-0.625-0.808-1.629-1.212-3.013-1.212c-1.361,0-2.551,0.354-3.569,1.062
		c-1.019,0.708-1.837,1.649-2.457,2.822l-1.893,12.684h-1.992l3.885-25.898h1.992L750.138,209.025z"/>
	<path fill="#303030" d="M771.321,201.488l-0.697,4.599h3.951l-0.232,1.627h-3.968l-1.743,11.704
		c-0.188,1.229-0.105,2.075,0.249,2.54s0.891,0.697,1.61,0.697c0.232,0,0.474-0.017,0.722-0.05c0.25-0.033,0.518-0.077,0.806-0.133
		l0.083,1.478c-0.299,0.144-0.647,0.254-1.046,0.332c-0.398,0.077-0.791,0.116-1.179,0.116c-1.218,0-2.131-0.401-2.739-1.204
		c-0.608-0.802-0.78-2.061-0.515-3.777l1.743-11.704h-3.088l0.232-1.627h3.104l0.697-4.599H771.321z"/>
	<path fill="#303030" d="M787.01,224.05h-1.992l3.619-24.172h1.992L787.01,224.05z"/>
	<path fill="#303030" d="M799.727,201.488l-0.697,4.599h3.951l-0.232,1.627h-3.968l-1.743,11.704
		c-0.188,1.229-0.105,2.075,0.249,2.54s0.891,0.697,1.61,0.697c0.232,0,0.474-0.017,0.722-0.05c0.25-0.033,0.518-0.077,0.806-0.133
		l0.083,1.478c-0.299,0.144-0.647,0.254-1.046,0.332c-0.398,0.077-0.791,0.116-1.179,0.116c-1.218,0-2.131-0.401-2.739-1.204
		c-0.608-0.802-0.78-2.061-0.515-3.777l1.743-11.704h-3.088l0.232-1.627h3.104l0.697-4.599H799.727z"/>
	<path fill="#303030" d="M815.548,224.05c-0.022-0.686-0.033-1.245-0.033-1.677s0.033-0.874,0.1-1.328
		c-0.764,0.963-1.751,1.763-2.964,2.399c-1.211,0.636-2.537,0.955-3.976,0.955c-1.693,0-2.972-0.473-3.835-1.419
		s-1.173-2.211-0.93-3.793c0.243-1.671,1.137-2.988,2.682-3.951c1.543-0.963,3.45-1.444,5.719-1.444h4.416l0.332-2.225
		c0.188-1.339-0.063-2.36-0.756-3.063c-0.691-0.703-1.79-1.054-3.295-1.054c-1.306,0-2.44,0.335-3.403,1.004
		c-0.963,0.67-1.521,1.502-1.677,2.499h-1.826l-0.033-0.1c0.144-1.395,0.899-2.593,2.266-3.594c1.367-1.001,3.041-1.502,5.022-1.502
		c1.903,0,3.396,0.509,4.474,1.527c1.08,1.018,1.48,2.457,1.204,4.316l-1.328,8.832c-0.1,0.653-0.16,1.273-0.183,1.859
		c-0.022,0.587,0.011,1.173,0.1,1.76H815.548z M809.156,222.638c1.461,0,2.816-0.365,4.067-1.096s2.164-1.655,2.739-2.772
		l0.531-3.453h-4.433c-1.55,0-2.925,0.387-4.126,1.162c-1.2,0.775-1.884,1.699-2.05,2.772c-0.155,1.052,0.053,1.879,0.622,2.482
		C807.078,222.337,807.961,222.638,809.156,222.638z"/>
	<path fill="#303030" d="M824.679,224.05h-1.976l3.885-25.898h1.976L824.679,224.05z"/>
	<path fill="#303030" d="M832.398,224.05h-1.976l2.689-17.963h1.976L832.398,224.05z M835.868,200.94h-1.976l0.415-2.789h1.976
		L835.868,200.94z"/>
	<path fill="#303030" d="M844.667,222.721c1.229,0,2.398-0.379,3.512-1.137c1.111-0.758,1.773-1.801,1.983-3.129h1.76l0.033,0.1
		c-0.222,1.738-1.082,3.146-2.581,4.225c-1.5,1.079-3.152,1.619-4.956,1.619c-2.302,0-4.018-0.849-5.146-2.548
		c-1.129-1.699-1.494-3.843-1.096-6.433l0.1-0.697c0.398-2.7,1.381-4.87,2.946-6.508c1.566-1.638,3.556-2.457,5.969-2.457
		c1.859,0,3.359,0.587,4.499,1.76c1.14,1.173,1.55,2.701,1.229,4.582l-0.033,0.083h-1.793c0.222-1.494-0.069-2.656-0.872-3.486
		c-0.802-0.83-1.895-1.245-3.278-1.245c-1.804,0-3.29,0.703-4.458,2.108c-1.167,1.406-1.906,3.127-2.216,5.163l-0.1,0.697
		c-0.332,2.18-0.144,3.943,0.564,5.288S842.752,222.721,844.667,222.721z"/>
	<path fill="#303030" d="M624.116,295.174v10.476h-3.271v-24.155h8.268c2.646,0,4.665,0.587,6.06,1.76
		c1.395,1.173,2.092,2.878,2.092,5.113c0,1.24-0.323,2.319-0.972,3.237c-0.646,0.919-1.591,1.649-2.83,2.191
		c1.328,0.432,2.283,1.132,2.863,2.1c0.582,0.969,0.872,2.167,0.872,3.594v2.274c0,0.753,0.083,1.428,0.249,2.025
		s0.454,1.085,0.863,1.461v0.398h-3.37c-0.432-0.376-0.708-0.93-0.83-1.66s-0.183-1.483-0.183-2.258v-2.208
		c0-1.306-0.382-2.357-1.146-3.154s-1.787-1.195-3.071-1.195H624.116z M624.116,292.601h4.665c1.849,0,3.18-0.351,3.992-1.054
		c0.814-0.703,1.221-1.773,1.221-3.212c0-1.361-0.396-2.416-1.188-3.163c-0.791-0.747-2.022-1.121-3.693-1.121h-4.997V292.601z"/>
	<path fill="#303030" d="M641.265,296.502c0-2.656,0.72-4.845,2.158-6.566c1.438-1.721,3.393-2.582,5.86-2.582
		c2.49,0,4.457,0.858,5.902,2.573c1.443,1.716,2.166,3.907,2.166,6.574v0.365c0,2.678-0.72,4.87-2.158,6.574
		c-1.438,1.705-3.397,2.557-5.877,2.557s-4.441-0.855-5.885-2.565c-1.445-1.71-2.167-3.898-2.167-6.566V296.502z M644.536,296.867
		c0,1.904,0.401,3.475,1.203,4.715c0.803,1.24,1.995,1.859,3.578,1.859c1.561,0,2.745-0.62,3.553-1.859
		c0.808-1.24,1.212-2.811,1.212-4.715v-0.365c0-1.881-0.407-3.448-1.22-4.698c-0.814-1.25-2.007-1.876-3.578-1.876
		c-1.561,0-2.742,0.625-3.545,1.876c-0.802,1.251-1.203,2.817-1.203,4.698V296.867z"/>
	<path fill="#303030" d="M676.692,297.349c0,2.59-0.622,4.679-1.868,6.267c-1.244,1.588-2.957,2.382-5.138,2.382
		c-1.195,0-2.233-0.235-3.112-0.706c-0.881-0.47-1.608-1.165-2.184-2.083l-0.531,2.44h-2.507v-25.898h3.271v10.061
		c0.564-0.797,1.265-1.406,2.1-1.826c0.836-0.42,1.812-0.631,2.931-0.631c2.214,0,3.94,0.885,5.18,2.656
		c1.239,1.771,1.859,4.101,1.859,6.989V297.349z M673.422,297c0-2.059-0.379-3.738-1.137-5.039c-0.759-1.3-1.912-1.951-3.462-1.951
		c-1.007,0-1.856,0.246-2.548,0.739c-0.692,0.493-1.243,1.154-1.652,1.984v7.786c0.421,0.885,0.971,1.577,1.652,2.075
		c0.68,0.498,1.541,0.747,2.581,0.747c1.538,0,2.684-0.548,3.437-1.644s1.129-2.545,1.129-4.35V297z"/>
	<path fill="#303030" d="M679.913,296.502c0-2.656,0.72-4.845,2.158-6.566c1.438-1.721,3.393-2.582,5.86-2.582
		c2.49,0,4.457,0.858,5.902,2.573c1.443,1.716,2.166,3.907,2.166,6.574v0.365c0,2.678-0.72,4.87-2.158,6.574
		c-1.438,1.705-3.397,2.557-5.877,2.557s-4.441-0.855-5.885-2.565c-1.445-1.71-2.167-3.898-2.167-6.566V296.502z M683.184,296.867
		c0,1.904,0.401,3.475,1.203,4.715c0.803,1.24,1.995,1.859,3.578,1.859c1.561,0,2.745-0.62,3.553-1.859
		c0.808-1.24,1.212-2.811,1.212-4.715v-0.365c0-1.881-0.407-3.448-1.22-4.698c-0.814-1.25-2.007-1.876-3.578-1.876
		c-1.561,0-2.742,0.625-3.545,1.876c-0.802,1.251-1.203,2.817-1.203,4.698V296.867z"/>
	<path fill="#303030" d="M704.55,283.354v4.333h3.403v2.424h-3.403v10.907c0,0.841,0.175,1.433,0.522,1.776
		c0.35,0.343,0.812,0.515,1.387,0.515c0.188,0,0.398-0.025,0.631-0.075s0.426-0.102,0.581-0.158l0.448,2.241
		c-0.243,0.199-0.604,0.362-1.079,0.49c-0.476,0.127-0.946,0.191-1.411,0.191c-1.328,0-2.385-0.401-3.171-1.204
		c-0.786-0.802-1.179-2.061-1.179-3.777V290.11h-2.855v-2.424h2.855v-4.333H704.55z"/>
	<path fill="#303030" d="M710.692,296.502c0-2.656,0.72-4.845,2.158-6.566c1.438-1.721,3.393-2.582,5.86-2.582
		c2.49,0,4.457,0.858,5.902,2.573c1.443,1.716,2.166,3.907,2.166,6.574v0.365c0,2.678-0.72,4.87-2.158,6.574
		c-1.438,1.705-3.397,2.557-5.877,2.557s-4.441-0.855-5.885-2.565c-1.445-1.71-2.167-3.898-2.167-6.566V296.502z M713.963,296.867
		c0,1.904,0.401,3.475,1.203,4.715c0.803,1.24,1.995,1.859,3.578,1.859c1.561,0,2.745-0.62,3.553-1.859
		c0.808-1.24,1.212-2.811,1.212-4.715v-0.365c0-1.881-0.407-3.448-1.22-4.698c-0.814-1.25-2.007-1.876-3.578-1.876
		c-1.561,0-2.742,0.625-3.545,1.876c-0.802,1.251-1.203,2.817-1.203,4.698V296.867z"/>
	<path fill="#303030" d="M742.949,295.174v10.476h-3.271v-24.155h8.268c2.646,0,4.665,0.587,6.06,1.76
		c1.395,1.173,2.092,2.878,2.092,5.113c0,1.24-0.323,2.319-0.972,3.237c-0.646,0.919-1.591,1.649-2.83,2.191
		c1.328,0.432,2.283,1.132,2.863,2.1c0.582,0.969,0.872,2.167,0.872,3.594v2.274c0,0.753,0.083,1.428,0.249,2.025
		s0.454,1.085,0.863,1.461v0.398h-3.37c-0.432-0.376-0.708-0.93-0.83-1.66s-0.183-1.483-0.183-2.258v-2.208
		c0-1.306-0.382-2.357-1.146-3.154s-1.787-1.195-3.071-1.195H742.949z M742.949,292.601h4.665c1.849,0,3.18-0.351,3.992-1.054
		c0.814-0.703,1.221-1.773,1.221-3.212c0-1.361-0.396-2.416-1.188-3.163c-0.791-0.747-2.022-1.121-3.693-1.121h-4.997V292.601z"/>
	<path fill="#303030" d="M768.3,305.998c-2.579,0-4.591-0.824-6.034-2.474c-1.445-1.649-2.167-3.818-2.167-6.508v-0.73
		c0-2.579,0.744-4.712,2.233-6.4c1.488-1.688,3.306-2.532,5.453-2.532c2.401,0,4.203,0.747,5.404,2.241
		c1.2,1.494,1.801,3.481,1.801,5.96v1.727h-11.488l-0.05,0.083c0,1.804,0.398,3.268,1.195,4.391
		c0.797,1.124,2.015,1.685,3.652,1.685c1.106,0,2.078-0.158,2.913-0.473c0.836-0.315,1.553-0.75,2.15-1.303l1.278,2.125
		c-0.642,0.62-1.488,1.143-2.54,1.569S769.783,305.998,768.3,305.998z M767.785,289.928c-1.14,0-2.084,0.44-2.83,1.32
		c-0.748,0.88-1.204,2.006-1.37,3.378l0.033,0.083h8.102v-0.266c0-1.306-0.321-2.385-0.963-3.237
		C770.115,290.354,769.124,289.928,767.785,289.928z"/>
	<path fill="#303030" d="M778.078,297c0-2.889,0.617-5.218,1.852-6.989c1.233-1.771,2.957-2.656,5.171-2.656
		c1.14,0,2.142,0.23,3.005,0.689c0.863,0.459,1.588,1.121,2.175,1.984l0.398-2.341h2.606v18.062c0,2.302-0.67,4.07-2.009,5.304
		c-1.339,1.234-3.271,1.851-5.794,1.851c-0.863,0-1.796-0.119-2.797-0.357c-1.002-0.238-1.885-0.562-2.648-0.971l0.498-2.54
		c0.631,0.332,1.392,0.6,2.283,0.805c0.891,0.205,1.768,0.307,2.631,0.307c1.594,0,2.753-0.363,3.479-1.087
		c0.725-0.725,1.087-1.829,1.087-3.312v-2.042c-0.587,0.753-1.289,1.323-2.108,1.71s-1.766,0.581-2.839,0.581
		c-2.191,0-3.904-0.794-5.138-2.382c-1.234-1.588-1.852-3.677-1.852-6.267V297z M781.349,297.349c0,1.804,0.371,3.254,1.112,4.35
		s1.887,1.644,3.437,1.644c0.985,0,1.81-0.224,2.474-0.672s1.212-1.082,1.644-1.901v-8.268c-0.421-0.764-0.969-1.37-1.644-1.818
		s-1.488-0.672-2.44-0.672c-1.561,0-2.714,0.647-3.462,1.942c-0.746,1.295-1.12,2.977-1.12,5.047V297.349z"/>
	<path fill="#303030" d="M809.389,302.993c-0.564,0.963-1.289,1.705-2.175,2.225s-1.909,0.78-3.071,0.78
		c-1.959,0-3.486-0.625-4.582-1.876c-1.096-1.25-1.644-3.198-1.644-5.844v-10.592h3.271v10.625c0,1.915,0.282,3.232,0.847,3.951
		c0.564,0.719,1.444,1.079,2.64,1.079c1.162,0,2.122-0.235,2.881-0.706c0.758-0.47,1.33-1.137,1.718-2v-12.949h3.271v17.963h-2.938
		L809.389,302.993z"/>
	<path fill="#303030" d="M820.844,305.649h-3.271v-25.898h3.271V305.649z"/>
	<path fill="#303030" d="M836.914,305.649c-0.11-0.542-0.196-1.021-0.258-1.436c-0.061-0.415-0.097-0.833-0.107-1.253
		c-0.608,0.863-1.402,1.585-2.383,2.167c-0.979,0.581-2.033,0.872-3.162,0.872c-1.87,0-3.295-0.479-4.275-1.436
		c-0.979-0.957-1.469-2.277-1.469-3.959c0-1.715,0.694-3.057,2.084-4.026c1.389-0.968,3.272-1.453,5.652-1.453h3.553v-1.776
		c0-1.051-0.321-1.884-0.963-2.499s-1.55-0.921-2.723-0.921c-1.062,0-1.92,0.266-2.573,0.797s-0.979,1.168-0.979,1.909l-3.104,0.033
		l-0.033-0.1c-0.077-1.306,0.534-2.501,1.835-3.586c1.3-1.084,2.979-1.627,5.038-1.627c2.036,0,3.675,0.518,4.914,1.552
		c1.239,1.035,1.859,2.526,1.859,4.474v8.649c0,0.642,0.033,1.262,0.1,1.859s0.188,1.184,0.365,1.76H836.914z M831.485,303.259
		c1.185,0,2.252-0.304,3.204-0.913c0.952-0.609,1.571-1.306,1.859-2.092v-2.922h-3.669c-1.317,0-2.371,0.332-3.163,0.996
		c-0.791,0.664-1.187,1.444-1.187,2.341c0,0.797,0.249,1.428,0.747,1.893S830.512,303.259,831.485,303.259z"/>
	<path fill="#303030" d="M853.067,290.575l-1.677-0.1c-0.863,0-1.591,0.205-2.184,0.614c-0.592,0.41-1.048,0.985-1.369,1.727v12.833
		h-3.271v-17.963h2.922l0.315,2.623c0.509-0.93,1.137-1.655,1.885-2.175c0.746-0.52,1.607-0.78,2.581-0.78
		c0.243,0,0.476,0.02,0.697,0.058c0.222,0.039,0.404,0.08,0.548,0.125L853.067,290.575z"/>
	<path fill="#303030" d="M673.306,377.587v9.662h-4.848v-24.172h8.367c2.756,0,4.911,0.628,6.467,1.884
		c1.555,1.256,2.332,3.008,2.332,5.254c0,1.24-0.329,2.311-0.988,3.212c-0.658,0.902-1.618,1.63-2.88,2.183
		c1.428,0.421,2.454,1.124,3.079,2.108c0.626,0.985,0.938,2.203,0.938,3.652v1.776c0,0.675,0.091,1.381,0.274,2.117
		c0.182,0.736,0.495,1.281,0.938,1.635v0.349h-4.997c-0.442-0.354-0.728-0.941-0.854-1.76c-0.128-0.819-0.191-1.61-0.191-2.374
		v-1.71c0-1.206-0.329-2.144-0.988-2.814c-0.658-0.669-1.591-1.004-2.797-1.004H673.306z M673.306,373.852h3.437
		c1.361,0,2.374-0.288,3.038-0.863c0.664-0.575,0.996-1.428,0.996-2.557c0-1.107-0.335-1.987-1.004-2.64
		c-0.67-0.653-1.652-0.979-2.947-0.979h-3.52V373.852z"/>
	<path fill="#303030" d="M689.011,378.102c0-2.678,0.747-4.873,2.241-6.583s3.563-2.565,6.209-2.565
		c2.656,0,4.737,0.852,6.242,2.557c1.505,1.705,2.258,3.901,2.258,6.591v0.349c0,2.701-0.75,4.9-2.25,6.599
		c-1.499,1.699-3.571,2.548-6.217,2.548c-2.656,0-4.734-0.849-6.234-2.548c-1.499-1.699-2.249-3.898-2.249-6.599V378.102z
		 M693.842,378.451c0,1.638,0.288,2.952,0.863,3.943c0.575,0.991,1.505,1.486,2.789,1.486c1.251,0,2.166-0.498,2.748-1.494
		c0.58-0.996,0.871-2.308,0.871-3.935v-0.349c0-1.594-0.293-2.894-0.88-3.901c-0.587-1.007-1.511-1.511-2.772-1.511
		c-1.251,0-2.166,0.506-2.748,1.519c-0.58,1.013-0.871,2.311-0.871,3.893V378.451z"/>
	<path fill="#303030" d="M725.152,378.766c0,2.678-0.598,4.82-1.793,6.425c-1.195,1.605-2.922,2.407-5.18,2.407
		c-1.052,0-1.967-0.221-2.748-0.664c-0.779-0.443-1.441-1.09-1.983-1.942l-0.398,2.258h-4.101v-25.898h4.831v9.845
		c0.521-0.719,1.143-1.273,1.868-1.66c0.725-0.387,1.558-0.581,2.498-0.581c2.28,0,4.018,0.861,5.213,2.582
		c1.195,1.721,1.793,4.015,1.793,6.881V378.766z M720.321,378.417c0-1.749-0.257-3.135-0.772-4.159
		c-0.514-1.024-1.392-1.536-2.631-1.536c-0.753,0-1.389,0.158-1.909,0.473s-0.93,0.767-1.229,1.353v7.604
		c0.299,0.542,0.711,0.958,1.237,1.245c0.525,0.288,1.17,0.432,1.934,0.432c1.251,0,2.125-0.44,2.623-1.32s0.747-2.128,0.747-3.744
		V378.417z"/>
	<path fill="#303030" d="M727.394,378.102c0-2.678,0.747-4.873,2.241-6.583s3.563-2.565,6.209-2.565
		c2.656,0,4.737,0.852,6.242,2.557c1.505,1.705,2.258,3.901,2.258,6.591v0.349c0,2.701-0.75,4.9-2.25,6.599
		c-1.499,1.699-3.571,2.548-6.217,2.548c-2.656,0-4.734-0.849-6.234-2.548c-1.499-1.699-2.249-3.898-2.249-6.599V378.102z
		 M732.225,378.451c0,1.638,0.288,2.952,0.863,3.943c0.575,0.991,1.505,1.486,2.789,1.486c1.251,0,2.166-0.498,2.748-1.494
		c0.58-0.996,0.871-2.308,0.871-3.935v-0.349c0-1.594-0.293-2.894-0.88-3.901c-0.587-1.007-1.511-1.511-2.772-1.511
		c-1.251,0-2.166,0.506-2.748,1.519c-0.58,1.013-0.871,2.311-0.871,3.893V378.451z"/>
	<path fill="#303030" d="M753.143,364.887v4.399h3.038v3.403h-3.038v9.147c0,0.697,0.146,1.195,0.439,1.494
		c0.294,0.299,0.679,0.448,1.154,0.448c0.255,0,0.476-0.014,0.664-0.042c0.188-0.028,0.404-0.075,0.647-0.141l0.398,3.503
		c-0.487,0.166-0.96,0.291-1.419,0.374c-0.46,0.083-0.961,0.125-1.503,0.125c-1.671,0-2.958-0.459-3.86-1.378
		c-0.901-0.918-1.353-2.374-1.353-4.366v-9.164h-2.623v-3.403h2.623v-4.399H753.143z"/>
	<path fill="#303030" d="M758.422,378.102c0-2.678,0.747-4.873,2.241-6.583s3.563-2.565,6.209-2.565
		c2.656,0,4.737,0.852,6.242,2.557c1.505,1.705,2.258,3.901,2.258,6.591v0.349c0,2.701-0.75,4.9-2.25,6.599
		c-1.499,1.699-3.571,2.548-6.217,2.548c-2.656,0-4.734-0.849-6.234-2.548c-1.499-1.699-2.249-3.898-2.249-6.599V378.102z
		 M763.253,378.451c0,1.638,0.288,2.952,0.863,3.943c0.575,0.991,1.505,1.486,2.789,1.486c1.251,0,2.166-0.498,2.748-1.494
		c0.58-0.996,0.871-2.308,0.871-3.935v-0.349c0-1.594-0.293-2.894-0.88-3.901c-0.587-1.007-1.511-1.511-2.772-1.511
		c-1.251,0-2.166,0.506-2.748,1.519c-0.58,1.013-0.871,2.311-0.871,3.893V378.451z"/>
	<path fill="#303030" d="M787.192,387.25v-24.172h7.919c2.845,0,5.063,0.556,6.657,1.668s2.391,2.764,2.391,4.956
		c0,1.107-0.288,2.097-0.863,2.972c-0.575,0.875-1.417,1.533-2.523,1.976c1.505,0.277,2.64,0.93,3.403,1.959s1.146,2.23,1.146,3.603
		c0,2.313-0.764,4.065-2.291,5.254c-1.527,1.19-3.691,1.785-6.491,1.785H787.192z M792.04,373.205h3.237
		c1.295,0,2.291-0.266,2.988-0.797s1.046-1.306,1.046-2.324c0-1.118-0.352-1.942-1.055-2.474c-0.702-0.531-1.751-0.797-3.146-0.797
		h-3.071V373.205z M792.04,376.558v6.973h4.499c1.284,0,2.264-0.279,2.938-0.838c0.675-0.559,1.013-1.386,1.013-2.482
		c0-1.173-0.332-2.075-0.996-2.706s-1.666-0.946-3.005-0.946H792.04z"/>
	<path fill="#303030" d="M807.745,378.102c0-2.678,0.747-4.873,2.241-6.583s3.563-2.565,6.209-2.565
		c2.656,0,4.737,0.852,6.242,2.557c1.505,1.705,2.258,3.901,2.258,6.591v0.349c0,2.701-0.75,4.9-2.25,6.599
		c-1.499,1.699-3.571,2.548-6.217,2.548c-2.656,0-4.734-0.849-6.234-2.548c-1.499-1.699-2.249-3.898-2.249-6.599V378.102z
		 M812.576,378.451c0,1.638,0.288,2.952,0.863,3.943c0.575,0.991,1.505,1.486,2.789,1.486c1.251,0,2.166-0.498,2.748-1.494
		c0.58-0.996,0.871-2.308,0.871-3.935v-0.349c0-1.594-0.293-2.894-0.88-3.901c-0.587-1.007-1.511-1.511-2.772-1.511
		c-1.251,0-2.166,0.506-2.748,1.519c-0.58,1.013-0.871,2.311-0.871,3.893V378.451z"/>
	<path fill="#303030" d="M832.78,387.25h-4.848v-25.898h4.848V387.25z"/>
	<path fill="#303030" d="M836.018,378.417c0-2.833,0.611-5.119,1.835-6.856c1.223-1.738,2.946-2.606,5.171-2.606
		c0.896,0,1.704,0.194,2.424,0.581c0.72,0.387,1.351,0.941,1.893,1.66v-9.845h4.864v25.898h-4.134l-0.415-2.208
		c-0.564,0.83-1.234,1.464-2.009,1.901s-1.66,0.656-2.656,0.656c-2.202,0-3.915-0.808-5.138-2.424
		c-1.224-1.616-1.835-3.752-1.835-6.408V378.417z M840.849,378.766c0,1.572,0.266,2.809,0.797,3.71
		c0.531,0.902,1.395,1.353,2.59,1.353c0.697,0,1.306-0.141,1.826-0.423s0.946-0.694,1.278-1.237v-7.653
		c-0.332-0.564-0.755-1.004-1.271-1.32c-0.514-0.315-1.114-0.473-1.801-0.473c-1.185,0-2.051,0.526-2.598,1.577
		c-0.549,1.052-0.822,2.424-0.822,4.117V378.766z"/>
</g>
<polyline fill="none" stroke="#ABABAB" stroke-width="2" stroke-miterlimit="10" points="889.097,409.585 925.291,409.585 
	925.291,109.585 889.097,109.585 "/>
<g>
	<rect x="376" y="27.534" fill="none" width="156" height="31"/>
	<path fill="#ABABAB" d="M400.2,46.626h-5.196l-1.278,6.807h-1.66l1.278-6.807h-4.233v-1.544h4.516l1.378-7.321h-4.632v-1.594h4.931
		l1.312-6.906h1.66l-1.312,6.906h5.213l1.312-6.906h1.66l-1.312,6.906h3.802v1.594h-4.101l-1.378,7.321h4.233v1.544h-4.532
		l-1.278,6.807h-1.66L400.2,46.626z M395.286,45.082h5.213l1.378-7.321h-5.213L395.286,45.082z"/>
	<path fill="#ABABAB" d="M426.016,44.899c0,2.756-0.667,4.925-2,6.508c-1.334,1.583-3.163,2.374-5.487,2.374
		s-4.162-0.794-5.512-2.382c-1.351-1.588-2.025-3.755-2.025-6.5v-7.105c0-2.734,0.669-4.897,2.009-6.491
		c1.339-1.594,3.171-2.391,5.495-2.391s4.159,0.797,5.503,2.391s2.017,3.758,2.017,6.491V44.899z M424.023,37.478
		c0-2.114-0.479-3.788-1.436-5.022c-0.958-1.234-2.322-1.851-4.092-1.851c-1.771,0-3.135,0.62-4.092,1.859
		c-0.958,1.24-1.436,2.911-1.436,5.014v7.72c0,2.092,0.484,3.766,1.453,5.022c0.968,1.256,2.338,1.884,4.109,1.884
		c1.76,0,3.115-0.625,4.067-1.876c0.952-1.25,1.428-2.927,1.428-5.03V37.478z"/>
	<path fill="#ABABAB" d="M431.013,53.432V29.26h7.056c2.512,0,4.471,0.529,5.877,1.585c1.405,1.057,2.108,2.648,2.108,4.773
		c0,1.207-0.34,2.263-1.021,3.171c-0.681,0.908-1.597,1.55-2.748,1.926c1.527,0.188,2.775,0.852,3.744,1.992
		c0.968,1.14,1.453,2.474,1.453,4.001c0,2.158-0.7,3.818-2.1,4.98c-1.4,1.162-3.273,1.743-5.62,1.743H431.013z M433.005,40.101
		h5.811c1.671-0.033,2.963-0.434,3.876-1.204c0.913-0.769,1.37-1.884,1.37-3.345c0-1.527-0.509-2.676-1.527-3.445
		c-1.019-0.769-2.507-1.154-4.466-1.154h-5.063V40.101z M433.005,41.778v9.978h6.757c1.782,0,3.182-0.44,4.2-1.32
		c1.018-0.88,1.527-2.111,1.527-3.694c0-1.45-0.501-2.626-1.502-3.528c-1.002-0.902-2.344-1.381-4.026-1.436h-0.266H433.005z"/>
	<path fill="#ABABAB" d="M464.631,46.692h-10.608l-2.44,6.74h-2.059l8.882-24.172h1.876l8.815,24.172h-2.059L464.631,46.692z
		 M454.653,44.916h9.33l-4.582-12.816h-0.1L454.653,44.916z"/>
	<path fill="#ABABAB" d="M489.301,45.879l0.033,0.1c0.044,2.369-0.73,4.261-2.324,5.678c-1.594,1.417-3.686,2.125-6.275,2.125
		c-2.689,0-4.859-0.971-6.508-2.914c-1.649-1.942-2.474-4.458-2.474-7.545v-3.935c0-3.077,0.824-5.592,2.474-7.545
		c1.649-1.953,3.818-2.93,6.508-2.93c2.623,0,4.723,0.692,6.3,2.075c1.577,1.384,2.343,3.287,2.299,5.711l-0.033,0.1h-1.859
		c0-1.948-0.595-3.467-1.785-4.557c-1.19-1.09-2.831-1.635-4.922-1.635c-2.114,0-3.81,0.819-5.088,2.457
		c-1.278,1.638-1.917,3.735-1.917,6.292v3.968c0,2.59,0.639,4.701,1.917,6.333c1.278,1.633,2.974,2.449,5.088,2.449
		c2.092,0,3.732-0.531,4.922-1.594c1.189-1.062,1.785-2.606,1.785-4.632H489.301z"/>
	<path fill="#ABABAB" d="M511.099,45.879l0.033,0.1c0.044,2.369-0.73,4.261-2.324,5.678c-1.594,1.417-3.686,2.125-6.275,2.125
		c-2.689,0-4.859-0.971-6.508-2.914c-1.649-1.942-2.474-4.458-2.474-7.545v-3.935c0-3.077,0.824-5.592,2.474-7.545
		c1.649-1.953,3.818-2.93,6.508-2.93c2.623,0,4.723,0.692,6.3,2.075c1.577,1.384,2.343,3.287,2.299,5.711l-0.033,0.1h-1.859
		c0-1.948-0.595-3.467-1.785-4.557c-1.19-1.09-2.831-1.635-4.922-1.635c-2.114,0-3.81,0.819-5.088,2.457
		c-1.278,1.638-1.917,3.735-1.917,6.292v3.968c0,2.59,0.639,4.701,1.917,6.333c1.278,1.633,2.974,2.449,5.088,2.449
		c2.092,0,3.732-0.531,4.922-1.594c1.189-1.062,1.785-2.606,1.785-4.632H511.099z"/>
	<path fill="#ABABAB" d="M527.435,45.646h3.785v1.677h-3.785v6.109h-1.976v-6.109h-11.106v-1.129L525.26,29.26h2.175V45.646z
		 M516.71,45.646h8.749V31.867l-0.1-0.033l-0.847,1.81L516.71,45.646z"/>
</g>
<g>
	<g>
		<path fill="#ABABAB" d="M395.203,166.626h-5.196l-1.278,6.807h-1.66l1.278-6.807h-4.233v-1.544h4.516l1.378-7.321h-4.632v-1.594
			h4.931l1.312-6.906h1.66l-1.312,6.906h5.213l1.312-6.906h1.66l-1.312,6.906h3.802v1.594h-4.101l-1.378,7.321h4.233v1.544h-4.532
			l-1.278,6.807h-1.66L395.203,166.626z M390.289,165.082h5.213l1.378-7.321h-5.213L390.289,165.082z"/>
		<path fill="#ABABAB" d="M407.173,173.432V149.26h7.371c2.955,0,5.398,0.985,7.33,2.955c1.931,1.97,2.897,4.499,2.897,7.587v3.104
			c0,3.088-0.966,5.614-2.897,7.579c-1.932,1.965-4.375,2.947-7.33,2.947H407.173z M409.165,150.954v20.802h5.379
			c2.391,0,4.36-0.835,5.91-2.507c1.549-1.671,2.324-3.785,2.324-6.342v-3.154c0-2.523-0.778-4.621-2.333-6.292
			c-1.555-1.671-3.522-2.507-5.902-2.507H409.165z"/>
		<path fill="#ABABAB" d="M430.05,173.432V149.26h7.371c2.955,0,5.398,0.985,7.33,2.955c1.931,1.97,2.897,4.499,2.897,7.587v3.104
			c0,3.088-0.966,5.614-2.897,7.579c-1.932,1.965-4.375,2.947-7.33,2.947H430.05z M432.042,150.954v20.802h5.379
			c2.391,0,4.36-0.835,5.91-2.507c1.549-1.671,2.324-3.785,2.324-6.342v-3.154c0-2.523-0.778-4.621-2.333-6.292
			c-1.555-1.671-3.522-2.507-5.902-2.507H432.042z"/>
		<path fill="#ABABAB" d="M465.76,161.728h-10.841v10.027h12.534v1.677h-14.526V149.26h14.443v1.693h-12.451v9.081h10.841V161.728z"
			/>
		<path fill="#ABABAB" d="M471.67,173.432V149.26h7.371c2.955,0,5.398,0.985,7.33,2.955c1.931,1.97,2.897,4.499,2.897,7.587v3.104
			c0,3.088-0.966,5.614-2.897,7.579c-1.932,1.965-4.375,2.947-7.33,2.947H471.67z M473.662,150.954v20.802h5.379
			c2.391,0,4.36-0.835,5.91-2.507c1.549-1.671,2.324-3.785,2.324-6.342v-3.154c0-2.523-0.778-4.621-2.333-6.292
			c-1.555-1.671-3.522-2.507-5.902-2.507H473.662z"/>
		<path fill="#ABABAB" d="M507.38,161.728h-10.841v10.027h12.534v1.677h-14.526V149.26h14.443v1.693h-12.451v9.081h10.841V161.728z"
			/>
		<path fill="#ABABAB" d="M529.941,165.879l0.033,0.1c0.044,2.369-0.73,4.261-2.324,5.678c-1.594,1.417-3.686,2.125-6.275,2.125
			c-2.689,0-4.859-0.971-6.508-2.914c-1.649-1.942-2.474-4.458-2.474-7.545v-3.935c0-3.077,0.824-5.592,2.474-7.545
			c1.649-1.953,3.818-2.93,6.508-2.93c2.623,0,4.723,0.692,6.3,2.075c1.577,1.384,2.343,3.287,2.299,5.711l-0.033,0.1h-1.859
			c0-1.948-0.595-3.467-1.785-4.557c-1.19-1.09-2.831-1.635-4.922-1.635c-2.114,0-3.81,0.819-5.088,2.457
			c-1.278,1.638-1.917,3.735-1.917,6.292v3.968c0,2.59,0.639,4.701,1.917,6.333c1.278,1.633,2.974,2.449,5.088,2.449
			c2.092,0,3.732-0.531,4.922-1.594c1.189-1.062,1.785-2.606,1.785-4.632H529.941z"/>
	</g>
</g>
<g>
	<g>
		<path fill="#ABABAB" d="M404.301,286.626h-5.196l-1.278,6.807h-1.66l1.278-6.807h-4.233v-1.544h4.516l1.378-7.321h-4.632v-1.594
			h4.931l1.312-6.906h1.66l-1.312,6.906h5.213l1.312-6.906h1.66l-1.312,6.906h3.802v1.594h-4.101l-1.378,7.321h4.233v1.544h-4.532
			l-1.278,6.807h-1.66L404.301,286.626z M399.387,285.082h5.213l1.378-7.321h-5.213L399.387,285.082z"/>
		<path fill="#ABABAB" d="M429.104,281.728h-10.841v10.027h12.534v1.677h-14.526V269.26h14.443v1.693h-12.451v9.081h10.841V281.728z
			"/>
		<path fill="#ABABAB" d="M435.014,293.432V269.26h7.056c2.512,0,4.471,0.529,5.877,1.585c1.405,1.057,2.108,2.648,2.108,4.773
			c0,1.207-0.34,2.263-1.021,3.171c-0.681,0.908-1.597,1.55-2.748,1.926c1.527,0.188,2.775,0.852,3.744,1.992
			c0.968,1.14,1.453,2.474,1.453,4.001c0,2.158-0.7,3.818-2.1,4.98c-1.4,1.162-3.273,1.743-5.62,1.743H435.014z M437.006,280.101
			h5.811c1.671-0.033,2.963-0.434,3.876-1.204c0.913-0.769,1.37-1.884,1.37-3.345c0-1.527-0.509-2.676-1.527-3.445
			c-1.019-0.769-2.507-1.154-4.466-1.154h-5.063V280.101z M437.006,281.778v9.978h6.757c1.782,0,3.182-0.44,4.2-1.32
			c1.018-0.88,1.527-2.111,1.527-3.694c0-1.45-0.501-2.626-1.502-3.528c-1.002-0.902-2.344-1.381-4.026-1.436h-0.266H437.006z"/>
		<path fill="#ABABAB" d="M468.814,281.728h-10.841v10.027h12.534v1.677h-14.526V269.26h14.443v1.693h-12.451v9.081h10.841V281.728z
			"/>
		<path fill="#ABABAB" d="M474.725,293.432V269.26h7.371c2.955,0,5.398,0.985,7.33,2.955c1.931,1.97,2.897,4.499,2.897,7.587v3.104
			c0,3.088-0.966,5.614-2.897,7.579c-1.932,1.965-4.375,2.947-7.33,2.947H474.725z M476.717,270.954v20.802h5.379
			c2.391,0,4.36-0.835,5.91-2.507c1.549-1.671,2.324-3.785,2.324-6.342v-3.154c0-2.523-0.778-4.621-2.333-6.292
			c-1.555-1.671-3.522-2.507-5.902-2.507H476.717z"/>
		<path fill="#ABABAB" d="M510.435,281.728h-10.841v10.027h12.534v1.677h-14.526V269.26h14.443v1.693h-12.451v9.081h10.841V281.728z
			"/>
		<path fill="#ABABAB" d="M529.178,281.728h-10.841v10.027h12.534v1.677h-14.526V269.26h14.443v1.693h-12.451v9.081h10.841V281.728z
			"/>
	</g>
</g>
<g>
	<g>
		<path fill="#ABABAB" d="M405.347,406.626h-5.196l-1.278,6.807h-1.66l1.278-6.807h-4.233v-1.544h4.516l1.378-7.321h-4.632v-1.594
			h4.931l1.312-6.906h1.66l-1.312,6.906h5.213l1.312-6.906h1.66l-1.312,6.906h3.802v1.594h-4.101l-1.378,7.321h4.233v1.544h-4.532
			l-1.278,6.807h-1.66L405.347,406.626z M400.433,405.082h5.213l1.378-7.321h-5.213L400.433,405.082z"/>
		<path fill="#ABABAB" d="M430.415,402.11h-11.106v11.322h-1.992V389.26h14.792v1.693h-12.8v9.446h11.106V402.11z"/>
		<path fill="#ABABAB" d="M449.142,402.11h-11.106v11.322h-1.992V389.26h14.792v1.693h-12.8v9.446h11.106V402.11z"/>
		<path fill="#ABABAB" d="M454.77,413.432V389.26h7.371c2.955,0,5.398,0.985,7.33,2.955c1.931,1.97,2.897,4.499,2.897,7.587v3.104
			c0,3.088-0.966,5.614-2.897,7.579c-1.932,1.965-4.375,2.947-7.33,2.947H454.77z M456.762,390.954v20.802h5.379
			c2.391,0,4.36-0.835,5.91-2.507c1.549-1.671,2.324-3.785,2.324-6.342v-3.154c0-2.523-0.778-4.621-2.333-6.292
			c-1.555-1.671-3.522-2.507-5.902-2.507H456.762z"/>
		<path fill="#ABABAB" d="M490.745,402.11h-11.106v11.322h-1.992V389.26h14.792v1.693h-12.8v9.446h11.106V402.11z"/>
		<path fill="#ABABAB" d="M508.044,406.692h-10.608l-2.44,6.74h-2.059l8.882-24.172h1.876l8.815,24.172h-2.059L508.044,406.692z
			 M498.066,404.916h9.33l-4.582-12.816h-0.1L498.066,404.916z"/>
		<path fill="#ABABAB" d="M527.435,405.646h3.785v1.677h-3.785v6.109h-1.976v-6.109h-11.106v-1.129l10.907-16.934h2.175V405.646z
			 M516.71,405.646h8.749v-13.779l-0.1-0.033l-0.847,1.81L516.71,405.646z"/>
	</g>
</g>
<g>
	<g>
		<path fill="#ABABAB" d="M408.169,526.626h-5.196l-1.278,6.807h-1.66l1.278-6.807h-4.233v-1.544h4.516l1.378-7.321h-4.632v-1.594
			h4.931l1.312-6.906h1.66l-1.312,6.906h5.213l1.312-6.906h1.66l-1.312,6.906h3.802v1.594h-4.101l-1.378,7.321h4.233v1.544h-4.532
			l-1.278,6.807h-1.66L408.169,526.626z M403.255,525.082h5.213l1.378-7.321h-5.213L403.255,525.082z"/>
		<path fill="#ABABAB" d="M433.237,522.11h-11.106v11.322h-1.992V509.26h14.792v1.693h-12.8v9.446h11.106V522.11z"/>
		<path fill="#ABABAB" d="M444.377,532.104c1.771,0,3.182-0.586,4.233-1.76c1.051-1.173,1.577-2.811,1.577-4.914v-3.52
			c-0.587,0.985-1.37,1.743-2.349,2.274s-2.062,0.797-3.246,0.797c-2.191,0-3.949-0.728-5.271-2.183
			c-1.323-1.455-1.984-3.351-1.984-5.686c0-2.357,0.691-4.313,2.075-5.869c1.383-1.555,3.115-2.333,5.196-2.333
			c2.28,0,4.123,0.747,5.528,2.241c1.405,1.494,2.108,3.619,2.108,6.375v7.869c0,2.623-0.728,4.676-2.183,6.159
			c-1.456,1.483-3.351,2.225-5.686,2.225c-0.83,0-1.668-0.089-2.515-0.266s-1.668-0.437-2.465-0.78l0.365-1.61
			c0.73,0.354,1.447,0.606,2.15,0.755C442.614,532.03,443.436,532.104,444.377,532.104z M444.593,523.305
			c1.405,0,2.59-0.354,3.553-1.062c0.963-0.708,1.644-1.583,2.042-2.623v-2.308c0-2.147-0.498-3.802-1.494-4.964
			s-2.33-1.743-4.001-1.743c-1.561,0-2.833,0.625-3.818,1.876c-0.985,1.251-1.478,2.795-1.478,4.632
			c0,1.771,0.462,3.246,1.386,4.424C441.707,522.716,442.977,523.305,444.593,523.305z"/>
		<path fill="#ABABAB" d="M470.358,526.692H459.75l-2.44,6.74h-2.059l8.882-24.172h1.876l8.815,24.172h-2.059L470.358,526.692z
			 M460.381,524.916h9.33l-4.582-12.816h-0.1L460.381,524.916z"/>
		<path fill="#ABABAB" d="M484.071,532.104c1.771,0,3.182-0.586,4.233-1.76c1.051-1.173,1.577-2.811,1.577-4.914v-3.52
			c-0.587,0.985-1.37,1.743-2.349,2.274s-2.062,0.797-3.246,0.797c-2.191,0-3.949-0.728-5.271-2.183
			c-1.323-1.455-1.984-3.351-1.984-5.686c0-2.357,0.691-4.313,2.075-5.869c1.383-1.555,3.115-2.333,5.196-2.333
			c2.28,0,4.123,0.747,5.528,2.241c1.405,1.494,2.108,3.619,2.108,6.375v7.869c0,2.623-0.728,4.676-2.183,6.159
			c-1.456,1.483-3.351,2.225-5.686,2.225c-0.83,0-1.668-0.089-2.515-0.266s-1.668-0.437-2.465-0.78l0.365-1.61
			c0.73,0.354,1.447,0.606,2.15,0.755C482.309,532.03,483.13,532.104,484.071,532.104z M484.287,523.305
			c1.405,0,2.59-0.354,3.553-1.062c0.963-0.708,1.644-1.583,2.042-2.623v-2.308c0-2.147-0.498-3.802-1.494-4.964
			s-2.33-1.743-4.001-1.743c-1.561,0-2.833,0.625-3.818,1.876c-0.985,1.251-1.478,2.795-1.478,4.632
			c0,1.771,0.462,3.246,1.386,4.424C481.401,522.716,482.671,523.305,484.287,523.305z"/>
		<path fill="#ABABAB" d="M511.547,510.954c-2.712,3.166-4.751,6.333-6.118,9.504c-1.367,3.171-2.05,6.699-2.05,10.583v2.391h-1.992
			v-2.391c0-3.84,0.711-7.393,2.133-10.658c1.422-3.265,3.412-6.408,5.968-9.43h-13.663v-1.693h15.722V510.954z"/>
		<path fill="#ABABAB" d="M530.091,524.899c0,2.756-0.667,4.925-2,6.508c-1.334,1.583-3.163,2.374-5.487,2.374
			s-4.162-0.794-5.512-2.382c-1.351-1.588-2.025-3.755-2.025-6.5v-7.105c0-2.734,0.669-4.897,2.009-6.491
			c1.339-1.594,3.171-2.391,5.495-2.391s4.159,0.797,5.503,2.391s2.017,3.758,2.017,6.491V524.899z M528.099,517.478
			c0-2.114-0.479-3.788-1.436-5.022c-0.958-1.234-2.322-1.851-4.092-1.851c-1.771,0-3.135,0.62-4.092,1.859
			c-0.958,1.24-1.436,2.911-1.436,5.014v7.72c0,2.092,0.484,3.766,1.453,5.022c0.968,1.256,2.338,1.884,4.109,1.884
			c1.76,0,3.115-0.625,4.067-1.876c0.952-1.25,1.428-2.927,1.428-5.03V517.478z"/>
	</g>
</g>
</svg>